<?xml version="1.0" encoding="us-ascii" standalone="no"?><svg xmlns="http://www.w3.org/2000/svg" xmlns:xlink="http://www.w3.org/1999/xlink" contentStyleType="text/css" height="571px" preserveAspectRatio="none" style="width:850px;height:571px;background:#FFFFFF;" version="1.1" viewBox="0 0 850 571" width="850px" zoomAndPan="magnify"><defs/><g><rect fill="#FFFFFF" height="377.2012" style="stroke:#181818;stroke-width:1.0;" width="10" x="78.5" y="93.6211"/><rect fill="#FFFFFF" height="353.9102" style="stroke:#181818;stroke-width:1.0;" width="10" x="567.5" y="116.9121"/><rect fill="none" height="81.873" style="stroke:#000000;stroke-width:1.5;" width="604.5" x="10" y="314.3672"/><line style="stroke:#181818;stroke-width:0.5;stroke-dasharray:5.0,5.0;" x1="83" x2="83" y1="83.6211" y2="488.8223"/><line style="stroke:#181818;stroke-width:0.5;stroke-dasharray:5.0,5.0;" x1="572.5" x2="572.5" y1="83.6211" y2="488.8223"/><text fill="#000000" font-family="sans-serif" font-size="14" lengthAdjust="spacing" textLength="117" x="24" y="80.1074">CustomerManager</text><ellipse cx="83.5" cy="13.5" fill="#E2E2F0" rx="8" ry="8" style="stroke:#181818;stroke-width:0.5;"/><path d="M83.5,21.5 L83.5,48.5 M70.5,29.5 L96.5,29.5 M83.5,48.5 L70.5,63.5 M83.5,48.5 L96.5,63.5 " fill="none" style="stroke:#181818;stroke-width:0.5;"/><text fill="#000000" font-family="sans-serif" font-size="14" lengthAdjust="spacing" textLength="117" x="24" y="502.9297">CustomerManager</text><ellipse cx="83.5" cy="514.9434" fill="#E2E2F0" rx="8" ry="8" style="stroke:#181818;stroke-width:0.5;"/><path d="M83.5,522.9434 L83.5,549.9434 M70.5,530.9434 L96.5,530.9434 M83.5,549.9434 L70.5,564.9434 M83.5,549.9434 L96.5,564.9434 " fill="none" style="stroke:#181818;stroke-width:0.5;"/><rect fill="#E2E2F0" height="32.6211" rx="2.5" ry="2.5" style="stroke:#181818;stroke-width:0.5;" width="64" x="540.5" y="50"/><text fill="#000000" font-family="sans-serif" font-size="14" lengthAdjust="spacing" textLength="50" x="547.5" y="72.1074">:System</text><rect fill="#E2E2F0" height="32.6211" rx="2.5" ry="2.5" style="stroke:#181818;stroke-width:0.5;" width="64" x="540.5" y="487.8223"/><text fill="#000000" font-family="sans-serif" font-size="14" lengthAdjust="spacing" textLength="50" x="547.5" y="509.9297">:System</text><rect fill="#FFFFFF" height="377.2012" style="stroke:#181818;stroke-width:1.0;" width="10" x="78.5" y="93.6211"/><rect fill="#FFFFFF" height="353.9102" style="stroke:#181818;stroke-width:1.0;" width="10" x="567.5" y="116.9121"/><polygon fill="#181818" points="555.5,112.9121,565.5,116.9121,555.5,120.9121,559.5,116.9121" style="stroke:#181818;stroke-width:1.0;"/><line style="stroke:#181818;stroke-width:1.0;" x1="88.5" x2="561.5" y1="116.9121" y2="116.9121"/><text fill="#000000" font-family="sans-serif" font-size="13" font-weight="bold" lengthAdjust="spacing" textLength="7" x="95.5" y="111.6494">1</text><text fill="#000000" font-family="sans-serif" font-size="13" lengthAdjust="spacing" textLength="324" x="106.5" y="111.6494">asks the system to rank all Candidates of a JobOpening</text><line style="stroke:#181818;stroke-width:1.0;stroke-dasharray:2.0,2.0;" x1="577.5" x2="619.5" y1="148.2031" y2="148.2031"/><line style="stroke:#181818;stroke-width:1.0;stroke-dasharray:2.0,2.0;" x1="619.5" x2="619.5" y1="148.2031" y2="161.2031"/><line style="stroke:#181818;stroke-width:1.0;stroke-dasharray:2.0,2.0;" x1="578.5" x2="619.5" y1="161.2031" y2="161.2031"/><polygon fill="#181818" points="588.5,157.2031,578.5,161.2031,588.5,165.2031,584.5,161.2031" style="stroke:#181818;stroke-width:1.0;"/><text fill="#000000" font-family="sans-serif" font-size="13" font-weight="bold" lengthAdjust="spacing" textLength="7" x="584.5" y="142.9404">2</text><text fill="#000000" font-family="sans-serif" font-size="13" lengthAdjust="spacing" textLength="134" x="595.5" y="142.9404">find list of JobOpenings</text><polygon fill="#181818" points="99.5,188.4941,89.5,192.4941,99.5,196.4941,95.5,192.4941" style="stroke:#181818;stroke-width:1.0;"/><line style="stroke:#181818;stroke-width:1.0;stroke-dasharray:2.0,2.0;" x1="93.5" x2="566.5" y1="192.4941" y2="192.4941"/><text fill="#000000" font-family="sans-serif" font-size="13" font-weight="bold" lengthAdjust="spacing" textLength="7" x="105.5" y="187.2314">3</text><text fill="#000000" font-family="sans-serif" font-size="13" lengthAdjust="spacing" textLength="444" x="116.5" y="187.2314">shows the list of JobOpenings and request to type the number of one of them</text><polygon fill="#181818" points="555.5,219.7852,565.5,223.7852,555.5,227.7852,559.5,223.7852" style="stroke:#181818;stroke-width:1.0;"/><line style="stroke:#181818;stroke-width:1.0;" x1="88.5" x2="561.5" y1="223.7852" y2="223.7852"/><text fill="#000000" font-family="sans-serif" font-size="13" font-weight="bold" lengthAdjust="spacing" textLength="7" x="95.5" y="218.5225">4</text><text fill="#000000" font-family="sans-serif" font-size="13" lengthAdjust="spacing" textLength="72" x="106.5" y="218.5225">type number</text><line style="stroke:#181818;stroke-width:1.0;stroke-dasharray:2.0,2.0;" x1="577.5" x2="619.5" y1="255.0762" y2="255.0762"/><line style="stroke:#181818;stroke-width:1.0;stroke-dasharray:2.0,2.0;" x1="619.5" x2="619.5" y1="255.0762" y2="268.0762"/><line style="stroke:#181818;stroke-width:1.0;stroke-dasharray:2.0,2.0;" x1="578.5" x2="619.5" y1="268.0762" y2="268.0762"/><polygon fill="#181818" points="588.5,264.0762,578.5,268.0762,588.5,272.0762,584.5,268.0762" style="stroke:#181818;stroke-width:1.0;"/><text fill="#000000" font-family="sans-serif" font-size="13" font-weight="bold" lengthAdjust="spacing" textLength="7" x="584.5" y="249.8135">5</text><text fill="#000000" font-family="sans-serif" font-size="13" lengthAdjust="spacing" textLength="248" x="595.5" y="249.8135">find list of Applications in this JobOpenings</text><polygon fill="#181818" points="99.5,295.3672,89.5,299.3672,99.5,303.3672,95.5,299.3672" style="stroke:#181818;stroke-width:1.0;"/><line style="stroke:#181818;stroke-width:1.0;stroke-dasharray:2.0,2.0;" x1="93.5" x2="566.5" y1="299.3672" y2="299.3672"/><text fill="#000000" font-family="sans-serif" font-size="13" font-weight="bold" lengthAdjust="spacing" textLength="7" x="105.5" y="294.1045">6</text><text fill="#000000" font-family="sans-serif" font-size="13" lengthAdjust="spacing" textLength="277" x="116.5" y="294.1045">shows the list of Applications of the JobOpening</text><path d="M10,314.3672 L83,314.3672 L83,323.6582 L73,333.6582 L10,333.6582 L10,314.3672 " fill="#EEEEEE" style="stroke:#000000;stroke-width:1.5;"/><rect fill="none" height="81.873" style="stroke:#000000;stroke-width:1.5;" width="604.5" x="10" y="314.3672"/><text fill="#000000" font-family="sans-serif" font-size="13" font-weight="bold" lengthAdjust="spacing" textLength="28" x="25" y="329.3955">loop</text><text fill="#000000" font-family="sans-serif" font-size="11" font-weight="bold" lengthAdjust="spacing" textLength="257" x="98" y="328.2373">[for each (numberVacantion+extraVacantions)]</text><polygon fill="#181818" points="99.5,352.9492,89.5,356.9492,99.5,360.9492,95.5,356.9492" style="stroke:#181818;stroke-width:1.0;"/><line style="stroke:#181818;stroke-width:1.0;stroke-dasharray:2.0,2.0;" x1="93.5" x2="566.5" y1="356.9492" y2="356.9492"/><text fill="#000000" font-family="sans-serif" font-size="13" font-weight="bold" lengthAdjust="spacing" textLength="7" x="105.5" y="351.6865">7</text><text fill="#000000" font-family="sans-serif" font-size="13" lengthAdjust="spacing" textLength="287" x="116.5" y="351.6865">request enter the number X application of the rank</text><polygon fill="#181818" points="555.5,384.2402,565.5,388.2402,555.5,392.2402,559.5,388.2402" style="stroke:#181818;stroke-width:1.0;"/><line style="stroke:#181818;stroke-width:1.0;" x1="88.5" x2="561.5" y1="388.2402" y2="388.2402"/><text fill="#000000" font-family="sans-serif" font-size="13" font-weight="bold" lengthAdjust="spacing" textLength="7" x="95.5" y="382.9775">8</text><text fill="#000000" font-family="sans-serif" font-size="13" lengthAdjust="spacing" textLength="72" x="106.5" y="382.9775">type number</text><line style="stroke:#181818;stroke-width:1.0;stroke-dasharray:2.0,2.0;" x1="577.5" x2="619.5" y1="426.5313" y2="426.5313"/><line style="stroke:#181818;stroke-width:1.0;stroke-dasharray:2.0,2.0;" x1="619.5" x2="619.5" y1="426.5313" y2="439.5313"/><line style="stroke:#181818;stroke-width:1.0;stroke-dasharray:2.0,2.0;" x1="578.5" x2="619.5" y1="439.5313" y2="439.5313"/><polygon fill="#181818" points="588.5,435.5313,578.5,439.5313,588.5,443.5313,584.5,439.5313" style="stroke:#181818;stroke-width:1.0;"/><text fill="#000000" font-family="sans-serif" font-size="13" font-weight="bold" lengthAdjust="spacing" textLength="7" x="584.5" y="421.2686">9</text><text fill="#000000" font-family="sans-serif" font-size="13" lengthAdjust="spacing" textLength="77" x="595.5" y="421.2686">save the rank</text><polygon fill="#181818" points="94.5,466.8223,84.5,470.8223,94.5,474.8223,90.5,470.8223" style="stroke:#181818;stroke-width:1.0;"/><line style="stroke:#181818;stroke-width:1.0;stroke-dasharray:2.0,2.0;" x1="88.5" x2="571.5" y1="470.8223" y2="470.8223"/><text fill="#000000" font-family="sans-serif" font-size="13" font-weight="bold" lengthAdjust="spacing" textLength="14" x="100.5" y="465.5596">10</text><text fill="#000000" font-family="sans-serif" font-size="13" lengthAdjust="spacing" textLength="219" x="118.5" y="465.5596">informs operation success/unsuccess</text><!--SRC=[bL9BJuH03BxFhsWuQSp6EmSJmys4UDZ4UEr2MIOB7PmEg_llxO0iI8WFBZ2TVez-1VlWk6yFv8t18ZWFMGuea43MIt0j-HmPZ-IJuTwUCP2s6ADjkmT8qlr50hK9f8ew2OIQG8OI10SU-GJOD90XbxPKh82h0E797PuxOil7cVNAPMRMtKgZibn2OoL4cfb4rf0iJrAGshsFZZOGe8x0qrjFUgLMmwMZeNTC8tOxflZIOcjCf5nFF62czFve-h7h6bjWi8u5B2kxbHycqPYt1ld6CdfSPceQvpgeT9k4HGqteySNB90Zv8u-WiVhKMwtHATiY8F6iKZc5N1MdyJZfd_DY68EwipyR-c2Pvf5jhnQrbbRJQ8ZFzgIlYX8vBxdhozJqeQeFekw_jUV]--></g></svg>