<?xml version="1.0" encoding="us-ascii" standalone="no"?><svg xmlns="http://www.w3.org/2000/svg" xmlns:xlink="http://www.w3.org/1999/xlink" contentStyleType="text/css" height="848px" preserveAspectRatio="none" style="width:4243px;height:848px;background:#FFFFFF;" version="1.1" viewBox="0 0 4243 848" width="4243px" zoomAndPan="magnify"><defs/><g><text fill="#000000" font-family="sans-serif" font-size="14" font-weight="bold" lengthAdjust="spacing" textLength="246" x="1997.75" y="28.5352">US 1002 - Register a Job Opening</text><rect fill="#FFFFFF" height="620.5215" style="stroke:#181818;stroke-width:1.0;" width="10" x="34" y="128.9766"/><rect fill="#FFFFFF" height="29.3105" style="stroke:#181818;stroke-width:1.0;" width="10" x="537" y="150.2871"/><rect fill="#FFFFFF" height="29.3105" style="stroke:#181818;stroke-width:1.0;" width="10" x="537" y="208.9082"/><rect fill="#FFFFFF" height="29.3105" style="stroke:#181818;stroke-width:1.0;" width="10" x="537" y="267.5293"/><rect fill="#FFFFFF" height="423.3477" style="stroke:#181818;stroke-width:1.0;" width="10" x="537" y="326.1504"/><rect fill="#FFFFFF" height="364.7266" style="stroke:#181818;stroke-width:1.0;" width="10" x="1182" y="355.4609"/><rect fill="#FFFFFF" height="87.9316" style="stroke:#181818;stroke-width:1.0;" width="10" x="2992" y="544.3242"/><rect fill="#FFFFFF" height="29.3105" style="stroke:#181818;stroke-width:1.0;" width="10" x="3832" y="573.6348"/><rect fill="#FFFFFF" height="29.3105" style="stroke:#181818;stroke-width:1.0;" width="10" x="3975.5" y="661.5664"/><rect fill="#FFFFFF" height="29.3105" style="stroke:#181818;stroke-width:1.0;" width="10" x="4152" y="384.7715"/><rect fill="#FFFFFF" height="29.3105" style="stroke:#181818;stroke-width:1.0;" width="10" x="4152" y="485.7031"/><line style="stroke:#181818;stroke-width:0.5;stroke-dasharray:5.0,5.0;" x1="39" x2="39" y1="118.9766" y2="767.498"/><line style="stroke:#181818;stroke-width:0.5;stroke-dasharray:5.0,5.0;" x1="541.5" x2="541.5" y1="118.9766" y2="767.498"/><line style="stroke:#181818;stroke-width:0.5;stroke-dasharray:5.0,5.0;" x1="1186.5" x2="1186.5" y1="118.9766" y2="767.498"/><line style="stroke:#181818;stroke-width:0.5;stroke-dasharray:5.0,5.0;" x1="1378.5" x2="1378.5" y1="118.9766" y2="767.498"/><line style="stroke:#181818;stroke-width:0.5;stroke-dasharray:5.0,5.0;" x1="1506.5" x2="1506.5" y1="118.9766" y2="767.498"/><line style="stroke:#181818;stroke-width:0.5;stroke-dasharray:5.0,5.0;" x1="1653.5" x2="1653.5" y1="118.9766" y2="767.498"/><line style="stroke:#181818;stroke-width:0.5;stroke-dasharray:5.0,5.0;" x1="2996.5" x2="2996.5" y1="118.9766" y2="767.498"/><line style="stroke:#181818;stroke-width:0.5;stroke-dasharray:5.0,5.0;" x1="3836.5" x2="3836.5" y1="118.9766" y2="767.498"/><line style="stroke:#181818;stroke-width:0.5;stroke-dasharray:5.0,5.0;" x1="3980.5" x2="3980.5" y1="118.9766" y2="767.498"/><line style="stroke:#181818;stroke-width:0.5;stroke-dasharray:5.0,5.0;" x1="4156.5" x2="4156.5" y1="118.9766" y2="767.498"/><text fill="#000000" font-family="sans-serif" font-size="14" lengthAdjust="spacing" textLength="62" x="5" y="116.0234">Operator</text><ellipse cx="39" cy="50.9883" fill="#E2E2F0" rx="8" ry="8" style="stroke:#181818;stroke-width:0.5;"/><path d="M39,58.9883 L39,85.9883 M26,66.9883 L52,66.9883 M39,85.9883 L26,100.9883 M39,85.9883 L52,100.9883 " fill="none" style="stroke:#181818;stroke-width:0.5;"/><text fill="#000000" font-family="sans-serif" font-size="14" lengthAdjust="spacing" textLength="62" x="5" y="780.0332">Operator</text><ellipse cx="39" cy="791.4863" fill="#E2E2F0" rx="8" ry="8" style="stroke:#181818;stroke-width:0.5;"/><path d="M39,799.4863 L39,826.4863 M26,807.4863 L52,807.4863 M39,826.4863 L26,841.4863 M39,826.4863 L52,841.4863 " fill="none" style="stroke:#181818;stroke-width:0.5;"/><rect fill="#E2E2F0" height="46.9766" rx="2.5" ry="2.5" style="stroke:#181818;stroke-width:0.5;" width="141" x="471.5" y="71"/><text fill="#000000" font-family="sans-serif" font-size="14" font-style="italic" lengthAdjust="spacing" textLength="101" x="491.5" y="91.5352">&#171;presentation&#187;</text><text fill="#000000" font-family="sans-serif" font-size="14" lengthAdjust="spacing" textLength="127" x="478.5" y="108.0234">:AddJobOpeningUI</text><rect fill="#E2E2F0" height="46.9766" rx="2.5" ry="2.5" style="stroke:#181818;stroke-width:0.5;" width="141" x="471.5" y="766.498"/><text fill="#000000" font-family="sans-serif" font-size="14" font-style="italic" lengthAdjust="spacing" textLength="101" x="491.5" y="787.0332">&#171;presentation&#187;</text><text fill="#000000" font-family="sans-serif" font-size="14" lengthAdjust="spacing" textLength="127" x="478.5" y="803.5215">:AddJobOpeningUI</text><rect fill="#E2E2F0" height="46.9766" rx="2.5" ry="2.5" style="stroke:#181818;stroke-width:0.5;" width="197" x="1088.5" y="71"/><text fill="#000000" font-family="sans-serif" font-size="14" font-style="italic" lengthAdjust="spacing" textLength="90" x="1142" y="91.5352">&#171;application&#187;</text><text fill="#000000" font-family="sans-serif" font-size="14" lengthAdjust="spacing" textLength="183" x="1095.5" y="108.0234">:AddJobOpeningController</text><rect fill="#E2E2F0" height="46.9766" rx="2.5" ry="2.5" style="stroke:#181818;stroke-width:0.5;" width="197" x="1088.5" y="766.498"/><text fill="#000000" font-family="sans-serif" font-size="14" font-style="italic" lengthAdjust="spacing" textLength="90" x="1142" y="787.0332">&#171;application&#187;</text><text fill="#000000" font-family="sans-serif" font-size="14" lengthAdjust="spacing" textLength="183" x="1095.5" y="803.5215">:AddJobOpeningController</text><rect fill="#E2E2F0" height="46.9766" rx="2.5" ry="2.5" style="stroke:#181818;stroke-width:0.5;" width="147" x="1305.5" y="71"/><text fill="#000000" font-family="sans-serif" font-size="14" font-style="italic" lengthAdjust="spacing" textLength="90" x="1334" y="91.5352">&#171;application&#187;</text><text fill="#000000" font-family="sans-serif" font-size="14" lengthAdjust="spacing" textLength="133" x="1312.5" y="108.0234">:AddUserController</text><rect fill="#E2E2F0" height="46.9766" rx="2.5" ry="2.5" style="stroke:#181818;stroke-width:0.5;" width="147" x="1305.5" y="766.498"/><text fill="#000000" font-family="sans-serif" font-size="14" font-style="italic" lengthAdjust="spacing" textLength="90" x="1334" y="787.0332">&#171;application&#187;</text><text fill="#000000" font-family="sans-serif" font-size="14" lengthAdjust="spacing" textLength="133" x="1312.5" y="803.5215">:AddUserController</text><rect fill="#E2E2F0" height="46.9766" rx="2.5" ry="2.5" style="stroke:#181818;stroke-width:0.5;" width="88" x="1462.5" y="71"/><text fill="#000000" font-family="sans-serif" font-size="14" font-style="italic" lengthAdjust="spacing" textLength="61" x="1476" y="91.5352">&#171;service&#187;</text><text fill="#000000" font-family="sans-serif" font-size="14" lengthAdjust="spacing" textLength="74" x="1469.5" y="108.0234">:JobService</text><rect fill="#E2E2F0" height="46.9766" rx="2.5" ry="2.5" style="stroke:#181818;stroke-width:0.5;" width="88" x="1462.5" y="766.498"/><text fill="#000000" font-family="sans-serif" font-size="14" font-style="italic" lengthAdjust="spacing" textLength="61" x="1476" y="787.0332">&#171;service&#187;</text><text fill="#000000" font-family="sans-serif" font-size="14" lengthAdjust="spacing" textLength="74" x="1469.5" y="803.5215">:JobService</text><rect fill="#E2E2F0" height="46.9766" rx="2.5" ry="2.5" style="stroke:#181818;stroke-width:0.5;" width="186" x="1560.5" y="71"/><text fill="#000000" font-family="sans-serif" font-size="14" font-style="italic" lengthAdjust="spacing" textLength="61" x="1623" y="91.5352">&#171;service&#187;</text><text fill="#000000" font-family="sans-serif" font-size="14" lengthAdjust="spacing" textLength="172" x="1567.5" y="108.0234">:UserManagementService</text><rect fill="#E2E2F0" height="46.9766" rx="2.5" ry="2.5" style="stroke:#181818;stroke-width:0.5;" width="186" x="1560.5" y="766.498"/><text fill="#000000" font-family="sans-serif" font-size="14" font-style="italic" lengthAdjust="spacing" textLength="61" x="1623" y="787.0332">&#171;service&#187;</text><text fill="#000000" font-family="sans-serif" font-size="14" lengthAdjust="spacing" textLength="172" x="1567.5" y="803.5215">:UserManagementService</text><rect fill="#E2E2F0" height="46.9766" rx="2.5" ry="2.5" style="stroke:#181818;stroke-width:0.5;" width="143" x="2925.5" y="71"/><text fill="#000000" font-family="sans-serif" font-size="14" font-style="italic" lengthAdjust="spacing" textLength="66" x="2964" y="91.5352">&#171;domain&#187;</text><text fill="#000000" font-family="sans-serif" font-size="14" lengthAdjust="spacing" textLength="129" x="2932.5" y="108.0234">JobOpeningBuilder</text><rect fill="#E2E2F0" height="46.9766" rx="2.5" ry="2.5" style="stroke:#181818;stroke-width:0.5;" width="143" x="2925.5" y="766.498"/><text fill="#000000" font-family="sans-serif" font-size="14" font-style="italic" lengthAdjust="spacing" textLength="66" x="2964" y="787.0332">&#171;domain&#187;</text><text fill="#000000" font-family="sans-serif" font-size="14" lengthAdjust="spacing" textLength="129" x="2932.5" y="803.5215">JobOpeningBuilder</text><rect fill="#E2E2F0" height="46.9766" rx="2.5" ry="2.5" style="stroke:#181818;stroke-width:0.5;" width="95" x="3789.5" y="71"/><text fill="#000000" font-family="sans-serif" font-size="14" font-style="italic" lengthAdjust="spacing" textLength="66" x="3804" y="91.5352">&#171;domain&#187;</text><text fill="#000000" font-family="sans-serif" font-size="14" lengthAdjust="spacing" textLength="81" x="3796.5" y="108.0234">JobOpening</text><rect fill="#E2E2F0" height="46.9766" rx="2.5" ry="2.5" style="stroke:#181818;stroke-width:0.5;" width="95" x="3789.5" y="766.498"/><text fill="#000000" font-family="sans-serif" font-size="14" font-style="italic" lengthAdjust="spacing" textLength="66" x="3804" y="787.0332">&#171;domain&#187;</text><text fill="#000000" font-family="sans-serif" font-size="14" lengthAdjust="spacing" textLength="81" x="3796.5" y="803.5215">JobOpening</text><rect fill="#E2E2F0" height="46.9766" rx="2.5" ry="2.5" style="stroke:#181818;stroke-width:0.5;" width="172" x="3894.5" y="71"/><text fill="#000000" font-family="sans-serif" font-size="14" font-style="italic" lengthAdjust="spacing" textLength="84" x="3938.5" y="91.5352">&#171;repository&#187;</text><text fill="#000000" font-family="sans-serif" font-size="14" lengthAdjust="spacing" textLength="158" x="3901.5" y="108.0234">:JobOpeningRepository</text><rect fill="#E2E2F0" height="46.9766" rx="2.5" ry="2.5" style="stroke:#181818;stroke-width:0.5;" width="172" x="3894.5" y="766.498"/><text fill="#000000" font-family="sans-serif" font-size="14" font-style="italic" lengthAdjust="spacing" textLength="84" x="3938.5" y="787.0332">&#171;repository&#187;</text><text fill="#000000" font-family="sans-serif" font-size="14" lengthAdjust="spacing" textLength="158" x="3901.5" y="803.5215">:JobOpeningRepository</text><rect fill="#E2E2F0" height="46.9766" rx="2.5" ry="2.5" style="stroke:#181818;stroke-width:0.5;" width="161" x="4076.5" y="71"/><text fill="#000000" font-family="sans-serif" font-size="14" font-style="italic" lengthAdjust="spacing" textLength="61" x="4126.5" y="91.5352">&#171;service&#187;</text><text fill="#000000" font-family="sans-serif" font-size="14" lengthAdjust="spacing" textLength="147" x="4083.5" y="108.0234">:AuthorizationService</text><rect fill="#E2E2F0" height="46.9766" rx="2.5" ry="2.5" style="stroke:#181818;stroke-width:0.5;" width="161" x="4076.5" y="766.498"/><text fill="#000000" font-family="sans-serif" font-size="14" font-style="italic" lengthAdjust="spacing" textLength="61" x="4126.5" y="787.0332">&#171;service&#187;</text><text fill="#000000" font-family="sans-serif" font-size="14" lengthAdjust="spacing" textLength="147" x="4083.5" y="803.5215">:AuthorizationService</text><rect fill="#FFFFFF" height="620.5215" style="stroke:#181818;stroke-width:1.0;" width="10" x="34" y="128.9766"/><rect fill="#FFFFFF" height="29.3105" style="stroke:#181818;stroke-width:1.0;" width="10" x="537" y="150.2871"/><rect fill="#FFFFFF" height="29.3105" style="stroke:#181818;stroke-width:1.0;" width="10" x="537" y="208.9082"/><rect fill="#FFFFFF" height="29.3105" style="stroke:#181818;stroke-width:1.0;" width="10" x="537" y="267.5293"/><rect fill="#FFFFFF" height="423.3477" style="stroke:#181818;stroke-width:1.0;" width="10" x="537" y="326.1504"/><rect fill="#FFFFFF" height="364.7266" style="stroke:#181818;stroke-width:1.0;" width="10" x="1182" y="355.4609"/><rect fill="#FFFFFF" height="87.9316" style="stroke:#181818;stroke-width:1.0;" width="10" x="2992" y="544.3242"/><rect fill="#FFFFFF" height="29.3105" style="stroke:#181818;stroke-width:1.0;" width="10" x="3832" y="573.6348"/><rect fill="#FFFFFF" height="29.3105" style="stroke:#181818;stroke-width:1.0;" width="10" x="3975.5" y="661.5664"/><rect fill="#FFFFFF" height="29.3105" style="stroke:#181818;stroke-width:1.0;" width="10" x="4152" y="384.7715"/><rect fill="#FFFFFF" height="29.3105" style="stroke:#181818;stroke-width:1.0;" width="10" x="4152" y="485.7031"/><polygon fill="#181818" points="525,146.2871,535,150.2871,525,154.2871,529,150.2871" style="stroke:#181818;stroke-width:1.0;"/><line style="stroke:#181818;stroke-width:1.0;" x1="44" x2="531" y1="150.2871" y2="150.2871"/><text fill="#000000" font-family="sans-serif" font-size="13" font-weight="bold" lengthAdjust="spacing" textLength="9" x="51" y="145.5449">1</text><text fill="#000000" font-family="sans-serif" font-size="13" lengthAdjust="spacing" textLength="192" x="64" y="145.5449">asks to add a new job opening</text><polygon fill="#181818" points="55,175.5977,45,179.5977,55,183.5977,51,179.5977" style="stroke:#181818;stroke-width:1.0;"/><line style="stroke:#181818;stroke-width:1.0;stroke-dasharray:2.0,2.0;" x1="49" x2="541" y1="179.5977" y2="179.5977"/><text fill="#000000" font-family="sans-serif" font-size="13" font-weight="bold" lengthAdjust="spacing" textLength="9" x="61" y="174.8555">2</text><text fill="#000000" font-family="sans-serif" font-size="13" lengthAdjust="spacing" textLength="456" x="74" y="174.8555">requests data (title, address, description, numberOfVacancies, company)</text><polygon fill="#181818" points="525,204.9082,535,208.9082,525,212.9082,529,208.9082" style="stroke:#181818;stroke-width:1.0;"/><line style="stroke:#181818;stroke-width:1.0;" x1="44" x2="531" y1="208.9082" y2="208.9082"/><text fill="#000000" font-family="sans-serif" font-size="13" font-weight="bold" lengthAdjust="spacing" textLength="9" x="51" y="204.166">3</text><text fill="#000000" font-family="sans-serif" font-size="13" lengthAdjust="spacing" textLength="116" x="64" y="204.166">types request data</text><polygon fill="#181818" points="55,234.2188,45,238.2188,55,242.2188,51,238.2188" style="stroke:#181818;stroke-width:1.0;"/><line style="stroke:#181818;stroke-width:1.0;" x1="49" x2="541" y1="238.2188" y2="238.2188"/><text fill="#000000" font-family="sans-serif" font-size="13" font-weight="bold" lengthAdjust="spacing" textLength="9" x="61" y="233.4766">4</text><text fill="#000000" font-family="sans-serif" font-size="13" lengthAdjust="spacing" textLength="372" x="74" y="233.4766">presents Contract Type to choose from or create a new one</text><polygon fill="#181818" points="525,263.5293,535,267.5293,525,271.5293,529,267.5293" style="stroke:#181818;stroke-width:1.0;"/><line style="stroke:#181818;stroke-width:1.0;" x1="44" x2="531" y1="267.5293" y2="267.5293"/><text fill="#000000" font-family="sans-serif" font-size="13" font-weight="bold" lengthAdjust="spacing" textLength="9" x="51" y="262.7871">5</text><text fill="#000000" font-family="sans-serif" font-size="13" lengthAdjust="spacing" textLength="172" x="64" y="262.7871">selects/types contract type</text><polygon fill="#181818" points="55,292.8398,45,296.8398,55,300.8398,51,296.8398" style="stroke:#181818;stroke-width:1.0;"/><line style="stroke:#181818;stroke-width:1.0;" x1="49" x2="541" y1="296.8398" y2="296.8398"/><text fill="#000000" font-family="sans-serif" font-size="13" font-weight="bold" lengthAdjust="spacing" textLength="9" x="61" y="292.0977">6</text><text fill="#000000" font-family="sans-serif" font-size="13" lengthAdjust="spacing" textLength="325" x="74" y="292.0977">presents Modes to choose from or create a new one</text><polygon fill="#181818" points="525,322.1504,535,326.1504,525,330.1504,529,326.1504" style="stroke:#181818;stroke-width:1.0;"/><line style="stroke:#181818;stroke-width:1.0;" x1="44" x2="531" y1="326.1504" y2="326.1504"/><text fill="#000000" font-family="sans-serif" font-size="13" font-weight="bold" lengthAdjust="spacing" textLength="9" x="51" y="321.4082">7</text><text fill="#000000" font-family="sans-serif" font-size="13" lengthAdjust="spacing" textLength="124" x="64" y="321.4082">selects/types mode</text><polygon fill="#181818" points="1170,351.4609,1180,355.4609,1170,359.4609,1174,355.4609" style="stroke:#181818;stroke-width:1.0;"/><line style="stroke:#181818;stroke-width:1.0;" x1="547" x2="1176" y1="355.4609" y2="355.4609"/><text fill="#000000" font-family="sans-serif" font-size="13" font-weight="bold" lengthAdjust="spacing" textLength="9" x="554" y="350.7188">8</text><text fill="#000000" font-family="sans-serif" font-size="13" lengthAdjust="spacing" textLength="603" x="567" y="350.7188">addJobOpening(title, address, jobDescription, contractType, numberVacancies, mode, company)</text><polygon fill="#181818" points="4140,380.7715,4150,384.7715,4140,388.7715,4144,384.7715" style="stroke:#181818;stroke-width:1.0;"/><line style="stroke:#181818;stroke-width:1.0;" x1="1192" x2="4146" y1="384.7715" y2="384.7715"/><text fill="#000000" font-family="sans-serif" font-size="13" font-weight="bold" lengthAdjust="spacing" textLength="9" x="1199" y="380.0293">9</text><text fill="#000000" font-family="sans-serif" font-size="13" lengthAdjust="spacing" textLength="707" x="1212" y="380.0293">ensureAuthenticatedUserHasAnyOf(BaseRoles.POWER_USER, BaseRoles.ADMIN, BaseRoles.CUSTOMER_MANAGER)</text><polygon fill="#181818" points="1203,410.082,1193,414.082,1203,418.082,1199,414.082" style="stroke:#181818;stroke-width:1.0;"/><line style="stroke:#181818;stroke-width:1.0;stroke-dasharray:2.0,2.0;" x1="1197" x2="4156" y1="414.082" y2="414.082"/><text fill="#000000" font-family="sans-serif" font-size="13" font-weight="bold" lengthAdjust="spacing" textLength="18" x="1209" y="409.3398">10</text><text fill="#000000" font-family="sans-serif" font-size="13" lengthAdjust="spacing" textLength="50" x="1231" y="409.3398">success</text><line style="stroke:#181818;stroke-width:1.0;" x1="1192" x2="1234" y1="443.3926" y2="443.3926"/><line style="stroke:#181818;stroke-width:1.0;" x1="1234" x2="1234" y1="443.3926" y2="456.3926"/><line style="stroke:#181818;stroke-width:1.0;" x1="1193" x2="1234" y1="456.3926" y2="456.3926"/><polygon fill="#181818" points="1203,452.3926,1193,456.3926,1203,460.3926,1199,456.3926" style="stroke:#181818;stroke-width:1.0;"/><text fill="#000000" font-family="sans-serif" font-size="13" font-weight="bold" lengthAdjust="spacing" textLength="18" x="1199" y="438.6504">11</text><text fill="#000000" font-family="sans-serif" font-size="13" lengthAdjust="spacing" textLength="146" x="1221" y="438.6504">generates JobReference</text><polygon fill="#181818" points="4140,481.7031,4150,485.7031,4140,489.7031,4144,485.7031" style="stroke:#181818;stroke-width:1.0;"/><line style="stroke:#181818;stroke-width:1.0;" x1="1192" x2="4146" y1="485.7031" y2="485.7031"/><text fill="#000000" font-family="sans-serif" font-size="13" font-weight="bold" lengthAdjust="spacing" textLength="18" x="1199" y="480.9609">12</text><text fill="#000000" font-family="sans-serif" font-size="13" lengthAdjust="spacing" textLength="144" x="1221" y="480.9609">getAuthenticatedUser()</text><polygon fill="#181818" points="1203,511.0137,1193,515.0137,1203,519.0137,1199,515.0137" style="stroke:#181818;stroke-width:1.0;"/><line style="stroke:#181818;stroke-width:1.0;stroke-dasharray:2.0,2.0;" x1="1197" x2="4156" y1="515.0137" y2="515.0137"/><text fill="#000000" font-family="sans-serif" font-size="13" font-weight="bold" lengthAdjust="spacing" textLength="18" x="1209" y="510.2715">13</text><text fill="#000000" font-family="sans-serif" font-size="13" lengthAdjust="spacing" textLength="77" x="1231" y="510.2715">returns User</text><polygon fill="#181818" points="2980,540.3242,2990,544.3242,2980,548.3242,2984,544.3242" style="stroke:#181818;stroke-width:1.0;"/><line style="stroke:#181818;stroke-width:1.0;" x1="1192" x2="2986" y1="544.3242" y2="544.3242"/><text fill="#000000" font-family="sans-serif" font-size="13" font-weight="bold" lengthAdjust="spacing" textLength="18" x="1199" y="539.582">14</text><text fill="#000000" font-family="sans-serif" font-size="13" lengthAdjust="spacing" textLength="1759" x="1221" y="539.582">JobOpeningBuilder().withJobReference(jobReference).withTitle(title).withAddress(address).withJobDescription(jobDescription).withContractType(contractType).withNumberVacancies(numberVacancies).withMode(mode).withCompany(company).withCostumerManager(thisUser).build()</text><polygon fill="#181818" points="3820,569.6348,3830,573.6348,3820,577.6348,3824,573.6348" style="stroke:#181818;stroke-width:1.0;"/><line style="stroke:#181818;stroke-width:1.0;" x1="3002" x2="3826" y1="573.6348" y2="573.6348"/><text fill="#000000" font-family="sans-serif" font-size="13" font-weight="bold" lengthAdjust="spacing" textLength="18" x="3009" y="568.8926">15</text><text fill="#000000" font-family="sans-serif" font-size="13" lengthAdjust="spacing" textLength="789" x="3031" y="568.8926">JobOpening(jobReference, title, address, jobDescription, contractType, numberVacancies, mode, company, costumerManager)</text><polygon fill="#181818" points="3013,598.9453,3003,602.9453,3013,606.9453,3009,602.9453" style="stroke:#181818;stroke-width:1.0;"/><line style="stroke:#181818;stroke-width:1.0;stroke-dasharray:2.0,2.0;" x1="3007" x2="3836" y1="602.9453" y2="602.9453"/><text fill="#000000" font-family="sans-serif" font-size="13" font-weight="bold" lengthAdjust="spacing" textLength="18" x="3019" y="598.2031">16</text><text fill="#000000" font-family="sans-serif" font-size="13" lengthAdjust="spacing" textLength="122" x="3041" y="598.2031">returns JobOpening</text><polygon fill="#181818" points="1203,628.2559,1193,632.2559,1203,636.2559,1199,632.2559" style="stroke:#181818;stroke-width:1.0;"/><line style="stroke:#181818;stroke-width:1.0;stroke-dasharray:2.0,2.0;" x1="1197" x2="2996" y1="632.2559" y2="632.2559"/><text fill="#000000" font-family="sans-serif" font-size="13" font-weight="bold" lengthAdjust="spacing" textLength="18" x="1209" y="627.5137">17</text><text fill="#000000" font-family="sans-serif" font-size="13" lengthAdjust="spacing" textLength="122" x="1231" y="627.5137">returns JobOpening</text><polygon fill="#181818" points="3963.5,657.5664,3973.5,661.5664,3963.5,665.5664,3967.5,661.5664" style="stroke:#181818;stroke-width:1.0;"/><line style="stroke:#181818;stroke-width:1.0;" x1="1192" x2="3969.5" y1="661.5664" y2="661.5664"/><text fill="#000000" font-family="sans-serif" font-size="13" font-weight="bold" lengthAdjust="spacing" textLength="18" x="1199" y="656.8242">18</text><text fill="#000000" font-family="sans-serif" font-size="13" lengthAdjust="spacing" textLength="109" x="1221" y="656.8242">save(JobOpening)</text><polygon fill="#181818" points="1203,686.877,1193,690.877,1203,694.877,1199,690.877" style="stroke:#181818;stroke-width:1.0;"/><line style="stroke:#181818;stroke-width:1.0;stroke-dasharray:2.0,2.0;" x1="1197" x2="3979.5" y1="690.877" y2="690.877"/><text fill="#000000" font-family="sans-serif" font-size="13" font-weight="bold" lengthAdjust="spacing" textLength="18" x="1209" y="686.1348">19</text><text fill="#000000" font-family="sans-serif" font-size="13" lengthAdjust="spacing" textLength="122" x="1231" y="686.1348">returns JobOpening</text><polygon fill="#181818" points="558,716.1875,548,720.1875,558,724.1875,554,720.1875" style="stroke:#181818;stroke-width:1.0;"/><line style="stroke:#181818;stroke-width:1.0;stroke-dasharray:2.0,2.0;" x1="552" x2="1186" y1="720.1875" y2="720.1875"/><text fill="#000000" font-family="sans-serif" font-size="13" font-weight="bold" lengthAdjust="spacing" textLength="18" x="564" y="715.4453">20</text><text fill="#000000" font-family="sans-serif" font-size="13" lengthAdjust="spacing" textLength="122" x="586" y="715.4453">returns JobOpening</text><polygon fill="#181818" points="50,745.498,40,749.498,50,753.498,46,749.498" style="stroke:#181818;stroke-width:1.0;"/><line style="stroke:#181818;stroke-width:1.0;stroke-dasharray:2.0,2.0;" x1="44" x2="541" y1="749.498" y2="749.498"/><text fill="#000000" font-family="sans-serif" font-size="13" font-weight="bold" lengthAdjust="spacing" textLength="18" x="56" y="744.7559">21</text><text fill="#000000" font-family="sans-serif" font-size="13" lengthAdjust="spacing" textLength="167" x="78" y="744.7559">informs operation success</text><!--SRC=[hLNHRjem57tFLrXzIYLWtHvHLObGj896KmMoFKwkSm5tYPtPJYlszRjs4k90QVlGD-oSutFlFSU6LaQAgdW45HXkSXYJT4M-Nbrz8qEIm9Ph0ufGif2F92v1SB4D0igCLEG2ruhYhmj2DOc3aYh36I-fCEHYFCaov3IKTEumwPnSNvSAD0X33PVYvkOjrbGAesIUGwqmNIS_a4_BCkViB3tLe8w8wGUOgBe2zSmPECgJHhokDqwmLc991Tr2WOtuj7HvdjRr5LKypvhQ8YHaig1SdCSxuE8iSDmX4oYbvcZ9td6IsKEAD7NOFHrOPNPIyNzkA7udatHzr-l5ciwVgG5qEeZ9yCQwEKRe7qsC93JBC2K2NiWJ9aKsIJbmqdc0y26oOYGf-5k1Dffar50IkjmDx14O3JqW6MYcU6bB6f0wc_7c9sLKC0xudSa2ozzV1Xdu0bvLPb-2RcMSoaafTILD635SDZA88MkaseROJaeDPADaGJ3iJ84brorA0KVQdRI679ZHN-eIM7kiNRvNmr9Yvv-dNU1nFScW4NNNOMpdtINdn0IqyTRteUt4pgTrnVF4YddE76IjLk04KTY5Qan0w4g1ZHwsRIyak5jxH_L4xEDD654DYSn1ZnxYNxFaTxgQ9GFIxKvkb_DxVsEQhjRn4f7BoVta-opnzArau7I7NUUwOWoRzEVeS6sT3MmBmZvmE4gSKm8RK20O77Up1NFIIlXU1GfCfGG-60W-MqQ4m9DN8xmSlN2pyoiAdxn5_NbjtQmzhJScjQzXu-_X4C_Zi6zv3PbwjeT-1khFz_qSX4Uvg44srw4DI7ka2qdOXgNPrAOgsdTLXMR7jHtEvUZHzeq3xIOQ1P4Tpw8tdjuG1kGpusn_zAhpt5q42-Thv9dQ5ULRkx1LdoRWTN1q285xmp6oz1d23kjLO061GttuT4Uf1Tgduss2kyNfl7s_kTX8LMZxp2ltp_7QZN8FZhUEW_y0]--></g></svg>