<?xml version="1.0" encoding="us-ascii" standalone="no"?><svg xmlns="http://www.w3.org/2000/svg" xmlns:xlink="http://www.w3.org/1999/xlink" contentStyleType="text/css" height="182.4px" preserveAspectRatio="none" style="width:598px;height:182px;background:#FFFFFF;" version="1.1" viewBox="0 0 598 182" width="598.2px" zoomAndPan="magnify"><defs/><g><text fill="#000000" font-family="sans-serif" font-size="8.4" font-weight="bold" lengthAdjust="spacing" textLength="101.4" x="244.2" y="14.1211">US 1002 Domain Model</text><!--cluster agrJO--><g id="cluster_agrJO"><path d="M5.1,26.093 L56.7,26.093 A2.25,2.25 0 0 1 58.2,27.593 L62.4,39.5859 L592.5,39.5859 A1.5,1.5 0 0 1 594,41.0859 L594,177.215 A1.5,1.5 0 0 1 592.5,178.715 L5.1,178.715 A1.5,1.5 0 0 1 3.6,177.215 L3.6,27.593 A1.5,1.5 0 0 1 5.1,26.093 " fill="none" style="stroke:#000000;stroke-width:0.8999999999999999;"/><line style="stroke:#000000;stroke-width:0.8999999999999999;" x1="3.6" x2="62.4" y1="39.5859" y2="39.5859"/><text fill="#000000" font-family="sans-serif" font-size="8.4" font-weight="bold" lengthAdjust="spacing" textLength="51" x="6" y="35.4141">JobOpening</text><text fill="#000000" font-family="sans-serif" font-size="8.4" font-style="italic" lengthAdjust="spacing" textLength="50.4" x="276" y="48.907">&#171;aggregate&#187;</text></g><!--class JobOpening--><g id="elem_JobOpening"><rect codeLine="5" fill="#B22222" height="42.4523" id="JobOpening" rx="1.5" ry="1.5" style="stroke:#181818;stroke-width:0.3;" width="67.8" x="289.5" y="126.665"/><ellipse cx="298.5" cy="143.0911" fill="#ADD1B2" rx="6.6" ry="6.6" style="stroke:#181818;stroke-width:0.6;"/><path d="M300.2839,146.477 Q299.9353,146.6563 299.5518,146.7459 Q299.1683,146.8356 298.7449,146.8356 Q297.2408,146.8356 296.4489,145.8445 Q295.657,144.8533 295.657,142.9807 Q295.657,141.1031 296.4489,140.1119 Q297.2408,139.1208 298.7449,139.1208 Q299.1683,139.1208 299.5567,139.2105 Q299.9452,139.3001 300.2839,139.4794 L300.2839,141.113 Q299.9054,140.7644 299.5493,140.6025 Q299.1932,140.4407 298.8146,140.4407 Q298.0078,140.4407 297.5969,141.0806 Q297.186,141.7206 297.186,142.9807 Q297.186,144.2358 297.5969,144.8758 Q298.0078,145.5158 298.8146,145.5158 Q299.1932,145.5158 299.5493,145.3539 Q299.9054,145.192 300.2839,144.8434 Z " fill="#000000"/><text fill="#000000" font-family="sans-serif" font-size="7.2" font-style="italic" lengthAdjust="spacing" textLength="21" x="320.7" y="136.6259">&#171;root&#187;</text><text fill="#000000" font-family="sans-serif" font-size="7.2" font-style="italic" lengthAdjust="spacing" textLength="25.8" x="318.3" y="145.1056">&#171;entity&#187;</text><text fill="#000000" font-family="sans-serif" font-size="8.4" lengthAdjust="spacing" textLength="48.6" x="306.9" y="154.7454">JobOpening</text><line style="stroke:#181818;stroke-width:0.3;" x1="290.1" x2="356.7" y1="159.5173" y2="159.5173"/><line style="stroke:#181818;stroke-width:0.3;" x1="290.1" x2="356.7" y1="164.3173" y2="164.3173"/></g><!--class JobReference--><g id="elem_JobReference"><rect codeLine="6" fill="#90EE90" height="42.4523" id="JobReference" rx="1.5" ry="1.5" style="stroke:#181818;stroke-width:0.3;" width="73.2" x="378" y="126.665"/><ellipse cx="387" cy="143.0911" fill="#ADD1B2" rx="6.6" ry="6.6" style="stroke:#181818;stroke-width:0.6;"/><path d="M388.7839,146.477 Q388.4353,146.6563 388.0518,146.7459 Q387.6683,146.8356 387.2449,146.8356 Q385.7408,146.8356 384.9489,145.8445 Q384.157,144.8533 384.157,142.9807 Q384.157,141.1031 384.9489,140.1119 Q385.7408,139.1208 387.2449,139.1208 Q387.6683,139.1208 388.0567,139.2105 Q388.4452,139.3001 388.7839,139.4794 L388.7839,141.113 Q388.4054,140.7644 388.0493,140.6025 Q387.6932,140.4407 387.3146,140.4407 Q386.5078,140.4407 386.0969,141.0806 Q385.686,141.7206 385.686,142.9807 Q385.686,144.2358 386.0969,144.8758 Q386.5078,145.5158 387.3146,145.5158 Q387.6932,145.5158 388.0493,145.3539 Q388.4054,145.192 388.7839,144.8434 Z " fill="#000000"/><text fill="#000000" font-family="sans-serif" font-size="7.2" font-style="italic" lengthAdjust="spacing" textLength="17.4" x="413.7" y="136.6259">&#171;VO&#187;</text><text fill="#000000" font-family="sans-serif" font-size="7.2" font-style="italic" lengthAdjust="spacing" textLength="32.4" x="406.2" y="145.1056">&#171;identity&#187;</text><text fill="#000000" font-family="sans-serif" font-size="8.4" lengthAdjust="spacing" textLength="54" x="395.4" y="154.7454">JobReference</text><line style="stroke:#181818;stroke-width:0.3;" x1="378.6" x2="450.6" y1="159.5173" y2="159.5173"/><line style="stroke:#181818;stroke-width:0.3;" x1="378.6" x2="450.6" y1="164.3173" y2="164.3173"/></g><!--class ContractType--><g id="elem_ContractType"><rect codeLine="7" fill="#F1F1F1" height="33.9727" id="ContractType" rx="1.5" ry="1.5" style="stroke:#181818;stroke-width:0.3;" width="74.4" x="13.2" y="56.693"/><ellipse cx="22.2" cy="68.8793" fill="#ADD1B2" rx="6.6" ry="6.6" style="stroke:#181818;stroke-width:0.6;"/><path d="M23.9839,72.2651 Q23.6353,72.4444 23.2518,72.5341 Q22.8683,72.6237 22.4449,72.6237 Q20.9408,72.6237 20.1489,71.6326 Q19.357,70.6415 19.357,68.7688 Q19.357,66.8912 20.1489,65.9001 Q20.9408,64.909 22.4449,64.909 Q22.8683,64.909 23.2567,64.9986 Q23.6452,65.0883 23.9839,65.2676 L23.9839,66.9012 Q23.6054,66.5525 23.2493,66.3907 Q22.8932,66.2288 22.5146,66.2288 Q21.7078,66.2288 21.2969,66.8688 Q20.886,67.5088 20.886,68.7688 Q20.886,70.0239 21.2969,70.6639 Q21.7078,71.3039 22.5146,71.3039 Q22.8932,71.3039 23.2493,71.142 Q23.6054,70.9802 23.9839,70.6315 Z " fill="#000000"/><text fill="#000000" font-family="sans-serif" font-size="7.2" font-style="italic" lengthAdjust="spacing" textLength="17.4" x="49.5" y="66.6539">&#171;VO&#187;</text><text fill="#000000" font-family="sans-serif" font-size="8.4" lengthAdjust="spacing" textLength="55.2" x="30.6" y="76.2938">ContractType</text><line style="stroke:#181818;stroke-width:0.3;" x1="13.8" x2="87" y1="81.0656" y2="81.0656"/><line style="stroke:#181818;stroke-width:0.3;" x1="13.8" x2="87" y1="85.8656" y2="85.8656"/></g><!--class Mode--><g id="elem_Mode"><rect codeLine="8" fill="#F1F1F1" height="33.9727" id="Mode" rx="1.5" ry="1.5" style="stroke:#181818;stroke-width:0.3;" width="42" x="231.6" y="56.693"/><ellipse cx="240.6" cy="68.8793" fill="#ADD1B2" rx="6.6" ry="6.6" style="stroke:#181818;stroke-width:0.6;"/><path d="M242.3839,72.2651 Q242.0353,72.4444 241.6518,72.5341 Q241.2683,72.6237 240.8449,72.6237 Q239.3408,72.6237 238.5489,71.6326 Q237.757,70.6415 237.757,68.7688 Q237.757,66.8912 238.5489,65.9001 Q239.3408,64.909 240.8449,64.909 Q241.2683,64.909 241.6567,64.9986 Q242.0452,65.0883 242.3839,65.2676 L242.3839,66.9012 Q242.0054,66.5525 241.6493,66.3907 Q241.2932,66.2288 240.9146,66.2288 Q240.1078,66.2288 239.6969,66.8688 Q239.286,67.5088 239.286,68.7688 Q239.286,70.0239 239.6969,70.6639 Q240.1078,71.3039 240.9146,71.3039 Q241.2932,71.3039 241.6493,71.142 Q242.0054,70.9802 242.3839,70.6315 Z " fill="#000000"/><text fill="#000000" font-family="sans-serif" font-size="7.2" font-style="italic" lengthAdjust="spacing" textLength="17.4" x="251.7" y="66.6539">&#171;VO&#187;</text><text fill="#000000" font-family="sans-serif" font-size="8.4" lengthAdjust="spacing" textLength="22.8" x="249" y="76.2938">Mode</text><line style="stroke:#181818;stroke-width:0.3;" x1="232.2" x2="273" y1="81.0656" y2="81.0656"/><line style="stroke:#181818;stroke-width:0.3;" x1="232.2" x2="273" y1="85.8656" y2="85.8656"/></g><!--class JobDescription--><g id="elem_JobDescription"><rect codeLine="9" fill="#F1F1F1" height="33.9727" id="JobDescription" rx="1.5" ry="1.5" style="stroke:#181818;stroke-width:0.3;" width="79.2" x="505.2" y="56.693"/><ellipse cx="514.2" cy="68.8793" fill="#ADD1B2" rx="6.6" ry="6.6" style="stroke:#181818;stroke-width:0.6;"/><path d="M515.9839,72.2651 Q515.6353,72.4444 515.2518,72.5341 Q514.8683,72.6237 514.4449,72.6237 Q512.9408,72.6237 512.1489,71.6326 Q511.357,70.6415 511.357,68.7688 Q511.357,66.8912 512.1489,65.9001 Q512.9408,64.909 514.4449,64.909 Q514.8683,64.909 515.2567,64.9986 Q515.6452,65.0883 515.9839,65.2676 L515.9839,66.9012 Q515.6054,66.5525 515.2493,66.3907 Q514.8932,66.2288 514.5146,66.2288 Q513.7078,66.2288 513.2969,66.8688 Q512.886,67.5088 512.886,68.7688 Q512.886,70.0239 513.2969,70.6639 Q513.7078,71.3039 514.5146,71.3039 Q514.8932,71.3039 515.2493,71.142 Q515.6054,70.9802 515.9839,70.6315 Z " fill="#000000"/><text fill="#000000" font-family="sans-serif" font-size="7.2" font-style="italic" lengthAdjust="spacing" textLength="17.4" x="543.9" y="66.6539">&#171;VO&#187;</text><text fill="#000000" font-family="sans-serif" font-size="8.4" lengthAdjust="spacing" textLength="60" x="522.6" y="76.2938">JobDescription</text><line style="stroke:#181818;stroke-width:0.3;" x1="505.8" x2="583.8" y1="81.0656" y2="81.0656"/><line style="stroke:#181818;stroke-width:0.3;" x1="505.8" x2="583.8" y1="85.8656" y2="85.8656"/></g><!--class NumberOfVacancies--><g id="elem_NumberOfVacancies"><rect codeLine="10" fill="#F1F1F1" height="33.9727" id="NumberOfVacancies" rx="1.5" ry="1.5" style="stroke:#181818;stroke-width:0.3;" width="102" x="108.6" y="56.693"/><ellipse cx="117.6" cy="68.8793" fill="#ADD1B2" rx="6.6" ry="6.6" style="stroke:#181818;stroke-width:0.6;"/><path d="M119.3839,72.2651 Q119.0353,72.4444 118.6518,72.5341 Q118.2683,72.6237 117.8449,72.6237 Q116.3408,72.6237 115.5489,71.6326 Q114.757,70.6415 114.757,68.7688 Q114.757,66.8912 115.5489,65.9001 Q116.3408,64.909 117.8449,64.909 Q118.2683,64.909 118.6567,64.9986 Q119.0452,65.0883 119.3839,65.2676 L119.3839,66.9012 Q119.0054,66.5525 118.6493,66.3907 Q118.2932,66.2288 117.9146,66.2288 Q117.1078,66.2288 116.6969,66.8688 Q116.286,67.5088 116.286,68.7688 Q116.286,70.0239 116.6969,70.6639 Q117.1078,71.3039 117.9146,71.3039 Q118.2932,71.3039 118.6493,71.142 Q119.0054,70.9802 119.3839,70.6315 Z " fill="#000000"/><text fill="#000000" font-family="sans-serif" font-size="7.2" font-style="italic" lengthAdjust="spacing" textLength="17.4" x="158.7" y="66.6539">&#171;VO&#187;</text><text fill="#000000" font-family="sans-serif" font-size="8.4" lengthAdjust="spacing" textLength="82.8" x="126" y="76.2938">NumberOfVacancies</text><line style="stroke:#181818;stroke-width:0.3;" x1="109.2" x2="210" y1="81.0656" y2="81.0656"/><line style="stroke:#181818;stroke-width:0.3;" x1="109.2" x2="210" y1="85.8656" y2="85.8656"/></g><!--class Address--><g id="elem_Address"><rect codeLine="11" fill="#F1F1F1" height="33.9727" id="Address" rx="1.5" ry="1.5" style="stroke:#181818;stroke-width:0.3;" width="52.8" x="373.2" y="56.693"/><ellipse cx="382.2" cy="68.8793" fill="#ADD1B2" rx="6.6" ry="6.6" style="stroke:#181818;stroke-width:0.6;"/><path d="M383.9839,72.2651 Q383.6353,72.4444 383.2518,72.5341 Q382.8683,72.6237 382.4449,72.6237 Q380.9408,72.6237 380.1489,71.6326 Q379.357,70.6415 379.357,68.7688 Q379.357,66.8912 380.1489,65.9001 Q380.9408,64.909 382.4449,64.909 Q382.8683,64.909 383.2567,64.9986 Q383.6452,65.0883 383.9839,65.2676 L383.9839,66.9012 Q383.6054,66.5525 383.2493,66.3907 Q382.8932,66.2288 382.5146,66.2288 Q381.7078,66.2288 381.2969,66.8688 Q380.886,67.5088 380.886,68.7688 Q380.886,70.0239 381.2969,70.6639 Q381.7078,71.3039 382.5146,71.3039 Q382.8932,71.3039 383.2493,71.142 Q383.6054,70.9802 383.9839,70.6315 Z " fill="#000000"/><text fill="#000000" font-family="sans-serif" font-size="7.2" font-style="italic" lengthAdjust="spacing" textLength="17.4" x="398.7" y="66.6539">&#171;VO&#187;</text><text fill="#000000" font-family="sans-serif" font-size="8.4" lengthAdjust="spacing" textLength="33.6" x="390.6" y="76.2938">Address</text><line style="stroke:#181818;stroke-width:0.3;" x1="373.8" x2="425.4" y1="81.0656" y2="81.0656"/><line style="stroke:#181818;stroke-width:0.3;" x1="373.8" x2="425.4" y1="85.8656" y2="85.8656"/></g><!--class Title--><g id="elem_Title"><rect codeLine="12" fill="#F1F1F1" height="33.9727" id="Title" rx="1.5" ry="1.5" style="stroke:#181818;stroke-width:0.3;" width="37.2" x="447" y="56.693"/><ellipse cx="456" cy="68.8793" fill="#ADD1B2" rx="6.6" ry="6.6" style="stroke:#181818;stroke-width:0.6;"/><path d="M457.7839,72.2651 Q457.4353,72.4444 457.0518,72.5341 Q456.6683,72.6237 456.2449,72.6237 Q454.7408,72.6237 453.9489,71.6326 Q453.157,70.6415 453.157,68.7688 Q453.157,66.8912 453.9489,65.9001 Q454.7408,64.909 456.2449,64.909 Q456.6683,64.909 457.0567,64.9986 Q457.4452,65.0883 457.7839,65.2676 L457.7839,66.9012 Q457.4054,66.5525 457.0493,66.3907 Q456.6932,66.2288 456.3146,66.2288 Q455.5078,66.2288 455.0969,66.8688 Q454.686,67.5088 454.686,68.7688 Q454.686,70.0239 455.0969,70.6639 Q455.5078,71.3039 456.3146,71.3039 Q456.6932,71.3039 457.0493,71.142 Q457.4054,70.9802 457.7839,70.6315 Z " fill="#000000"/><text fill="#000000" font-family="sans-serif" font-size="7.2" font-style="italic" lengthAdjust="spacing" textLength="17.4" x="464.7" y="66.6539">&#171;VO&#187;</text><text fill="#000000" font-family="sans-serif" font-size="8.4" lengthAdjust="spacing" textLength="18" x="464.4" y="76.2938">Title</text><line style="stroke:#181818;stroke-width:0.3;" x1="447.6" x2="483.6" y1="81.0656" y2="81.0656"/><line style="stroke:#181818;stroke-width:0.3;" x1="447.6" x2="483.6" y1="85.8656" y2="85.8656"/></g><!--class Company--><g id="elem_Company"><rect codeLine="13" fill="#F1F1F1" height="33.9727" id="Company" rx="1.5" ry="1.5" style="stroke:#181818;stroke-width:0.3;" width="58.2" x="294.3" y="56.693"/><ellipse cx="303.3" cy="68.8793" fill="#ADD1B2" rx="6.6" ry="6.6" style="stroke:#181818;stroke-width:0.6;"/><path d="M305.0839,72.2651 Q304.7353,72.4444 304.3518,72.5341 Q303.9683,72.6237 303.5449,72.6237 Q302.0408,72.6237 301.2489,71.6326 Q300.457,70.6415 300.457,68.7688 Q300.457,66.8912 301.2489,65.9001 Q302.0408,64.909 303.5449,64.909 Q303.9683,64.909 304.3567,64.9986 Q304.7452,65.0883 305.0839,65.2676 L305.0839,66.9012 Q304.7054,66.5525 304.3493,66.3907 Q303.9932,66.2288 303.6146,66.2288 Q302.8078,66.2288 302.3969,66.8688 Q301.986,67.5088 301.986,68.7688 Q301.986,70.0239 302.3969,70.6639 Q302.8078,71.3039 303.6146,71.3039 Q303.9932,71.3039 304.3493,71.142 Q304.7054,70.9802 305.0839,70.6315 Z " fill="#000000"/><text fill="#000000" font-family="sans-serif" font-size="7.2" font-style="italic" lengthAdjust="spacing" textLength="17.4" x="322.5" y="66.6539">&#171;VO&#187;</text><text fill="#000000" font-family="sans-serif" font-size="8.4" lengthAdjust="spacing" textLength="39" x="311.7" y="76.2938">Company</text><line style="stroke:#181818;stroke-width:0.3;" x1="294.9" x2="351.9" y1="81.0656" y2="81.0656"/><line style="stroke:#181818;stroke-width:0.3;" x1="294.9" x2="351.9" y1="85.8656" y2="85.8656"/></g><!--link JobOpening to JobReference--><g id="link_JobOpening_JobReference"><path codeLine="15" d="M357.528,147.887 C362.604,147.887 368.154,147.887 374.304,147.887 " fill="none" id="JobOpening-to-JobReference" style="stroke:#181818;stroke-width:0.6;"/><polygon fill="#181818" points="377.904,147.887,372.504,145.487,374.904,147.887,372.504,150.287,377.904,147.887" style="stroke:#181818;stroke-width:0.6;"/></g><!--reverse link ContractType to JobOpening--><g id="link_ContractType_JobOpening"><path codeLine="16" d="M91.1573,88.1911 C97.3493,90.3031 98.4,90.665 98.4,90.665 C98.4,90.665 226.284,122.849 289.23,138.689 " fill="none" id="ContractType-backto-JobOpening" style="stroke:#181818;stroke-width:0.6;"/><polygon fill="#181818" points="87.75,87.029,92.0861,91.0437,90.5894,87.9974,93.6357,86.5007,87.75,87.029" style="stroke:#181818;stroke-width:0.6;"/></g><!--reverse link NumberOfVacancies to JobOpening--><g id="link_NumberOfVacancies_JobOpening"><path codeLine="17" d="M200.2623,92.4004 C228.0243,104.7724 262.302,120.053 289.254,132.071 " fill="none" id="NumberOfVacancies-backto-JobOpening" style="stroke:#181818;stroke-width:0.6;"/><polygon fill="#181818" points="196.974,90.935,200.9295,95.3252,199.7142,92.1561,202.8833,90.9409,196.974,90.935" style="stroke:#181818;stroke-width:0.6;"/></g><!--reverse link Mode to JobOpening--><g id="link_Mode_JobOpening"><path codeLine="18" d="M271.1738,93.4297 C281.4518,104.0317 292.368,115.283 303.348,126.605 " fill="none" id="Mode-backto-JobOpening" style="stroke:#181818;stroke-width:0.6;"/><polygon fill="#181818" points="268.668,90.845,270.7035,96.3927,270.7562,92.9989,274.1499,93.0516,268.668,90.845" style="stroke:#181818;stroke-width:0.6;"/></g><!--reverse link Company to JobOpening--><g id="link_Company_JobOpening"><path codeLine="19" d="M323.4,94.445 C323.4,105.047 323.4,115.283 323.4,126.605 " fill="none" id="Company-backto-JobOpening" style="stroke:#181818;stroke-width:0.6;"/><polygon fill="#181818" points="323.4,90.845,321,96.245,323.4,93.845,325.8,96.245,323.4,90.845" style="stroke:#181818;stroke-width:0.6;"/></g><!--reverse link Address to JobOpening--><g id="link_Address_JobOpening"><path codeLine="20" d="M379.7087,93.3357 C368.6447,103.9377 356.802,115.283 344.982,126.605 " fill="none" id="Address-backto-JobOpening" style="stroke:#181818;stroke-width:0.6;"/><polygon fill="#181818" points="382.308,90.845,376.7486,92.8482,380.1419,92.9206,380.0696,96.3139,382.308,90.845" style="stroke:#181818;stroke-width:0.6;"/></g><!--reverse link Title to JobOpening--><g id="link_Title_JobOpening"><path codeLine="21" d="M443.6694,86.5015 C437.9094,89.7115 436.2,90.665 436.2,90.665 C436.2,90.665 390.75,113.477 357.552,130.145 " fill="none" id="Title-backto-JobOpening" style="stroke:#181818;stroke-width:0.6;"/><polygon fill="#181818" points="446.814,84.749,440.9287,85.2813,444.1935,86.2094,443.2654,89.4741,446.814,84.749" style="stroke:#181818;stroke-width:0.6;"/></g><!--reverse link JobDescription to JobOpening--><g id="link_JobDescription_JobOpening"><path codeLine="22" d="M501.6629,88.2997 C495.4169,90.3337 494.4,90.665 494.4,90.665 C494.4,90.665 367.8,126.665 367.8,126.665 C367.8,126.665 363.462,128.675 357.504,131.447 " fill="none" id="JobDescription-backto-JobOpening" style="stroke:#181818;stroke-width:0.6;"/><polygon fill="#181818" points="505.086,87.185,499.2083,86.575,502.2334,88.1139,500.6945,91.1391,505.086,87.185" style="stroke:#181818;stroke-width:0.6;"/></g><!--SRC=[TP11IyGm48Nl-HK1pyBgKK91TayBMj1rxzDqDWvD9o797ehutqshGcjYRidtNcRUIvGiohTNURVRtSk36u5OFhaUhOW3iOS0exJ4c2QFqZixpHSXFEW13CgZwrgFJ6oaKc1CG0C9cqP2b632iPKVGkQZBSIuLGVdKjCeXPmeJTboq-LF7ouKi0kaXwtl1IyOa3LcvxdDQgMe_sErPDvJNW5vvTqxJW5qEiq1lhqhEaSjN_Ey0qOTo2ToNFBdwzXXQ2zdqC2QC9QInxuF62lWj3HUFE_Tw86dNx2GLLstpQQ40bzzLgoZrXN5udNPtCf_8vOrw_0dSnqkkUjeMxVu55y0]--></g></svg>