<?xml version="1.0" encoding="us-ascii" standalone="no"?><svg xmlns="http://www.w3.org/2000/svg" xmlns:xlink="http://www.w3.org/1999/xlink" contentStyleType="text/css" height="395px" preserveAspectRatio="none" style="width:748px;height:395px;background:#FFFFFF;" version="1.1" viewBox="0 0 748 395" width="748px" zoomAndPan="magnify"><defs/><g><text fill="#000000" font-family="sans-serif" font-size="14" font-weight="bold" lengthAdjust="spacing" textLength="241" x="252.75" y="28.5352">US1002 - Register a Job Opening</text><rect fill="#FFFFFF" height="167.8633" style="stroke:#181818;stroke-width:1.0;" width="10" x="68.5" y="128.9766"/><rect fill="#FFFFFF" height="29.3105" style="stroke:#181818;stroke-width:1.0;" width="10" x="704.5" y="150.2871"/><rect fill="#FFFFFF" height="29.3105" style="stroke:#181818;stroke-width:1.0;" width="10" x="704.5" y="208.9082"/><rect fill="#FFFFFF" height="29.3105" style="stroke:#181818;stroke-width:1.0;" width="10" x="704.5" y="267.5293"/><line style="stroke:#181818;stroke-width:0.5;stroke-dasharray:5.0,5.0;" x1="73" x2="73" y1="118.9766" y2="314.8398"/><line style="stroke:#181818;stroke-width:0.5;stroke-dasharray:5.0,5.0;" x1="709.5" x2="709.5" y1="118.9766" y2="314.8398"/><text fill="#000000" font-family="sans-serif" font-size="14" lengthAdjust="spacing" textLength="131" x="5" y="116.0234">Customer Manager</text><ellipse cx="73.5" cy="50.9883" fill="#E2E2F0" rx="8" ry="8" style="stroke:#181818;stroke-width:0.5;"/><path d="M73.5,58.9883 L73.5,85.9883 M60.5,66.9883 L86.5,66.9883 M73.5,85.9883 L60.5,100.9883 M73.5,85.9883 L86.5,100.9883 " fill="none" style="stroke:#181818;stroke-width:0.5;"/><text fill="#000000" font-family="sans-serif" font-size="14" lengthAdjust="spacing" textLength="131" x="5" y="327.375">Customer Manager</text><ellipse cx="73.5" cy="338.8281" fill="#E2E2F0" rx="8" ry="8" style="stroke:#181818;stroke-width:0.5;"/><path d="M73.5,346.8281 L73.5,373.8281 M60.5,354.8281 L86.5,354.8281 M73.5,373.8281 L60.5,388.8281 M73.5,373.8281 L86.5,388.8281 " fill="none" style="stroke:#181818;stroke-width:0.5;"/><rect fill="#E2E2F0" height="30.4883" rx="2.5" ry="2.5" style="stroke:#181818;stroke-width:0.5;" width="66" x="676.5" y="87.4883"/><text fill="#000000" font-family="sans-serif" font-size="14" lengthAdjust="spacing" textLength="52" x="683.5" y="108.0234">:System</text><rect fill="#E2E2F0" height="30.4883" rx="2.5" ry="2.5" style="stroke:#181818;stroke-width:0.5;" width="66" x="676.5" y="313.8398"/><text fill="#000000" font-family="sans-serif" font-size="14" lengthAdjust="spacing" textLength="52" x="683.5" y="334.375">:System</text><rect fill="#FFFFFF" height="167.8633" style="stroke:#181818;stroke-width:1.0;" width="10" x="68.5" y="128.9766"/><rect fill="#FFFFFF" height="29.3105" style="stroke:#181818;stroke-width:1.0;" width="10" x="704.5" y="150.2871"/><rect fill="#FFFFFF" height="29.3105" style="stroke:#181818;stroke-width:1.0;" width="10" x="704.5" y="208.9082"/><rect fill="#FFFFFF" height="29.3105" style="stroke:#181818;stroke-width:1.0;" width="10" x="704.5" y="267.5293"/><polygon fill="#181818" points="692.5,146.2871,702.5,150.2871,692.5,154.2871,696.5,150.2871" style="stroke:#181818;stroke-width:1.0;"/><line style="stroke:#181818;stroke-width:1.0;" x1="78.5" x2="698.5" y1="150.2871" y2="150.2871"/><text fill="#000000" font-family="sans-serif" font-size="13" font-weight="bold" lengthAdjust="spacing" textLength="9" x="85.5" y="145.5449">1</text><text fill="#000000" font-family="sans-serif" font-size="13" lengthAdjust="spacing" textLength="282" x="98.5" y="145.5449">asks the system to create a new Job Opening</text><polygon fill="#181818" points="89.5,175.5977,79.5,179.5977,89.5,183.5977,85.5,179.5977" style="stroke:#181818;stroke-width:1.0;"/><line style="stroke:#181818;stroke-width:1.0;stroke-dasharray:2.0,2.0;" x1="83.5" x2="708.5" y1="179.5977" y2="179.5977"/><text fill="#000000" font-family="sans-serif" font-size="13" font-weight="bold" lengthAdjust="spacing" textLength="9" x="95.5" y="174.8555">2</text><text fill="#000000" font-family="sans-serif" font-size="13" lengthAdjust="spacing" textLength="589" x="108.5" y="174.8555">requests data (title, address, description, contractType, numberOfVacancies, mode, company)</text><polygon fill="#181818" points="692.5,204.9082,702.5,208.9082,692.5,212.9082,696.5,208.9082" style="stroke:#181818;stroke-width:1.0;"/><line style="stroke:#181818;stroke-width:1.0;" x1="78.5" x2="698.5" y1="208.9082" y2="208.9082"/><text fill="#000000" font-family="sans-serif" font-size="13" font-weight="bold" lengthAdjust="spacing" textLength="9" x="85.5" y="204.166">3</text><text fill="#000000" font-family="sans-serif" font-size="13" lengthAdjust="spacing" textLength="116" x="98.5" y="204.166">types request data</text><polygon fill="#181818" points="89.5,234.2188,79.5,238.2188,89.5,242.2188,85.5,238.2188" style="stroke:#181818;stroke-width:1.0;"/><line style="stroke:#181818;stroke-width:1.0;stroke-dasharray:2.0,2.0;" x1="83.5" x2="708.5" y1="238.2188" y2="238.2188"/><text fill="#000000" font-family="sans-serif" font-size="13" font-weight="bold" lengthAdjust="spacing" textLength="9" x="95.5" y="233.4766">4</text><text fill="#000000" font-family="sans-serif" font-size="13" lengthAdjust="spacing" textLength="139" x="108.5" y="233.4766">requests confirmation</text><polygon fill="#181818" points="692.5,263.5293,702.5,267.5293,692.5,271.5293,696.5,267.5293" style="stroke:#181818;stroke-width:1.0;"/><line style="stroke:#181818;stroke-width:1.0;" x1="78.5" x2="698.5" y1="267.5293" y2="267.5293"/><text fill="#000000" font-family="sans-serif" font-size="13" font-weight="bold" lengthAdjust="spacing" textLength="9" x="85.5" y="262.7871">5</text><text fill="#000000" font-family="sans-serif" font-size="13" lengthAdjust="spacing" textLength="111" x="98.5" y="262.7871">confirms the data</text><polygon fill="#181818" points="84.5,292.8398,74.5,296.8398,84.5,300.8398,80.5,296.8398" style="stroke:#181818;stroke-width:1.0;"/><line style="stroke:#181818;stroke-width:1.0;stroke-dasharray:2.0,2.0;" x1="78.5" x2="708.5" y1="296.8398" y2="296.8398"/><text fill="#000000" font-family="sans-serif" font-size="13" font-weight="bold" lengthAdjust="spacing" textLength="9" x="90.5" y="292.0977">6</text><text fill="#000000" font-family="sans-serif" font-size="13" lengthAdjust="spacing" textLength="167" x="103.5" y="292.0977">informs operation success</text><!--SRC=[fP9DIyGm48Rl-HKlFIbqOVNOWnTlWYouwdqsdTRW9gcPgT9_RzhzK8lBWbvVNfvvPXBgDORURpWPTRhb2a_hg-No6WiySEj4EO5m5pTOTHnSQ8qXgp7XjXUDdjCz1Mh7ag0uPDY7nLHsxwGyxnip1onkK5Jh8K_q1QhCUnNe2qEc21fX4uyaGk2F7qh78KU0CL-iHIRFXrL8_DQpgA0c9LnCovUWkauiKg9ciSbrwc8eOMFGb8Sy3btkxCwrQfx9Kh2ESzl7ciUQxoWCbwRctupEBAmPBWUjoUf_UsNfnYLFumf_CzeJTizmIkYSZmjD71cnupIvG7fhyurFE7rBvr_c4m00]--></g></svg>