<?xml version="1.0" encoding="us-ascii" standalone="no"?><svg xmlns="http://www.w3.org/2000/svg" xmlns:xlink="http://www.w3.org/1999/xlink" contentStyleType="text/css" height="299px" preserveAspectRatio="none" style="width:735px;height:299px;background:#FFFFFF;" version="1.1" viewBox="0 0 735 299" width="735px" zoomAndPan="magnify"><defs/><g><text fill="#000000" font-family="sans-serif" font-size="14" font-weight="bold" lengthAdjust="spacing" textLength="230" x="245.5" y="23.5352">Domain Model for US1000_PDM</text><!--cluster <<Aggregate>> User--><g id="cluster_&lt;&lt;Aggregate&gt;&gt; User"><path d="M8.5,43.4883 L135.5,43.4883 A3.75,3.75 0 0 1 138,45.9883 L145,65.9766 L725.5,65.9766 A2.5,2.5 0 0 1 728,68.4766 L728,290.0983 A2.5,2.5 0 0 1 725.5,292.5983 L8.5,292.5983 A2.5,2.5 0 0 1 6,290.0983 L6,45.9883 A2.5,2.5 0 0 1 8.5,43.4883 " fill="none" style="stroke:#000000;stroke-width:1.5;"/><line style="stroke:#000000;stroke-width:1.5;" x1="6" x2="145" y1="65.9766" y2="65.9766"/><text fill="#000000" font-family="sans-serif" font-size="14" font-weight="bold" lengthAdjust="spacing" textLength="126" x="10" y="59.0234">&#171;Aggregate&#187; User</text></g><!--class <<root>> <<entity>> User--><g id="elem_&lt;&lt;root&gt;&gt; &lt;&lt;entity&gt;&gt; User"><rect codeLine="4" fill="#F1F1F1" height="64.4883" id="&lt;&lt;root&gt;&gt; &lt;&lt;entity&gt;&gt; User" rx="2.5" ry="2.5" style="stroke:#181818;stroke-width:0.5;" width="315" x="209.5" y="78.4883"/><ellipse cx="295.75" cy="94.4883" fill="#ADD1B2" rx="11" ry="11" style="stroke:#181818;stroke-width:1.0;"/><path d="M299.8643,100.4883 L292.1445,100.4883 L292.1445,88.0952 L299.8643,88.0952 L299.8643,90.2534 L294.5933,90.2534 L294.5933,92.9263 L299.3662,92.9263 L299.3662,95.0845 L294.5933,95.0845 L294.5933,98.3301 L299.8643,98.3301 Z " fill="#000000"/><text fill="#000000" font-family="sans-serif" font-size="14" lengthAdjust="spacing" textLength="134" x="316.25" y="99.7793">&#171;root&#187; &#171;entity&#187; User</text><line style="stroke:#181818;stroke-width:0.5;" x1="210.5" x2="523.5" y1="110.4883" y2="110.4883"/><line style="stroke:#181818;stroke-width:0.5;" x1="210.5" x2="523.5" y1="118.4883" y2="118.4883"/><ellipse cx="220.5" cy="132.2324" fill="#84BE84" rx="3" ry="3" style="stroke:#038048;stroke-width:1.0;"/><text fill="#000000" font-family="sans-serif" font-size="14" lengthAdjust="spacing" textLength="289" x="229.5" y="136.0234">User(email: Email, name: Name, role: Role)</text></g><!--class Email--><g id="elem_Email"><rect codeLine="8" fill="#F1F1F1" height="56.6211" id="Email" rx="2.5" ry="2.5" style="stroke:#181818;stroke-width:0.5;" width="110" x="22" y="219.9783"/><ellipse cx="37" cy="240.2888" fill="#FFD000" rx="11" ry="11" style="stroke:#181818;stroke-width:1.0;"/><path d="M37.1133,244.7468 L39.2964,234.3958 L41.7617,234.3958 L38.8149,246.7888 L35.4199,246.7888 L32.4731,234.3958 L34.9385,234.3958 Z " fill="#000000"/><text fill="#000000" font-family="sans-serif" font-size="12" font-style="italic" lengthAdjust="spacing" textLength="82" x="49" y="236.5798">&#171;value object&#187;</text><text fill="#000000" font-family="sans-serif" font-size="14" lengthAdjust="spacing" textLength="37" x="71.5" y="252.6463">Email</text><line style="stroke:#181818;stroke-width:0.5;" x1="23" x2="131" y1="260.5994" y2="260.5994"/><line style="stroke:#181818;stroke-width:0.5;" x1="23" x2="131" y1="268.5994" y2="268.5994"/></g><!--class Name--><g id="elem_Name"><rect codeLine="11" fill="#F1F1F1" height="56.6211" id="Name" rx="2.5" ry="2.5" style="stroke:#181818;stroke-width:0.5;" width="110" x="167" y="219.9783"/><ellipse cx="182" cy="240.2888" fill="#FFD000" rx="11" ry="11" style="stroke:#181818;stroke-width:1.0;"/><path d="M182.1133,244.7468 L184.2964,234.3958 L186.7617,234.3958 L183.8149,246.7888 L180.4199,246.7888 L177.4731,234.3958 L179.9385,234.3958 Z " fill="#000000"/><text fill="#000000" font-family="sans-serif" font-size="12" font-style="italic" lengthAdjust="spacing" textLength="82" x="194" y="236.5798">&#171;value object&#187;</text><text fill="#000000" font-family="sans-serif" font-size="14" lengthAdjust="spacing" textLength="39" x="215.5" y="252.6463">Name</text><line style="stroke:#181818;stroke-width:0.5;" x1="168" x2="276" y1="260.5994" y2="260.5994"/><line style="stroke:#181818;stroke-width:0.5;" x1="168" x2="276" y1="268.5994" y2="268.5994"/></g><!--class Role--><g id="elem_Role"><rect codeLine="14" fill="#F1F1F1" height="56.6211" id="Role" rx="2.5" ry="2.5" style="stroke:#181818;stroke-width:0.5;" width="110" x="312" y="219.9783"/><ellipse cx="327" cy="240.2888" fill="#FFD000" rx="11" ry="11" style="stroke:#181818;stroke-width:1.0;"/><path d="M327.1133,244.7468 L329.2964,234.3958 L331.7617,234.3958 L328.8149,246.7888 L325.4199,246.7888 L322.4731,234.3958 L324.9385,234.3958 Z " fill="#000000"/><text fill="#000000" font-family="sans-serif" font-size="12" font-style="italic" lengthAdjust="spacing" textLength="82" x="339" y="236.5798">&#171;value object&#187;</text><text fill="#000000" font-family="sans-serif" font-size="14" lengthAdjust="spacing" textLength="30" x="365" y="252.6463">Role</text><line style="stroke:#181818;stroke-width:0.5;" x1="313" x2="421" y1="260.5994" y2="260.5994"/><line style="stroke:#181818;stroke-width:0.5;" x1="313" x2="421" y1="268.5994" y2="268.5994"/></g><!--class Password--><g id="elem_Password"><rect codeLine="17" fill="#F1F1F1" height="56.6211" id="Password" rx="2.5" ry="2.5" style="stroke:#181818;stroke-width:0.5;" width="110" x="457" y="219.9783"/><ellipse cx="472" cy="240.2888" fill="#FFD000" rx="11" ry="11" style="stroke:#181818;stroke-width:1.0;"/><path d="M472.1133,244.7468 L474.2964,234.3958 L476.7617,234.3958 L473.8149,246.7888 L470.4199,246.7888 L467.4731,234.3958 L469.9385,234.3958 Z " fill="#000000"/><text fill="#000000" font-family="sans-serif" font-size="12" font-style="italic" lengthAdjust="spacing" textLength="82" x="484" y="236.5798">&#171;value object&#187;</text><text fill="#000000" font-family="sans-serif" font-size="14" lengthAdjust="spacing" textLength="65" x="492.5" y="252.6463">Password</text><line style="stroke:#181818;stroke-width:0.5;" x1="458" x2="566" y1="260.5994" y2="260.5994"/><line style="stroke:#181818;stroke-width:0.5;" x1="458" x2="566" y1="268.5994" y2="268.5994"/></g><!--class App_Status--><g id="elem_App_Status"><rect codeLine="20" fill="#F1F1F1" height="56.6211" id="App_Status" rx="2.5" ry="2.5" style="stroke:#181818;stroke-width:0.5;" width="110" x="602" y="219.9783"/><ellipse cx="617" cy="240.2888" fill="#FFD000" rx="11" ry="11" style="stroke:#181818;stroke-width:1.0;"/><path d="M617.1133,244.7468 L619.2964,234.3958 L621.7617,234.3958 L618.8149,246.7888 L615.4199,246.7888 L612.4731,234.3958 L614.9385,234.3958 Z " fill="#000000"/><text fill="#000000" font-family="sans-serif" font-size="12" font-style="italic" lengthAdjust="spacing" textLength="82" x="629" y="236.5798">&#171;value object&#187;</text><text fill="#000000" font-family="sans-serif" font-size="14" lengthAdjust="spacing" textLength="77" x="631.5" y="252.6463">App_Status</text><line style="stroke:#181818;stroke-width:0.5;" x1="603" x2="711" y1="260.5994" y2="260.5994"/><line style="stroke:#181818;stroke-width:0.5;" x1="603" x2="711" y1="268.5994" y2="268.5994"/></g><!--link <<root>> <<entity>> User to Email--><g id="link_&lt;&lt;root&gt;&gt; &lt;&lt;entity&gt;&gt; User_Email"><path codeLine="26" d="M299.37,143.3483 C248.49,167.1283 185.0753,196.7672 137.5253,218.9972 " fill="none" id="&lt;&lt;root&gt;&gt; &lt;&lt;entity&gt;&gt; User-to-Email" style="stroke:#181818;stroke-width:1.0;"/><polygon fill="#181818" points="132.09,221.5383,141.9371,221.3502,136.6195,219.4207,138.549,214.1031,132.09,221.5383" style="stroke:#181818;stroke-width:1.0;"/><text fill="#000000" font-family="sans-serif" font-size="13" lengthAdjust="spacing" textLength="22" x="231" y="186.5466">has</text><text fill="#000000" font-family="sans-serif" font-size="13" lengthAdjust="spacing" textLength="8" x="277.7155" y="163.5933">1</text><text fill="#000000" font-family="sans-serif" font-size="13" lengthAdjust="spacing" textLength="8" x="140.0302" y="214.5251">1</text></g><!--link <<root>> <<entity>> User to Name--><g id="link_&lt;&lt;root&gt;&gt; &lt;&lt;entity&gt;&gt; User_Name"><path codeLine="27" d="M333.37,143.1683 C308.61,166.3283 279.6334,193.4112 255.9034,215.5912 " fill="none" id="&lt;&lt;root&gt;&gt; &lt;&lt;entity&gt;&gt; User-to-Name" style="stroke:#181818;stroke-width:1.0;"/><polygon fill="#181818" points="251.52,219.6883,260.8265,216.4649,255.1728,216.2741,255.3637,210.6204,251.52,219.6883" style="stroke:#181818;stroke-width:1.0;"/><text fill="#000000" font-family="sans-serif" font-size="13" lengthAdjust="spacing" textLength="22" x="299" y="186.5466">has</text><text fill="#000000" font-family="sans-serif" font-size="13" lengthAdjust="spacing" textLength="8" x="317.9616" y="163.6296">1</text><text fill="#000000" font-family="sans-serif" font-size="13" lengthAdjust="spacing" textLength="8" x="249.1025" y="209.3936">1</text></g><!--link <<root>> <<entity>> User to Role--><g id="link_&lt;&lt;root&gt;&gt; &lt;&lt;entity&gt;&gt; User_Role"><path codeLine="28" d="M367,143.1683 C367,166.3283 367,191.5083 367,213.6883 " fill="none" id="&lt;&lt;root&gt;&gt; &lt;&lt;entity&gt;&gt; User-to-Role" style="stroke:#181818;stroke-width:1.0;"/><polygon fill="#181818" points="367,219.6883,371,210.6883,367,214.6883,363,210.6883,367,219.6883" style="stroke:#181818;stroke-width:1.0;"/><text fill="#000000" font-family="sans-serif" font-size="13" lengthAdjust="spacing" textLength="22" x="368" y="186.5466">has</text><text fill="#000000" font-family="sans-serif" font-size="13" lengthAdjust="spacing" textLength="8" x="358.2125" y="163.6296">1</text><text fill="#000000" font-family="sans-serif" font-size="13" lengthAdjust="spacing" textLength="8" x="358.125" y="209.3936">1</text></g><!--link <<root>> <<entity>> User to Password--><g id="link_&lt;&lt;root&gt;&gt; &lt;&lt;entity&gt;&gt; User_Password"><path codeLine="29" d="M400.63,143.1683 C425.39,166.3283 454.3666,193.4112 478.0966,215.5912 " fill="none" id="&lt;&lt;root&gt;&gt; &lt;&lt;entity&gt;&gt; User-to-Password" style="stroke:#181818;stroke-width:1.0;"/><polygon fill="#181818" points="482.48,219.6883,478.6363,210.6204,478.8272,216.2741,473.1735,216.4649,482.48,219.6883" style="stroke:#181818;stroke-width:1.0;"/><text fill="#000000" font-family="sans-serif" font-size="13" lengthAdjust="spacing" textLength="22" x="449" y="186.5466">has</text><text fill="#000000" font-family="sans-serif" font-size="13" lengthAdjust="spacing" textLength="8" x="398.4634" y="163.6296">1</text><text fill="#000000" font-family="sans-serif" font-size="13" lengthAdjust="spacing" textLength="8" x="467.1475" y="209.3936">1</text></g><!--link <<root>> <<entity>> User to App_Status--><g id="link_&lt;&lt;root&gt;&gt; &lt;&lt;entity&gt;&gt; User_App_Status"><path codeLine="30" d="M434.63,143.3483 C485.51,167.1283 548.9247,196.7672 596.4747,218.9972 " fill="none" id="&lt;&lt;root&gt;&gt; &lt;&lt;entity&gt;&gt; User-to-App_Status" style="stroke:#181818;stroke-width:1.0;"/><polygon fill="#181818" points="601.91,221.5383,595.451,214.1031,597.3805,219.4207,592.0629,221.3502,601.91,221.5383" style="stroke:#181818;stroke-width:1.0;"/><text fill="#000000" font-family="sans-serif" font-size="13" lengthAdjust="spacing" textLength="22" x="530" y="186.5466">has</text><text fill="#000000" font-family="sans-serif" font-size="13" lengthAdjust="spacing" textLength="8" x="438.7595" y="163.5933">1</text><text fill="#000000" font-family="sans-serif" font-size="13" lengthAdjust="spacing" textLength="8" x="585.9698" y="214.5251">1</text></g><!--SRC=[bP3DQy904CNlyrSCwqLfX7WD8I2atYnIiLUPnccQkcR3xgeKyN_lh04_BZQvlFrwlpVByvNNZBdPKLNZt6nOuvUnk5fEuZXUB_8vG4F5baf6bQRJihHSakSimvLZg_04Y5pxol-6TskCbwSqRQyUN8WluJ1a6QKJV0rBX3NjEC4tqGYjqR9_5ns106SeD3c7wc9LaZhyY0QpMIu_6nr8xndDvmyNOU89u6eFOK_Tz-OmJNLDNeWUZTrqJfyspNhfoU_T_yWP09vKg2PgFCv4htqa-4sk8z9sqeUu5DEBkBNJXxglgEK0_W00]--></g></svg>