<?xml version="1.0" encoding="us-ascii" standalone="no"?><svg xmlns="http://www.w3.org/2000/svg" xmlns:xlink="http://www.w3.org/1999/xlink" contentStyleType="text/css" height="285px" preserveAspectRatio="none" style="width:811px;height:285px;background:#FFFFFF;" version="1.1" viewBox="0 0 811 285" width="811px" zoomAndPan="magnify"><defs/><g><!--class User--><g id="elem_User"><rect codeLine="2" fill="#F1F1F1" height="146.9297" id="User" rx="2.5" ry="2.5" style="stroke:#181818;stroke-width:0.5;" width="113" x="325.5" y="131.49"/><ellipse cx="363" cy="147.49" fill="#ADD1B2" rx="11" ry="11" style="stroke:#181818;stroke-width:1.0;"/><path d="M365.9731,153.1331 Q365.3921,153.4319 364.7529,153.5813 Q364.1138,153.7307 363.4082,153.7307 Q360.9014,153.7307 359.5815,152.0789 Q358.2617,150.427 358.2617,147.3059 Q358.2617,144.1765 359.5815,142.5247 Q360.9014,140.8728 363.4082,140.8728 Q364.1138,140.8728 364.7612,141.0222 Q365.4087,141.1716 365.9731,141.4705 L365.9731,144.1931 Q365.3423,143.6121 364.7488,143.3423 Q364.1553,143.0725 363.5244,143.0725 Q362.1797,143.0725 361.4949,144.1392 Q360.8101,145.2058 360.8101,147.3059 Q360.8101,149.3977 361.4949,150.4644 Q362.1797,151.531 363.5244,151.531 Q364.1553,151.531 364.7488,151.2612 Q365.3423,150.9915 365.9731,150.4104 Z " fill="#000000"/><text fill="#000000" font-family="sans-serif" font-size="14" lengthAdjust="spacing" textLength="31" x="382" y="152.781">User</text><line style="stroke:#181818;stroke-width:0.5;" x1="326.5" x2="437.5" y1="163.49" y2="163.49"/><line style="stroke:#181818;stroke-width:0.5;" x1="326.5" x2="437.5" y1="171.49" y2="171.49"/><ellipse cx="336.5" cy="185.2341" fill="#84BE84" rx="3" ry="3" style="stroke:#038048;stroke-width:1.0;"/><text fill="#000000" font-family="sans-serif" font-size="14" lengthAdjust="spacing" textLength="63" x="345.5" y="189.0252">sameAs()</text><ellipse cx="336.5" cy="201.7224" fill="#84BE84" rx="3" ry="3" style="stroke:#038048;stroke-width:1.0;"/><text fill="#000000" font-family="sans-serif" font-size="14" lengthAdjust="spacing" textLength="36" x="345.5" y="205.5134">title()</text><ellipse cx="336.5" cy="218.2107" fill="#84BE84" rx="3" ry="3" style="stroke:#038048;stroke-width:1.0;"/><text fill="#000000" font-family="sans-serif" font-size="14" lengthAdjust="spacing" textLength="43" x="345.5" y="222.0017">code()</text><ellipse cx="336.5" cy="234.699" fill="#84BE84" rx="3" ry="3" style="stroke:#038048;stroke-width:1.0;"/><text fill="#000000" font-family="sans-serif" font-size="14" lengthAdjust="spacing" textLength="87" x="345.5" y="238.49">description()</text><ellipse cx="336.5" cy="251.1873" fill="#84BE84" rx="3" ry="3" style="stroke:#038048;stroke-width:1.0;"/><text fill="#000000" font-family="sans-serif" font-size="14" lengthAdjust="spacing" textLength="58" x="345.5" y="254.9783">isOpen()</text><ellipse cx="336.5" cy="267.6755" fill="#84BE84" rx="3" ry="3" style="stroke:#038048;stroke-width:1.0;"/><text fill="#000000" font-family="sans-serif" font-size="14" lengthAdjust="spacing" textLength="76" x="345.5" y="271.4666">createdAt()</text></g><!--class Email--><g id="elem_Email"><rect codeLine="13" fill="#F1F1F1" height="64.4883" id="Email" rx="2.5" ry="2.5" style="stroke:#181818;stroke-width:0.5;" width="116" x="7" y="7"/><ellipse cx="43.15" cy="23" fill="#ADD1B2" rx="11" ry="11" style="stroke:#181818;stroke-width:1.0;"/><path d="M46.1231,28.6431 Q45.5421,28.9419 44.9029,29.0913 Q44.2638,29.2407 43.5582,29.2407 Q41.0514,29.2407 39.7315,27.5889 Q38.4117,25.937 38.4117,22.8159 Q38.4117,19.6865 39.7315,18.0347 Q41.0514,16.3828 43.5582,16.3828 Q44.2638,16.3828 44.9112,16.5322 Q45.5587,16.6816 46.1231,16.9805 L46.1231,19.7031 Q45.4923,19.1221 44.8988,18.8523 Q44.3053,18.5825 43.6744,18.5825 Q42.3297,18.5825 41.6449,19.6492 Q40.9601,20.7158 40.9601,22.8159 Q40.9601,24.9077 41.6449,25.9744 Q42.3297,27.041 43.6744,27.041 Q44.3053,27.041 44.8988,26.7712 Q45.4923,26.5015 46.1231,25.9204 Z " fill="#000000"/><text fill="#000000" font-family="sans-serif" font-size="14" lengthAdjust="spacing" textLength="37" x="61.85" y="28.291">Email</text><line style="stroke:#181818;stroke-width:0.5;" x1="8" x2="122" y1="39" y2="39"/><rect fill="none" height="6" style="stroke:#C82930;stroke-width:1.0;" width="6" x="15" y="49.7441"/><text fill="#000000" font-family="sans-serif" font-size="14" lengthAdjust="spacing" textLength="90" x="27" y="56.5352">email : String</text><line style="stroke:#181818;stroke-width:0.5;" x1="8" x2="122" y1="63.4883" y2="63.4883"/></g><!--class Name--><g id="elem_Name"><rect codeLine="17" fill="#F1F1F1" height="64.4883" id="Name" rx="2.5" ry="2.5" style="stroke:#181818;stroke-width:0.5;" width="117" x="157.5" y="7"/><ellipse cx="193.2" cy="23" fill="#ADD1B2" rx="11" ry="11" style="stroke:#181818;stroke-width:1.0;"/><path d="M196.1731,28.6431 Q195.5921,28.9419 194.9529,29.0913 Q194.3138,29.2407 193.6082,29.2407 Q191.1014,29.2407 189.7815,27.5889 Q188.4617,25.937 188.4617,22.8159 Q188.4617,19.6865 189.7815,18.0347 Q191.1014,16.3828 193.6082,16.3828 Q194.3138,16.3828 194.9612,16.5322 Q195.6087,16.6816 196.1731,16.9805 L196.1731,19.7031 Q195.5423,19.1221 194.9488,18.8523 Q194.3553,18.5825 193.7244,18.5825 Q192.3797,18.5825 191.6949,19.6492 Q191.0101,20.7158 191.0101,22.8159 Q191.0101,24.9077 191.6949,25.9744 Q192.3797,27.041 193.7244,27.041 Q194.3553,27.041 194.9488,26.7712 Q195.5423,26.5015 196.1731,25.9204 Z " fill="#000000"/><text fill="#000000" font-family="sans-serif" font-size="14" lengthAdjust="spacing" textLength="39" x="211.8" y="28.291">Name</text><line style="stroke:#181818;stroke-width:0.5;" x1="158.5" x2="273.5" y1="39" y2="39"/><rect fill="none" height="6" style="stroke:#C82930;stroke-width:1.0;" width="6" x="165.5" y="49.7441"/><text fill="#000000" font-family="sans-serif" font-size="14" lengthAdjust="spacing" textLength="91" x="177.5" y="56.5352">name : String</text><line style="stroke:#181818;stroke-width:0.5;" x1="158.5" x2="273.5" y1="63.4883" y2="63.4883"/></g><!--class Password--><g id="elem_Password"><rect codeLine="21" fill="#F1F1F1" height="64.4883" id="Password" rx="2.5" ry="2.5" style="stroke:#181818;stroke-width:0.5;" width="145" x="309.5" y="7"/><ellipse cx="346.1" cy="23" fill="#ADD1B2" rx="11" ry="11" style="stroke:#181818;stroke-width:1.0;"/><path d="M349.0731,28.6431 Q348.4921,28.9419 347.8529,29.0913 Q347.2138,29.2407 346.5082,29.2407 Q344.0014,29.2407 342.6815,27.5889 Q341.3617,25.937 341.3617,22.8159 Q341.3617,19.6865 342.6815,18.0347 Q344.0014,16.3828 346.5082,16.3828 Q347.2138,16.3828 347.8612,16.5322 Q348.5087,16.6816 349.0731,16.9805 L349.0731,19.7031 Q348.4423,19.1221 347.8488,18.8523 Q347.2553,18.5825 346.6244,18.5825 Q345.2797,18.5825 344.5949,19.6492 Q343.9101,20.7158 343.9101,22.8159 Q343.9101,24.9077 344.5949,25.9744 Q345.2797,27.041 346.6244,27.041 Q347.2553,27.041 347.8488,26.7712 Q348.4423,26.5015 349.0731,25.9204 Z " fill="#000000"/><text fill="#000000" font-family="sans-serif" font-size="14" lengthAdjust="spacing" textLength="65" x="364.9" y="28.291">Password</text><line style="stroke:#181818;stroke-width:0.5;" x1="310.5" x2="453.5" y1="39" y2="39"/><rect fill="none" height="6" style="stroke:#C82930;stroke-width:1.0;" width="6" x="317.5" y="49.7441"/><text fill="#000000" font-family="sans-serif" font-size="14" lengthAdjust="spacing" textLength="119" x="329.5" y="56.5352">password : String</text><line style="stroke:#181818;stroke-width:0.5;" x1="310.5" x2="453.5" y1="63.4883" y2="63.4883"/></g><!--class Role--><g id="elem_Role"><rect codeLine="25" fill="#F1F1F1" height="64.4883" id="Role" rx="2.5" ry="2.5" style="stroke:#181818;stroke-width:0.5;" width="109" x="489.5" y="7"/><ellipse cx="525.65" cy="23" fill="#ADD1B2" rx="11" ry="11" style="stroke:#181818;stroke-width:1.0;"/><path d="M528.6231,28.6431 Q528.0421,28.9419 527.4029,29.0913 Q526.7638,29.2407 526.0582,29.2407 Q523.5514,29.2407 522.2315,27.5889 Q520.9117,25.937 520.9117,22.8159 Q520.9117,19.6865 522.2315,18.0347 Q523.5514,16.3828 526.0582,16.3828 Q526.7638,16.3828 527.4112,16.5322 Q528.0587,16.6816 528.6231,16.9805 L528.6231,19.7031 Q527.9923,19.1221 527.3988,18.8523 Q526.8053,18.5825 526.1744,18.5825 Q524.8297,18.5825 524.1449,19.6492 Q523.4601,20.7158 523.4601,22.8159 Q523.4601,24.9077 524.1449,25.9744 Q524.8297,27.041 526.1744,27.041 Q526.8053,27.041 527.3988,26.7712 Q527.9923,26.5015 528.6231,25.9204 Z " fill="#000000"/><text fill="#000000" font-family="sans-serif" font-size="14" lengthAdjust="spacing" textLength="30" x="544.35" y="28.291">Role</text><line style="stroke:#181818;stroke-width:0.5;" x1="490.5" x2="597.5" y1="39" y2="39"/><rect fill="none" height="6" style="stroke:#C82930;stroke-width:1.0;" width="6" x="497.5" y="49.7441"/><text fill="#000000" font-family="sans-serif" font-size="14" lengthAdjust="spacing" textLength="83" x="509.5" y="56.5352">Role : String</text><line style="stroke:#181818;stroke-width:0.5;" x1="490.5" x2="597.5" y1="63.4883" y2="63.4883"/></g><!--class App_Status--><g id="elem_App_Status"><rect codeLine="29" fill="#F1F1F1" height="64.4883" id="App_Status" rx="2.5" ry="2.5" style="stroke:#181818;stroke-width:0.5;" width="171" x="633.5" y="7"/><ellipse cx="676.4" cy="23" fill="#ADD1B2" rx="11" ry="11" style="stroke:#181818;stroke-width:1.0;"/><path d="M679.3731,28.6431 Q678.7921,28.9419 678.1529,29.0913 Q677.5138,29.2407 676.8082,29.2407 Q674.3014,29.2407 672.9815,27.5889 Q671.6617,25.937 671.6617,22.8159 Q671.6617,19.6865 672.9815,18.0347 Q674.3014,16.3828 676.8082,16.3828 Q677.5138,16.3828 678.1612,16.5322 Q678.8087,16.6816 679.3731,16.9805 L679.3731,19.7031 Q678.7423,19.1221 678.1488,18.8523 Q677.5553,18.5825 676.9244,18.5825 Q675.5797,18.5825 674.8949,19.6492 Q674.2101,20.7158 674.2101,22.8159 Q674.2101,24.9077 674.8949,25.9744 Q675.5797,27.041 676.9244,27.041 Q677.5553,27.041 678.1488,26.7712 Q678.7423,26.5015 679.3731,25.9204 Z " fill="#000000"/><text fill="#000000" font-family="sans-serif" font-size="14" lengthAdjust="spacing" textLength="77" x="696.6" y="28.291">App_Status</text><line style="stroke:#181818;stroke-width:0.5;" x1="634.5" x2="803.5" y1="39" y2="39"/><rect fill="none" height="6" style="stroke:#C82930;stroke-width:1.0;" width="6" x="641.5" y="49.7441"/><text fill="#000000" font-family="sans-serif" font-size="14" lengthAdjust="spacing" textLength="145" x="653.5" y="56.5352">App_Status : boolean</text><line style="stroke:#181818;stroke-width:0.5;" x1="634.5" x2="803.5" y1="63.4883" y2="63.4883"/></g><!--link Name to User--><g id="link_Name_User"><path codeLine="33" d="M248.01,71.81 C269.86,93.37 295.1585,118.3064 320.9485,143.7464 " fill="none" id="Name-to-User" style="stroke:#181818;stroke-width:1.0;"/><polygon fill="#181818" points="325.22,147.96,321.6217,138.792,321.6604,144.4487,316.0037,144.4873,325.22,147.96" style="stroke:#181818;stroke-width:1.0;"/><text fill="#000000" font-family="sans-serif" font-size="13" lengthAdjust="spacing" textLength="8" x="245.3494" y="92.0455">1</text></g><!--link Email to User--><g id="link_Email_User"><path codeLine="34" d="M123.14,70.27 C180.61,99.95 257.3073,139.5649 314.3673,169.0249 " fill="none" id="Email-to-User" style="stroke:#181818;stroke-width:1.0;"/><polygon fill="none" points="325.03,174.53,321.5337,168.2232,314.3673,169.0249,317.8636,175.3317,325.03,174.53" style="stroke:#181818;stroke-width:1.0;"/><text fill="#000000" font-family="sans-serif" font-size="13" lengthAdjust="spacing" textLength="8" x="131.1017" y="70.8725">1</text></g><!--link Password to User--><g id="link_Password_User"><path codeLine="35" d="M382,71.81 C382,88.72 382,104.31 382,125.11 " fill="none" id="Password-to-User" style="stroke:#181818;stroke-width:1.0;"/><polygon fill="#181818" points="382,131.11,386,122.11,382,126.11,378,122.11,382,131.11" style="stroke:#181818;stroke-width:1.0;"/><text fill="#000000" font-family="sans-serif" font-size="13" lengthAdjust="spacing" textLength="8" x="373.2375" y="92.0455">1</text></g><!--link Role to User--><g id="link_Role_User"><path codeLine="36" d="M512.76,71.81 C491.8,93 467.8005,117.2553 442.9405,142.3753 " fill="none" id="Role-to-User" style="stroke:#181818;stroke-width:1.0;"/><polygon fill="#181818" points="438.72,146.64,447.8939,143.0567,442.2371,143.0861,442.2077,137.4293,438.72,146.64" style="stroke:#181818;stroke-width:1.0;"/><text fill="#000000" font-family="sans-serif" font-size="13" lengthAdjust="spacing" textLength="8" x="498.0424" y="92.0455">1</text></g><!--link App_Status to User--><g id="link_App_Status_User"><path codeLine="37" d="M654.02,71.81 C591.67,102.1 503.8369,144.7682 444.3269,173.6782 " fill="none" id="App_Status-to-User" style="stroke:#181818;stroke-width:1.0;"/><polygon fill="#181818" points="438.93,176.3,448.7732,175.9652,443.4274,174.1152,445.2774,168.7694,438.93,176.3" style="stroke:#181818;stroke-width:1.0;"/><text fill="#000000" font-family="sans-serif" font-size="13" lengthAdjust="spacing" textLength="8" x="632.8707" y="92.0455">1</text></g><!--SRC=[PP2n3i8W48PtdkBYf34TN3kOT71LO-Di42w6X1R2dN4mlhiKgBRfGZv-FkuEb9L4S2KCy1O2O4komuRMcu7PiCMCokb26aa5uzcuFWU6JXuBgu2IKJSSj-8ZX4hb3vqqDjO7g00Jrz1oCFtZxnnZtwBq0owDSrnUBkXY-N6xD2_EZhKIBet6-rlBafzKl4bGmzt5Mx8Vz3JMQhU2gjf3-YUHNvCpLxBVR7CrTPz7aqRpWoy0]--></g></svg>