<?xml version="1.0" encoding="us-ascii" standalone="no"?><svg xmlns="http://www.w3.org/2000/svg" xmlns:xlink="http://www.w3.org/1999/xlink" contentStyleType="text/css" height="652px" preserveAspectRatio="none" style="width:878px;height:652px;background:#FFFFFF;" version="1.1" viewBox="0 0 878 652" width="878px" zoomAndPan="magnify"><defs/><g><rect fill="none" height="176.8633" style="stroke:#000000;stroke-width:1.5;" width="552.5" x="10" y="186.4199"/><rect fill="none" height="46.6211" style="stroke:#000000;stroke-width:1.5;" width="317" x="121" y="465.2148"/><line style="stroke:#181818;stroke-width:0.5;stroke-dasharray:5.0,5.0;" x1="70" x2="70" y1="81.4883" y2="571.1465"/><line style="stroke:#181818;stroke-width:0.5;stroke-dasharray:5.0,5.0;" x1="175" x2="175" y1="81.4883" y2="571.1465"/><line style="stroke:#181818;stroke-width:0.5;stroke-dasharray:5.0,5.0;" x1="355" x2="355" y1="81.4883" y2="571.1465"/><line style="stroke:#181818;stroke-width:0.5;stroke-dasharray:5.0,5.0;" x1="511.5" x2="511.5" y1="81.4883" y2="571.1465"/><line style="stroke:#181818;stroke-width:0.5;stroke-dasharray:5.0,5.0;" x1="653.5" x2="653.5" y1="81.4883" y2="571.1465"/><line style="stroke:#181818;stroke-width:0.5;stroke-dasharray:5.0,5.0;" x1="813.5" x2="813.5" y1="81.4883" y2="571.1465"/><text fill="#000000" font-family="sans-serif" font-size="14" lengthAdjust="spacing" textLength="95" x="20" y="78.5352">Administrator</text><ellipse cx="70.5" cy="13.5" fill="#E2E2F0" rx="8" ry="8" style="stroke:#181818;stroke-width:0.5;"/><path d="M70.5,21.5 L70.5,48.5 M57.5,29.5 L83.5,29.5 M70.5,48.5 L57.5,63.5 M70.5,48.5 L83.5,63.5 " fill="none" style="stroke:#181818;stroke-width:0.5;"/><text fill="#000000" font-family="sans-serif" font-size="14" lengthAdjust="spacing" textLength="95" x="20" y="583.6816">Administrator</text><ellipse cx="70.5" cy="595.1348" fill="#E2E2F0" rx="8" ry="8" style="stroke:#181818;stroke-width:0.5;"/><path d="M70.5,603.1348 L70.5,630.1348 M57.5,611.1348 L83.5,611.1348 M70.5,630.1348 L57.5,645.1348 M70.5,630.1348 L83.5,645.1348 " fill="none" style="stroke:#181818;stroke-width:0.5;"/><rect fill="#E2E2F0" height="30.4883" rx="2.5" ry="2.5" style="stroke:#181818;stroke-width:0.5;" width="89" x="131" y="50"/><text fill="#000000" font-family="sans-serif" font-size="14" lengthAdjust="spacing" textLength="75" x="138" y="70.5352">ListUsersUI</text><rect fill="#E2E2F0" height="30.4883" rx="2.5" ry="2.5" style="stroke:#181818;stroke-width:0.5;" width="89" x="131" y="570.1465"/><text fill="#000000" font-family="sans-serif" font-size="14" lengthAdjust="spacing" textLength="75" x="138" y="590.6816">ListUsersUI</text><rect fill="#E2E2F0" height="30.4883" rx="2.5" ry="2.5" style="stroke:#181818;stroke-width:0.5;" width="145" x="283" y="50"/><text fill="#000000" font-family="sans-serif" font-size="14" lengthAdjust="spacing" textLength="131" x="290" y="70.5352">ListUsersController</text><rect fill="#E2E2F0" height="30.4883" rx="2.5" ry="2.5" style="stroke:#181818;stroke-width:0.5;" width="145" x="283" y="570.1465"/><text fill="#000000" font-family="sans-serif" font-size="14" lengthAdjust="spacing" textLength="131" x="290" y="590.6816">ListUsersController</text><rect fill="#E2E2F0" height="30.4883" rx="2.5" ry="2.5" style="stroke:#181818;stroke-width:0.5;" width="82" x="470.5" y="50"/><text fill="#000000" font-family="sans-serif" font-size="14" lengthAdjust="spacing" textLength="68" x="477.5" y="70.5352">BaseRoles</text><rect fill="#E2E2F0" height="30.4883" rx="2.5" ry="2.5" style="stroke:#181818;stroke-width:0.5;" width="82" x="470.5" y="570.1465"/><text fill="#000000" font-family="sans-serif" font-size="14" lengthAdjust="spacing" textLength="68" x="477.5" y="590.6816">BaseRoles</text><rect fill="#E2E2F0" height="30.4883" rx="2.5" ry="2.5" style="stroke:#181818;stroke-width:0.5;" width="182" x="562.5" y="50"/><text fill="#000000" font-family="sans-serif" font-size="14" lengthAdjust="spacing" textLength="168" x="569.5" y="70.5352">UserManagementService</text><rect fill="#E2E2F0" height="30.4883" rx="2.5" ry="2.5" style="stroke:#181818;stroke-width:0.5;" width="182" x="562.5" y="570.1465"/><text fill="#000000" font-family="sans-serif" font-size="14" lengthAdjust="spacing" textLength="168" x="569.5" y="590.6816">UserManagementService</text><rect fill="#E2E2F0" height="30.4883" rx="2.5" ry="2.5" style="stroke:#181818;stroke-width:0.5;" width="118" x="754.5" y="50"/><text fill="#000000" font-family="sans-serif" font-size="14" lengthAdjust="spacing" textLength="104" x="761.5" y="70.5352">UserRepository</text><rect fill="#E2E2F0" height="30.4883" rx="2.5" ry="2.5" style="stroke:#181818;stroke-width:0.5;" width="118" x="754.5" y="570.1465"/><text fill="#000000" font-family="sans-serif" font-size="14" lengthAdjust="spacing" textLength="104" x="761.5" y="590.6816">UserRepository</text><polygon fill="#181818" points="163.5,108.7988,173.5,112.7988,163.5,116.7988,167.5,112.7988" style="stroke:#181818;stroke-width:1.0;"/><line style="stroke:#181818;stroke-width:1.0;" x1="70.5" x2="169.5" y1="112.7988" y2="112.7988"/><text fill="#000000" font-family="sans-serif" font-size="13" font-weight="bold" lengthAdjust="spacing" textLength="9" x="77.5" y="108.0566">1</text><text fill="#000000" font-family="sans-serif" font-size="13" lengthAdjust="spacing" textLength="46" x="90.5" y="108.0566">onLoad</text><polygon fill="#181818" points="163.5,138.1094,173.5,142.1094,163.5,146.1094,167.5,142.1094" style="stroke:#181818;stroke-width:1.0;"/><line style="stroke:#181818;stroke-width:1.0;" x1="70.5" x2="169.5" y1="142.1094" y2="142.1094"/><text fill="#000000" font-family="sans-serif" font-size="13" font-weight="bold" lengthAdjust="spacing" textLength="9" x="77.5" y="137.3672">2</text><text fill="#000000" font-family="sans-serif" font-size="13" lengthAdjust="spacing" textLength="63" x="90.5" y="137.3672">enter data</text><polygon fill="#181818" points="163.5,167.4199,173.5,171.4199,163.5,175.4199,167.5,171.4199" style="stroke:#181818;stroke-width:1.0;"/><line style="stroke:#181818;stroke-width:1.0;" x1="70.5" x2="169.5" y1="171.4199" y2="171.4199"/><text fill="#000000" font-family="sans-serif" font-size="13" font-weight="bold" lengthAdjust="spacing" textLength="9" x="77.5" y="166.6777">3</text><text fill="#000000" font-family="sans-serif" font-size="13" lengthAdjust="spacing" textLength="44" x="90.5" y="166.6777">submit</text><path d="M10,186.4199 L117,186.4199 L117,193.7305 L107,203.7305 L10,203.7305 L10,186.4199 " fill="#EEEEEE" style="stroke:#000000;stroke-width:1.5;"/><rect fill="none" height="176.8633" style="stroke:#000000;stroke-width:1.5;" width="552.5" x="10" y="186.4199"/><text fill="#000000" font-family="sans-serif" font-size="13" font-weight="bold" lengthAdjust="spacing" textLength="58" x="25" y="199.9883">Optional</text><text fill="#000000" font-family="sans-serif" font-size="11" font-weight="bold" lengthAdjust="spacing" textLength="189" x="132" y="199.0547">[If option to specific role chosen]</text><polygon fill="#181818" points="343.5,221.041,353.5,225.041,343.5,229.041,347.5,225.041" style="stroke:#181818;stroke-width:1.0;"/><line style="stroke:#181818;stroke-width:1.0;" x1="175.5" x2="349.5" y1="225.041" y2="225.041"/><text fill="#000000" font-family="sans-serif" font-size="13" font-weight="bold" lengthAdjust="spacing" textLength="9" x="182.5" y="220.2988">4</text><text fill="#000000" font-family="sans-serif" font-size="13" lengthAdjust="spacing" textLength="62" x="195.5" y="220.2988">getRoles()</text><polygon fill="#181818" points="499.5,250.3516,509.5,254.3516,499.5,258.3516,503.5,254.3516" style="stroke:#181818;stroke-width:1.0;"/><line style="stroke:#181818;stroke-width:1.0;" x1="355.5" x2="505.5" y1="254.3516" y2="254.3516"/><text fill="#000000" font-family="sans-serif" font-size="13" font-weight="bold" lengthAdjust="spacing" textLength="9" x="362.5" y="249.6094">5</text><text fill="#000000" font-family="sans-serif" font-size="13" lengthAdjust="spacing" textLength="119" x="375.5" y="249.6094">getAvailableRoles()</text><line style="stroke:#181818;stroke-width:1.0;" x1="175.5" x2="217.5" y1="283.6621" y2="283.6621"/><line style="stroke:#181818;stroke-width:1.0;" x1="217.5" x2="217.5" y1="283.6621" y2="296.6621"/><line style="stroke:#181818;stroke-width:1.0;" x1="176.5" x2="217.5" y1="296.6621" y2="296.6621"/><polygon fill="#181818" points="186.5,292.6621,176.5,296.6621,186.5,300.6621,182.5,296.6621" style="stroke:#181818;stroke-width:1.0;"/><text fill="#000000" font-family="sans-serif" font-size="13" font-weight="bold" lengthAdjust="spacing" textLength="9" x="182.5" y="278.9199">6</text><text fill="#000000" font-family="sans-serif" font-size="13" lengthAdjust="spacing" textLength="67" x="195.5" y="278.9199">showRoles</text><polygon fill="#181818" points="163.5,321.9727,173.5,325.9727,163.5,329.9727,167.5,325.9727" style="stroke:#181818;stroke-width:1.0;"/><line style="stroke:#181818;stroke-width:1.0;" x1="70.5" x2="169.5" y1="325.9727" y2="325.9727"/><text fill="#000000" font-family="sans-serif" font-size="13" font-weight="bold" lengthAdjust="spacing" textLength="9" x="77.5" y="321.2305">7</text><text fill="#000000" font-family="sans-serif" font-size="13" lengthAdjust="spacing" textLength="63" x="90.5" y="321.2305">enter data</text><polygon fill="#181818" points="163.5,351.2832,173.5,355.2832,163.5,359.2832,167.5,355.2832" style="stroke:#181818;stroke-width:1.0;"/><line style="stroke:#181818;stroke-width:1.0;" x1="70.5" x2="169.5" y1="355.2832" y2="355.2832"/><text fill="#000000" font-family="sans-serif" font-size="13" font-weight="bold" lengthAdjust="spacing" textLength="9" x="77.5" y="350.541">8</text><text fill="#000000" font-family="sans-serif" font-size="13" lengthAdjust="spacing" textLength="44" x="90.5" y="350.541">submit</text><polygon fill="#181818" points="343.5,387.5938,353.5,391.5938,343.5,395.5938,347.5,391.5938" style="stroke:#181818;stroke-width:1.0;"/><line style="stroke:#181818;stroke-width:1.0;" x1="175.5" x2="349.5" y1="391.5938" y2="391.5938"/><text fill="#000000" font-family="sans-serif" font-size="13" font-weight="bold" lengthAdjust="spacing" textLength="9" x="182.5" y="386.8516">9</text><text fill="#000000" font-family="sans-serif" font-size="13" lengthAdjust="spacing" textLength="80" x="195.5" y="386.8516">getAllUsers()</text><polygon fill="#181818" points="641.5,416.9043,651.5,420.9043,641.5,424.9043,645.5,420.9043" style="stroke:#181818;stroke-width:1.0;"/><line style="stroke:#181818;stroke-width:1.0;" x1="355.5" x2="647.5" y1="420.9043" y2="420.9043"/><text fill="#000000" font-family="sans-serif" font-size="13" font-weight="bold" lengthAdjust="spacing" textLength="18" x="362.5" y="416.1621">10</text><text fill="#000000" font-family="sans-serif" font-size="13" lengthAdjust="spacing" textLength="58" x="384.5" y="416.1621">allUsers()</text><polygon fill="#181818" points="801.5,446.2148,811.5,450.2148,801.5,454.2148,805.5,450.2148" style="stroke:#181818;stroke-width:1.0;"/><line style="stroke:#181818;stroke-width:1.0;" x1="653.5" x2="807.5" y1="450.2148" y2="450.2148"/><text fill="#000000" font-family="sans-serif" font-size="13" font-weight="bold" lengthAdjust="spacing" textLength="18" x="660.5" y="445.4727">11</text><text fill="#000000" font-family="sans-serif" font-size="13" lengthAdjust="spacing" textLength="50" x="682.5" y="445.4727">findAll()</text><path d="M121,465.2148 L228,465.2148 L228,472.5254 L218,482.5254 L121,482.5254 L121,465.2148 " fill="#EEEEEE" style="stroke:#000000;stroke-width:1.5;"/><rect fill="none" height="46.6211" style="stroke:#000000;stroke-width:1.5;" width="317" x="121" y="465.2148"/><text fill="#000000" font-family="sans-serif" font-size="13" font-weight="bold" lengthAdjust="spacing" textLength="58" x="136" y="478.7832">Optional</text><text fill="#000000" font-family="sans-serif" font-size="11" font-weight="bold" lengthAdjust="spacing" textLength="189" x="243" y="477.8496">[If option to specific role chosen]</text><polygon fill="#181818" points="343.5,499.8359,353.5,503.8359,343.5,507.8359,347.5,503.8359" style="stroke:#181818;stroke-width:1.0;"/><line style="stroke:#181818;stroke-width:1.0;" x1="175.5" x2="349.5" y1="503.8359" y2="503.8359"/><text fill="#000000" font-family="sans-serif" font-size="13" font-weight="bold" lengthAdjust="spacing" textLength="18" x="182.5" y="499.0938">12</text><text fill="#000000" font-family="sans-serif" font-size="13" lengthAdjust="spacing" textLength="134" x="204.5" y="499.0938">getAllUsersOfRole(...)</text><line style="stroke:#181818;stroke-width:1.0;" x1="175.5" x2="217.5" y1="540.1465" y2="540.1465"/><line style="stroke:#181818;stroke-width:1.0;" x1="217.5" x2="217.5" y1="540.1465" y2="553.1465"/><line style="stroke:#181818;stroke-width:1.0;" x1="176.5" x2="217.5" y1="553.1465" y2="553.1465"/><polygon fill="#181818" points="186.5,549.1465,176.5,553.1465,186.5,557.1465,182.5,553.1465" style="stroke:#181818;stroke-width:1.0;"/><text fill="#000000" font-family="sans-serif" font-size="13" font-weight="bold" lengthAdjust="spacing" textLength="18" x="182.5" y="535.4043">13</text><text fill="#000000" font-family="sans-serif" font-size="13" lengthAdjust="spacing" textLength="33" x="204.5" y="535.4043">show</text><!--SRC=[jP4nJyCm48Lt_uhRQ8ScUmQam5IfLQMYJeZXObyIIxOls9SY_ZrEf0eAXJB0-CxVEz-zk-b5XbILvU0moEXTeTcNYPv72ffMnc8NqIk5et0OVKDHeHQEK1jlWqqICIkbpYIiRc6JnI5HJ8Tr1HmsZEOAH44eWa71As0Q6sz5TP770NQ3M0xeu77T0iy2X24Df6rhDKHs1BhdHE59VMXprlMUWsJGKQoW8zbdJreirONtoNQ7YMPaXkiZMeUDeo-kJvzacMVl-MK6_pWC2kQtszNEpUNl5vnAMmpOaSzpF50yMaqLuBln8d6oxcdWPFEmhnMqDfZyORRytxbE2-tQATb5KHJB7_EOOyjtK6y0]--></g></svg>