<?xml version="1.0" encoding="us-ascii" standalone="no"?><svg xmlns="http://www.w3.org/2000/svg" xmlns:xlink="http://www.w3.org/1999/xlink" contentStyleType="text/css" height="433px" preserveAspectRatio="none" style="width:406px;height:433px;background:#FFFFFF;" version="1.1" viewBox="0 0 406 433" width="406px" zoomAndPan="magnify"><defs/><g><rect fill="#FFFFFF" height="251.4395" style="stroke:#181818;stroke-width:1.0;" width="10" x="65.5" y="91.4883"/><rect fill="#FFFFFF" height="29.3105" style="stroke:#181818;stroke-width:1.0;" width="10" x="351.5" y="112.7988"/><rect fill="#FFFFFF" height="29.3105" style="stroke:#181818;stroke-width:1.0;" width="10" x="351.5" y="171.4199"/><rect fill="#FFFFFF" height="53.6211" style="stroke:#181818;stroke-width:1.0;" width="10" x="351.5" y="230.041"/><rect fill="none" height="90.8867" style="stroke:#000000;stroke-width:1.5;" width="389.5" x="10" y="245.041"/><line style="stroke:#181818;stroke-width:0.5;stroke-dasharray:5.0,5.0;" x1="70" x2="70" y1="81.4883" y2="352.9277"/><line style="stroke:#181818;stroke-width:0.5;stroke-dasharray:5.0,5.0;" x1="356.5" x2="356.5" y1="81.4883" y2="352.9277"/><text fill="#000000" font-family="sans-serif" font-size="14" lengthAdjust="spacing" textLength="95" x="20" y="78.5352">Administrator</text><ellipse cx="70.5" cy="13.5" fill="#E2E2F0" rx="8" ry="8" style="stroke:#181818;stroke-width:0.5;"/><path d="M70.5,21.5 L70.5,48.5 M57.5,29.5 L83.5,29.5 M70.5,48.5 L57.5,63.5 M70.5,48.5 L83.5,63.5 " fill="none" style="stroke:#181818;stroke-width:0.5;"/><text fill="#000000" font-family="sans-serif" font-size="14" lengthAdjust="spacing" textLength="95" x="20" y="365.4629">Administrator</text><ellipse cx="70.5" cy="376.916" fill="#E2E2F0" rx="8" ry="8" style="stroke:#181818;stroke-width:0.5;"/><path d="M70.5,384.916 L70.5,411.916 M57.5,392.916 L83.5,392.916 M70.5,411.916 L57.5,426.916 M70.5,411.916 L83.5,426.916 " fill="none" style="stroke:#181818;stroke-width:0.5;"/><rect fill="#E2E2F0" height="30.4883" rx="2.5" ry="2.5" style="stroke:#181818;stroke-width:0.5;" width="66" x="323.5" y="50"/><text fill="#000000" font-family="sans-serif" font-size="14" lengthAdjust="spacing" textLength="52" x="330.5" y="70.5352">:System</text><rect fill="#E2E2F0" height="30.4883" rx="2.5" ry="2.5" style="stroke:#181818;stroke-width:0.5;" width="66" x="323.5" y="351.9277"/><text fill="#000000" font-family="sans-serif" font-size="14" lengthAdjust="spacing" textLength="52" x="330.5" y="372.4629">:System</text><rect fill="#FFFFFF" height="251.4395" style="stroke:#181818;stroke-width:1.0;" width="10" x="65.5" y="91.4883"/><rect fill="#FFFFFF" height="29.3105" style="stroke:#181818;stroke-width:1.0;" width="10" x="351.5" y="112.7988"/><rect fill="#FFFFFF" height="29.3105" style="stroke:#181818;stroke-width:1.0;" width="10" x="351.5" y="171.4199"/><rect fill="#FFFFFF" height="53.6211" style="stroke:#181818;stroke-width:1.0;" width="10" x="351.5" y="230.041"/><polygon fill="#181818" points="339.5,108.7988,349.5,112.7988,339.5,116.7988,343.5,112.7988" style="stroke:#181818;stroke-width:1.0;"/><line style="stroke:#181818;stroke-width:1.0;" x1="75.5" x2="345.5" y1="112.7988" y2="112.7988"/><text fill="#000000" font-family="sans-serif" font-size="13" font-weight="bold" lengthAdjust="spacing" textLength="9" x="82.5" y="108.0566">1</text><text fill="#000000" font-family="sans-serif" font-size="13" lengthAdjust="spacing" textLength="233" x="95.5" y="108.0566">asks the system to create a new User</text><polygon fill="#181818" points="86.5,138.1094,76.5,142.1094,86.5,146.1094,82.5,142.1094" style="stroke:#181818;stroke-width:1.0;"/><line style="stroke:#181818;stroke-width:1.0;stroke-dasharray:2.0,2.0;" x1="80.5" x2="355.5" y1="142.1094" y2="142.1094"/><text fill="#000000" font-family="sans-serif" font-size="13" font-weight="bold" lengthAdjust="spacing" textLength="9" x="92.5" y="137.3672">2</text><text fill="#000000" font-family="sans-serif" font-size="13" lengthAdjust="spacing" textLength="210" x="105.5" y="137.3672">requests data (Email, Name, Role)</text><polygon fill="#181818" points="339.5,167.4199,349.5,171.4199,339.5,175.4199,343.5,171.4199" style="stroke:#181818;stroke-width:1.0;"/><line style="stroke:#181818;stroke-width:1.0;" x1="75.5" x2="345.5" y1="171.4199" y2="171.4199"/><text fill="#000000" font-family="sans-serif" font-size="13" font-weight="bold" lengthAdjust="spacing" textLength="9" x="82.5" y="166.6777">3</text><text fill="#000000" font-family="sans-serif" font-size="13" lengthAdjust="spacing" textLength="116" x="95.5" y="166.6777">types request data</text><polygon fill="#181818" points="86.5,196.7305,76.5,200.7305,86.5,204.7305,82.5,200.7305" style="stroke:#181818;stroke-width:1.0;"/><line style="stroke:#181818;stroke-width:1.0;stroke-dasharray:2.0,2.0;" x1="80.5" x2="355.5" y1="200.7305" y2="200.7305"/><text fill="#000000" font-family="sans-serif" font-size="13" font-weight="bold" lengthAdjust="spacing" textLength="9" x="92.5" y="195.9883">4</text><text fill="#000000" font-family="sans-serif" font-size="13" lengthAdjust="spacing" textLength="139" x="105.5" y="195.9883">requests confirmation</text><polygon fill="#181818" points="339.5,226.041,349.5,230.041,339.5,234.041,343.5,230.041" style="stroke:#181818;stroke-width:1.0;"/><line style="stroke:#181818;stroke-width:1.0;" x1="75.5" x2="345.5" y1="230.041" y2="230.041"/><text fill="#000000" font-family="sans-serif" font-size="13" font-weight="bold" lengthAdjust="spacing" textLength="9" x="82.5" y="225.2988">5</text><text fill="#000000" font-family="sans-serif" font-size="13" lengthAdjust="spacing" textLength="111" x="95.5" y="225.2988">confirms the data</text><path d="M10,245.041 L72,245.041 L72,252.3516 L62,262.3516 L10,262.3516 L10,245.041 " fill="#EEEEEE" style="stroke:#000000;stroke-width:1.5;"/><rect fill="none" height="90.8867" style="stroke:#000000;stroke-width:1.5;" width="389.5" x="10" y="245.041"/><text fill="#000000" font-family="sans-serif" font-size="13" font-weight="bold" lengthAdjust="spacing" textLength="17" x="25" y="258.6094">alt</text><text fill="#000000" font-family="sans-serif" font-size="11" font-weight="bold" lengthAdjust="spacing" textLength="51" x="87" y="257.6758">[!ERROR]</text><polygon fill="#181818" points="86.5,279.6621,76.5,283.6621,86.5,287.6621,82.5,283.6621" style="stroke:#181818;stroke-width:1.0;"/><line style="stroke:#181818;stroke-width:1.0;stroke-dasharray:2.0,2.0;" x1="80.5" x2="355.5" y1="283.6621" y2="283.6621"/><text fill="#000000" font-family="sans-serif" font-size="13" font-weight="bold" lengthAdjust="spacing" textLength="9" x="92.5" y="278.9199">6</text><text fill="#000000" font-family="sans-serif" font-size="13" lengthAdjust="spacing" textLength="167" x="105.5" y="278.9199">informs operation success</text><line style="stroke:#000000;stroke-width:1.0;stroke-dasharray:2.0,2.0;" x1="10" x2="399.5" y1="292.6621" y2="292.6621"/><text fill="#000000" font-family="sans-serif" font-size="11" font-weight="bold" lengthAdjust="spacing" textLength="48" x="15" y="303.2969">[ERROR]</text><polygon fill="#181818" points="86.5,323.9277,76.5,327.9277,86.5,331.9277,82.5,327.9277" style="stroke:#181818;stroke-width:1.0;"/><line style="stroke:#181818;stroke-width:1.0;stroke-dasharray:2.0,2.0;" x1="80.5" x2="355.5" y1="327.9277" y2="327.9277"/><text fill="#000000" font-family="sans-serif" font-size="13" font-weight="bold" lengthAdjust="spacing" textLength="9" x="92.5" y="323.1855">7</text><text fill="#000000" font-family="sans-serif" font-size="13" lengthAdjust="spacing" textLength="244" x="105.5" y="323.1855">informs operation error and the reason</text><!--SRC=[fP91JWCn34NtEOMP5KZj1MQ1nA9Ra0Pn09Fv5H6JfDWUK6zF9a0XKWjIMSQnNvuTysmvpV4HuXnxoq8tOmmfg0al9rRgcaXNyy8h6zfKvzhAzJLr_VrU3R6Zle2UbUm9f3L4biaB5WfJmXizQ54ua0-Lpdr3rWNPlj6Ju6M6cjB8ndIvYHoc5Tron8g6FE7AZJX6_TNLzZle5xgI_sFcSze6YMmXftDiFki_fdTAXYUZYyqmt0r_Q8MqpGiixo1LYNJs7gh7rJ0fw3mkH9O5IcCLBt-jf_f7oIaDEFVpkbskTm00]--></g></svg>