<?xml version="1.0" encoding="us-ascii" standalone="no"?><svg xmlns="http://www.w3.org/2000/svg" xmlns:xlink="http://www.w3.org/1999/xlink" contentStyleType="text/css" height="560px" preserveAspectRatio="none" style="width:856px;height:560px;background:#FFFFFF;" version="1.1" viewBox="0 0 856 560" width="856px" zoomAndPan="magnify"><defs/><g><line style="stroke:#181818;stroke-width:0.5;stroke-dasharray:5.0,5.0;" x1="55" x2="55" y1="81.4883" y2="479.2148"/><line style="stroke:#181818;stroke-width:0.5;stroke-dasharray:5.0,5.0;" x1="180" x2="180" y1="81.4883" y2="479.2148"/><line style="stroke:#181818;stroke-width:0.5;stroke-dasharray:5.0,5.0;" x1="347" x2="347" y1="81.4883" y2="479.2148"/><line style="stroke:#181818;stroke-width:0.5;stroke-dasharray:5.0,5.0;" x1="541" x2="541" y1="81.4883" y2="479.2148"/><line style="stroke:#181818;stroke-width:0.5;stroke-dasharray:5.0,5.0;" x1="701" x2="701" y1="81.4883" y2="479.2148"/><line style="stroke:#181818;stroke-width:0.5;stroke-dasharray:5.0,5.0;" x1="812" x2="812" y1="81.4883" y2="479.2148"/><text fill="#000000" font-family="sans-serif" font-size="14" lengthAdjust="spacing" textLength="95" x="5" y="78.5352">Administrator</text><ellipse cx="55.5" cy="13.5" fill="#E2E2F0" rx="8" ry="8" style="stroke:#181818;stroke-width:0.5;"/><path d="M55.5,21.5 L55.5,48.5 M42.5,29.5 L68.5,29.5 M55.5,48.5 L42.5,63.5 M55.5,48.5 L68.5,63.5 " fill="none" style="stroke:#181818;stroke-width:0.5;"/><text fill="#000000" font-family="sans-serif" font-size="14" lengthAdjust="spacing" textLength="95" x="5" y="491.75">Administrator</text><ellipse cx="55.5" cy="503.2031" fill="#E2E2F0" rx="8" ry="8" style="stroke:#181818;stroke-width:0.5;"/><path d="M55.5,511.2031 L55.5,538.2031 M42.5,519.2031 L68.5,519.2031 M55.5,538.2031 L42.5,553.2031 M55.5,538.2031 L68.5,553.2031 " fill="none" style="stroke:#181818;stroke-width:0.5;"/><rect fill="#E2E2F0" height="30.4883" rx="2.5" ry="2.5" style="stroke:#181818;stroke-width:0.5;" width="129" x="116" y="50"/><text fill="#000000" font-family="sans-serif" font-size="14" lengthAdjust="spacing" textLength="115" x="123" y="70.5352">DeactivateUserUI</text><rect fill="#E2E2F0" height="30.4883" rx="2.5" ry="2.5" style="stroke:#181818;stroke-width:0.5;" width="129" x="116" y="478.2148"/><text fill="#000000" font-family="sans-serif" font-size="14" lengthAdjust="spacing" textLength="115" x="123" y="498.75">DeactivateUserUI</text><rect fill="#E2E2F0" height="30.4883" rx="2.5" ry="2.5" style="stroke:#181818;stroke-width:0.5;" width="185" x="255" y="50"/><text fill="#000000" font-family="sans-serif" font-size="14" lengthAdjust="spacing" textLength="171" x="262" y="70.5352">DeactivateUserController</text><rect fill="#E2E2F0" height="30.4883" rx="2.5" ry="2.5" style="stroke:#181818;stroke-width:0.5;" width="185" x="255" y="478.2148"/><text fill="#000000" font-family="sans-serif" font-size="14" lengthAdjust="spacing" textLength="171" x="262" y="498.75">DeactivateUserController</text><rect fill="#E2E2F0" height="30.4883" rx="2.5" ry="2.5" style="stroke:#181818;stroke-width:0.5;" width="182" x="450" y="50"/><text fill="#000000" font-family="sans-serif" font-size="14" lengthAdjust="spacing" textLength="168" x="457" y="70.5352">UserManagementService</text><rect fill="#E2E2F0" height="30.4883" rx="2.5" ry="2.5" style="stroke:#181818;stroke-width:0.5;" width="182" x="450" y="478.2148"/><text fill="#000000" font-family="sans-serif" font-size="14" lengthAdjust="spacing" textLength="168" x="457" y="498.75">UserManagementService</text><rect fill="#E2E2F0" height="30.4883" rx="2.5" ry="2.5" style="stroke:#181818;stroke-width:0.5;" width="118" x="642" y="50"/><text fill="#000000" font-family="sans-serif" font-size="14" lengthAdjust="spacing" textLength="104" x="649" y="70.5352">UserRepository</text><rect fill="#E2E2F0" height="30.4883" rx="2.5" ry="2.5" style="stroke:#181818;stroke-width:0.5;" width="118" x="642" y="478.2148"/><text fill="#000000" font-family="sans-serif" font-size="14" lengthAdjust="spacing" textLength="104" x="649" y="498.75">UserRepository</text><text fill="#000000" font-family="sans-serif" font-size="14" lengthAdjust="spacing" textLength="79" x="770" y="78.5352">SystemUser</text><ellipse cx="812.5" cy="49" fill="#E2E2F0" rx="12" ry="12" style="stroke:#181818;stroke-width:0.5;"/><line style="stroke:#181818;stroke-width:0.5;" x1="800.5" x2="824.5" y1="63" y2="63"/><text fill="#000000" font-family="sans-serif" font-size="14" lengthAdjust="spacing" textLength="79" x="770" y="491.75">SystemUser</text><ellipse cx="812.5" cy="510.7031" fill="#E2E2F0" rx="12" ry="12" style="stroke:#181818;stroke-width:0.5;"/><line style="stroke:#181818;stroke-width:0.5;" x1="800.5" x2="824.5" y1="524.7031" y2="524.7031"/><polygon fill="#181818" points="168.5,108.7988,178.5,112.7988,168.5,116.7988,172.5,112.7988" style="stroke:#181818;stroke-width:1.0;"/><line style="stroke:#181818;stroke-width:1.0;" x1="55.5" x2="174.5" y1="112.7988" y2="112.7988"/><text fill="#000000" font-family="sans-serif" font-size="13" font-weight="bold" lengthAdjust="spacing" textLength="9" x="62.5" y="108.0566">1</text><text fill="#000000" font-family="sans-serif" font-size="13" lengthAdjust="spacing" textLength="46" x="75.5" y="108.0566">onLoad</text><polygon fill="#181818" points="335.5,138.1094,345.5,142.1094,335.5,146.1094,339.5,142.1094" style="stroke:#181818;stroke-width:1.0;"/><line style="stroke:#181818;stroke-width:1.0;" x1="180.5" x2="341.5" y1="142.1094" y2="142.1094"/><text fill="#000000" font-family="sans-serif" font-size="13" font-weight="bold" lengthAdjust="spacing" textLength="9" x="187.5" y="137.3672">2</text><text fill="#000000" font-family="sans-serif" font-size="13" lengthAdjust="spacing" textLength="102" x="200.5" y="137.3672">getActiveUsers()</text><polygon fill="#181818" points="529,167.4199,539,171.4199,529,175.4199,533,171.4199" style="stroke:#181818;stroke-width:1.0;"/><line style="stroke:#181818;stroke-width:1.0;" x1="347.5" x2="535" y1="171.4199" y2="171.4199"/><text fill="#000000" font-family="sans-serif" font-size="13" font-weight="bold" lengthAdjust="spacing" textLength="9" x="354.5" y="166.6777">3</text><text fill="#000000" font-family="sans-serif" font-size="13" lengthAdjust="spacing" textLength="102" x="367.5" y="166.6777">getActiveUsers()</text><polygon fill="#181818" points="689,196.7305,699,200.7305,689,204.7305,693,200.7305" style="stroke:#181818;stroke-width:1.0;"/><line style="stroke:#181818;stroke-width:1.0;" x1="541" x2="695" y1="200.7305" y2="200.7305"/><text fill="#000000" font-family="sans-serif" font-size="13" font-weight="bold" lengthAdjust="spacing" textLength="9" x="548" y="195.9883">4</text><text fill="#000000" font-family="sans-serif" font-size="13" lengthAdjust="spacing" textLength="25" x="561" y="195.9883">find</text><line style="stroke:#181818;stroke-width:1.0;" x1="180.5" x2="222.5" y1="230.041" y2="230.041"/><line style="stroke:#181818;stroke-width:1.0;" x1="222.5" x2="222.5" y1="230.041" y2="243.041"/><line style="stroke:#181818;stroke-width:1.0;" x1="181.5" x2="222.5" y1="243.041" y2="243.041"/><polygon fill="#181818" points="191.5,239.041,181.5,243.041,191.5,247.041,187.5,243.041" style="stroke:#181818;stroke-width:1.0;"/><text fill="#000000" font-family="sans-serif" font-size="13" font-weight="bold" lengthAdjust="spacing" textLength="9" x="187.5" y="225.2988">5</text><text fill="#000000" font-family="sans-serif" font-size="13" lengthAdjust="spacing" textLength="33" x="200.5" y="225.2988">show</text><polygon fill="#181818" points="168.5,268.3516,178.5,272.3516,168.5,276.3516,172.5,272.3516" style="stroke:#181818;stroke-width:1.0;"/><line style="stroke:#181818;stroke-width:1.0;" x1="55.5" x2="174.5" y1="272.3516" y2="272.3516"/><text fill="#000000" font-family="sans-serif" font-size="13" font-weight="bold" lengthAdjust="spacing" textLength="9" x="62.5" y="267.6094">6</text><text fill="#000000" font-family="sans-serif" font-size="13" lengthAdjust="spacing" textLength="63" x="75.5" y="267.6094">enter data</text><polygon fill="#181818" points="168.5,297.6621,178.5,301.6621,168.5,305.6621,172.5,301.6621" style="stroke:#181818;stroke-width:1.0;"/><line style="stroke:#181818;stroke-width:1.0;" x1="55.5" x2="174.5" y1="301.6621" y2="301.6621"/><text fill="#000000" font-family="sans-serif" font-size="13" font-weight="bold" lengthAdjust="spacing" textLength="9" x="62.5" y="296.9199">7</text><text fill="#000000" font-family="sans-serif" font-size="13" lengthAdjust="spacing" textLength="44" x="75.5" y="296.9199">submit</text><polygon fill="#181818" points="335.5,326.9727,345.5,330.9727,335.5,334.9727,339.5,330.9727" style="stroke:#181818;stroke-width:1.0;"/><line style="stroke:#181818;stroke-width:1.0;" x1="180.5" x2="341.5" y1="330.9727" y2="330.9727"/><text fill="#000000" font-family="sans-serif" font-size="13" font-weight="bold" lengthAdjust="spacing" textLength="9" x="187.5" y="326.2305">8</text><text fill="#000000" font-family="sans-serif" font-size="13" lengthAdjust="spacing" textLength="93" x="200.5" y="326.2305">disableUser(...)</text><polygon fill="#181818" points="529,356.2832,539,360.2832,529,364.2832,533,360.2832" style="stroke:#181818;stroke-width:1.0;"/><line style="stroke:#181818;stroke-width:1.0;" x1="347.5" x2="535" y1="360.2832" y2="360.2832"/><text fill="#000000" font-family="sans-serif" font-size="13" font-weight="bold" lengthAdjust="spacing" textLength="9" x="354.5" y="355.541">9</text><text fill="#000000" font-family="sans-serif" font-size="13" lengthAdjust="spacing" textLength="93" x="367.5" y="355.541">disableUser(...)</text><polygon fill="#181818" points="800.5,385.5938,810.5,389.5938,800.5,393.5938,804.5,389.5938" style="stroke:#181818;stroke-width:1.0;"/><line style="stroke:#181818;stroke-width:1.0;" x1="541" x2="806.5" y1="389.5938" y2="389.5938"/><text fill="#000000" font-family="sans-serif" font-size="13" font-weight="bold" lengthAdjust="spacing" textLength="18" x="548" y="384.8516">10</text><text fill="#000000" font-family="sans-serif" font-size="13" lengthAdjust="spacing" textLength="53" x="570" y="384.8516">disable()</text><polygon fill="#181818" points="689,414.9043,699,418.9043,689,422.9043,693,418.9043" style="stroke:#181818;stroke-width:1.0;"/><line style="stroke:#181818;stroke-width:1.0;" x1="541" x2="695" y1="418.9043" y2="418.9043"/><text fill="#000000" font-family="sans-serif" font-size="13" font-weight="bold" lengthAdjust="spacing" textLength="18" x="548" y="414.1621">11</text><text fill="#000000" font-family="sans-serif" font-size="13" lengthAdjust="spacing" textLength="28" x="570" y="414.1621">save</text><line style="stroke:#181818;stroke-width:1.0;" x1="180.5" x2="222.5" y1="448.2148" y2="448.2148"/><line style="stroke:#181818;stroke-width:1.0;" x1="222.5" x2="222.5" y1="448.2148" y2="461.2148"/><line style="stroke:#181818;stroke-width:1.0;" x1="181.5" x2="222.5" y1="461.2148" y2="461.2148"/><polygon fill="#181818" points="191.5,457.2148,181.5,461.2148,191.5,465.2148,187.5,461.2148" style="stroke:#181818;stroke-width:1.0;"/><text fill="#000000" font-family="sans-serif" font-size="13" font-weight="bold" lengthAdjust="spacing" textLength="18" x="187.5" y="443.4727">12</text><text fill="#000000" font-family="sans-serif" font-size="13" lengthAdjust="spacing" textLength="33" x="209.5" y="443.4727">show</text><!--SRC=[dP3DRi9038Jl-nHxApsGt7EeXE1IgLn0F82JTOEb_GbhRr3Udbsajce1AVHepwUnPrwE8WCtTJrOy9AShRhWQiPJGj_XqX3q4PnIa2Juv5gC2Ze9KQ-C8qyi4VAarAzHBz_q1ZD78mWU6EFXlT71VmGmwgzm2w-3bnYinTZe7cLLfAl0YrVr22qsPRC53pqwzBB7E5A7TppkSby6Enm2KqunwKP_af_pSOd7nt2UKqE-cByr8327vjGwaYTBCyJGskjwKLNLlqgxySWYoQJt4mkwidvSum_pxJE_zPmPHdocz0i0]--></g></svg>