<?xml version="1.0" encoding="us-ascii" standalone="no"?><svg xmlns="http://www.w3.org/2000/svg" xmlns:xlink="http://www.w3.org/1999/xlink" contentStyleType="text/css" height="374px" preserveAspectRatio="none" style="width:438px;height:374px;background:#FFFFFF;" version="1.1" viewBox="0 0 438 374" width="438px" zoomAndPan="magnify"><defs/><g><rect fill="#FFFFFF" height="188.0859" style="stroke:#181818;stroke-width:1.0;" width="10" x="46.5" y="93.6211"/><rect fill="#FFFFFF" height="165.7949" style="stroke:#181818;stroke-width:1.0;" width="10" x="379.5" y="116.9121"/><rect fill="#FFFFFF" height="149.7949" style="stroke:#181818;stroke-width:1.0;" width="10" x="379.5" y="116.9121"/><rect fill="none" height="98.5039" style="stroke:#000000;stroke-width:1.5;" width="411.5" x="10" y="176.2031"/><line style="stroke:#181818;stroke-width:0.5;stroke-dasharray:5.0,5.0;" x1="51" x2="51" y1="83.6211" y2="291.707"/><line style="stroke:#181818;stroke-width:0.5;stroke-dasharray:5.0,5.0;" x1="379.5" x2="379.5" y1="83.6211" y2="291.707"/><text fill="#000000" font-family="sans-serif" font-size="14" lengthAdjust="spacing" textLength="57" x="20" y="80.1074">Operator</text><ellipse cx="51.5" cy="13.5" fill="#E2E2F0" rx="8" ry="8" style="stroke:#181818;stroke-width:0.5;"/><path d="M51.5,21.5 L51.5,48.5 M38.5,29.5 L64.5,29.5 M51.5,48.5 L38.5,63.5 M51.5,48.5 L64.5,63.5 " fill="none" style="stroke:#181818;stroke-width:0.5;"/><text fill="#000000" font-family="sans-serif" font-size="14" lengthAdjust="spacing" textLength="57" x="20" y="305.8145">Operator</text><ellipse cx="51.5" cy="317.8281" fill="#E2E2F0" rx="8" ry="8" style="stroke:#181818;stroke-width:0.5;"/><path d="M51.5,325.8281 L51.5,352.8281 M38.5,333.8281 L64.5,333.8281 M51.5,352.8281 L38.5,367.8281 M51.5,352.8281 L64.5,367.8281 " fill="none" style="stroke:#181818;stroke-width:0.5;"/><rect fill="#E2E2F0" height="32.6211" rx="2.5" ry="2.5" style="stroke:#181818;stroke-width:0.5;" width="64" x="347.5" y="50"/><text fill="#000000" font-family="sans-serif" font-size="14" lengthAdjust="spacing" textLength="50" x="354.5" y="72.1074">:System</text><rect fill="#E2E2F0" height="32.6211" rx="2.5" ry="2.5" style="stroke:#181818;stroke-width:0.5;" width="64" x="347.5" y="290.707"/><text fill="#000000" font-family="sans-serif" font-size="14" lengthAdjust="spacing" textLength="50" x="354.5" y="312.8145">:System</text><rect fill="#FFFFFF" height="188.0859" style="stroke:#181818;stroke-width:1.0;" width="10" x="46.5" y="93.6211"/><rect fill="#FFFFFF" height="165.7949" style="stroke:#181818;stroke-width:1.0;" width="10" x="379.5" y="116.9121"/><rect fill="#FFFFFF" height="149.7949" style="stroke:#181818;stroke-width:1.0;" width="10" x="379.5" y="116.9121"/><polygon fill="#181818" points="367.5,112.9121,377.5,116.9121,367.5,120.9121,371.5,116.9121" style="stroke:#181818;stroke-width:1.0;"/><line style="stroke:#181818;stroke-width:1.0;" x1="56.5" x2="373.5" y1="116.9121" y2="116.9121"/><text fill="#000000" font-family="sans-serif" font-size="13" font-weight="bold" lengthAdjust="spacing" textLength="7" x="63.5" y="111.6494">1</text><text fill="#000000" font-family="sans-serif" font-size="13" lengthAdjust="spacing" textLength="219" x="74.5" y="111.6494">asks the system to list all Candidates</text><line style="stroke:#181818;stroke-width:1.0;stroke-dasharray:2.0,2.0;" x1="389.5" x2="431.5" y1="148.2031" y2="148.2031"/><line style="stroke:#181818;stroke-width:1.0;stroke-dasharray:2.0,2.0;" x1="431.5" x2="431.5" y1="148.2031" y2="161.2031"/><line style="stroke:#181818;stroke-width:1.0;stroke-dasharray:2.0,2.0;" x1="390.5" x2="431.5" y1="161.2031" y2="161.2031"/><polygon fill="#181818" points="400.5,157.2031,390.5,161.2031,400.5,165.2031,396.5,161.2031" style="stroke:#181818;stroke-width:1.0;"/><text fill="#000000" font-family="sans-serif" font-size="13" font-weight="bold" lengthAdjust="spacing" textLength="7" x="396.5" y="142.9404">2</text><text fill="#000000" font-family="sans-serif" font-size="13" lengthAdjust="spacing" textLength="4" x="407.5" y="142.9404">&#160;</text><path d="M10,176.2031 L71,176.2031 L71,185.4941 L61,195.4941 L10,195.4941 L10,176.2031 " fill="#EEEEEE" style="stroke:#000000;stroke-width:1.5;"/><rect fill="none" height="98.5039" style="stroke:#000000;stroke-width:1.5;" width="411.5" x="10" y="176.2031"/><text fill="#000000" font-family="sans-serif" font-size="13" font-weight="bold" lengthAdjust="spacing" textLength="16" x="25" y="191.2314">alt</text><text fill="#000000" font-family="sans-serif" font-size="11" font-weight="bold" lengthAdjust="spacing" textLength="46" x="86" y="190.0732">[!ERROR]</text><polygon fill="#181818" points="67.5,214.7852,57.5,218.7852,67.5,222.7852,63.5,218.7852" style="stroke:#181818;stroke-width:1.0;"/><line style="stroke:#181818;stroke-width:1.0;stroke-dasharray:2.0,2.0;" x1="61.5" x2="378.5" y1="218.7852" y2="218.7852"/><text fill="#000000" font-family="sans-serif" font-size="13" font-weight="bold" lengthAdjust="spacing" textLength="7" x="73.5" y="213.5225">3</text><text fill="#000000" font-family="sans-serif" font-size="13" lengthAdjust="spacing" textLength="283" x="84.5" y="213.5225">shows EmailAddress and Name of the Candidate</text><line style="stroke:#000000;stroke-width:1.0;stroke-dasharray:2.0,2.0;" x1="10" x2="421.5" y1="227.7852" y2="227.7852"/><text fill="#000000" font-family="sans-serif" font-size="11" font-weight="bold" lengthAdjust="spacing" textLength="43" x="15" y="239.6553">[ERROR]</text><polygon fill="#181818" points="67.5,262.707,57.5,266.707,67.5,270.707,63.5,266.707" style="stroke:#181818;stroke-width:1.0;"/><line style="stroke:#181818;stroke-width:1.0;stroke-dasharray:2.0,2.0;" x1="61.5" x2="373.5" y1="266.707" y2="266.707"/><text fill="#000000" font-family="sans-serif" font-size="13" font-weight="bold" lengthAdjust="spacing" textLength="7" x="73.5" y="261.4443">4</text><text fill="#000000" font-family="sans-serif" font-size="13" lengthAdjust="spacing" textLength="218" x="84.5" y="261.4443">informs operation unsuccess and why</text><!--SRC=[XP3D2i8m48Jl-nHZxxv03uA8LuNw16kpfS7yI3PL-lR6Wb54y9RCp7ux2KyvXicV9H5ndsF2yIg9dmTMDAzBixZsnbbgWAX6rniqxMdMBBv1MoOlYZmAT96G8vpL37OEEmx6ciBHDx7EqY_jJLv_xY5s6QjzrnsxhqYjrKB7U5ViFLktDIQ9Aif-7DWBuh1qh8M8nAdW3z668IQlY8jaOy0KTEhx5_e-pcJanpEacAKoqQTT__81]--></g></svg>