<?xml version="1.0" encoding="us-ascii" standalone="no"?><svg xmlns="http://www.w3.org/2000/svg" xmlns:xlink="http://www.w3.org/1999/xlink" contentStyleType="text/css" height="754px" preserveAspectRatio="none" style="width:1041px;height:754px;background:#FFFFFF;" version="1.1" viewBox="0 0 1041 754" width="1041px" zoomAndPan="magnify"><defs/><g><!--class ListCandidatesUI--><g id="elem_ListCandidatesUI"><rect codeLine="2" fill="#F1F1F1" height="48" id="ListCandidatesUI" rx="2.5" ry="2.5" style="stroke:#181818;stroke-width:0.5;" width="138" x="589" y="7"/><ellipse cx="604" cy="23" fill="#ADD1B2" rx="11" ry="11" style="stroke:#181818;stroke-width:1.0;"/><path d="M606.7656,18.875 Q606.9219,18.6563 607.1094,18.5469 Q607.2969,18.4375 607.5156,18.4375 Q607.8906,18.4375 608.125,18.7031 Q608.3594,18.9531 608.3594,19.5625 L608.3594,21.0156 Q608.3594,21.625 608.125,21.8906 Q607.8906,22.1563 607.5156,22.1563 Q607.1719,22.1563 606.9688,21.9531 Q606.7656,21.7656 606.6563,21.25 Q606.6094,20.8906 606.4219,20.7031 Q606.0938,20.3281 605.4844,20.1094 Q604.875,19.8906 604.25,19.8906 Q603.4844,19.8906 602.8438,20.2188 Q602.2188,20.5469 601.7188,21.2969 Q601.2344,22.0469 601.2344,23.0781 L601.2344,24.1719 Q601.2344,25.4063 602.125,26.2344 Q603.0156,27.0469 604.6094,27.0469 Q605.5469,27.0469 606.2031,26.7969 Q606.5938,26.6406 607.0156,26.2031 Q607.2813,25.9375 607.4219,25.8594 Q607.5781,25.7813 607.7813,25.7813 Q608.1094,25.7813 608.3594,26.0469 Q608.625,26.2969 608.625,26.6406 Q608.625,26.9844 608.2813,27.3906 Q607.7813,27.9688 606.9844,28.2969 Q605.9063,28.75 604.6094,28.75 Q603.0938,28.75 601.8906,28.125 Q600.9063,27.625 600.2188,26.5625 Q599.5313,25.4844 599.5313,24.2031 L599.5313,23.0469 Q599.5313,21.7188 600.1406,20.5781 Q600.7656,19.4219 601.8594,18.8125 Q602.9531,18.1875 604.1875,18.1875 Q604.9219,18.1875 605.5625,18.3594 Q606.2188,18.5156 606.7656,18.875 Z " fill="#000000"/><text fill="#000000" font-family="sans-serif" font-size="14" lengthAdjust="spacing" textLength="106" x="618" y="28.7969">ListCandidatesUI</text><line style="stroke:#181818;stroke-width:0.5;" x1="590" x2="726" y1="39" y2="39"/><line style="stroke:#181818;stroke-width:0.5;" x1="590" x2="726" y1="47" y2="47"/></g><!--class ListCandidatesController--><g id="elem_ListCandidatesController"><rect codeLine="6" fill="#F1F1F1" height="122.4844" id="ListCandidatesController" rx="2.5" ry="2.5" style="stroke:#181818;stroke-width:0.5;" width="458" x="259" y="115"/><ellipse cx="405.75" cy="131" fill="#ADD1B2" rx="11" ry="11" style="stroke:#181818;stroke-width:1.0;"/><path d="M408.5156,126.875 Q408.6719,126.6563 408.8594,126.5469 Q409.0469,126.4375 409.2656,126.4375 Q409.6406,126.4375 409.875,126.7031 Q410.1094,126.9531 410.1094,127.5625 L410.1094,129.0156 Q410.1094,129.625 409.875,129.8906 Q409.6406,130.1563 409.2656,130.1563 Q408.9219,130.1563 408.7188,129.9531 Q408.5156,129.7656 408.4063,129.25 Q408.3594,128.8906 408.1719,128.7031 Q407.8438,128.3281 407.2344,128.1094 Q406.625,127.8906 406,127.8906 Q405.2344,127.8906 404.5938,128.2188 Q403.9688,128.5469 403.4688,129.2969 Q402.9844,130.0469 402.9844,131.0781 L402.9844,132.1719 Q402.9844,133.4063 403.875,134.2344 Q404.7656,135.0469 406.3594,135.0469 Q407.2969,135.0469 407.9531,134.7969 Q408.3438,134.6406 408.7656,134.2031 Q409.0313,133.9375 409.1719,133.8594 Q409.3281,133.7813 409.5313,133.7813 Q409.8594,133.7813 410.1094,134.0469 Q410.375,134.2969 410.375,134.6406 Q410.375,134.9844 410.0313,135.3906 Q409.5313,135.9688 408.7344,136.2969 Q407.6563,136.75 406.3594,136.75 Q404.8438,136.75 403.6406,136.125 Q402.6563,135.625 401.9688,134.5625 Q401.2813,133.4844 401.2813,132.2031 L401.2813,131.0469 Q401.2813,129.7188 401.8906,128.5781 Q402.5156,127.4219 403.6094,126.8125 Q404.7031,126.1875 405.9375,126.1875 Q406.6719,126.1875 407.3125,126.3594 Q407.9688,126.5156 408.5156,126.875 Z " fill="#000000"/><text fill="#000000" font-family="sans-serif" font-size="14" lengthAdjust="spacing" textLength="156" x="426.25" y="136.7969">ListCandidatesController</text><line style="stroke:#181818;stroke-width:0.5;" x1="260" x2="716" y1="147" y2="147"/><rect fill="none" height="6" style="stroke:#C82930;stroke-width:1.0;" width="6" x="267" y="158.8105"/><text fill="#000000" font-family="sans-serif" font-size="14" lengthAdjust="spacing" textLength="128" x="279" y="166.1074">authorizationService</text><rect fill="none" height="6" style="stroke:#C82930;stroke-width:1.0;" width="6" x="267" y="177.4316"/><text fill="#000000" font-family="sans-serif" font-size="14" lengthAdjust="spacing" textLength="109" x="279" y="184.7285">candidateService</text><line style="stroke:#181818;stroke-width:0.5;" x1="260" x2="716" y1="192.2422" y2="192.2422"/><ellipse cx="270" cy="207.0527" fill="#84BE84" rx="3" ry="3" style="stroke:#038048;stroke-width:1.0;"/><text fill="#000000" font-family="sans-serif" font-size="14" lengthAdjust="spacing" textLength="432" x="279" y="211.3496">ListCandidatesController(authorizationService, candidateRepository)</text><ellipse cx="270" cy="225.6738" fill="#84BE84" rx="3" ry="3" style="stroke:#038048;stroke-width:1.0;"/><text fill="#000000" font-family="sans-serif" font-size="14" lengthAdjust="spacing" textLength="45" x="279" y="229.9707">getAll()</text></g><!--class Candidate--><g id="elem_Candidate"><rect codeLine="15" fill="#F1F1F1" height="196.9688" id="Candidate" rx="2.5" ry="2.5" style="stroke:#181818;stroke-width:0.5;" width="132" x="7" y="297"/><ellipse cx="37.75" cy="313" fill="#ADD1B2" rx="11" ry="11" style="stroke:#181818;stroke-width:1.0;"/><path d="M40.5156,308.875 Q40.6719,308.6563 40.8594,308.5469 Q41.0469,308.4375 41.2656,308.4375 Q41.6406,308.4375 41.875,308.7031 Q42.1094,308.9531 42.1094,309.5625 L42.1094,311.0156 Q42.1094,311.625 41.875,311.8906 Q41.6406,312.1563 41.2656,312.1563 Q40.9219,312.1563 40.7188,311.9531 Q40.5156,311.7656 40.4063,311.25 Q40.3594,310.8906 40.1719,310.7031 Q39.8438,310.3281 39.2344,310.1094 Q38.625,309.8906 38,309.8906 Q37.2344,309.8906 36.5938,310.2188 Q35.9688,310.5469 35.4688,311.2969 Q34.9844,312.0469 34.9844,313.0781 L34.9844,314.1719 Q34.9844,315.4063 35.875,316.2344 Q36.7656,317.0469 38.3594,317.0469 Q39.2969,317.0469 39.9531,316.7969 Q40.3438,316.6406 40.7656,316.2031 Q41.0313,315.9375 41.1719,315.8594 Q41.3281,315.7813 41.5313,315.7813 Q41.8594,315.7813 42.1094,316.0469 Q42.375,316.2969 42.375,316.6406 Q42.375,316.9844 42.0313,317.3906 Q41.5313,317.9688 40.7344,318.2969 Q39.6563,318.75 38.3594,318.75 Q36.8438,318.75 35.6406,318.125 Q34.6563,317.625 33.9688,316.5625 Q33.2813,315.4844 33.2813,314.2031 L33.2813,313.0469 Q33.2813,311.7188 33.8906,310.5781 Q34.5156,309.4219 35.6094,308.8125 Q36.7031,308.1875 37.9375,308.1875 Q38.6719,308.1875 39.3125,308.3594 Q39.9688,308.5156 40.5156,308.875 Z " fill="#000000"/><text fill="#000000" font-family="sans-serif" font-size="14" lengthAdjust="spacing" textLength="65" x="55.25" y="318.7969">Candidate</text><line style="stroke:#181818;stroke-width:0.5;" x1="8" x2="138" y1="329" y2="329"/><rect fill="none" height="6" style="stroke:#C82930;stroke-width:1.0;" width="6" x="15" y="340.8105"/><text fill="#000000" font-family="sans-serif" font-size="14" lengthAdjust="spacing" textLength="33" x="27" y="348.1074">email</text><rect fill="none" height="6" style="stroke:#C82930;stroke-width:1.0;" width="6" x="15" y="359.4316"/><text fill="#000000" font-family="sans-serif" font-size="14" lengthAdjust="spacing" textLength="59" x="27" y="366.7285">firstName</text><rect fill="none" height="6" style="stroke:#C82930;stroke-width:1.0;" width="6" x="15" y="378.0527"/><text fill="#000000" font-family="sans-serif" font-size="14" lengthAdjust="spacing" textLength="58" x="27" y="385.3496">lastName</text><rect fill="none" height="6" style="stroke:#C82930;stroke-width:1.0;" width="6" x="15" y="396.6738"/><text fill="#000000" font-family="sans-serif" font-size="14" lengthAdjust="spacing" textLength="106" x="27" y="403.9707">requirementsFile</text><rect fill="none" height="6" style="stroke:#C82930;stroke-width:1.0;" width="6" x="15" y="415.2949"/><text fill="#000000" font-family="sans-serif" font-size="14" lengthAdjust="spacing" textLength="89" x="27" y="422.5918">phoneNumber</text><rect fill="none" height="6" style="stroke:#C82930;stroke-width:1.0;" width="6" x="15" y="433.916"/><text fill="#000000" font-family="sans-serif" font-size="14" lengthAdjust="spacing" textLength="64" x="27" y="441.2129">appStatus</text><rect fill="none" height="6" style="stroke:#C82930;stroke-width:1.0;" width="6" x="15" y="452.5371"/><text fill="#000000" font-family="sans-serif" font-size="14" lengthAdjust="spacing" textLength="61" x="27" y="459.834">createdAt</text><line style="stroke:#181818;stroke-width:0.5;" x1="8" x2="138" y1="467.3477" y2="467.3477"/><ellipse cx="18" cy="482.1582" fill="#84BE84" rx="3" ry="3" style="stroke:#038048;stroke-width:1.0;"/><text fill="#000000" font-family="sans-serif" font-size="14" lengthAdjust="spacing" textLength="66" x="27" y="486.4551">toListDto()</text></g><!--class ListCandidatesDTO--><g id="elem_ListCandidatesDTO"><rect codeLine="26" fill="#F1F1F1" height="103.8633" id="ListCandidatesDTO" rx="2.5" ry="2.5" style="stroke:#181818;stroke-width:0.5;" width="156" x="174" y="343.5"/><ellipse cx="189" cy="359.5" fill="#ADD1B2" rx="11" ry="11" style="stroke:#181818;stroke-width:1.0;"/><path d="M191.7656,355.375 Q191.9219,355.1563 192.1094,355.0469 Q192.2969,354.9375 192.5156,354.9375 Q192.8906,354.9375 193.125,355.2031 Q193.3594,355.4531 193.3594,356.0625 L193.3594,357.5156 Q193.3594,358.125 193.125,358.3906 Q192.8906,358.6563 192.5156,358.6563 Q192.1719,358.6563 191.9688,358.4531 Q191.7656,358.2656 191.6563,357.75 Q191.6094,357.3906 191.4219,357.2031 Q191.0938,356.8281 190.4844,356.6094 Q189.875,356.3906 189.25,356.3906 Q188.4844,356.3906 187.8438,356.7188 Q187.2188,357.0469 186.7188,357.7969 Q186.2344,358.5469 186.2344,359.5781 L186.2344,360.6719 Q186.2344,361.9063 187.125,362.7344 Q188.0156,363.5469 189.6094,363.5469 Q190.5469,363.5469 191.2031,363.2969 Q191.5938,363.1406 192.0156,362.7031 Q192.2813,362.4375 192.4219,362.3594 Q192.5781,362.2813 192.7813,362.2813 Q193.1094,362.2813 193.3594,362.5469 Q193.625,362.7969 193.625,363.1406 Q193.625,363.4844 193.2813,363.8906 Q192.7813,364.4688 191.9844,364.7969 Q190.9063,365.25 189.6094,365.25 Q188.0938,365.25 186.8906,364.625 Q185.9063,364.125 185.2188,363.0625 Q184.5313,361.9844 184.5313,360.7031 L184.5313,359.5469 Q184.5313,358.2188 185.1406,357.0781 Q185.7656,355.9219 186.8594,355.3125 Q187.9531,354.6875 189.1875,354.6875 Q189.9219,354.6875 190.5625,354.8594 Q191.2188,355.0156 191.7656,355.375 Z " fill="#000000"/><text fill="#000000" font-family="sans-serif" font-size="14" lengthAdjust="spacing" textLength="124" x="203" y="365.2969">ListCandidatesDTO</text><line style="stroke:#181818;stroke-width:0.5;" x1="175" x2="329" y1="375.5" y2="375.5"/><rect fill="none" height="6" style="stroke:#C82930;stroke-width:1.0;" width="6" x="182" y="387.3105"/><text fill="#000000" font-family="sans-serif" font-size="14" lengthAdjust="spacing" textLength="33" x="194" y="394.6074">email</text><rect fill="none" height="6" style="stroke:#C82930;stroke-width:1.0;" width="6" x="182" y="405.9316"/><text fill="#000000" font-family="sans-serif" font-size="14" lengthAdjust="spacing" textLength="59" x="194" y="413.2285">firstName</text><rect fill="none" height="6" style="stroke:#C82930;stroke-width:1.0;" width="6" x="182" y="424.5527"/><text fill="#000000" font-family="sans-serif" font-size="14" lengthAdjust="spacing" textLength="58" x="194" y="431.8496">lastName</text><line style="stroke:#181818;stroke-width:0.5;" x1="175" x2="329" y1="439.3633" y2="439.3633"/></g><!--class AuthorizationService--><g id="elem_AuthorizationService"><rect codeLine="33" fill="#F1F1F1" height="103.8633" id="AuthorizationService" rx="2.5" ry="2.5" style="stroke:#181818;stroke-width:0.5;" width="246" x="365" y="343.5"/><ellipse cx="419.25" cy="359.5" fill="#ADD1B2" rx="11" ry="11" style="stroke:#181818;stroke-width:1.0;"/><path d="M422.0156,355.375 Q422.1719,355.1563 422.3594,355.0469 Q422.5469,354.9375 422.7656,354.9375 Q423.1406,354.9375 423.375,355.2031 Q423.6094,355.4531 423.6094,356.0625 L423.6094,357.5156 Q423.6094,358.125 423.375,358.3906 Q423.1406,358.6563 422.7656,358.6563 Q422.4219,358.6563 422.2188,358.4531 Q422.0156,358.2656 421.9063,357.75 Q421.8594,357.3906 421.6719,357.2031 Q421.3438,356.8281 420.7344,356.6094 Q420.125,356.3906 419.5,356.3906 Q418.7344,356.3906 418.0938,356.7188 Q417.4688,357.0469 416.9688,357.7969 Q416.4844,358.5469 416.4844,359.5781 L416.4844,360.6719 Q416.4844,361.9063 417.375,362.7344 Q418.2656,363.5469 419.8594,363.5469 Q420.7969,363.5469 421.4531,363.2969 Q421.8438,363.1406 422.2656,362.7031 Q422.5313,362.4375 422.6719,362.3594 Q422.8281,362.2813 423.0313,362.2813 Q423.3594,362.2813 423.6094,362.5469 Q423.875,362.7969 423.875,363.1406 Q423.875,363.4844 423.5313,363.8906 Q423.0313,364.4688 422.2344,364.7969 Q421.1563,365.25 419.8594,365.25 Q418.3438,365.25 417.1406,364.625 Q416.1563,364.125 415.4688,363.0625 Q414.7813,361.9844 414.7813,360.7031 L414.7813,359.5469 Q414.7813,358.2188 415.3906,357.0781 Q416.0156,355.9219 417.1094,355.3125 Q418.2031,354.6875 419.4375,354.6875 Q420.1719,354.6875 420.8125,354.8594 Q421.4688,355.0156 422.0156,355.375 Z " fill="#000000"/><text fill="#000000" font-family="sans-serif" font-size="14" lengthAdjust="spacing" textLength="129" x="439.75" y="365.2969">AuthorizationService</text><line style="stroke:#181818;stroke-width:0.5;" x1="366" x2="610" y1="375.5" y2="375.5"/><rect fill="none" height="6" style="stroke:#C82930;stroke-width:1.0;" width="6" x="373" y="387.3105"/><text fill="#000000" font-family="sans-serif" font-size="14" lengthAdjust="spacing" textLength="60" x="385" y="394.6074">LOGGER</text><rect fill="none" height="6" style="stroke:#C82930;stroke-width:1.0;" width="6" x="373" y="405.9316"/><text fill="#000000" font-family="sans-serif" font-size="14" lengthAdjust="spacing" textLength="70" x="385" y="413.2285">theSession</text><line style="stroke:#181818;stroke-width:0.5;" x1="366" x2="610" y1="420.7422" y2="420.7422"/><ellipse cx="376" cy="435.5527" fill="#84BE84" rx="3" ry="3" style="stroke:#038048;stroke-width:1.0;"/><text fill="#000000" font-family="sans-serif" font-size="14" lengthAdjust="spacing" textLength="220" x="385" y="439.8496">isAuthenticatedUserAuthorizedTo()</text></g><!--class CandidateService--><g id="elem_CandidateService"><rect codeLine="41" fill="#F1F1F1" height="85.2422" id="CandidateService" rx="2.5" ry="2.5" style="stroke:#181818;stroke-width:0.5;" width="157" x="646.5" y="353"/><ellipse cx="667.35" cy="369" fill="#ADD1B2" rx="11" ry="11" style="stroke:#181818;stroke-width:1.0;"/><path d="M670.1156,364.875 Q670.2719,364.6563 670.4594,364.5469 Q670.6469,364.4375 670.8656,364.4375 Q671.2406,364.4375 671.475,364.7031 Q671.7094,364.9531 671.7094,365.5625 L671.7094,367.0156 Q671.7094,367.625 671.475,367.8906 Q671.2406,368.1563 670.8656,368.1563 Q670.5219,368.1563 670.3188,367.9531 Q670.1156,367.7656 670.0063,367.25 Q669.9594,366.8906 669.7719,366.7031 Q669.4438,366.3281 668.8344,366.1094 Q668.225,365.8906 667.6,365.8906 Q666.8344,365.8906 666.1938,366.2188 Q665.5688,366.5469 665.0688,367.2969 Q664.5844,368.0469 664.5844,369.0781 L664.5844,370.1719 Q664.5844,371.4063 665.475,372.2344 Q666.3656,373.0469 667.9594,373.0469 Q668.8969,373.0469 669.5531,372.7969 Q669.9438,372.6406 670.3656,372.2031 Q670.6313,371.9375 670.7719,371.8594 Q670.9281,371.7813 671.1313,371.7813 Q671.4594,371.7813 671.7094,372.0469 Q671.975,372.2969 671.975,372.6406 Q671.975,372.9844 671.6313,373.3906 Q671.1313,373.9688 670.3344,374.2969 Q669.2563,374.75 667.9594,374.75 Q666.4438,374.75 665.2406,374.125 Q664.2563,373.625 663.5688,372.5625 Q662.8813,371.4844 662.8813,370.2031 L662.8813,369.0469 Q662.8813,367.7188 663.4906,366.5781 Q664.1156,365.4219 665.2094,364.8125 Q666.3031,364.1875 667.5375,364.1875 Q668.2719,364.1875 668.9125,364.3594 Q669.5688,364.5156 670.1156,364.875 Z " fill="#000000"/><text fill="#000000" font-family="sans-serif" font-size="14" lengthAdjust="spacing" textLength="112" x="682.65" y="374.7969">CandidateService</text><line style="stroke:#181818;stroke-width:0.5;" x1="647.5" x2="802.5" y1="385" y2="385"/><rect fill="none" height="6" style="stroke:#C82930;stroke-width:1.0;" width="6" x="654.5" y="396.8105"/><text fill="#000000" font-family="sans-serif" font-size="14" lengthAdjust="spacing" textLength="131" x="666.5" y="404.1074">enrolmentRepository</text><line style="stroke:#181818;stroke-width:0.5;" x1="647.5" x2="802.5" y1="411.6211" y2="411.6211"/><ellipse cx="657.5" cy="426.4316" fill="#84BE84" rx="3" ry="3" style="stroke:#038048;stroke-width:1.0;"/><text fill="#000000" font-family="sans-serif" font-size="14" lengthAdjust="spacing" textLength="48" x="666.5" y="430.7285">findAll()</text></g><!--class RepositoryFactory--><g id="elem_RepositoryFactory"><rect codeLine="49" fill="#F1F1F1" height="66.6211" id="RepositoryFactory" rx="2.5" ry="2.5" style="stroke:#181818;stroke-width:0.5;" width="152" x="839" y="362"/><ellipse cx="855.8" cy="378" fill="#ADD1B2" rx="11" ry="11" style="stroke:#181818;stroke-width:1.0;"/><path d="M858.5656,373.875 Q858.7219,373.6563 858.9094,373.5469 Q859.0969,373.4375 859.3156,373.4375 Q859.6906,373.4375 859.925,373.7031 Q860.1594,373.9531 860.1594,374.5625 L860.1594,376.0156 Q860.1594,376.625 859.925,376.8906 Q859.6906,377.1563 859.3156,377.1563 Q858.9719,377.1563 858.7688,376.9531 Q858.5656,376.7656 858.4563,376.25 Q858.4094,375.8906 858.2219,375.7031 Q857.8938,375.3281 857.2844,375.1094 Q856.675,374.8906 856.05,374.8906 Q855.2844,374.8906 854.6438,375.2188 Q854.0188,375.5469 853.5188,376.2969 Q853.0344,377.0469 853.0344,378.0781 L853.0344,379.1719 Q853.0344,380.4063 853.925,381.2344 Q854.8156,382.0469 856.4094,382.0469 Q857.3469,382.0469 858.0031,381.7969 Q858.3938,381.6406 858.8156,381.2031 Q859.0813,380.9375 859.2219,380.8594 Q859.3781,380.7813 859.5813,380.7813 Q859.9094,380.7813 860.1594,381.0469 Q860.425,381.2969 860.425,381.6406 Q860.425,381.9844 860.0813,382.3906 Q859.5813,382.9688 858.7844,383.2969 Q857.7063,383.75 856.4094,383.75 Q854.8938,383.75 853.6906,383.125 Q852.7063,382.625 852.0188,381.5625 Q851.3313,380.4844 851.3313,379.2031 L851.3313,378.0469 Q851.3313,376.7188 851.9406,375.5781 Q852.5656,374.4219 853.6594,373.8125 Q854.7531,373.1875 855.9875,373.1875 Q856.7219,373.1875 857.3625,373.3594 Q858.0188,373.5156 858.5656,373.875 Z " fill="#000000"/><text fill="#000000" font-family="sans-serif" font-size="14" lengthAdjust="spacing" textLength="116" x="870.2" y="383.7969">RepositoryFactory</text><line style="stroke:#181818;stroke-width:0.5;" x1="840" x2="990" y1="394" y2="394"/><line style="stroke:#181818;stroke-width:0.5;" x1="840" x2="990" y1="402" y2="402"/><ellipse cx="850" cy="416.8105" fill="#84BE84" rx="3" ry="3" style="stroke:#038048;stroke-width:1.0;"/><text fill="#000000" font-family="sans-serif" font-size="14" lengthAdjust="spacing" textLength="126" x="859" y="421.1074">RepositoryFactory()</text></g><!--class PersistenceContext--><g id="elem_PersistenceContext"><rect codeLine="54" fill="#F1F1F1" height="66.6211" id="PersistenceContext" rx="2.5" ry="2.5" style="stroke:#181818;stroke-width:0.5;" width="154" x="795" y="142.5"/><ellipse cx="810" cy="158.5" fill="#ADD1B2" rx="11" ry="11" style="stroke:#181818;stroke-width:1.0;"/><path d="M812.7656,154.375 Q812.9219,154.1563 813.1094,154.0469 Q813.2969,153.9375 813.5156,153.9375 Q813.8906,153.9375 814.125,154.2031 Q814.3594,154.4531 814.3594,155.0625 L814.3594,156.5156 Q814.3594,157.125 814.125,157.3906 Q813.8906,157.6563 813.5156,157.6563 Q813.1719,157.6563 812.9688,157.4531 Q812.7656,157.2656 812.6563,156.75 Q812.6094,156.3906 812.4219,156.2031 Q812.0938,155.8281 811.4844,155.6094 Q810.875,155.3906 810.25,155.3906 Q809.4844,155.3906 808.8438,155.7188 Q808.2188,156.0469 807.7188,156.7969 Q807.2344,157.5469 807.2344,158.5781 L807.2344,159.6719 Q807.2344,160.9063 808.125,161.7344 Q809.0156,162.5469 810.6094,162.5469 Q811.5469,162.5469 812.2031,162.2969 Q812.5938,162.1406 813.0156,161.7031 Q813.2813,161.4375 813.4219,161.3594 Q813.5781,161.2813 813.7813,161.2813 Q814.1094,161.2813 814.3594,161.5469 Q814.625,161.7969 814.625,162.1406 Q814.625,162.4844 814.2813,162.8906 Q813.7813,163.4688 812.9844,163.7969 Q811.9063,164.25 810.6094,164.25 Q809.0938,164.25 807.8906,163.625 Q806.9063,163.125 806.2188,162.0625 Q805.5313,160.9844 805.5313,159.7031 L805.5313,158.5469 Q805.5313,157.2188 806.1406,156.0781 Q806.7656,154.9219 807.8594,154.3125 Q808.9531,153.6875 810.1875,153.6875 Q810.9219,153.6875 811.5625,153.8594 Q812.2188,154.0156 812.7656,154.375 Z " fill="#000000"/><text fill="#000000" font-family="sans-serif" font-size="14" lengthAdjust="spacing" textLength="122" x="824" y="164.2969">PersistenceContext</text><line style="stroke:#181818;stroke-width:0.5;" x1="796" x2="948" y1="174.5" y2="174.5"/><line style="stroke:#181818;stroke-width:0.5;" x1="796" x2="948" y1="182.5" y2="182.5"/><rect fill="#F24D5C" height="6" style="stroke:#C82930;stroke-width:1.0;" width="6" x="803" y="194.3105"/><text fill="#000000" font-family="sans-serif" font-size="14" lengthAdjust="spacing" textLength="84" x="815" y="201.6074">repositories()</text></g><!--class CandidateRepository--><g id="elem_CandidateRepository"><rect codeLine="59" fill="#F1F1F1" height="66.6211" id="CandidateRepository" rx="2.5" ry="2.5" style="stroke:#181818;stroke-width:0.5;" width="165" x="737.5" y="554"/><ellipse cx="752.5" cy="570" fill="#B4A7E5" rx="11" ry="11" style="stroke:#181818;stroke-width:1.0;"/><path d="M753.4531,566.6406 L753.4531,573.2969 L755.1719,573.2969 Q755.7813,573.2969 756.0469,573.5313 Q756.3125,573.7656 756.3125,574.1563 Q756.3125,574.5313 756.0469,574.7656 Q755.7813,575 755.1719,575 L750.0313,575 Q749.4219,575 749.1563,574.7656 Q748.8906,574.5313 748.8906,574.1406 Q748.8906,573.7656 749.1563,573.5313 Q749.4219,573.2969 750.0313,573.2969 L751.75,573.2969 L751.75,566.6406 L750.0313,566.6406 Q749.4219,566.6406 749.1563,566.4063 Q748.8906,566.1719 748.8906,565.7813 Q748.8906,565.4063 749.1563,565.1719 Q749.4219,564.9375 750.0313,564.9375 L755.1719,564.9375 Q755.7813,564.9375 756.0469,565.1719 Q756.3125,565.4063 756.3125,565.7813 Q756.3125,566.1719 756.0469,566.4063 Q755.7813,566.6406 755.1719,566.6406 L753.4531,566.6406 Z " fill="#000000"/><text fill="#000000" font-family="sans-serif" font-size="14" font-style="italic" lengthAdjust="spacing" textLength="133" x="766.5" y="575.7969">CandidateRepository</text><line style="stroke:#181818;stroke-width:0.5;" x1="738.5" x2="901.5" y1="586" y2="586"/><line style="stroke:#181818;stroke-width:0.5;" x1="738.5" x2="901.5" y1="594" y2="594"/><ellipse cx="748.5" cy="608.8105" fill="#84BE84" rx="3" ry="3" style="stroke:#038048;stroke-width:1.0;"/><text fill="#000000" font-family="sans-serif" font-size="14" lengthAdjust="spacing" textLength="48" x="757.5" y="613.1074">findAll()</text></g><!--class InMemoryCandidateRepository--><g id="elem_InMemoryCandidateRepository"><rect codeLine="63" fill="#F1F1F1" height="66.6211" id="InMemoryCandidateRepository" rx="2.5" ry="2.5" style="stroke:#181818;stroke-width:0.5;" width="226" x="586" y="681"/><ellipse cx="601" cy="697" fill="#ADD1B2" rx="11" ry="11" style="stroke:#181818;stroke-width:1.0;"/><path d="M603.7656,692.875 Q603.9219,692.6563 604.1094,692.5469 Q604.2969,692.4375 604.5156,692.4375 Q604.8906,692.4375 605.125,692.7031 Q605.3594,692.9531 605.3594,693.5625 L605.3594,695.0156 Q605.3594,695.625 605.125,695.8906 Q604.8906,696.1563 604.5156,696.1563 Q604.1719,696.1563 603.9688,695.9531 Q603.7656,695.7656 603.6563,695.25 Q603.6094,694.8906 603.4219,694.7031 Q603.0938,694.3281 602.4844,694.1094 Q601.875,693.8906 601.25,693.8906 Q600.4844,693.8906 599.8438,694.2188 Q599.2188,694.5469 598.7188,695.2969 Q598.2344,696.0469 598.2344,697.0781 L598.2344,698.1719 Q598.2344,699.4063 599.125,700.2344 Q600.0156,701.0469 601.6094,701.0469 Q602.5469,701.0469 603.2031,700.7969 Q603.5938,700.6406 604.0156,700.2031 Q604.2813,699.9375 604.4219,699.8594 Q604.5781,699.7813 604.7813,699.7813 Q605.1094,699.7813 605.3594,700.0469 Q605.625,700.2969 605.625,700.6406 Q605.625,700.9844 605.2813,701.3906 Q604.7813,701.9688 603.9844,702.2969 Q602.9063,702.75 601.6094,702.75 Q600.0938,702.75 598.8906,702.125 Q597.9063,701.625 597.2188,700.5625 Q596.5313,699.4844 596.5313,698.2031 L596.5313,697.0469 Q596.5313,695.7188 597.1406,694.5781 Q597.7656,693.4219 598.8594,692.8125 Q599.9531,692.1875 601.1875,692.1875 Q601.9219,692.1875 602.5625,692.3594 Q603.2188,692.5156 603.7656,692.875 Z " fill="#000000"/><text fill="#000000" font-family="sans-serif" font-size="14" lengthAdjust="spacing" textLength="194" x="615" y="702.7969">InMemoryCandidateRepository</text><line style="stroke:#181818;stroke-width:0.5;" x1="587" x2="811" y1="713" y2="713"/><line style="stroke:#181818;stroke-width:0.5;" x1="587" x2="811" y1="721" y2="721"/><ellipse cx="597" cy="735.8105" fill="#84BE84" rx="3" ry="3" style="stroke:#038048;stroke-width:1.0;"/><text fill="#000000" font-family="sans-serif" font-size="14" lengthAdjust="spacing" textLength="48" x="606" y="740.1074">findAll()</text></g><!--class JpaCandidateRepository--><g id="elem_JpaCandidateRepository"><rect codeLine="67" fill="#F1F1F1" height="66.6211" id="JpaCandidateRepository" rx="2.5" ry="2.5" style="stroke:#181818;stroke-width:0.5;" width="187" x="847.5" y="681"/><ellipse cx="862.5" cy="697" fill="#ADD1B2" rx="11" ry="11" style="stroke:#181818;stroke-width:1.0;"/><path d="M865.2656,692.875 Q865.4219,692.6563 865.6094,692.5469 Q865.7969,692.4375 866.0156,692.4375 Q866.3906,692.4375 866.625,692.7031 Q866.8594,692.9531 866.8594,693.5625 L866.8594,695.0156 Q866.8594,695.625 866.625,695.8906 Q866.3906,696.1563 866.0156,696.1563 Q865.6719,696.1563 865.4688,695.9531 Q865.2656,695.7656 865.1563,695.25 Q865.1094,694.8906 864.9219,694.7031 Q864.5938,694.3281 863.9844,694.1094 Q863.375,693.8906 862.75,693.8906 Q861.9844,693.8906 861.3438,694.2188 Q860.7188,694.5469 860.2188,695.2969 Q859.7344,696.0469 859.7344,697.0781 L859.7344,698.1719 Q859.7344,699.4063 860.625,700.2344 Q861.5156,701.0469 863.1094,701.0469 Q864.0469,701.0469 864.7031,700.7969 Q865.0938,700.6406 865.5156,700.2031 Q865.7813,699.9375 865.9219,699.8594 Q866.0781,699.7813 866.2813,699.7813 Q866.6094,699.7813 866.8594,700.0469 Q867.125,700.2969 867.125,700.6406 Q867.125,700.9844 866.7813,701.3906 Q866.2813,701.9688 865.4844,702.2969 Q864.4063,702.75 863.1094,702.75 Q861.5938,702.75 860.3906,702.125 Q859.4063,701.625 858.7188,700.5625 Q858.0313,699.4844 858.0313,698.2031 L858.0313,697.0469 Q858.0313,695.7188 858.6406,694.5781 Q859.2656,693.4219 860.3594,692.8125 Q861.4531,692.1875 862.6875,692.1875 Q863.4219,692.1875 864.0625,692.3594 Q864.7188,692.5156 865.2656,692.875 Z " fill="#000000"/><text fill="#000000" font-family="sans-serif" font-size="14" lengthAdjust="spacing" textLength="155" x="876.5" y="702.7969">JpaCandidateRepository</text><line style="stroke:#181818;stroke-width:0.5;" x1="848.5" x2="1033.5" y1="713" y2="713"/><line style="stroke:#181818;stroke-width:0.5;" x1="848.5" x2="1033.5" y1="721" y2="721"/><ellipse cx="858.5" cy="735.8105" fill="#84BE84" rx="3" ry="3" style="stroke:#038048;stroke-width:1.0;"/><text fill="#000000" font-family="sans-serif" font-size="14" lengthAdjust="spacing" textLength="48" x="867.5" y="740.1074">findAll()</text></g><!--link ListCandidatesController to AuthorizationService--><g id="link_ListCandidatesController_AuthorizationService"><path codeLine="72" d="M488,237.01 C488,270.33 488,305.35 488,337.17 " fill="none" id="ListCandidatesController-to-AuthorizationService" style="stroke:#181818;stroke-width:1.0;"/><polygon fill="#181818" points="488,343.17,492,334.17,488,338.17,484,334.17,488,343.17" style="stroke:#181818;stroke-width:1.0;"/></g><!--link PersistenceContext to RepositoryFactory--><g id="link_PersistenceContext_RepositoryFactory"><path codeLine="73" d="M878.44,209.56 C886.54,250.57 899.226,314.724 907.356,355.834 " fill="none" id="PersistenceContext-to-RepositoryFactory" style="stroke:#181818;stroke-width:1.0;"/><polygon fill="#181818" points="908.52,361.72,910.698,352.115,907.55,356.815,902.85,353.667,908.52,361.72" style="stroke:#181818;stroke-width:1.0;"/></g><!--link RepositoryFactory to CandidateRepository--><g id="link_RepositoryFactory_CandidateRepository"><path codeLine="75" d="M898.67,429.16 C881.22,464.07 856.3927,513.7131 838.9627,548.5831 " fill="none" id="RepositoryFactory-to-CandidateRepository" style="stroke:#181818;stroke-width:1.0;"/><polygon fill="#181818" points="836.28,553.95,843.8819,547.6881,838.5156,549.4776,836.7261,544.1112,836.28,553.95" style="stroke:#181818;stroke-width:1.0;"/></g><!--reverse link CandidateRepository to InMemoryCandidateRepository--><g id="link_CandidateRepository_InMemoryCandidateRepository"><path codeLine="79" d="M776.0015,633.9539 C758.2215,652.3239 748.57,662.29 730.74,680.71 " fill="none" id="CandidateRepository-backto-InMemoryCandidateRepository" style="stroke:#181818;stroke-width:1.0;stroke-dasharray:7.0,7.0;"/><polygon fill="none" points="788.52,621.02,771.6902,629.7811,780.3128,638.1268,788.52,621.02" style="stroke:#181818;stroke-width:1.0;"/></g><!--reverse link CandidateRepository to JpaCandidateRepository--><g id="link_CandidateRepository_JpaCandidateRepository"><path codeLine="80" d="M863.9985,633.9539 C881.7785,652.3239 891.43,662.29 909.26,680.71 " fill="none" id="CandidateRepository-backto-JpaCandidateRepository" style="stroke:#181818;stroke-width:1.0;stroke-dasharray:7.0,7.0;"/><polygon fill="none" points="851.48,621.02,859.6872,638.1268,868.3098,629.7811,851.48,621.02" style="stroke:#181818;stroke-width:1.0;"/></g><!--link ListCandidatesController to CandidateService--><g id="link_ListCandidatesController_CandidateService"><path codeLine="84" d="M560.54,237.28 C582.53,256.06 606.53,277.07 628,297 C647.25,314.87 663.6565,331.1086 680.9165,348.6886 " fill="none" id="ListCandidatesController-to-CandidateService" style="stroke:#181818;stroke-width:1.0;"/><polygon fill="#181818" points="685.12,352.97,681.669,343.7455,681.6171,349.4021,675.9605,349.3502,685.12,352.97" style="stroke:#181818;stroke-width:1.0;"/></g><!--link ListCandidatesController to Candidate--><g id="link_ListCandidatesController_Candidate"><path codeLine="86" d="M270.55,237.15 C230.6,253.23 190.63,272.99 156,297 C150.15,301.05 148.9436,301.6216 143.4836,306.5016 " fill="none" id="ListCandidatesController-to-Candidate" style="stroke:#181818;stroke-width:1.0;"/><polygon fill="#181818" points="139.01,310.5,148.386,307.4848,142.738,307.168,143.0548,301.52,139.01,310.5" style="stroke:#181818;stroke-width:1.0;"/></g><!--link ListCandidatesController to ListCandidatesDTO--><g id="link_ListCandidatesController_ListCandidatesDTO"><path codeLine="87" d="M414.78,237.09 C392.62,255.86 368.49,276.91 347,297 C331.38,311.61 319.1098,323.7654 304.3698,338.9454 " fill="none" id="ListCandidatesController-to-ListCandidatesDTO" style="stroke:#181818;stroke-width:1.0;"/><polygon fill="#181818" points="300.19,343.25,309.3294,339.5797,303.6732,339.6629,303.59,334.0066,300.19,343.25" style="stroke:#181818;stroke-width:1.0;"/></g><!--link ListCandidatesUI to PersistenceContext--><g id="link_ListCandidatesUI_PersistenceContext"><path codeLine="89" d="M692.86,55.29 C728.27,78.96 778.4312,112.4766 818.1812,139.0366 " fill="none" id="ListCandidatesUI-to-PersistenceContext" style="stroke:#181818;stroke-width:1.0;"/><polygon fill="#181818" points="823.17,142.37,817.909,134.044,819.0126,139.5922,813.4645,140.6958,823.17,142.37" style="stroke:#181818;stroke-width:1.0;"/></g><!--link ListCandidatesUI to ListCandidatesController--><g id="link_ListCandidatesUI_ListCandidatesController"><path codeLine="90" d="M630.31,55.29 C611.02,71.52 588.9511,90.0771 563.9211,111.1371 " fill="none" id="ListCandidatesUI-to-ListCandidatesController" style="stroke:#181818;stroke-width:1.0;"/><polygon fill="#181818" points="559.33,115,568.7919,112.2664,563.1559,111.7809,563.6414,106.1449,559.33,115" style="stroke:#181818;stroke-width:1.0;"/></g><!--link CandidateService to CandidateRepository--><g id="link_CandidateService_CandidateRepository"><path codeLine="92" d="M745.85,438.2 C763.22,472.93 784.9374,516.3631 800.9274,548.3531 " fill="none" id="CandidateService-to-CandidateRepository" style="stroke:#181818;stroke-width:1.0;"/><polygon fill="#181818" points="803.61,553.72,803.164,543.8812,801.3745,549.2476,796.0082,547.4581,803.61,553.72" style="stroke:#181818;stroke-width:1.0;"/></g><!--SRC=[bLHRRi8m4FptAVm9IiC9gae8MaH5eU9n0DTPYgN4JkrDrHTtxvea4167qlp4tfqTpyuwaQbmZi-Kmv7GYKe4WjjC-JTZUyPa83ao6gr9Kx04YhaeS6Ui-XAeZ5w1VLSIA2nhV1sAEcbw8OgR4yCISkCK6llPPz4hu31DUtslhjPt92L1FEQG2PNIOgkimxd8W75wOaxOupRc5juAPI43ZUv1fLKqtnaDyo9x0Li6H9wlK63XogsqGESaGwHjnD7udiPeIZqXjyRhXLTraaMhfh26hFsneM70a8FPiyLaSh-a1Ux8MESepIBbF9xwKD9hspYmDG4aQzFXLPCMD4t2Et6ockQrLJffU5qHd20FGlhNeRse7Q_gogfdi8vy0It13nu-i7B5rcKAN5MXA6-tWhIDsbU0oiwKbGTCzHDabFz7oMCkhaAppliVntV1MR50knxRyeYnjfqU6D3b9n2IU_ip65pglhiet3_xg-7p6tGj_3AizTMSqz8_oUFQpePnNOSrJAo_W0k6_m80]--></g></svg>