<?xml version="1.0" encoding="us-ascii" standalone="no"?><svg xmlns="http://www.w3.org/2000/svg" xmlns:xlink="http://www.w3.org/1999/xlink" contentStyleType="text/css" height="660px" preserveAspectRatio="none" style="width:1866px;height:660px;background:#FFFFFF;" version="1.1" viewBox="0 0 1866 660" width="1866px" zoomAndPan="magnify"><defs/><g><rect fill="#FFFFFF" height="421.4434" style="stroke:#181818;stroke-width:1.0;" width="10" x="242.5" y="121.5332"/><rect fill="#FFFFFF" height="62.582" style="stroke:#181818;stroke-width:1.0;" width="10" x="400.5" y="152.8242"/><rect fill="#FFFFFF" height="31.291" style="stroke:#181818;stroke-width:1.0;" width="10" x="400.5" y="480.3945"/><rect fill="#FFFFFF" height="31.291" style="stroke:#181818;stroke-width:1.0;" width="10" x="748.5" y="152.8242"/><rect fill="#FFFFFF" height="31.291" style="stroke:#181818;stroke-width:1.0;" width="10" x="897" y="215.4063"/><rect fill="#FFFFFF" height="158.1152" style="stroke:#181818;stroke-width:1.0;" width="10" x="897" y="322.2793"/><rect fill="#FFFFFF" height="77.2422" style="stroke:#181818;stroke-width:1.0;" width="10" x="1477" y="379.8613"/><rect fill="#FFFFFF" height="37.291" style="stroke:#181818;stroke-width:1.0;" width="10" x="1727.5" y="246.6973"/><rect fill="none" height="112.8242" style="stroke:#000000;stroke-width:1.5;" width="834" x="829" y="337.2793"/><line style="stroke:#181818;stroke-width:0.5;stroke-dasharray:5.0,5.0;" x1="36" x2="36" y1="88.2422" y2="560.9766"/><line style="stroke:#181818;stroke-width:0.5;stroke-dasharray:5.0,5.0;" x1="247.5" x2="247.5" y1="88.2422" y2="560.9766"/><line style="stroke:#181818;stroke-width:0.5;stroke-dasharray:5.0,5.0;" x1="405.5" x2="405.5" y1="88.2422" y2="560.9766"/><line style="stroke:#181818;stroke-width:0.5;stroke-dasharray:5.0,5.0;" x1="753" x2="753" y1="88.2422" y2="560.9766"/><line style="stroke:#181818;stroke-width:0.5;stroke-dasharray:5.0,5.0;" x1="902" x2="902" y1="88.2422" y2="560.9766"/><line style="stroke:#181818;stroke-width:0.5;stroke-dasharray:5.0,5.0;" x1="1481.5" x2="1481.5" y1="88.2422" y2="560.9766"/><line style="stroke:#181818;stroke-width:0.5;stroke-dasharray:5.0,5.0;" x1="1599" x2="1599" y1="428.9824" y2="560.9766"/><line style="stroke:#181818;stroke-width:0.5;stroke-dasharray:5.0,5.0;" x1="1732" x2="1732" y1="88.2422" y2="560.9766"/><text fill="#000000" font-family="sans-serif" font-size="14" lengthAdjust="spacing" textLength="57" x="5" y="84.7285">Operator</text><ellipse cx="36.5" cy="18.1211" fill="#E2E2F0" rx="8" ry="8" style="stroke:#181818;stroke-width:0.5;"/><path d="M36.5,26.1211 L36.5,53.1211 M23.5,34.1211 L49.5,34.1211 M36.5,53.1211 L23.5,68.1211 M36.5,53.1211 L49.5,68.1211 " fill="none" style="stroke:#181818;stroke-width:0.5;"/><text fill="#000000" font-family="sans-serif" font-size="14" lengthAdjust="spacing" textLength="57" x="5" y="575.084">Operator</text><ellipse cx="36.5" cy="587.0977" fill="#E2E2F0" rx="8" ry="8" style="stroke:#181818;stroke-width:0.5;"/><path d="M36.5,595.0977 L36.5,622.0977 M23.5,603.0977 L49.5,603.0977 M36.5,622.0977 L23.5,637.0977 M36.5,622.0977 L49.5,637.0977 " fill="none" style="stroke:#181818;stroke-width:0.5;"/><rect fill="#E2E2F0" height="51.2422" rx="2.5" ry="2.5" style="stroke:#181818;stroke-width:0.5;" width="120" x="187.5" y="36"/><text fill="#000000" font-family="sans-serif" font-size="14" font-style="italic" lengthAdjust="spacing" textLength="95" x="200" y="58.1074">&#171;presentation&#187;</text><text fill="#000000" font-family="sans-serif" font-size="14" lengthAdjust="spacing" textLength="106" x="194.5" y="76.7285">ListCandidatesUI</text><rect fill="#E2E2F0" height="51.2422" rx="2.5" ry="2.5" style="stroke:#181818;stroke-width:0.5;" width="120" x="187.5" y="559.9766"/><text fill="#000000" font-family="sans-serif" font-size="14" font-style="italic" lengthAdjust="spacing" textLength="95" x="200" y="582.084">&#171;presentation&#187;</text><text fill="#000000" font-family="sans-serif" font-size="14" lengthAdjust="spacing" textLength="106" x="194.5" y="600.7051">ListCandidatesUI</text><rect fill="#E2E2F0" height="51.2422" rx="2.5" ry="2.5" style="stroke:#181818;stroke-width:0.5;" width="170" x="320.5" y="36"/><text fill="#000000" font-family="sans-serif" font-size="14" font-style="italic" lengthAdjust="spacing" textLength="84" x="363.5" y="58.1074">&#171;application&#187;</text><text fill="#000000" font-family="sans-serif" font-size="14" lengthAdjust="spacing" textLength="156" x="327.5" y="76.7285">ListCandidatesController</text><rect fill="#E2E2F0" height="51.2422" rx="2.5" ry="2.5" style="stroke:#181818;stroke-width:0.5;" width="170" x="320.5" y="559.9766"/><text fill="#000000" font-family="sans-serif" font-size="14" font-style="italic" lengthAdjust="spacing" textLength="84" x="363.5" y="582.084">&#171;application&#187;</text><text fill="#000000" font-family="sans-serif" font-size="14" lengthAdjust="spacing" textLength="156" x="327.5" y="600.7051">ListCandidatesController</text><rect fill="#E2E2F0" height="51.2422" rx="2.5" ry="2.5" style="stroke:#181818;stroke-width:0.5;" width="151" x="678" y="36"/><text fill="#000000" font-family="sans-serif" font-size="14" font-style="italic" lengthAdjust="spacing" textLength="60" x="723.5" y="58.1074">&#171;service&#187;</text><text fill="#000000" font-family="sans-serif" font-size="14" lengthAdjust="spacing" textLength="137" x="685" y="76.7285">AuthenticationService</text><rect fill="#E2E2F0" height="51.2422" rx="2.5" ry="2.5" style="stroke:#181818;stroke-width:0.5;" width="151" x="678" y="559.9766"/><text fill="#000000" font-family="sans-serif" font-size="14" font-style="italic" lengthAdjust="spacing" textLength="60" x="723.5" y="582.084">&#171;service&#187;</text><text fill="#000000" font-family="sans-serif" font-size="14" lengthAdjust="spacing" textLength="137" x="685" y="600.7051">AuthenticationService</text><rect fill="#E2E2F0" height="51.2422" rx="2.5" ry="2.5" style="stroke:#181818;stroke-width:0.5;" width="126" x="839" y="36"/><text fill="#000000" font-family="sans-serif" font-size="14" font-style="italic" lengthAdjust="spacing" textLength="60" x="872" y="58.1074">&#171;service&#187;</text><text fill="#000000" font-family="sans-serif" font-size="14" lengthAdjust="spacing" textLength="112" x="846" y="76.7285">CandidateService</text><rect fill="#E2E2F0" height="51.2422" rx="2.5" ry="2.5" style="stroke:#181818;stroke-width:0.5;" width="126" x="839" y="559.9766"/><text fill="#000000" font-family="sans-serif" font-size="14" font-style="italic" lengthAdjust="spacing" textLength="60" x="872" y="582.084">&#171;service&#187;</text><text fill="#000000" font-family="sans-serif" font-size="14" lengthAdjust="spacing" textLength="112" x="846" y="600.7051">CandidateService</text><rect fill="#E2E2F0" height="51.2422" rx="2.5" ry="2.5" style="stroke:#181818;stroke-width:0.5;" width="79" x="1442.5" y="36"/><text fill="#000000" font-family="sans-serif" font-size="14" font-style="italic" lengthAdjust="spacing" textLength="62" x="1451" y="58.1074">&#171;domain&#187;</text><text fill="#000000" font-family="sans-serif" font-size="14" lengthAdjust="spacing" textLength="65" x="1449.5" y="76.7285">Candidate</text><rect fill="#E2E2F0" height="51.2422" rx="2.5" ry="2.5" style="stroke:#181818;stroke-width:0.5;" width="79" x="1442.5" y="559.9766"/><text fill="#000000" font-family="sans-serif" font-size="14" font-style="italic" lengthAdjust="spacing" textLength="62" x="1451" y="582.084">&#171;domain&#187;</text><text fill="#000000" font-family="sans-serif" font-size="14" lengthAdjust="spacing" textLength="65" x="1449.5" y="600.7051">Candidate</text><rect fill="#E2E2F0" height="51.2422" rx="2.5" ry="2.5" style="stroke:#181818;stroke-width:0.5;" width="108" x="1545" y="559.9766"/><text fill="#000000" font-family="sans-serif" font-size="14" font-style="italic" lengthAdjust="spacing" textLength="36" x="1581" y="582.084">&#171;dto&#187;</text><text fill="#000000" font-family="sans-serif" font-size="14" lengthAdjust="spacing" textLength="94" x="1552" y="600.7051">ListCandidates</text><text fill="#000000" font-family="sans-serif" font-size="14" font-style="italic" lengthAdjust="spacing" textLength="79" x="1690" y="66.1074">&#171;repository&#187;</text><text fill="#000000" font-family="sans-serif" font-size="14" lengthAdjust="spacing" textLength="133" x="1663" y="84.7285">CandidateRepository</text><path d="M1714.5,15 C1714.5,5 1732.5,5 1732.5,5 C1732.5,5 1750.5,5 1750.5,15 L1750.5,41 C1750.5,51 1732.5,51 1732.5,51 C1732.5,51 1714.5,51 1714.5,41 L1714.5,15 " fill="#E2E2F0" style="stroke:#181818;stroke-width:1.5;"/><path d="M1714.5,15 C1714.5,25 1732.5,25 1732.5,25 C1732.5,25 1750.5,25 1750.5,15 " fill="none" style="stroke:#181818;stroke-width:1.5;"/><text fill="#000000" font-family="sans-serif" font-size="14" font-style="italic" lengthAdjust="spacing" textLength="79" x="1690" y="575.084">&#171;repository&#187;</text><text fill="#000000" font-family="sans-serif" font-size="14" lengthAdjust="spacing" textLength="133" x="1663" y="593.7051">CandidateRepository</text><path d="M1714.5,607.2188 C1714.5,597.2188 1732.5,597.2188 1732.5,597.2188 C1732.5,597.2188 1750.5,597.2188 1750.5,607.2188 L1750.5,633.2188 C1750.5,643.2188 1732.5,643.2188 1732.5,643.2188 C1732.5,643.2188 1714.5,643.2188 1714.5,633.2188 L1714.5,607.2188 " fill="#E2E2F0" style="stroke:#181818;stroke-width:1.5;"/><path d="M1714.5,607.2188 C1714.5,617.2188 1732.5,617.2188 1732.5,617.2188 C1732.5,617.2188 1750.5,617.2188 1750.5,607.2188 " fill="none" style="stroke:#181818;stroke-width:1.5;"/><rect fill="#FFFFFF" height="421.4434" style="stroke:#181818;stroke-width:1.0;" width="10" x="242.5" y="121.5332"/><rect fill="#FFFFFF" height="62.582" style="stroke:#181818;stroke-width:1.0;" width="10" x="400.5" y="152.8242"/><rect fill="#FFFFFF" height="31.291" style="stroke:#181818;stroke-width:1.0;" width="10" x="400.5" y="480.3945"/><rect fill="#FFFFFF" height="31.291" style="stroke:#181818;stroke-width:1.0;" width="10" x="748.5" y="152.8242"/><rect fill="#FFFFFF" height="31.291" style="stroke:#181818;stroke-width:1.0;" width="10" x="897" y="215.4063"/><rect fill="#FFFFFF" height="158.1152" style="stroke:#181818;stroke-width:1.0;" width="10" x="897" y="322.2793"/><rect fill="#FFFFFF" height="77.2422" style="stroke:#181818;stroke-width:1.0;" width="10" x="1477" y="379.8613"/><rect fill="#FFFFFF" height="37.291" style="stroke:#181818;stroke-width:1.0;" width="10" x="1727.5" y="246.6973"/><polygon fill="#181818" points="230.5,117.5332,240.5,121.5332,230.5,125.5332,234.5,121.5332" style="stroke:#181818;stroke-width:1.0;"/><line style="stroke:#181818;stroke-width:1.0;" x1="36.5" x2="236.5" y1="121.5332" y2="121.5332"/><text fill="#000000" font-family="sans-serif" font-size="13" font-weight="bold" lengthAdjust="spacing" textLength="7" x="43.5" y="116.2705">1</text><text fill="#000000" font-family="sans-serif" font-size="13" lengthAdjust="spacing" textLength="170" x="54.5" y="116.2705">requests to list all candidates</text><polygon fill="#181818" points="388.5,148.8242,398.5,152.8242,388.5,156.8242,392.5,152.8242" style="stroke:#181818;stroke-width:1.0;"/><line style="stroke:#181818;stroke-width:1.0;" x1="252.5" x2="394.5" y1="152.8242" y2="152.8242"/><text fill="#000000" font-family="sans-serif" font-size="13" font-weight="bold" lengthAdjust="spacing" textLength="7" x="259.5" y="147.5615">2</text><text fill="#000000" font-family="sans-serif" font-size="13" lengthAdjust="spacing" textLength="41" x="270.5" y="147.5615">getAll()</text><polygon fill="#181818" points="741.5,180.1152,751.5,184.1152,741.5,188.1152,745.5,184.1152" style="stroke:#181818;stroke-width:1.0;"/><line style="stroke:#181818;stroke-width:1.0;" x1="410.5" x2="747.5" y1="184.1152" y2="184.1152"/><text fill="#000000" font-family="sans-serif" font-size="13" font-weight="bold" lengthAdjust="spacing" textLength="7" x="417.5" y="178.8525">3</text><text fill="#000000" font-family="sans-serif" font-size="13" lengthAdjust="spacing" textLength="303" x="428.5" y="178.8525">authenticatedUser = loggedinUserWithPermissions()</text><polygon fill="#181818" points="885,211.4063,895,215.4063,885,219.4063,889,215.4063" style="stroke:#181818;stroke-width:1.0;"/><line style="stroke:#181818;stroke-width:1.0;" x1="405.5" x2="891" y1="215.4063" y2="215.4063"/><text fill="#000000" font-family="sans-serif" font-size="13" font-weight="bold" lengthAdjust="spacing" textLength="7" x="412.5" y="210.1436">4</text><text fill="#000000" font-family="sans-serif" font-size="13" lengthAdjust="spacing" textLength="43" x="423.5" y="210.1436">findAll()</text><polygon fill="#181818" points="1715.5,242.6973,1725.5,246.6973,1715.5,250.6973,1719.5,246.6973" style="stroke:#181818;stroke-width:1.0;"/><line style="stroke:#181818;stroke-width:1.0;" x1="902" x2="1721.5" y1="246.6973" y2="246.6973"/><text fill="#000000" font-family="sans-serif" font-size="13" font-weight="bold" lengthAdjust="spacing" textLength="7" x="909" y="241.4346">5</text><text fill="#000000" font-family="sans-serif" font-size="13" lengthAdjust="spacing" textLength="43" x="920" y="241.4346">findAll()</text><line style="stroke:#181818;stroke-width:1.0;" x1="1737.5" x2="1779.5" y1="282.9883" y2="282.9883"/><line style="stroke:#181818;stroke-width:1.0;" x1="1779.5" x2="1779.5" y1="282.9883" y2="295.9883"/><line style="stroke:#181818;stroke-width:1.0;" x1="1732.5" x2="1779.5" y1="295.9883" y2="295.9883"/><polygon fill="#181818" points="1742.5,291.9883,1732.5,295.9883,1742.5,299.9883,1738.5,295.9883" style="stroke:#181818;stroke-width:1.0;"/><text fill="#000000" font-family="sans-serif" font-size="13" font-weight="bold" lengthAdjust="spacing" textLength="7" x="1744.5" y="277.7256">6</text><text fill="#000000" font-family="sans-serif" font-size="13" lengthAdjust="spacing" textLength="104" x="1755.5" y="277.7256">finding candidates</text><polygon fill="#181818" points="918,318.2793,908,322.2793,918,326.2793,914,322.2793" style="stroke:#181818;stroke-width:1.0;"/><line style="stroke:#181818;stroke-width:1.0;stroke-dasharray:2.0,2.0;" x1="912" x2="1731.5" y1="322.2793" y2="322.2793"/><text fill="#000000" font-family="sans-serif" font-size="13" font-weight="bold" lengthAdjust="spacing" textLength="7" x="924" y="317.0166">7</text><text fill="#000000" font-family="sans-serif" font-size="13" lengthAdjust="spacing" textLength="63" x="935" y="317.0166">candidates</text><path d="M829,337.2793 L902,337.2793 L902,346.5703 L892,356.5703 L829,356.5703 L829,337.2793 " fill="#EEEEEE" style="stroke:#000000;stroke-width:1.5;"/><rect fill="none" height="112.8242" style="stroke:#000000;stroke-width:1.5;" width="834" x="829" y="337.2793"/><text fill="#000000" font-family="sans-serif" font-size="13" font-weight="bold" lengthAdjust="spacing" textLength="28" x="844" y="352.3076">loop</text><text fill="#000000" font-family="sans-serif" font-size="11" font-weight="bold" lengthAdjust="spacing" textLength="109" x="917" y="351.1494">[for each candidate]</text><polygon fill="#181818" points="1465,375.8613,1475,379.8613,1465,383.8613,1469,379.8613" style="stroke:#181818;stroke-width:1.0;"/><line style="stroke:#181818;stroke-width:1.0;" x1="907" x2="1471" y1="379.8613" y2="379.8613"/><text fill="#000000" font-family="sans-serif" font-size="13" font-weight="bold" lengthAdjust="spacing" textLength="7" x="914" y="374.5986">8</text><text fill="#000000" font-family="sans-serif" font-size="13" lengthAdjust="spacing" textLength="540" x="925" y="374.5986">listcandidatesDTO = ListCandidates(this.email, this.name.firstName(), this.name.lastName());</text><polygon fill="#181818" points="1533,407.1523,1543,411.1523,1533,415.1523,1537,411.1523" style="stroke:#181818;stroke-width:1.0;"/><line style="stroke:#181818;stroke-width:1.0;" x1="1487" x2="1539" y1="411.1523" y2="411.1523"/><text fill="#000000" font-family="sans-serif" font-size="13" font-weight="bold" lengthAdjust="spacing" textLength="7" x="1494" y="405.8896">9</text><text fill="#000000" font-family="sans-serif" font-size="13" lengthAdjust="spacing" textLength="23" x="1505" y="405.8896">new</text><rect fill="#E2E2F0" height="51.2422" rx="2.5" ry="2.5" style="stroke:#181818;stroke-width:0.5;" width="108" x="1545" y="387.8613"/><text fill="#000000" font-family="sans-serif" font-size="14" font-style="italic" lengthAdjust="spacing" textLength="36" x="1581" y="409.9688">&#171;dto&#187;</text><text fill="#000000" font-family="sans-serif" font-size="14" lengthAdjust="spacing" textLength="94" x="1552" y="428.5898">ListCandidates</text><polygon fill="#181818" points="421.5,476.3945,411.5,480.3945,421.5,484.3945,417.5,480.3945" style="stroke:#181818;stroke-width:1.0;"/><line style="stroke:#181818;stroke-width:1.0;stroke-dasharray:2.0,2.0;" x1="415.5" x2="901" y1="480.3945" y2="480.3945"/><text fill="#000000" font-family="sans-serif" font-size="13" font-weight="bold" lengthAdjust="spacing" textLength="14" x="427.5" y="475.1318">10</text><text fill="#000000" font-family="sans-serif" font-size="13" lengthAdjust="spacing" textLength="106" x="445.5" y="475.1318">listcandidatesDTO</text><polygon fill="#181818" points="263.5,507.6855,253.5,511.6855,263.5,515.6855,259.5,511.6855" style="stroke:#181818;stroke-width:1.0;"/><line style="stroke:#181818;stroke-width:1.0;" x1="257.5" x2="404.5" y1="511.6855" y2="511.6855"/><text fill="#000000" font-family="sans-serif" font-size="13" font-weight="bold" lengthAdjust="spacing" textLength="14" x="269.5" y="506.4229">11</text><text fill="#000000" font-family="sans-serif" font-size="13" lengthAdjust="spacing" textLength="106" x="287.5" y="506.4229">listcandidatesDTO</text><polygon fill="#181818" points="47.5,538.9766,37.5,542.9766,47.5,546.9766,43.5,542.9766" style="stroke:#181818;stroke-width:1.0;"/><line style="stroke:#181818;stroke-width:1.0;stroke-dasharray:2.0,2.0;" x1="41.5" x2="246.5" y1="542.9766" y2="542.9766"/><text fill="#000000" font-family="sans-serif" font-size="13" font-weight="bold" lengthAdjust="spacing" textLength="14" x="53.5" y="537.7139">12</text><text fill="#000000" font-family="sans-serif" font-size="13" lengthAdjust="spacing" textLength="164" x="71.5" y="537.7139">showInfo(listcandidatesDTO)</text><!--SRC=[VPF1Rjim38RlUWeYfwJO-W1U6y382Yn0aHQfWnq7rMPY0ehaIKgBlVr8sR6TELbE4lr_9FMJqQVexEduZbufNKRdOVRIeDTyce4EK2ZLQ1-ff4RR2BDd2d6bRKMLZXXswoJQhU7XeV4Oq4OToTdbyd_KojdedJ7ObbWLssVcTTCOAg_Y-IdMdBhx-eR-WqfCRBuhVZ0Rsj2_N5zoZBmzRI-86qZRMhvXRUMEckn4UlceLl_hU_4YH7GYL_n5l-k0qEkssBX0xEuVqM-VNbdj-rY22lYwP4ipyFZxX246Y0uC5mDj39HzHPaNVV29nKhn31WJBpCuOCoDcIy6XSGvzH0GurHodgdaOWPwi1ch7Ji4Zs3SuO0LMRd-f5Y_eZzI23o6mFbLXTSpYiaPxCbMRICZNTjAVsMb4ZL3uiODI5JzXNLAj6T42BA7iJKZj5VtRLspK0eOvnhOyr-0uNfGAKY_habPYIoDOqWZGt-4otsOnvh2FVBcc2-GpbOVyNvFFiGDd-QBSTZeStJnJNK51yVopJacrQK9sRExEsx4ucVt2Mq5yeBkEdQS-T4RkZMvzegRbgUXdOShkpb5fpEUH6H7cIyo2BNxNDkzcq_oN8oT5_il]--></g></svg>