<?xml version="1.0" encoding="us-ascii" standalone="no"?><svg xmlns="http://www.w3.org/2000/svg" xmlns:xlink="http://www.w3.org/1999/xlink" contentStyleType="text/css" height="1105px" preserveAspectRatio="none" style="width:1486px;height:1105px;background:#FFFFFF;" version="1.1" viewBox="0 0 1486 1105" width="1486px" zoomAndPan="magnify"><defs/><g><!--class AddUserUI--><g id="elem_AddUserUI"><rect codeLine="2" fill="#F1F1F1" height="48" id="AddUserUI" rx="2.5" ry="2.5" style="stroke:#181818;stroke-width:0.5;" width="98" x="897.5" y="16.5"/><ellipse cx="912.5" cy="32.5" fill="#ADD1B2" rx="11" ry="11" style="stroke:#181818;stroke-width:1.0;"/><path d="M915.2656,28.375 Q915.4219,28.1563 915.6094,28.0469 Q915.7969,27.9375 916.0156,27.9375 Q916.3906,27.9375 916.625,28.2031 Q916.8594,28.4531 916.8594,29.0625 L916.8594,30.5156 Q916.8594,31.125 916.625,31.3906 Q916.3906,31.6563 916.0156,31.6563 Q915.6719,31.6563 915.4688,31.4531 Q915.2656,31.2656 915.1563,30.75 Q915.1094,30.3906 914.9219,30.2031 Q914.5938,29.8281 913.9844,29.6094 Q913.375,29.3906 912.75,29.3906 Q911.9844,29.3906 911.3438,29.7188 Q910.7188,30.0469 910.2188,30.7969 Q909.7344,31.5469 909.7344,32.5781 L909.7344,33.6719 Q909.7344,34.9063 910.625,35.7344 Q911.5156,36.5469 913.1094,36.5469 Q914.0469,36.5469 914.7031,36.2969 Q915.0938,36.1406 915.5156,35.7031 Q915.7813,35.4375 915.9219,35.3594 Q916.0781,35.2813 916.2813,35.2813 Q916.6094,35.2813 916.8594,35.5469 Q917.125,35.7969 917.125,36.1406 Q917.125,36.4844 916.7813,36.8906 Q916.2813,37.4688 915.4844,37.7969 Q914.4063,38.25 913.1094,38.25 Q911.5938,38.25 910.3906,37.625 Q909.4063,37.125 908.7188,36.0625 Q908.0313,34.9844 908.0313,33.7031 L908.0313,32.5469 Q908.0313,31.2188 908.6406,30.0781 Q909.2656,28.9219 910.3594,28.3125 Q911.4531,27.6875 912.6875,27.6875 Q913.4219,27.6875 914.0625,27.8594 Q914.7188,28.0156 915.2656,28.375 Z " fill="#000000"/><text fill="#000000" font-family="sans-serif" font-size="14" lengthAdjust="spacing" textLength="66" x="926.5" y="38.2969">AddUserUI</text><line style="stroke:#181818;stroke-width:0.5;" x1="898.5" x2="994.5" y1="48.5" y2="48.5"/><line style="stroke:#181818;stroke-width:0.5;" x1="898.5" x2="994.5" y1="56.5" y2="56.5"/></g><!--class AddUserController--><g id="elem_AddUserController"><rect codeLine="6" fill="#F1F1F1" height="141.1055" id="AddUserController" rx="2.5" ry="2.5" style="stroke:#181818;stroke-width:0.5;" width="418" x="547.5" y="261"/><ellipse cx="694.25" cy="277" fill="#ADD1B2" rx="11" ry="11" style="stroke:#181818;stroke-width:1.0;"/><path d="M697.0156,272.875 Q697.1719,272.6563 697.3594,272.5469 Q697.5469,272.4375 697.7656,272.4375 Q698.1406,272.4375 698.375,272.7031 Q698.6094,272.9531 698.6094,273.5625 L698.6094,275.0156 Q698.6094,275.625 698.375,275.8906 Q698.1406,276.1563 697.7656,276.1563 Q697.4219,276.1563 697.2188,275.9531 Q697.0156,275.7656 696.9063,275.25 Q696.8594,274.8906 696.6719,274.7031 Q696.3438,274.3281 695.7344,274.1094 Q695.125,273.8906 694.5,273.8906 Q693.7344,273.8906 693.0938,274.2188 Q692.4688,274.5469 691.9688,275.2969 Q691.4844,276.0469 691.4844,277.0781 L691.4844,278.1719 Q691.4844,279.4063 692.375,280.2344 Q693.2656,281.0469 694.8594,281.0469 Q695.7969,281.0469 696.4531,280.7969 Q696.8438,280.6406 697.2656,280.2031 Q697.5313,279.9375 697.6719,279.8594 Q697.8281,279.7813 698.0313,279.7813 Q698.3594,279.7813 698.6094,280.0469 Q698.875,280.2969 698.875,280.6406 Q698.875,280.9844 698.5313,281.3906 Q698.0313,281.9688 697.2344,282.2969 Q696.1563,282.75 694.8594,282.75 Q693.3438,282.75 692.1406,282.125 Q691.1563,281.625 690.4688,280.5625 Q689.7813,279.4844 689.7813,278.2031 L689.7813,277.0469 Q689.7813,275.7188 690.3906,274.5781 Q691.0156,273.4219 692.1094,272.8125 Q693.2031,272.1875 694.4375,272.1875 Q695.1719,272.1875 695.8125,272.3594 Q696.4688,272.5156 697.0156,272.875 Z " fill="#000000"/><text fill="#000000" font-family="sans-serif" font-size="14" lengthAdjust="spacing" textLength="116" x="714.75" y="282.7969">AddUserController</text><line style="stroke:#181818;stroke-width:0.5;" x1="548.5" x2="964.5" y1="293" y2="293"/><rect fill="none" height="6" style="stroke:#C82930;stroke-width:1.0;" width="6" x="555.5" y="304.8105"/><text fill="#000000" font-family="sans-serif" font-size="14" lengthAdjust="spacing" textLength="28" x="567.5" y="312.1074">auth</text><rect fill="none" height="6" style="stroke:#C82930;stroke-width:1.0;" width="6" x="555.5" y="323.4316"/><text fill="#000000" font-family="sans-serif" font-size="14" lengthAdjust="spacing" textLength="51" x="567.5" y="330.7285">userSvc</text><rect fill="none" height="6" style="stroke:#C82930;stroke-width:1.0;" width="6" x="555.5" y="342.0527"/><text fill="#000000" font-family="sans-serif" font-size="14" lengthAdjust="spacing" textLength="130" x="567.5" y="349.3496">candidateRepository</text><line style="stroke:#181818;stroke-width:0.5;" x1="548.5" x2="964.5" y1="356.8633" y2="356.8633"/><ellipse cx="558.5" cy="371.6738" fill="#84BE84" rx="3" ry="3" style="stroke:#038048;stroke-width:1.0;"/><text fill="#000000" font-family="sans-serif" font-size="14" lengthAdjust="spacing" textLength="392" x="567.5" y="375.9707">AddUserController(authorizationService, candidateRepository)</text><ellipse cx="558.5" cy="390.2949" fill="#84BE84" rx="3" ry="3" style="stroke:#038048;stroke-width:1.0;"/><text fill="#000000" font-family="sans-serif" font-size="14" lengthAdjust="spacing" textLength="128" x="567.5" y="394.5918">getCandidate(email)</text></g><!--class AuthorizationService--><g id="elem_AuthorizationService"><rect codeLine="14" fill="#F1F1F1" height="103.8633" id="AuthorizationService" rx="2.5" ry="2.5" style="stroke:#181818;stroke-width:0.5;" width="246" x="213.5" y="490"/><ellipse cx="267.75" cy="506" fill="#ADD1B2" rx="11" ry="11" style="stroke:#181818;stroke-width:1.0;"/><path d="M270.5156,501.875 Q270.6719,501.6563 270.8594,501.5469 Q271.0469,501.4375 271.2656,501.4375 Q271.6406,501.4375 271.875,501.7031 Q272.1094,501.9531 272.1094,502.5625 L272.1094,504.0156 Q272.1094,504.625 271.875,504.8906 Q271.6406,505.1563 271.2656,505.1563 Q270.9219,505.1563 270.7188,504.9531 Q270.5156,504.7656 270.4063,504.25 Q270.3594,503.8906 270.1719,503.7031 Q269.8438,503.3281 269.2344,503.1094 Q268.625,502.8906 268,502.8906 Q267.2344,502.8906 266.5938,503.2188 Q265.9688,503.5469 265.4688,504.2969 Q264.9844,505.0469 264.9844,506.0781 L264.9844,507.1719 Q264.9844,508.4063 265.875,509.2344 Q266.7656,510.0469 268.3594,510.0469 Q269.2969,510.0469 269.9531,509.7969 Q270.3438,509.6406 270.7656,509.2031 Q271.0313,508.9375 271.1719,508.8594 Q271.3281,508.7813 271.5313,508.7813 Q271.8594,508.7813 272.1094,509.0469 Q272.375,509.2969 272.375,509.6406 Q272.375,509.9844 272.0313,510.3906 Q271.5313,510.9688 270.7344,511.2969 Q269.6563,511.75 268.3594,511.75 Q266.8438,511.75 265.6406,511.125 Q264.6563,510.625 263.9688,509.5625 Q263.2813,508.4844 263.2813,507.2031 L263.2813,506.0469 Q263.2813,504.7188 263.8906,503.5781 Q264.5156,502.4219 265.6094,501.8125 Q266.7031,501.1875 267.9375,501.1875 Q268.6719,501.1875 269.3125,501.3594 Q269.9688,501.5156 270.5156,501.875 Z " fill="#000000"/><text fill="#000000" font-family="sans-serif" font-size="14" lengthAdjust="spacing" textLength="129" x="288.25" y="511.7969">AuthorizationService</text><line style="stroke:#181818;stroke-width:0.5;" x1="214.5" x2="458.5" y1="522" y2="522"/><rect fill="none" height="6" style="stroke:#C82930;stroke-width:1.0;" width="6" x="221.5" y="533.8105"/><text fill="#000000" font-family="sans-serif" font-size="14" lengthAdjust="spacing" textLength="60" x="233.5" y="541.1074">LOGGER</text><rect fill="none" height="6" style="stroke:#C82930;stroke-width:1.0;" width="6" x="221.5" y="552.4316"/><text fill="#000000" font-family="sans-serif" font-size="14" lengthAdjust="spacing" textLength="70" x="233.5" y="559.7285">theSession</text><line style="stroke:#181818;stroke-width:0.5;" x1="214.5" x2="458.5" y1="567.2422" y2="567.2422"/><ellipse cx="224.5" cy="582.0527" fill="#84BE84" rx="3" ry="3" style="stroke:#038048;stroke-width:1.0;"/><text fill="#000000" font-family="sans-serif" font-size="14" lengthAdjust="spacing" textLength="220" x="233.5" y="586.3496">isAuthenticatedUserAuthorizedTo()</text></g><!--class Candidate--><g id="elem_Candidate"><rect codeLine="20" fill="#F1F1F1" height="159.7266" id="Candidate" rx="2.5" ry="2.5" style="stroke:#181818;stroke-width:0.5;" width="132" x="26.5" y="691"/><ellipse cx="57.25" cy="707" fill="#ADD1B2" rx="11" ry="11" style="stroke:#181818;stroke-width:1.0;"/><path d="M60.0156,702.875 Q60.1719,702.6563 60.3594,702.5469 Q60.5469,702.4375 60.7656,702.4375 Q61.1406,702.4375 61.375,702.7031 Q61.6094,702.9531 61.6094,703.5625 L61.6094,705.0156 Q61.6094,705.625 61.375,705.8906 Q61.1406,706.1563 60.7656,706.1563 Q60.4219,706.1563 60.2188,705.9531 Q60.0156,705.7656 59.9063,705.25 Q59.8594,704.8906 59.6719,704.7031 Q59.3438,704.3281 58.7344,704.1094 Q58.125,703.8906 57.5,703.8906 Q56.7344,703.8906 56.0938,704.2188 Q55.4688,704.5469 54.9688,705.2969 Q54.4844,706.0469 54.4844,707.0781 L54.4844,708.1719 Q54.4844,709.4063 55.375,710.2344 Q56.2656,711.0469 57.8594,711.0469 Q58.7969,711.0469 59.4531,710.7969 Q59.8438,710.6406 60.2656,710.2031 Q60.5313,709.9375 60.6719,709.8594 Q60.8281,709.7813 61.0313,709.7813 Q61.3594,709.7813 61.6094,710.0469 Q61.875,710.2969 61.875,710.6406 Q61.875,710.9844 61.5313,711.3906 Q61.0313,711.9688 60.2344,712.2969 Q59.1563,712.75 57.8594,712.75 Q56.3438,712.75 55.1406,712.125 Q54.1563,711.625 53.4688,710.5625 Q52.7813,709.4844 52.7813,708.2031 L52.7813,707.0469 Q52.7813,705.7188 53.3906,704.5781 Q54.0156,703.4219 55.1094,702.8125 Q56.2031,702.1875 57.4375,702.1875 Q58.1719,702.1875 58.8125,702.3594 Q59.4688,702.5156 60.0156,702.875 Z " fill="#000000"/><text fill="#000000" font-family="sans-serif" font-size="14" lengthAdjust="spacing" textLength="65" x="74.75" y="712.7969">Candidate</text><line style="stroke:#181818;stroke-width:0.5;" x1="27.5" x2="157.5" y1="723" y2="723"/><rect fill="none" height="6" style="stroke:#C82930;stroke-width:1.0;" width="6" x="34.5" y="734.8105"/><text fill="#000000" font-family="sans-serif" font-size="14" lengthAdjust="spacing" textLength="33" x="46.5" y="742.1074">email</text><rect fill="none" height="6" style="stroke:#C82930;stroke-width:1.0;" width="6" x="34.5" y="753.4316"/><text fill="#000000" font-family="sans-serif" font-size="14" lengthAdjust="spacing" textLength="59" x="46.5" y="760.7285">firstName</text><rect fill="none" height="6" style="stroke:#C82930;stroke-width:1.0;" width="6" x="34.5" y="772.0527"/><text fill="#000000" font-family="sans-serif" font-size="14" lengthAdjust="spacing" textLength="58" x="46.5" y="779.3496">lastName</text><rect fill="none" height="6" style="stroke:#C82930;stroke-width:1.0;" width="6" x="34.5" y="790.6738"/><text fill="#000000" font-family="sans-serif" font-size="14" lengthAdjust="spacing" textLength="106" x="46.5" y="797.9707">requirementsFile</text><rect fill="none" height="6" style="stroke:#C82930;stroke-width:1.0;" width="6" x="34.5" y="809.2949"/><text fill="#000000" font-family="sans-serif" font-size="14" lengthAdjust="spacing" textLength="89" x="46.5" y="816.5918">phoneNumber</text><rect fill="none" height="6" style="stroke:#C82930;stroke-width:1.0;" width="6" x="34.5" y="827.916"/><text fill="#000000" font-family="sans-serif" font-size="14" lengthAdjust="spacing" textLength="61" x="46.5" y="835.2129">createdAt</text><line style="stroke:#181818;stroke-width:0.5;" x1="27.5" x2="157.5" y1="842.7266" y2="842.7266"/></g><!--class UserManagementService--><g id="elem_UserManagementService"><rect codeLine="31" fill="#F1F1F1" height="122.4844" id="UserManagementService" rx="2.5" ry="2.5" style="stroke:#181818;stroke-width:0.5;" width="524" x="494.5" y="481"/><ellipse cx="673.25" cy="497" fill="#ADD1B2" rx="11" ry="11" style="stroke:#181818;stroke-width:1.0;"/><path d="M676.0156,492.875 Q676.1719,492.6563 676.3594,492.5469 Q676.5469,492.4375 676.7656,492.4375 Q677.1406,492.4375 677.375,492.7031 Q677.6094,492.9531 677.6094,493.5625 L677.6094,495.0156 Q677.6094,495.625 677.375,495.8906 Q677.1406,496.1563 676.7656,496.1563 Q676.4219,496.1563 676.2188,495.9531 Q676.0156,495.7656 675.9063,495.25 Q675.8594,494.8906 675.6719,494.7031 Q675.3438,494.3281 674.7344,494.1094 Q674.125,493.8906 673.5,493.8906 Q672.7344,493.8906 672.0938,494.2188 Q671.4688,494.5469 670.9688,495.2969 Q670.4844,496.0469 670.4844,497.0781 L670.4844,498.1719 Q670.4844,499.4063 671.375,500.2344 Q672.2656,501.0469 673.8594,501.0469 Q674.7969,501.0469 675.4531,500.7969 Q675.8438,500.6406 676.2656,500.2031 Q676.5313,499.9375 676.6719,499.8594 Q676.8281,499.7813 677.0313,499.7813 Q677.3594,499.7813 677.6094,500.0469 Q677.875,500.2969 677.875,500.6406 Q677.875,500.9844 677.5313,501.3906 Q677.0313,501.9688 676.2344,502.2969 Q675.1563,502.75 673.8594,502.75 Q672.3438,502.75 671.1406,502.125 Q670.1563,501.625 669.4688,500.5625 Q668.7813,499.4844 668.7813,498.2031 L668.7813,497.0469 Q668.7813,495.7188 669.3906,494.5781 Q670.0156,493.4219 671.1094,492.8125 Q672.2031,492.1875 673.4375,492.1875 Q674.1719,492.1875 674.8125,492.3594 Q675.4688,492.5156 676.0156,492.875 Z " fill="#000000"/><text fill="#000000" font-family="sans-serif" font-size="14" lengthAdjust="spacing" textLength="158" x="693.75" y="502.7969">UserManagementService</text><line style="stroke:#181818;stroke-width:0.5;" x1="495.5" x2="1017.5" y1="513" y2="513"/><rect fill="none" height="6" style="stroke:#C82930;stroke-width:1.0;" width="6" x="502.5" y="524.8105"/><text fill="#000000" font-family="sans-serif" font-size="14" lengthAdjust="spacing" textLength="96" x="514.5" y="532.1074">userRepository</text><rect fill="none" height="6" style="stroke:#C82930;stroke-width:1.0;" width="6" x="502.5" y="543.4316"/><text fill="#000000" font-family="sans-serif" font-size="14" lengthAdjust="spacing" textLength="52" x="514.5" y="550.7285">encoder</text><rect fill="none" height="6" style="stroke:#C82930;stroke-width:1.0;" width="6" x="502.5" y="562.0527"/><text fill="#000000" font-family="sans-serif" font-size="14" lengthAdjust="spacing" textLength="36" x="514.5" y="569.3496">policy</text><line style="stroke:#181818;stroke-width:0.5;" x1="495.5" x2="1017.5" y1="576.8633" y2="576.8633"/><ellipse cx="505.5" cy="591.6738" fill="#84BE84" rx="3" ry="3" style="stroke:#038048;stroke-width:1.0;"/><text fill="#000000" font-family="sans-serif" font-size="14" lengthAdjust="spacing" textLength="498" x="514.5" y="595.9707">registerNewUser(email, password, firstName, lastName, email, roles,createdOn)</text></g><!--class CandidateBuilder--><g id="elem_CandidateBuilder"><rect codeLine="41" fill="#F1F1F1" height="159.7266" id="CandidateBuilder" rx="2.5" ry="2.5" style="stroke:#181818;stroke-width:0.5;" width="171" x="7" y="462"/><ellipse cx="35.5" cy="478" fill="#ADD1B2" rx="11" ry="11" style="stroke:#181818;stroke-width:1.0;"/><path d="M38.2656,473.875 Q38.4219,473.6563 38.6094,473.5469 Q38.7969,473.4375 39.0156,473.4375 Q39.3906,473.4375 39.625,473.7031 Q39.8594,473.9531 39.8594,474.5625 L39.8594,476.0156 Q39.8594,476.625 39.625,476.8906 Q39.3906,477.1563 39.0156,477.1563 Q38.6719,477.1563 38.4688,476.9531 Q38.2656,476.7656 38.1563,476.25 Q38.1094,475.8906 37.9219,475.7031 Q37.5938,475.3281 36.9844,475.1094 Q36.375,474.8906 35.75,474.8906 Q34.9844,474.8906 34.3438,475.2188 Q33.7188,475.5469 33.2188,476.2969 Q32.7344,477.0469 32.7344,478.0781 L32.7344,479.1719 Q32.7344,480.4063 33.625,481.2344 Q34.5156,482.0469 36.1094,482.0469 Q37.0469,482.0469 37.7031,481.7969 Q38.0938,481.6406 38.5156,481.2031 Q38.7813,480.9375 38.9219,480.8594 Q39.0781,480.7813 39.2813,480.7813 Q39.6094,480.7813 39.8594,481.0469 Q40.125,481.2969 40.125,481.6406 Q40.125,481.9844 39.7813,482.3906 Q39.2813,482.9688 38.4844,483.2969 Q37.4063,483.75 36.1094,483.75 Q34.5938,483.75 33.3906,483.125 Q32.4063,482.625 31.7188,481.5625 Q31.0313,480.4844 31.0313,479.2031 L31.0313,478.0469 Q31.0313,476.7188 31.6406,475.5781 Q32.2656,474.4219 33.3594,473.8125 Q34.4531,473.1875 35.6875,473.1875 Q36.4219,473.1875 37.0625,473.3594 Q37.7188,473.5156 38.2656,473.875 Z " fill="#000000"/><text fill="#000000" font-family="sans-serif" font-size="14" lengthAdjust="spacing" textLength="109" x="52.5" y="483.7969">CandidateBuilder</text><line style="stroke:#181818;stroke-width:0.5;" x1="8" x2="177" y1="494" y2="494"/><line style="stroke:#181818;stroke-width:0.5;" x1="8" x2="177" y1="502" y2="502"/><ellipse cx="18" cy="516.8105" fill="#84BE84" rx="3" ry="3" style="stroke:#038048;stroke-width:1.0;"/><text fill="#000000" font-family="sans-serif" font-size="14" lengthAdjust="spacing" textLength="68" x="27" y="521.1074">withEmail()</text><ellipse cx="18" cy="535.4316" fill="#84BE84" rx="3" ry="3" style="stroke:#038048;stroke-width:1.0;"/><text fill="#000000" font-family="sans-serif" font-size="14" lengthAdjust="spacing" textLength="70" x="27" y="539.7285">withName()</text><ellipse cx="18" cy="554.0527" fill="#84BE84" rx="3" ry="3" style="stroke:#038048;stroke-width:1.0;"/><text fill="#000000" font-family="sans-serif" font-size="14" lengthAdjust="spacing" textLength="145" x="27" y="558.3496">withRequirementsFile()</text><ellipse cx="18" cy="572.6738" fill="#84BE84" rx="3" ry="3" style="stroke:#038048;stroke-width:1.0;"/><text fill="#000000" font-family="sans-serif" font-size="14" lengthAdjust="spacing" textLength="124" x="27" y="576.9707">withPhoneNumber()</text><ellipse cx="18" cy="591.2949" fill="#84BE84" rx="3" ry="3" style="stroke:#038048;stroke-width:1.0;"/><text fill="#000000" font-family="sans-serif" font-size="14" lengthAdjust="spacing" textLength="99" x="27" y="595.5918">withAppStatus()</text><ellipse cx="18" cy="609.916" fill="#84BE84" rx="3" ry="3" style="stroke:#038048;stroke-width:1.0;"/><text fill="#000000" font-family="sans-serif" font-size="14" lengthAdjust="spacing" textLength="40" x="27" y="614.2129">build()</text></g><!--class RepositoryFactory--><g id="elem_RepositoryFactory"><rect codeLine="51" fill="#F1F1F1" height="66.6211" id="RepositoryFactory" rx="2.5" ry="2.5" style="stroke:#181818;stroke-width:0.5;" width="152" x="1060.5" y="298"/><ellipse cx="1077.3" cy="314" fill="#ADD1B2" rx="11" ry="11" style="stroke:#181818;stroke-width:1.0;"/><path d="M1080.0656,309.875 Q1080.2219,309.6563 1080.4094,309.5469 Q1080.5969,309.4375 1080.8156,309.4375 Q1081.1906,309.4375 1081.425,309.7031 Q1081.6594,309.9531 1081.6594,310.5625 L1081.6594,312.0156 Q1081.6594,312.625 1081.425,312.8906 Q1081.1906,313.1563 1080.8156,313.1563 Q1080.4719,313.1563 1080.2688,312.9531 Q1080.0656,312.7656 1079.9563,312.25 Q1079.9094,311.8906 1079.7219,311.7031 Q1079.3938,311.3281 1078.7844,311.1094 Q1078.175,310.8906 1077.55,310.8906 Q1076.7844,310.8906 1076.1438,311.2188 Q1075.5188,311.5469 1075.0188,312.2969 Q1074.5344,313.0469 1074.5344,314.0781 L1074.5344,315.1719 Q1074.5344,316.4063 1075.425,317.2344 Q1076.3156,318.0469 1077.9094,318.0469 Q1078.8469,318.0469 1079.5031,317.7969 Q1079.8938,317.6406 1080.3156,317.2031 Q1080.5813,316.9375 1080.7219,316.8594 Q1080.8781,316.7813 1081.0813,316.7813 Q1081.4094,316.7813 1081.6594,317.0469 Q1081.925,317.2969 1081.925,317.6406 Q1081.925,317.9844 1081.5813,318.3906 Q1081.0813,318.9688 1080.2844,319.2969 Q1079.2063,319.75 1077.9094,319.75 Q1076.3938,319.75 1075.1906,319.125 Q1074.2063,318.625 1073.5188,317.5625 Q1072.8313,316.4844 1072.8313,315.2031 L1072.8313,314.0469 Q1072.8313,312.7188 1073.4406,311.5781 Q1074.0656,310.4219 1075.1594,309.8125 Q1076.2531,309.1875 1077.4875,309.1875 Q1078.2219,309.1875 1078.8625,309.3594 Q1079.5188,309.5156 1080.0656,309.875 Z " fill="#000000"/><text fill="#000000" font-family="sans-serif" font-size="14" lengthAdjust="spacing" textLength="116" x="1091.7" y="319.7969">RepositoryFactory</text><line style="stroke:#181818;stroke-width:0.5;" x1="1061.5" x2="1211.5" y1="330" y2="330"/><line style="stroke:#181818;stroke-width:0.5;" x1="1061.5" x2="1211.5" y1="338" y2="338"/><ellipse cx="1071.5" cy="352.8105" fill="#84BE84" rx="3" ry="3" style="stroke:#038048;stroke-width:1.0;"/><text fill="#000000" font-family="sans-serif" font-size="14" lengthAdjust="spacing" textLength="126" x="1080.5" y="357.1074">RepositoryFactory()</text></g><!--class PersistenceContext--><g id="elem_PersistenceContext"><rect codeLine="56" fill="#F1F1F1" height="66.6211" id="PersistenceContext" rx="2.5" ry="2.5" style="stroke:#181818;stroke-width:0.5;" width="154" x="996.5" y="134"/><ellipse cx="1011.5" cy="150" fill="#ADD1B2" rx="11" ry="11" style="stroke:#181818;stroke-width:1.0;"/><path d="M1014.2656,145.875 Q1014.4219,145.6563 1014.6094,145.5469 Q1014.7969,145.4375 1015.0156,145.4375 Q1015.3906,145.4375 1015.625,145.7031 Q1015.8594,145.9531 1015.8594,146.5625 L1015.8594,148.0156 Q1015.8594,148.625 1015.625,148.8906 Q1015.3906,149.1563 1015.0156,149.1563 Q1014.6719,149.1563 1014.4688,148.9531 Q1014.2656,148.7656 1014.1563,148.25 Q1014.1094,147.8906 1013.9219,147.7031 Q1013.5938,147.3281 1012.9844,147.1094 Q1012.375,146.8906 1011.75,146.8906 Q1010.9844,146.8906 1010.3438,147.2188 Q1009.7188,147.5469 1009.2188,148.2969 Q1008.7344,149.0469 1008.7344,150.0781 L1008.7344,151.1719 Q1008.7344,152.4063 1009.625,153.2344 Q1010.5156,154.0469 1012.1094,154.0469 Q1013.0469,154.0469 1013.7031,153.7969 Q1014.0938,153.6406 1014.5156,153.2031 Q1014.7813,152.9375 1014.9219,152.8594 Q1015.0781,152.7813 1015.2813,152.7813 Q1015.6094,152.7813 1015.8594,153.0469 Q1016.125,153.2969 1016.125,153.6406 Q1016.125,153.9844 1015.7813,154.3906 Q1015.2813,154.9688 1014.4844,155.2969 Q1013.4063,155.75 1012.1094,155.75 Q1010.5938,155.75 1009.3906,155.125 Q1008.4063,154.625 1007.7188,153.5625 Q1007.0313,152.4844 1007.0313,151.2031 L1007.0313,150.0469 Q1007.0313,148.7188 1007.6406,147.5781 Q1008.2656,146.4219 1009.3594,145.8125 Q1010.4531,145.1875 1011.6875,145.1875 Q1012.4219,145.1875 1013.0625,145.3594 Q1013.7188,145.5156 1014.2656,145.875 Z " fill="#000000"/><text fill="#000000" font-family="sans-serif" font-size="14" lengthAdjust="spacing" textLength="122" x="1025.5" y="155.7969">PersistenceContext</text><line style="stroke:#181818;stroke-width:0.5;" x1="997.5" x2="1149.5" y1="166" y2="166"/><line style="stroke:#181818;stroke-width:0.5;" x1="997.5" x2="1149.5" y1="174" y2="174"/><rect fill="#F24D5C" height="6" style="stroke:#C82930;stroke-width:1.0;" width="6" x="1004.5" y="185.8105"/><text fill="#000000" font-family="sans-serif" font-size="14" lengthAdjust="spacing" textLength="84" x="1016.5" y="193.1074">repositories()</text></g><!--class CandidateRepository--><g id="elem_CandidateRepository"><rect codeLine="61" fill="#F1F1F1" height="66.6211" id="CandidateRepository" rx="2.5" ry="2.5" style="stroke:#181818;stroke-width:0.5;" width="165" x="1054" y="508.5"/><ellipse cx="1069" cy="524.5" fill="#B4A7E5" rx="11" ry="11" style="stroke:#181818;stroke-width:1.0;"/><path d="M1069.9531,521.1406 L1069.9531,527.7969 L1071.6719,527.7969 Q1072.2813,527.7969 1072.5469,528.0313 Q1072.8125,528.2656 1072.8125,528.6563 Q1072.8125,529.0313 1072.5469,529.2656 Q1072.2813,529.5 1071.6719,529.5 L1066.5313,529.5 Q1065.9219,529.5 1065.6563,529.2656 Q1065.3906,529.0313 1065.3906,528.6406 Q1065.3906,528.2656 1065.6563,528.0313 Q1065.9219,527.7969 1066.5313,527.7969 L1068.25,527.7969 L1068.25,521.1406 L1066.5313,521.1406 Q1065.9219,521.1406 1065.6563,520.9063 Q1065.3906,520.6719 1065.3906,520.2813 Q1065.3906,519.9063 1065.6563,519.6719 Q1065.9219,519.4375 1066.5313,519.4375 L1071.6719,519.4375 Q1072.2813,519.4375 1072.5469,519.6719 Q1072.8125,519.9063 1072.8125,520.2813 Q1072.8125,520.6719 1072.5469,520.9063 Q1072.2813,521.1406 1071.6719,521.1406 L1069.9531,521.1406 Z " fill="#000000"/><text fill="#000000" font-family="sans-serif" font-size="14" font-style="italic" lengthAdjust="spacing" textLength="133" x="1083" y="530.2969">CandidateRepository</text><line style="stroke:#181818;stroke-width:0.5;" x1="1055" x2="1218" y1="540.5" y2="540.5"/><line style="stroke:#181818;stroke-width:0.5;" x1="1055" x2="1218" y1="548.5" y2="548.5"/><ellipse cx="1065" cy="563.3105" fill="#84BE84" rx="3" ry="3" style="stroke:#038048;stroke-width:1.0;"/><text fill="#000000" font-family="sans-serif" font-size="14" lengthAdjust="spacing" textLength="40" x="1074" y="567.6074">save()</text></g><!--class InMemoryCandidateRepository--><g id="elem_InMemoryCandidateRepository"><rect codeLine="65" fill="#F1F1F1" height="66.6211" id="InMemoryCandidateRepository" rx="2.5" ry="2.5" style="stroke:#181818;stroke-width:0.5;" width="226" x="1030.5" y="7"/><ellipse cx="1045.5" cy="23" fill="#ADD1B2" rx="11" ry="11" style="stroke:#181818;stroke-width:1.0;"/><path d="M1048.2656,18.875 Q1048.4219,18.6563 1048.6094,18.5469 Q1048.7969,18.4375 1049.0156,18.4375 Q1049.3906,18.4375 1049.625,18.7031 Q1049.8594,18.9531 1049.8594,19.5625 L1049.8594,21.0156 Q1049.8594,21.625 1049.625,21.8906 Q1049.3906,22.1563 1049.0156,22.1563 Q1048.6719,22.1563 1048.4688,21.9531 Q1048.2656,21.7656 1048.1563,21.25 Q1048.1094,20.8906 1047.9219,20.7031 Q1047.5938,20.3281 1046.9844,20.1094 Q1046.375,19.8906 1045.75,19.8906 Q1044.9844,19.8906 1044.3438,20.2188 Q1043.7188,20.5469 1043.2188,21.2969 Q1042.7344,22.0469 1042.7344,23.0781 L1042.7344,24.1719 Q1042.7344,25.4063 1043.625,26.2344 Q1044.5156,27.0469 1046.1094,27.0469 Q1047.0469,27.0469 1047.7031,26.7969 Q1048.0938,26.6406 1048.5156,26.2031 Q1048.7813,25.9375 1048.9219,25.8594 Q1049.0781,25.7813 1049.2813,25.7813 Q1049.6094,25.7813 1049.8594,26.0469 Q1050.125,26.2969 1050.125,26.6406 Q1050.125,26.9844 1049.7813,27.3906 Q1049.2813,27.9688 1048.4844,28.2969 Q1047.4063,28.75 1046.1094,28.75 Q1044.5938,28.75 1043.3906,28.125 Q1042.4063,27.625 1041.7188,26.5625 Q1041.0313,25.4844 1041.0313,24.2031 L1041.0313,23.0469 Q1041.0313,21.7188 1041.6406,20.5781 Q1042.2656,19.4219 1043.3594,18.8125 Q1044.4531,18.1875 1045.6875,18.1875 Q1046.4219,18.1875 1047.0625,18.3594 Q1047.7188,18.5156 1048.2656,18.875 Z " fill="#000000"/><text fill="#000000" font-family="sans-serif" font-size="14" lengthAdjust="spacing" textLength="194" x="1059.5" y="28.7969">InMemoryCandidateRepository</text><line style="stroke:#181818;stroke-width:0.5;" x1="1031.5" x2="1255.5" y1="39" y2="39"/><line style="stroke:#181818;stroke-width:0.5;" x1="1031.5" x2="1255.5" y1="47" y2="47"/><ellipse cx="1041.5" cy="61.8105" fill="#84BE84" rx="3" ry="3" style="stroke:#038048;stroke-width:1.0;"/><text fill="#000000" font-family="sans-serif" font-size="14" lengthAdjust="spacing" textLength="116" x="1050.5" y="66.1074">findByEmail(email)</text></g><!--class JpaCandidateRepository--><g id="elem_JpaCandidateRepository"><rect codeLine="69" fill="#F1F1F1" height="66.6211" id="JpaCandidateRepository" rx="2.5" ry="2.5" style="stroke:#181818;stroke-width:0.5;" width="187" x="1292" y="7"/><ellipse cx="1307" cy="23" fill="#ADD1B2" rx="11" ry="11" style="stroke:#181818;stroke-width:1.0;"/><path d="M1309.7656,18.875 Q1309.9219,18.6563 1310.1094,18.5469 Q1310.2969,18.4375 1310.5156,18.4375 Q1310.8906,18.4375 1311.125,18.7031 Q1311.3594,18.9531 1311.3594,19.5625 L1311.3594,21.0156 Q1311.3594,21.625 1311.125,21.8906 Q1310.8906,22.1563 1310.5156,22.1563 Q1310.1719,22.1563 1309.9688,21.9531 Q1309.7656,21.7656 1309.6563,21.25 Q1309.6094,20.8906 1309.4219,20.7031 Q1309.0938,20.3281 1308.4844,20.1094 Q1307.875,19.8906 1307.25,19.8906 Q1306.4844,19.8906 1305.8438,20.2188 Q1305.2188,20.5469 1304.7188,21.2969 Q1304.2344,22.0469 1304.2344,23.0781 L1304.2344,24.1719 Q1304.2344,25.4063 1305.125,26.2344 Q1306.0156,27.0469 1307.6094,27.0469 Q1308.5469,27.0469 1309.2031,26.7969 Q1309.5938,26.6406 1310.0156,26.2031 Q1310.2813,25.9375 1310.4219,25.8594 Q1310.5781,25.7813 1310.7813,25.7813 Q1311.1094,25.7813 1311.3594,26.0469 Q1311.625,26.2969 1311.625,26.6406 Q1311.625,26.9844 1311.2813,27.3906 Q1310.7813,27.9688 1309.9844,28.2969 Q1308.9063,28.75 1307.6094,28.75 Q1306.0938,28.75 1304.8906,28.125 Q1303.9063,27.625 1303.2188,26.5625 Q1302.5313,25.4844 1302.5313,24.2031 L1302.5313,23.0469 Q1302.5313,21.7188 1303.1406,20.5781 Q1303.7656,19.4219 1304.8594,18.8125 Q1305.9531,18.1875 1307.1875,18.1875 Q1307.9219,18.1875 1308.5625,18.3594 Q1309.2188,18.5156 1309.7656,18.875 Z " fill="#000000"/><text fill="#000000" font-family="sans-serif" font-size="14" lengthAdjust="spacing" textLength="155" x="1321" y="28.7969">JpaCandidateRepository</text><line style="stroke:#181818;stroke-width:0.5;" x1="1293" x2="1478" y1="39" y2="39"/><line style="stroke:#181818;stroke-width:0.5;" x1="1293" x2="1478" y1="47" y2="47"/><ellipse cx="1303" cy="61.8105" fill="#84BE84" rx="3" ry="3" style="stroke:#038048;stroke-width:1.0;"/><text fill="#000000" font-family="sans-serif" font-size="14" lengthAdjust="spacing" textLength="116" x="1312" y="66.1074">findByEmail(email)</text></g><!--class SystemUserBuilder--><g id="elem_SystemUserBuilder"><rect codeLine="72" fill="#F1F1F1" height="178.3477" id="SystemUserBuilder" rx="2.5" ry="2.5" style="stroke:#181818;stroke-width:0.5;" width="151" x="681" y="682"/><ellipse cx="696" cy="698" fill="#ADD1B2" rx="11" ry="11" style="stroke:#181818;stroke-width:1.0;"/><path d="M698.7656,693.875 Q698.9219,693.6563 699.1094,693.5469 Q699.2969,693.4375 699.5156,693.4375 Q699.8906,693.4375 700.125,693.7031 Q700.3594,693.9531 700.3594,694.5625 L700.3594,696.0156 Q700.3594,696.625 700.125,696.8906 Q699.8906,697.1563 699.5156,697.1563 Q699.1719,697.1563 698.9688,696.9531 Q698.7656,696.7656 698.6563,696.25 Q698.6094,695.8906 698.4219,695.7031 Q698.0938,695.3281 697.4844,695.1094 Q696.875,694.8906 696.25,694.8906 Q695.4844,694.8906 694.8438,695.2188 Q694.2188,695.5469 693.7188,696.2969 Q693.2344,697.0469 693.2344,698.0781 L693.2344,699.1719 Q693.2344,700.4063 694.125,701.2344 Q695.0156,702.0469 696.6094,702.0469 Q697.5469,702.0469 698.2031,701.7969 Q698.5938,701.6406 699.0156,701.2031 Q699.2813,700.9375 699.4219,700.8594 Q699.5781,700.7813 699.7813,700.7813 Q700.1094,700.7813 700.3594,701.0469 Q700.625,701.2969 700.625,701.6406 Q700.625,701.9844 700.2813,702.3906 Q699.7813,702.9688 698.9844,703.2969 Q697.9063,703.75 696.6094,703.75 Q695.0938,703.75 693.8906,703.125 Q692.9063,702.625 692.2188,701.5625 Q691.5313,700.4844 691.5313,699.2031 L691.5313,698.0469 Q691.5313,696.7188 692.1406,695.5781 Q692.7656,694.4219 693.8594,693.8125 Q694.9531,693.1875 696.1875,693.1875 Q696.9219,693.1875 697.5625,693.3594 Q698.2188,693.5156 698.7656,693.875 Z " fill="#000000"/><text fill="#000000" font-family="sans-serif" font-size="14" lengthAdjust="spacing" textLength="119" x="710" y="703.7969">SystemUserBuilder</text><line style="stroke:#181818;stroke-width:0.5;" x1="682" x2="831" y1="714" y2="714"/><line style="stroke:#181818;stroke-width:0.5;" x1="682" x2="831" y1="722" y2="722"/><ellipse cx="692" cy="736.8105" fill="#84BE84" rx="3" ry="3" style="stroke:#038048;stroke-width:1.0;"/><text fill="#000000" font-family="sans-serif" font-size="14" lengthAdjust="spacing" textLength="98" x="701" y="741.1074">withUsername()</text><ellipse cx="692" cy="755.4316" fill="#84BE84" rx="3" ry="3" style="stroke:#038048;stroke-width:1.0;"/><text fill="#000000" font-family="sans-serif" font-size="14" lengthAdjust="spacing" textLength="95" x="701" y="759.7285">withPassword()</text><ellipse cx="692" cy="774.0527" fill="#84BE84" rx="3" ry="3" style="stroke:#038048;stroke-width:1.0;"/><text fill="#000000" font-family="sans-serif" font-size="14" lengthAdjust="spacing" textLength="70" x="701" y="778.3496">withName()</text><ellipse cx="692" cy="792.6738" fill="#84BE84" rx="3" ry="3" style="stroke:#038048;stroke-width:1.0;"/><text fill="#000000" font-family="sans-serif" font-size="14" lengthAdjust="spacing" textLength="68" x="701" y="796.9707">withEmail()</text><ellipse cx="692" cy="811.2949" fill="#84BE84" rx="3" ry="3" style="stroke:#038048;stroke-width:1.0;"/><text fill="#000000" font-family="sans-serif" font-size="14" lengthAdjust="spacing" textLength="101" x="701" y="815.5918">withcreatedOn()</text><ellipse cx="692" cy="829.916" fill="#84BE84" rx="3" ry="3" style="stroke:#038048;stroke-width:1.0;"/><text fill="#000000" font-family="sans-serif" font-size="14" lengthAdjust="spacing" textLength="70" x="701" y="834.2129">withRoles()</text><ellipse cx="692" cy="848.5371" fill="#84BE84" rx="3" ry="3" style="stroke:#038048;stroke-width:1.0;"/><text fill="#000000" font-family="sans-serif" font-size="14" lengthAdjust="spacing" textLength="40" x="701" y="852.834">build()</text></g><!--class SystemUser--><g id="elem_SystemUser"><rect codeLine="82" fill="#F1F1F1" height="178.3477" id="SystemUser" rx="2.5" ry="2.5" style="stroke:#181818;stroke-width:0.5;" width="107" x="703" y="920"/><ellipse cx="718" cy="936" fill="#ADD1B2" rx="11" ry="11" style="stroke:#181818;stroke-width:1.0;"/><path d="M720.7656,931.875 Q720.9219,931.6563 721.1094,931.5469 Q721.2969,931.4375 721.5156,931.4375 Q721.8906,931.4375 722.125,931.7031 Q722.3594,931.9531 722.3594,932.5625 L722.3594,934.0156 Q722.3594,934.625 722.125,934.8906 Q721.8906,935.1563 721.5156,935.1563 Q721.1719,935.1563 720.9688,934.9531 Q720.7656,934.7656 720.6563,934.25 Q720.6094,933.8906 720.4219,933.7031 Q720.0938,933.3281 719.4844,933.1094 Q718.875,932.8906 718.25,932.8906 Q717.4844,932.8906 716.8438,933.2188 Q716.2188,933.5469 715.7188,934.2969 Q715.2344,935.0469 715.2344,936.0781 L715.2344,937.1719 Q715.2344,938.4063 716.125,939.2344 Q717.0156,940.0469 718.6094,940.0469 Q719.5469,940.0469 720.2031,939.7969 Q720.5938,939.6406 721.0156,939.2031 Q721.2813,938.9375 721.4219,938.8594 Q721.5781,938.7813 721.7813,938.7813 Q722.1094,938.7813 722.3594,939.0469 Q722.625,939.2969 722.625,939.6406 Q722.625,939.9844 722.2813,940.3906 Q721.7813,940.9688 720.9844,941.2969 Q719.9063,941.75 718.6094,941.75 Q717.0938,941.75 715.8906,941.125 Q714.9063,940.625 714.2188,939.5625 Q713.5313,938.4844 713.5313,937.2031 L713.5313,936.0469 Q713.5313,934.7188 714.1406,933.5781 Q714.7656,932.4219 715.8594,931.8125 Q716.9531,931.1875 718.1875,931.1875 Q718.9219,931.1875 719.5625,931.3594 Q720.2188,931.5156 720.7656,931.875 Z " fill="#000000"/><text fill="#000000" font-family="sans-serif" font-size="14" lengthAdjust="spacing" textLength="75" x="732" y="941.7969">SystemUser</text><line style="stroke:#181818;stroke-width:0.5;" x1="704" x2="809" y1="952" y2="952"/><rect fill="none" height="6" style="stroke:#C82930;stroke-width:1.0;" width="6" x="711" y="963.8105"/><text fill="#000000" font-family="sans-serif" font-size="14" lengthAdjust="spacing" textLength="63" x="723" y="971.1074">username</text><rect fill="none" height="6" style="stroke:#C82930;stroke-width:1.0;" width="6" x="711" y="982.4316"/><text fill="#000000" font-family="sans-serif" font-size="14" lengthAdjust="spacing" textLength="60" x="723" y="989.7285">password</text><rect fill="none" height="6" style="stroke:#C82930;stroke-width:1.0;" width="6" x="711" y="1001.0527"/><text fill="#000000" font-family="sans-serif" font-size="14" lengthAdjust="spacing" textLength="59" x="723" y="1008.3496">firstName</text><rect fill="none" height="6" style="stroke:#C82930;stroke-width:1.0;" width="6" x="711" y="1019.6738"/><text fill="#000000" font-family="sans-serif" font-size="14" lengthAdjust="spacing" textLength="58" x="723" y="1026.9707">lastName</text><rect fill="none" height="6" style="stroke:#C82930;stroke-width:1.0;" width="6" x="711" y="1038.2949"/><text fill="#000000" font-family="sans-serif" font-size="14" lengthAdjust="spacing" textLength="33" x="723" y="1045.5918">email</text><rect fill="none" height="6" style="stroke:#C82930;stroke-width:1.0;" width="6" x="711" y="1056.916"/><text fill="#000000" font-family="sans-serif" font-size="14" lengthAdjust="spacing" textLength="31" x="723" y="1064.2129">roles</text><rect fill="none" height="6" style="stroke:#C82930;stroke-width:1.0;" width="6" x="711" y="1075.5371"/><text fill="#000000" font-family="sans-serif" font-size="14" lengthAdjust="spacing" textLength="67" x="723" y="1082.834">createdOn</text><line style="stroke:#181818;stroke-width:0.5;" x1="704" x2="809" y1="1090.3477" y2="1090.3477"/></g><!--class UserRepository--><g id="elem_UserRepository"><rect codeLine="91" fill="#F1F1F1" height="66.6211" id="UserRepository" rx="2.5" ry="2.5" style="stroke:#181818;stroke-width:0.5;" width="129" x="1037" y="737.5"/><ellipse cx="1052" cy="753.5" fill="#ADD1B2" rx="11" ry="11" style="stroke:#181818;stroke-width:1.0;"/><path d="M1054.7656,749.375 Q1054.9219,749.1563 1055.1094,749.0469 Q1055.2969,748.9375 1055.5156,748.9375 Q1055.8906,748.9375 1056.125,749.2031 Q1056.3594,749.4531 1056.3594,750.0625 L1056.3594,751.5156 Q1056.3594,752.125 1056.125,752.3906 Q1055.8906,752.6563 1055.5156,752.6563 Q1055.1719,752.6563 1054.9688,752.4531 Q1054.7656,752.2656 1054.6563,751.75 Q1054.6094,751.3906 1054.4219,751.2031 Q1054.0938,750.8281 1053.4844,750.6094 Q1052.875,750.3906 1052.25,750.3906 Q1051.4844,750.3906 1050.8438,750.7188 Q1050.2188,751.0469 1049.7188,751.7969 Q1049.2344,752.5469 1049.2344,753.5781 L1049.2344,754.6719 Q1049.2344,755.9063 1050.125,756.7344 Q1051.0156,757.5469 1052.6094,757.5469 Q1053.5469,757.5469 1054.2031,757.2969 Q1054.5938,757.1406 1055.0156,756.7031 Q1055.2813,756.4375 1055.4219,756.3594 Q1055.5781,756.2813 1055.7813,756.2813 Q1056.1094,756.2813 1056.3594,756.5469 Q1056.625,756.7969 1056.625,757.1406 Q1056.625,757.4844 1056.2813,757.8906 Q1055.7813,758.4688 1054.9844,758.7969 Q1053.9063,759.25 1052.6094,759.25 Q1051.0938,759.25 1049.8906,758.625 Q1048.9063,758.125 1048.2188,757.0625 Q1047.5313,755.9844 1047.5313,754.7031 L1047.5313,753.5469 Q1047.5313,752.2188 1048.1406,751.0781 Q1048.7656,749.9219 1049.8594,749.3125 Q1050.9531,748.6875 1052.1875,748.6875 Q1052.9219,748.6875 1053.5625,748.8594 Q1054.2188,749.0156 1054.7656,749.375 Z " fill="#000000"/><text fill="#000000" font-family="sans-serif" font-size="14" lengthAdjust="spacing" textLength="97" x="1066" y="759.2969">UserRepository</text><line style="stroke:#181818;stroke-width:0.5;" x1="1038" x2="1165" y1="769.5" y2="769.5"/><line style="stroke:#181818;stroke-width:0.5;" x1="1038" x2="1165" y1="777.5" y2="777.5"/><ellipse cx="1048" cy="792.3105" fill="#84BE84" rx="3" ry="3" style="stroke:#038048;stroke-width:1.0;"/><text fill="#000000" font-family="sans-serif" font-size="14" lengthAdjust="spacing" textLength="40" x="1057" y="796.6074">save()</text></g><!--link AddUserController to AuthorizationService--><g id="link_AddUserController_AuthorizationService"><path codeLine="95" d="M601.26,402.01 C560.69,420.87 517.2,441.7 477.5,462 C460.51,470.69 447.8511,477.4273 430.7011,486.9073 " fill="none" id="AddUserController-to-AuthorizationService" style="stroke:#181818;stroke-width:1.0;"/><polygon fill="#181818" points="425.45,489.81,435.2618,488.9568,429.826,487.3911,431.3916,481.9552,425.45,489.81" style="stroke:#181818;stroke-width:1.0;"/></g><!--link AddUserController to UserManagementService--><g id="link_AddUserController_UserManagementService"><path codeLine="96" d="M756.5,402.22 C756.5,427.67 756.5,450.22 756.5,474.77 " fill="none" id="AddUserController-to-UserManagementService" style="stroke:#181818;stroke-width:1.0;"/><polygon fill="#181818" points="756.5,480.77,760.5,471.77,756.5,475.77,752.5,471.77,756.5,480.77" style="stroke:#181818;stroke-width:1.0;"/></g><!--link UserManagementService to SystemUserBuilder--><g id="link_UserManagementService_SystemUserBuilder"><path codeLine="97" d="M756.5,603.24 C756.5,627.27 756.5,649.43 756.5,675.69 " fill="none" id="UserManagementService-to-SystemUserBuilder" style="stroke:#181818;stroke-width:1.0;"/><polygon fill="#181818" points="756.5,681.69,760.5,672.69,756.5,676.69,752.5,672.69,756.5,681.69" style="stroke:#181818;stroke-width:1.0;"/></g><!--link SystemUserBuilder to SystemUser--><g id="link_SystemUserBuilder_SystemUser"><path codeLine="98" d="M756.5,860.21 C756.5,879.72 756.5,894.39 756.5,913.89 " fill="none" id="SystemUserBuilder-to-SystemUser" style="stroke:#181818;stroke-width:1.0;"/><polygon fill="#181818" points="756.5,919.89,760.5,910.89,756.5,914.89,752.5,910.89,756.5,919.89" style="stroke:#181818;stroke-width:1.0;"/></g><!--link RepositoryFactory to UserRepository--><g id="link_RepositoryFactory_UserRepository"><path codeLine="99" d="M1171.83,365.25 C1195.16,389.41 1223.71,424.5 1236.5,462 C1259.46,529.3 1262.2,555.69 1236.5,622 C1218.21,669.18 1181.6969,706.684 1149.6169,733.594 " fill="none" id="RepositoryFactory-to-UserRepository" style="stroke:#181818;stroke-width:1.0;"/><polygon fill="#181818" points="1145.02,737.45,1154.486,734.7305,1148.8507,734.2366,1149.3446,728.6014,1145.02,737.45" style="stroke:#181818;stroke-width:1.0;"/></g><!--link UserManagementService to UserRepository--><g id="link_UserManagementService_UserRepository"><path codeLine="100" d="M848.05,603.24 C913.33,646.19 993.5875,699.0024 1046.6975,733.9424 " fill="none" id="UserManagementService-to-UserRepository" style="stroke:#181818;stroke-width:1.0;"/><polygon fill="#181818" points="1051.71,737.24,1046.3896,728.9518,1047.5329,734.492,1041.9928,735.6352,1051.71,737.24" style="stroke:#181818;stroke-width:1.0;"/></g><!--link PersistenceContext to RepositoryFactory--><g id="link_PersistenceContext_RepositoryFactory"><path codeLine="101" d="M1086.25,201.28 C1097.18,229.39 1110.6767,264.0774 1121.5967,292.1774 " fill="none" id="PersistenceContext-to-RepositoryFactory" style="stroke:#181818;stroke-width:1.0;"/><polygon fill="#181818" points="1123.77,297.77,1124.2384,287.9323,1121.9589,293.1095,1116.7816,290.8301,1123.77,297.77" style="stroke:#181818;stroke-width:1.0;"/></g><!--link RepositoryFactory to CandidateRepository--><g id="link_RepositoryFactory_CandidateRepository"><path codeLine="103" d="M1136.5,365.08 C1136.5,404.13 1136.5,463.2 1136.5,502.31 " fill="none" id="RepositoryFactory-to-CandidateRepository" style="stroke:#181818;stroke-width:1.0;"/><polygon fill="#181818" points="1136.5,508.31,1140.5,499.31,1136.5,503.31,1132.5,499.31,1136.5,508.31" style="stroke:#181818;stroke-width:1.0;"/></g><!--link AddUserController to CandidateRepository--><g id="link_AddUserController_CandidateRepository"><path codeLine="110" d="M923.84,402.06 C961.77,419.96 1001.25,440.34 1036.5,462 C1058.56,475.55 1076.7294,489.3804 1094.9694,504.5704 " fill="none" id="AddUserController-to-CandidateRepository" style="stroke:#181818;stroke-width:1.0;"/><polygon fill="#181818" points="1099.58,508.41,1095.2239,499.5769,1095.7379,505.2103,1090.1044,505.7243,1099.58,508.41" style="stroke:#181818;stroke-width:1.0;"/></g><!--link AddUserController to CandidateBuilder--><g id="link_AddUserController_CandidateBuilder"><path codeLine="112" d="M547.29,358.99 C438.65,378.08 305.92,409.94 195.5,462 C189.69,464.74 189.0711,464.8071 183.3611,468.1671 " fill="none" id="AddUserController-to-CandidateBuilder" style="stroke:#181818;stroke-width:1.0;"/><polygon fill="#181818" points="178.19,471.21,187.9753,470.0931,182.4993,468.6742,183.9181,463.1982,178.19,471.21" style="stroke:#181818;stroke-width:1.0;"/></g><!--link CandidateBuilder to Candidate--><g id="link_CandidateBuilder_Candidate"><path codeLine="113" d="M92.5,622.07 C92.5,644.34 92.5,662.55 92.5,684.82 " fill="none" id="CandidateBuilder-to-Candidate" style="stroke:#181818;stroke-width:1.0;"/><polygon fill="#181818" points="92.5,690.82,96.5,681.82,92.5,685.82,88.5,681.82,92.5,690.82" style="stroke:#181818;stroke-width:1.0;"/></g><!--link AddUserUI to PersistenceContext--><g id="link_AddUserUI_PersistenceContext"><path codeLine="116" d="M970.09,64.72 C989.89,84.21 1014.1136,108.0514 1036.1836,129.7714 " fill="none" id="AddUserUI-to-PersistenceContext" style="stroke:#181818;stroke-width:1.0;"/><polygon fill="#181818" points="1040.46,133.98,1036.8511,124.8162,1036.8963,130.4728,1031.2396,130.518,1040.46,133.98" style="stroke:#181818;stroke-width:1.0;"/></g><!--link AddUserUI to AddUserController--><g id="link_AddUserUI_AddUserController"><path codeLine="117" d="M931.27,64.66 C903.62,106.72 847.4462,192.1665 805.5862,255.8365 " fill="none" id="AddUserUI-to-AddUserController" style="stroke:#181818;stroke-width:1.0;"/><polygon fill="#181818" points="802.29,260.85,810.5766,255.5272,805.0368,256.6721,803.8919,251.1323,802.29,260.85" style="stroke:#181818;stroke-width:1.0;"/></g><!--SRC=[bLNRRjim37tNL-WnXUrVA906RT5XJOja_G1LPX81jkH9Sh9isB-FbELB8cV3ycAPFBpe7DAHbN2EBylomu7zUE6_6FlDc9nQLqPxQweAB7eBBbf_m4UBdkrHuaaANQfIUDX0OvponfvPbWOlAD1OzLDuPVGMx559oEUYxrYs1x_g7GkeXQhk9dtD90gjVNrxVdxSuC4VO0lEePjboX4Uj5SIauMc-WHGVZEBIUAX96RZ1GzryR1Jrlcrg85n_1KSiSDhmIryRvM56Yku9rL5QtCm6jPj_GcsCqWBL7xf0y6n83NpAhJOX_3fLOZU2P_OZ9Qcn6IOsbHA8iKMzifvi6iuKPwEffmtcFXaR9dpeUzyQ3dd4OMQWCjZKsywaC0I7XvQLPL1z-oa_E6HOf6my4Bf-lFcYeFU_Zwoq9kMJRFrmhUE39-K7m-Z1EETduIa1qd1izJUwHQZti4wua9Be8637pw4aJWnJ86B4GhzTYUGvrKwUdHJxiGHfcFneb-XHkSj_4xfyk7SaNCzgryQyLzXl0lRdl4sDSawIi03VsJJ7VKqZHaFF4VDBuphQrGltsWPzB-mRcWs1akl4SSx9TrrYzB6dk9-z1FOlVvjUyObwrQ92iVpq1eLvkEwN98OfQBUqgzLKTpFVYjkG6UNaSslAE4JZLYgsYMEfTDTz9Kdotwxv1LmPkm9bLHXiuNlvnQ0TRzvXcRn_u3st2JVb0lKM1B_WyYJNkqAa9Ibjly0]--></g></svg>