<?xml version="1.0" encoding="us-ascii" standalone="no"?><svg xmlns="http://www.w3.org/2000/svg" xmlns:xlink="http://www.w3.org/1999/xlink" contentStyleType="text/css" height="525px" preserveAspectRatio="none" style="width:653px;height:525px;background:#FFFFFF;" version="1.1" viewBox="0 0 653 525" width="653px" zoomAndPan="magnify"><defs/><g><rect fill="#FFFFFF" height="339.25" style="stroke:#181818;stroke-width:1.0;" width="10" x="46.5" y="93.6211"/><rect fill="#FFFFFF" height="75.582" style="stroke:#181818;stroke-width:1.0;" width="10" x="586.5" y="116.9121"/><rect fill="#FFFFFF" height="94.873" style="stroke:#181818;stroke-width:1.0;" width="10" x="586.5" y="223.7852"/><rect fill="#FFFFFF" height="36.291" style="stroke:#181818;stroke-width:1.0;" width="10" x="586.5" y="381.5801"/><rect fill="none" height="187.0859" style="stroke:#000000;stroke-width:1.5;" width="636.5" x="10" y="238.7852"/><line style="stroke:#181818;stroke-width:0.5;stroke-dasharray:5.0,5.0;" x1="51" x2="51" y1="83.6211" y2="442.8711"/><line style="stroke:#181818;stroke-width:0.5;stroke-dasharray:5.0,5.0;" x1="591.5" x2="591.5" y1="83.6211" y2="442.8711"/><text fill="#000000" font-family="sans-serif" font-size="14" lengthAdjust="spacing" textLength="57" x="20" y="80.1074">Operator</text><ellipse cx="51.5" cy="13.5" fill="#E2E2F0" rx="8" ry="8" style="stroke:#181818;stroke-width:0.5;"/><path d="M51.5,21.5 L51.5,48.5 M38.5,29.5 L64.5,29.5 M51.5,48.5 L38.5,63.5 M51.5,48.5 L64.5,63.5 " fill="none" style="stroke:#181818;stroke-width:0.5;"/><text fill="#000000" font-family="sans-serif" font-size="14" lengthAdjust="spacing" textLength="57" x="20" y="456.9785">Operator</text><ellipse cx="51.5" cy="468.9922" fill="#E2E2F0" rx="8" ry="8" style="stroke:#181818;stroke-width:0.5;"/><path d="M51.5,476.9922 L51.5,503.9922 M38.5,484.9922 L64.5,484.9922 M51.5,503.9922 L38.5,518.9922 M51.5,503.9922 L64.5,518.9922 " fill="none" style="stroke:#181818;stroke-width:0.5;"/><rect fill="#E2E2F0" height="32.6211" rx="2.5" ry="2.5" style="stroke:#181818;stroke-width:0.5;" width="64" x="559.5" y="50"/><text fill="#000000" font-family="sans-serif" font-size="14" lengthAdjust="spacing" textLength="50" x="566.5" y="72.1074">:System</text><rect fill="#E2E2F0" height="32.6211" rx="2.5" ry="2.5" style="stroke:#181818;stroke-width:0.5;" width="64" x="559.5" y="441.8711"/><text fill="#000000" font-family="sans-serif" font-size="14" lengthAdjust="spacing" textLength="50" x="566.5" y="463.9785">:System</text><rect fill="#FFFFFF" height="339.25" style="stroke:#181818;stroke-width:1.0;" width="10" x="46.5" y="93.6211"/><rect fill="#FFFFFF" height="75.582" style="stroke:#181818;stroke-width:1.0;" width="10" x="586.5" y="116.9121"/><rect fill="#FFFFFF" height="94.873" style="stroke:#181818;stroke-width:1.0;" width="10" x="586.5" y="223.7852"/><rect fill="#FFFFFF" height="36.291" style="stroke:#181818;stroke-width:1.0;" width="10" x="586.5" y="381.5801"/><polygon fill="#181818" points="574.5,112.9121,584.5,116.9121,574.5,120.9121,578.5,116.9121" style="stroke:#181818;stroke-width:1.0;"/><line style="stroke:#181818;stroke-width:1.0;" x1="56.5" x2="580.5" y1="116.9121" y2="116.9121"/><text fill="#000000" font-family="sans-serif" font-size="13" font-weight="bold" lengthAdjust="spacing" textLength="7" x="63.5" y="111.6494">1</text><text fill="#000000" font-family="sans-serif" font-size="13" lengthAdjust="spacing" textLength="252" x="74.5" y="111.6494">asks the system to create a new Candidate</text><line style="stroke:#181818;stroke-width:1.0;stroke-dasharray:2.0,2.0;" x1="596.5" x2="638.5" y1="148.2031" y2="148.2031"/><line style="stroke:#181818;stroke-width:1.0;stroke-dasharray:2.0,2.0;" x1="638.5" x2="638.5" y1="148.2031" y2="161.2031"/><line style="stroke:#181818;stroke-width:1.0;stroke-dasharray:2.0,2.0;" x1="597.5" x2="638.5" y1="161.2031" y2="161.2031"/><polygon fill="#181818" points="607.5,157.2031,597.5,161.2031,607.5,165.2031,603.5,161.2031" style="stroke:#181818;stroke-width:1.0;"/><text fill="#000000" font-family="sans-serif" font-size="13" font-weight="bold" lengthAdjust="spacing" textLength="7" x="603.5" y="142.9404">2</text><text fill="#000000" font-family="sans-serif" font-size="13" lengthAdjust="spacing" textLength="4" x="614.5" y="142.9404">&#160;</text><polygon fill="#181818" points="67.5,188.4941,57.5,192.4941,67.5,196.4941,63.5,192.4941" style="stroke:#181818;stroke-width:1.0;"/><line style="stroke:#181818;stroke-width:1.0;stroke-dasharray:2.0,2.0;" x1="61.5" x2="590.5" y1="192.4941" y2="192.4941"/><text fill="#000000" font-family="sans-serif" font-size="13" font-weight="bold" lengthAdjust="spacing" textLength="7" x="73.5" y="187.2314">3</text><text fill="#000000" font-family="sans-serif" font-size="13" lengthAdjust="spacing" textLength="495" x="84.5" y="187.2314">requests data (email, firstName, lastName, requirementsFile"optional", phoneNumber)</text><polygon fill="#181818" points="574.5,219.7852,584.5,223.7852,574.5,227.7852,578.5,223.7852" style="stroke:#181818;stroke-width:1.0;"/><line style="stroke:#181818;stroke-width:1.0;" x1="56.5" x2="580.5" y1="223.7852" y2="223.7852"/><text fill="#000000" font-family="sans-serif" font-size="13" font-weight="bold" lengthAdjust="spacing" textLength="7" x="63.5" y="218.5225">4</text><text fill="#000000" font-family="sans-serif" font-size="13" lengthAdjust="spacing" textLength="108" x="74.5" y="218.5225">types request data</text><path d="M10,238.7852 L71,238.7852 L71,248.0762 L61,258.0762 L10,258.0762 L10,238.7852 " fill="#EEEEEE" style="stroke:#000000;stroke-width:1.5;"/><rect fill="none" height="187.0859" style="stroke:#000000;stroke-width:1.5;" width="636.5" x="10" y="238.7852"/><text fill="#000000" font-family="sans-serif" font-size="13" font-weight="bold" lengthAdjust="spacing" textLength="16" x="25" y="253.8135">alt</text><text fill="#000000" font-family="sans-serif" font-size="11" font-weight="bold" lengthAdjust="spacing" textLength="46" x="86" y="252.6553">[!ERROR]</text><polygon fill="#181818" points="67.5,277.3672,57.5,281.3672,67.5,285.3672,63.5,281.3672" style="stroke:#181818;stroke-width:1.0;"/><line style="stroke:#181818;stroke-width:1.0;stroke-dasharray:2.0,2.0;" x1="61.5" x2="585.5" y1="281.3672" y2="281.3672"/><text fill="#000000" font-family="sans-serif" font-size="13" font-weight="bold" lengthAdjust="spacing" textLength="7" x="73.5" y="276.1045">5</text><text fill="#000000" font-family="sans-serif" font-size="13" lengthAdjust="spacing" textLength="152" x="84.5" y="276.1045">informs operation success</text><line style="stroke:#181818;stroke-width:1.0;stroke-dasharray:2.0,2.0;" x1="596.5" x2="638.5" y1="317.6582" y2="317.6582"/><line style="stroke:#181818;stroke-width:1.0;stroke-dasharray:2.0,2.0;" x1="638.5" x2="638.5" y1="317.6582" y2="330.6582"/><line style="stroke:#181818;stroke-width:1.0;stroke-dasharray:2.0,2.0;" x1="591.5" x2="638.5" y1="330.6582" y2="330.6582"/><polygon fill="#181818" points="601.5,326.6582,591.5,330.6582,601.5,334.6582,597.5,330.6582" style="stroke:#181818;stroke-width:1.0;"/><text fill="#000000" font-family="sans-serif" font-size="13" font-weight="bold" lengthAdjust="spacing" textLength="7" x="603.5" y="312.3955">6</text><text fill="#000000" font-family="sans-serif" font-size="13" lengthAdjust="spacing" textLength="4" x="614.5" y="312.3955">&#160;</text><line style="stroke:#000000;stroke-width:1.0;stroke-dasharray:2.0,2.0;" x1="10" x2="646.5" y1="334.6582" y2="334.6582"/><text fill="#000000" font-family="sans-serif" font-size="11" font-weight="bold" lengthAdjust="spacing" textLength="43" x="15" y="346.5283">[ERROR]</text><line style="stroke:#181818;stroke-width:1.0;stroke-dasharray:2.0,2.0;" x1="591.5" x2="638.5" y1="368.5801" y2="368.5801"/><line style="stroke:#181818;stroke-width:1.0;stroke-dasharray:2.0,2.0;" x1="638.5" x2="638.5" y1="368.5801" y2="381.5801"/><line style="stroke:#181818;stroke-width:1.0;stroke-dasharray:2.0,2.0;" x1="597.5" x2="638.5" y1="381.5801" y2="381.5801"/><polygon fill="#181818" points="607.5,377.5801,597.5,381.5801,607.5,385.5801,603.5,381.5801" style="stroke:#181818;stroke-width:1.0;"/><text fill="#000000" font-family="sans-serif" font-size="13" font-weight="bold" lengthAdjust="spacing" textLength="7" x="603.5" y="363.3174">7</text><text fill="#000000" font-family="sans-serif" font-size="13" lengthAdjust="spacing" textLength="4" x="614.5" y="363.3174">&#160;</text><polygon fill="#181818" points="67.5,413.8711,57.5,417.8711,67.5,421.8711,63.5,417.8711" style="stroke:#181818;stroke-width:1.0;"/><line style="stroke:#181818;stroke-width:1.0;stroke-dasharray:2.0,2.0;" x1="61.5" x2="590.5" y1="417.8711" y2="417.8711"/><text fill="#000000" font-family="sans-serif" font-size="13" font-weight="bold" lengthAdjust="spacing" textLength="7" x="73.5" y="412.6084">8</text><text fill="#000000" font-family="sans-serif" font-size="13" lengthAdjust="spacing" textLength="218" x="84.5" y="412.6084">informs operation unsuccess and why</text><!--SRC=[XLBBJiGm3BpdAqnE87L_e0Sk28wxKla2qthLY3owiSEgVqzQQ1PGMswnnu-PSJ19yCczKLGAMmaHJWD5d1x8e9T0pwZvGA5Ie5GfFJo2hbz75d8QwjpvpY0z0Syfa01jfAaNmTCLdj1tfilnRMXfLxT1XzzZ_o1bUGsHBebO6F9CX7joQ6m5PnDPZkYe0elBQoeraHnvuHTZIOT1JF1eTGL37pmTPpCUL4Sht3OLopWGBpnc6clIiebMuEwvQKxDjXhZpo4wXZ2dCZdWrBR4l6FDAbkoJF2rRAVrtnFiKal-cnpacyAr7pUeP31hpmxyWCj7-WG0]--></g></svg>