<?xml version="1.0" encoding="us-ascii" standalone="no"?><svg xmlns="http://www.w3.org/2000/svg" xmlns:xlink="http://www.w3.org/1999/xlink" contentStyleType="text/css" height="707.7px" preserveAspectRatio="none" style="width:2260px;height:707px;background:#FFFFFF;" version="1.1" viewBox="0 0 2260 707" width="2260.3px" zoomAndPan="magnify"><defs/><g><rect fill="#FFFFFF" height="557.3039" style="stroke:#181818;stroke-width:0.6999999999999998;" width="7" x="22.05" y="68.7695"/><rect fill="#FFFFFF" height="21.9037" style="stroke:#181818;stroke-width:0.6999999999999998;" width="7" x="400.05" y="85.0732"/><rect fill="#FFFFFF" height="497.1928" style="stroke:#181818;stroke-width:0.6999999999999998;" width="7" x="400.05" y="128.8807"/><rect fill="#FFFFFF" height="453.3854" style="stroke:#181818;stroke-width:0.6999999999999998;" width="7" x="957.25" y="150.7844"/><rect fill="#FFFFFF" height="21.9037" style="stroke:#181818;stroke-width:0.6999999999999998;" width="7" x="1251.95" y="150.7844"/><rect fill="#FFFFFF" height="134.9223" style="stroke:#181818;stroke-width:0.6999999999999998;" width="7" x="1369.2" y="275.0029"/><rect fill="#FFFFFF" height="52.9074" style="stroke:#181818;stroke-width:0.6999999999999998;" width="7" x="1485.4" y="194.5918"/><rect fill="#FFFFFF" height="65.7111" style="stroke:#181818;stroke-width:0.6999999999999998;" width="7" x="1801.8" y="300.4066"/><rect fill="#FFFFFF" height="43.8074" style="stroke:#181818;stroke-width:0.6999999999999998;" width="7" x="1886.5" y="366.1178"/><rect fill="#FFFFFF" height="128.5334" style="stroke:#181818;stroke-width:0.6999999999999998;" width="7" x="1967.7" y="409.9252"/><rect fill="#FFFFFF" height="21.9037" style="stroke:#181818;stroke-width:0.6999999999999998;" width="7" x="2045.4" y="538.4586"/><rect fill="#FFFFFF" height="21.9037" style="stroke:#181818;stroke-width:0.6999999999999998;" width="7" x="2116.1" y="388.0215"/><rect fill="#FFFFFF" height="21.9037" style="stroke:#181818;stroke-width:0.6999999999999998;" width="7" x="2207.8" y="560.3623"/><line style="stroke:#181818;stroke-width:0.3499999999999999;stroke-dasharray:5.0,5.0;" x1="25.2" x2="25.2" y1="61.7695" y2="638.6734"/><line style="stroke:#181818;stroke-width:0.3499999999999999;stroke-dasharray:5.0,5.0;" x1="403.2" x2="403.2" y1="61.7695" y2="638.6734"/><line style="stroke:#181818;stroke-width:0.3499999999999999;stroke-dasharray:5.0,5.0;" x1="960.75" x2="960.75" y1="61.7695" y2="638.6734"/><line style="stroke:#181818;stroke-width:0.3499999999999999;stroke-dasharray:5.0,5.0;" x1="1255.1" x2="1255.1" y1="61.7695" y2="638.6734"/><line style="stroke:#181818;stroke-width:0.3499999999999999;stroke-dasharray:5.0,5.0;" x1="1372.7" x2="1372.7" y1="61.7695" y2="638.6734"/><line style="stroke:#181818;stroke-width:0.3499999999999999;stroke-dasharray:5.0,5.0;" x1="1488.9" x2="1488.9" y1="61.7695" y2="638.6734"/><line style="stroke:#181818;stroke-width:0.3499999999999999;stroke-dasharray:5.0,5.0;" x1="1804.95" x2="1804.95" y1="61.7695" y2="638.6734"/><line style="stroke:#181818;stroke-width:0.3499999999999999;stroke-dasharray:5.0,5.0;" x1="1889.65" x2="1889.65" y1="61.7695" y2="638.6734"/><line style="stroke:#181818;stroke-width:0.3499999999999999;stroke-dasharray:5.0,5.0;" x1="1970.85" x2="1970.85" y1="61.7695" y2="638.6734"/><line style="stroke:#181818;stroke-width:0.3499999999999999;stroke-dasharray:5.0,5.0;" x1="2048.55" x2="2048.55" y1="61.7695" y2="638.6734"/><line style="stroke:#181818;stroke-width:0.3499999999999999;stroke-dasharray:5.0,5.0;" x1="2119.25" x2="2119.25" y1="61.7695" y2="638.6734"/><line style="stroke:#181818;stroke-width:0.3499999999999999;stroke-dasharray:5.0,5.0;" x1="2210.95" x2="2210.95" y1="61.7695" y2="638.6734"/><text fill="#000000" font-family="sans-serif" font-size="9.8" lengthAdjust="spacing" textLength="39.9" x="3.5" y="59.31">Operator</text><ellipse cx="25.55" cy="12.6848" fill="#E2E2F0" rx="5.6" ry="5.6" style="stroke:#181818;stroke-width:0.3499999999999999;"/><path d="M25.55,18.2848 L25.55,37.1848 M16.45,23.8848 L34.65,23.8848 M25.55,37.1848 L16.45,47.6848 M25.55,37.1848 L34.65,47.6848 " fill="none" style="stroke:#181818;stroke-width:0.3499999999999999;"/><text fill="#000000" font-family="sans-serif" font-size="9.8" lengthAdjust="spacing" textLength="39.9" x="3.5" y="648.5486">Operator</text><ellipse cx="25.55" cy="656.9582" fill="#E2E2F0" rx="5.6" ry="5.6" style="stroke:#181818;stroke-width:0.3499999999999999;"/><path d="M25.55,662.5582 L25.55,681.4582 M16.45,668.1582 L34.65,668.1582 M25.55,681.4582 L16.45,691.9582 M25.55,681.4582 L34.65,691.9582 " fill="none" style="stroke:#181818;stroke-width:0.3499999999999999;"/><rect fill="#E2E2F0" height="35.8695" rx="1.75" ry="1.75" style="stroke:#181818;stroke-width:0.3499999999999999;" width="76.3" x="365.4" y="25.2"/><text fill="#000000" font-family="sans-serif" font-size="9.8" font-style="italic" lengthAdjust="spacing" textLength="66.5" x="370.3" y="40.6752">&#171;presentation&#187;</text><text fill="#000000" font-family="sans-serif" font-size="9.8" lengthAdjust="spacing" textLength="46.2" x="380.45" y="53.71">AddUserUI</text><rect fill="#E2E2F0" height="35.8695" rx="1.75" ry="1.75" style="stroke:#181818;stroke-width:0.3499999999999999;" width="76.3" x="365.4" y="637.9734"/><text fill="#000000" font-family="sans-serif" font-size="9.8" font-style="italic" lengthAdjust="spacing" textLength="66.5" x="370.3" y="653.4486">&#171;presentation&#187;</text><text fill="#000000" font-family="sans-serif" font-size="9.8" lengthAdjust="spacing" textLength="46.2" x="380.45" y="666.4834">AddUserUI</text><rect fill="#E2E2F0" height="35.8695" rx="1.75" ry="1.75" style="stroke:#181818;stroke-width:0.3499999999999999;" width="91" x="915.25" y="25.2"/><text fill="#000000" font-family="sans-serif" font-size="9.8" font-style="italic" lengthAdjust="spacing" textLength="58.8" x="931.35" y="40.6752">&#171;application&#187;</text><text fill="#000000" font-family="sans-serif" font-size="9.8" lengthAdjust="spacing" textLength="81.2" x="920.15" y="53.71">AddUserController</text><rect fill="#E2E2F0" height="35.8695" rx="1.75" ry="1.75" style="stroke:#181818;stroke-width:0.3499999999999999;" width="91" x="915.25" y="637.9734"/><text fill="#000000" font-family="sans-serif" font-size="9.8" font-style="italic" lengthAdjust="spacing" textLength="58.8" x="931.35" y="653.4486">&#171;application&#187;</text><text fill="#000000" font-family="sans-serif" font-size="9.8" lengthAdjust="spacing" textLength="81.2" x="920.15" y="666.4834">AddUserController</text><rect fill="#E2E2F0" height="35.8695" rx="1.75" ry="1.75" style="stroke:#181818;stroke-width:0.3499999999999999;" width="100.1" x="1205.4" y="25.2"/><text fill="#000000" font-family="sans-serif" font-size="9.8" font-style="italic" lengthAdjust="spacing" textLength="42" x="1234.45" y="40.6752">&#171;service&#187;</text><text fill="#000000" font-family="sans-serif" font-size="9.8" lengthAdjust="spacing" textLength="90.3" x="1210.3" y="53.71">AuthorizationService</text><rect fill="#E2E2F0" height="35.8695" rx="1.75" ry="1.75" style="stroke:#181818;stroke-width:0.3499999999999999;" width="100.1" x="1205.4" y="637.9734"/><text fill="#000000" font-family="sans-serif" font-size="9.8" font-style="italic" lengthAdjust="spacing" textLength="42" x="1234.45" y="653.4486">&#171;service&#187;</text><text fill="#000000" font-family="sans-serif" font-size="9.8" lengthAdjust="spacing" textLength="90.3" x="1210.3" y="666.4834">AuthorizationService</text><rect fill="#E2E2F0" height="35.8695" rx="1.75" ry="1.75" style="stroke:#181818;stroke-width:0.3499999999999999;" width="120.4" x="1312.5" y="25.2"/><text fill="#000000" font-family="sans-serif" font-size="9.8" font-style="italic" lengthAdjust="spacing" textLength="42" x="1351.7" y="40.6752">&#171;service&#187;</text><text fill="#000000" font-family="sans-serif" font-size="9.8" lengthAdjust="spacing" textLength="110.6" x="1317.4" y="53.71">UserManagementService</text><rect fill="#E2E2F0" height="35.8695" rx="1.75" ry="1.75" style="stroke:#181818;stroke-width:0.3499999999999999;" width="120.4" x="1312.5" y="637.9734"/><text fill="#000000" font-family="sans-serif" font-size="9.8" font-style="italic" lengthAdjust="spacing" textLength="42" x="1351.7" y="653.4486">&#171;service&#187;</text><text fill="#000000" font-family="sans-serif" font-size="9.8" lengthAdjust="spacing" textLength="110.6" x="1317.4" y="666.4834">UserManagementService</text><rect fill="#E2E2F0" height="35.8695" rx="1.75" ry="1.75" style="stroke:#181818;stroke-width:0.3499999999999999;" width="98" x="1439.9" y="25.2"/><text fill="#000000" font-family="sans-serif" font-size="9.8" font-style="italic" lengthAdjust="spacing" textLength="42" x="1467.9" y="40.6752">&#171;service&#187;</text><text fill="#000000" font-family="sans-serif" font-size="9.8" lengthAdjust="spacing" textLength="88.2" x="1444.8" y="53.71">PasswordGenerator</text><rect fill="#E2E2F0" height="35.8695" rx="1.75" ry="1.75" style="stroke:#181818;stroke-width:0.3499999999999999;" width="98" x="1439.9" y="637.9734"/><text fill="#000000" font-family="sans-serif" font-size="9.8" font-style="italic" lengthAdjust="spacing" textLength="42" x="1467.9" y="653.4486">&#171;service&#187;</text><text fill="#000000" font-family="sans-serif" font-size="9.8" lengthAdjust="spacing" textLength="88.2" x="1444.8" y="666.4834">PasswordGenerator</text><rect fill="#E2E2F0" height="35.8695" rx="1.75" ry="1.75" style="stroke:#181818;stroke-width:0.3499999999999999;" width="93.1" x="1758.75" y="25.2"/><text fill="#000000" font-family="sans-serif" font-size="9.8" font-style="italic" lengthAdjust="spacing" textLength="43.4" x="1783.6" y="40.6752">&#171;domain&#187;</text><text fill="#000000" font-family="sans-serif" font-size="9.8" lengthAdjust="spacing" textLength="83.3" x="1763.65" y="53.71">SystemUserBuilder</text><rect fill="#E2E2F0" height="35.8695" rx="1.75" ry="1.75" style="stroke:#181818;stroke-width:0.3499999999999999;" width="93.1" x="1758.75" y="637.9734"/><text fill="#000000" font-family="sans-serif" font-size="9.8" font-style="italic" lengthAdjust="spacing" textLength="43.4" x="1783.6" y="653.4486">&#171;domain&#187;</text><text fill="#000000" font-family="sans-serif" font-size="9.8" lengthAdjust="spacing" textLength="83.3" x="1763.65" y="666.4834">SystemUserBuilder</text><rect fill="#E2E2F0" height="35.8695" rx="1.75" ry="1.75" style="stroke:#181818;stroke-width:0.3499999999999999;" width="62.3" x="1858.85" y="25.2"/><text fill="#000000" font-family="sans-serif" font-size="9.8" font-style="italic" lengthAdjust="spacing" textLength="43.4" x="1868.3" y="40.6752">&#171;domain&#187;</text><text fill="#000000" font-family="sans-serif" font-size="9.8" lengthAdjust="spacing" textLength="52.5" x="1863.75" y="53.71">SystemUser</text><rect fill="#E2E2F0" height="35.8695" rx="1.75" ry="1.75" style="stroke:#181818;stroke-width:0.3499999999999999;" width="62.3" x="1858.85" y="637.9734"/><text fill="#000000" font-family="sans-serif" font-size="9.8" font-style="italic" lengthAdjust="spacing" textLength="43.4" x="1868.3" y="653.4486">&#171;domain&#187;</text><text fill="#000000" font-family="sans-serif" font-size="9.8" lengthAdjust="spacing" textLength="52.5" x="1863.75" y="666.4834">SystemUser</text><rect fill="#E2E2F0" height="35.8695" rx="1.75" ry="1.75" style="stroke:#181818;stroke-width:0.3499999999999999;" width="86.1" x="1928.15" y="25.2"/><text fill="#000000" font-family="sans-serif" font-size="9.8" font-style="italic" lengthAdjust="spacing" textLength="43.4" x="1949.5" y="40.6752">&#171;domain&#187;</text><text fill="#000000" font-family="sans-serif" font-size="9.8" lengthAdjust="spacing" textLength="76.3" x="1933.05" y="53.71">CandidateBuilder</text><rect fill="#E2E2F0" height="35.8695" rx="1.75" ry="1.75" style="stroke:#181818;stroke-width:0.3499999999999999;" width="86.1" x="1928.15" y="637.9734"/><text fill="#000000" font-family="sans-serif" font-size="9.8" font-style="italic" lengthAdjust="spacing" textLength="43.4" x="1949.5" y="653.4486">&#171;domain&#187;</text><text fill="#000000" font-family="sans-serif" font-size="9.8" lengthAdjust="spacing" textLength="76.3" x="1933.05" y="666.4834">CandidateBuilder</text><rect fill="#E2E2F0" height="35.8695" rx="1.75" ry="1.75" style="stroke:#181818;stroke-width:0.3499999999999999;" width="55.3" x="2021.25" y="25.2"/><text fill="#000000" font-family="sans-serif" font-size="9.8" font-style="italic" lengthAdjust="spacing" textLength="43.4" x="2027.2" y="40.6752">&#171;domain&#187;</text><text fill="#000000" font-family="sans-serif" font-size="9.8" lengthAdjust="spacing" textLength="45.5" x="2026.15" y="53.71">Candidate</text><rect fill="#E2E2F0" height="35.8695" rx="1.75" ry="1.75" style="stroke:#181818;stroke-width:0.3499999999999999;" width="55.3" x="2021.25" y="637.9734"/><text fill="#000000" font-family="sans-serif" font-size="9.8" font-style="italic" lengthAdjust="spacing" textLength="43.4" x="2027.2" y="653.4486">&#171;domain&#187;</text><text fill="#000000" font-family="sans-serif" font-size="9.8" lengthAdjust="spacing" textLength="45.5" x="2026.15" y="666.4834">Candidate</text><text fill="#000000" font-family="sans-serif" font-size="9.8" font-style="italic" lengthAdjust="spacing" textLength="55.3" x="2089.85" y="46.2752">&#171;repository&#187;</text><text fill="#000000" font-family="sans-serif" font-size="9.8" lengthAdjust="spacing" textLength="67.9" x="2083.55" y="59.31">UserRepository</text><path d="M2107,10.5 C2107,3.5 2119.6,3.5 2119.6,3.5 C2119.6,3.5 2132.2,3.5 2132.2,10.5 L2132.2,28.7 C2132.2,35.7 2119.6,35.7 2119.6,35.7 C2119.6,35.7 2107,35.7 2107,28.7 L2107,10.5 " fill="#E2E2F0" style="stroke:#181818;stroke-width:1.0499999999999998;"/><path d="M2107,10.5 C2107,17.5 2119.6,17.5 2119.6,17.5 C2119.6,17.5 2132.2,17.5 2132.2,10.5 " fill="none" style="stroke:#181818;stroke-width:1.0499999999999998;"/><text fill="#000000" font-family="sans-serif" font-size="9.8" font-style="italic" lengthAdjust="spacing" textLength="55.3" x="2089.85" y="648.5486">&#171;repository&#187;</text><text fill="#000000" font-family="sans-serif" font-size="9.8" lengthAdjust="spacing" textLength="67.9" x="2083.55" y="661.5834">UserRepository</text><path d="M2107,671.043 C2107,664.043 2119.6,664.043 2119.6,664.043 C2119.6,664.043 2132.2,664.043 2132.2,671.043 L2132.2,689.243 C2132.2,696.243 2119.6,696.243 2119.6,696.243 C2119.6,696.243 2107,696.243 2107,689.243 L2107,671.043 " fill="#E2E2F0" style="stroke:#181818;stroke-width:1.0499999999999998;"/><path d="M2107,671.043 C2107,678.043 2119.6,678.043 2119.6,678.043 C2119.6,678.043 2132.2,678.043 2132.2,671.043 " fill="none" style="stroke:#181818;stroke-width:1.0499999999999998;"/><text fill="#000000" font-family="sans-serif" font-size="9.8" font-style="italic" lengthAdjust="spacing" textLength="55.3" x="2181.55" y="46.2752">&#171;repository&#187;</text><text fill="#000000" font-family="sans-serif" font-size="9.8" lengthAdjust="spacing" textLength="93.1" x="2162.65" y="59.31">CandidateRepository</text><path d="M2198.7,10.5 C2198.7,3.5 2211.3,3.5 2211.3,3.5 C2211.3,3.5 2223.9,3.5 2223.9,10.5 L2223.9,28.7 C2223.9,35.7 2211.3,35.7 2211.3,35.7 C2211.3,35.7 2198.7,35.7 2198.7,28.7 L2198.7,10.5 " fill="#E2E2F0" style="stroke:#181818;stroke-width:1.0499999999999998;"/><path d="M2198.7,10.5 C2198.7,17.5 2211.3,17.5 2211.3,17.5 C2211.3,17.5 2223.9,17.5 2223.9,10.5 " fill="none" style="stroke:#181818;stroke-width:1.0499999999999998;"/><text fill="#000000" font-family="sans-serif" font-size="9.8" font-style="italic" lengthAdjust="spacing" textLength="55.3" x="2181.55" y="648.5486">&#171;repository&#187;</text><text fill="#000000" font-family="sans-serif" font-size="9.8" lengthAdjust="spacing" textLength="93.1" x="2162.65" y="661.5834">CandidateRepository</text><path d="M2198.7,671.043 C2198.7,664.043 2211.3,664.043 2211.3,664.043 C2211.3,664.043 2223.9,664.043 2223.9,671.043 L2223.9,689.243 C2223.9,696.243 2211.3,696.243 2211.3,696.243 C2211.3,696.243 2198.7,696.243 2198.7,689.243 L2198.7,671.043 " fill="#E2E2F0" style="stroke:#181818;stroke-width:1.0499999999999998;"/><path d="M2198.7,671.043 C2198.7,678.043 2211.3,678.043 2211.3,678.043 C2211.3,678.043 2223.9,678.043 2223.9,671.043 " fill="none" style="stroke:#181818;stroke-width:1.0499999999999998;"/><rect fill="#FFFFFF" height="557.3039" style="stroke:#181818;stroke-width:0.6999999999999998;" width="7" x="22.05" y="68.7695"/><rect fill="#FFFFFF" height="21.9037" style="stroke:#181818;stroke-width:0.6999999999999998;" width="7" x="400.05" y="85.0732"/><rect fill="#FFFFFF" height="497.1928" style="stroke:#181818;stroke-width:0.6999999999999998;" width="7" x="400.05" y="128.8807"/><rect fill="#FFFFFF" height="453.3854" style="stroke:#181818;stroke-width:0.6999999999999998;" width="7" x="957.25" y="150.7844"/><rect fill="#FFFFFF" height="21.9037" style="stroke:#181818;stroke-width:0.6999999999999998;" width="7" x="1251.95" y="150.7844"/><rect fill="#FFFFFF" height="134.9223" style="stroke:#181818;stroke-width:0.6999999999999998;" width="7" x="1369.2" y="275.0029"/><rect fill="#FFFFFF" height="52.9074" style="stroke:#181818;stroke-width:0.6999999999999998;" width="7" x="1485.4" y="194.5918"/><rect fill="#FFFFFF" height="65.7111" style="stroke:#181818;stroke-width:0.6999999999999998;" width="7" x="1801.8" y="300.4066"/><rect fill="#FFFFFF" height="43.8074" style="stroke:#181818;stroke-width:0.6999999999999998;" width="7" x="1886.5" y="366.1178"/><rect fill="#FFFFFF" height="128.5334" style="stroke:#181818;stroke-width:0.6999999999999998;" width="7" x="1967.7" y="409.9252"/><rect fill="#FFFFFF" height="21.9037" style="stroke:#181818;stroke-width:0.6999999999999998;" width="7" x="2045.4" y="538.4586"/><rect fill="#FFFFFF" height="21.9037" style="stroke:#181818;stroke-width:0.6999999999999998;" width="7" x="2116.1" y="388.0215"/><rect fill="#FFFFFF" height="21.9037" style="stroke:#181818;stroke-width:0.6999999999999998;" width="7" x="2207.8" y="560.3623"/><polygon fill="#181818" points="391.65,82.2732,398.65,85.0732,391.65,87.8732,394.45,85.0732" style="stroke:#181818;stroke-width:0.6999999999999998;"/><line style="stroke:#181818;stroke-width:0.6999999999999998;" x1="29.05" x2="395.85" y1="85.0732" y2="85.0732"/><text fill="#000000" font-family="sans-serif" font-size="9.1" font-weight="bold" lengthAdjust="spacing" textLength="4.9" x="33.95" y="81.3894">1</text><text fill="#000000" font-family="sans-serif" font-size="9.1" lengthAdjust="spacing" textLength="128.1" x="41.65" y="81.3894">asks to create a new Candidate</text><polygon fill="#181818" points="36.75,104.177,29.75,106.977,36.75,109.777,33.95,106.977" style="stroke:#181818;stroke-width:0.6999999999999998;"/><line style="stroke:#181818;stroke-width:0.6999999999999998;stroke-dasharray:2.0,2.0;" x1="32.55" x2="402.85" y1="106.977" y2="106.977"/><text fill="#000000" font-family="sans-serif" font-size="9.1" font-weight="bold" lengthAdjust="spacing" textLength="4.9" x="40.95" y="103.2931">2</text><text fill="#000000" font-family="sans-serif" font-size="9.1" lengthAdjust="spacing" textLength="346.5" x="48.65" y="103.2931">requests data (email, firstName, lastName, requirementsFile"optional", phoneNumber)</text><polygon fill="#181818" points="391.65,126.0807,398.65,128.8807,391.65,131.6807,394.45,128.8807" style="stroke:#181818;stroke-width:0.6999999999999998;"/><line style="stroke:#181818;stroke-width:0.6999999999999998;" x1="29.05" x2="395.85" y1="128.8807" y2="128.8807"/><text fill="#000000" font-family="sans-serif" font-size="9.1" font-weight="bold" lengthAdjust="spacing" textLength="4.9" x="33.95" y="125.1968">3</text><text fill="#000000" font-family="sans-serif" font-size="9.1" lengthAdjust="spacing" textLength="75.6" x="41.65" y="125.1968">types request data</text><polygon fill="#181818" points="948.85,147.9844,955.85,150.7844,948.85,153.5844,951.65,150.7844" style="stroke:#181818;stroke-width:0.6999999999999998;"/><line style="stroke:#181818;stroke-width:0.6999999999999998;" x1="407.05" x2="953.05" y1="150.7844" y2="150.7844"/><text fill="#000000" font-family="sans-serif" font-size="9.1" font-weight="bold" lengthAdjust="spacing" textLength="4.9" x="411.95" y="147.1005">4</text><text fill="#000000" font-family="sans-serif" font-size="9.1" lengthAdjust="spacing" textLength="529.2" x="419.65" y="147.1005">addCandidate(userData.email(), userData.firstName(), userData.lastName(), userData.requirementsFile(), userData.phoneNumber())</text><polygon fill="#181818" points="1247.05,169.8881,1254.05,172.6881,1247.05,175.4881,1249.85,172.6881" style="stroke:#181818;stroke-width:0.6999999999999998;"/><line style="stroke:#181818;stroke-width:0.6999999999999998;" x1="964.25" x2="1251.25" y1="172.6881" y2="172.6881"/><text fill="#000000" font-family="sans-serif" font-size="9.1" font-weight="bold" lengthAdjust="spacing" textLength="4.9" x="969.15" y="169.0042">5</text><text fill="#000000" font-family="sans-serif" font-size="9.1" lengthAdjust="spacing" textLength="263.2" x="976.85" y="169.0042">authz.isAuthenticatedUserAuthorizedTo(BaseRoles.OPERATOR)</text><polygon fill="#181818" points="1477,191.7918,1484,194.5918,1477,197.3918,1479.8,194.5918" style="stroke:#181818;stroke-width:0.6999999999999998;"/><line style="stroke:#181818;stroke-width:0.6999999999999998;" x1="964.25" x2="1481.2" y1="194.5918" y2="194.5918"/><text fill="#000000" font-family="sans-serif" font-size="9.1" font-weight="bold" lengthAdjust="spacing" textLength="4.9" x="969.15" y="190.9079">6</text><text fill="#000000" font-family="sans-serif" font-size="9.1" lengthAdjust="spacing" textLength="147" x="976.85" y="190.9079">generateWithoutPolicyAndEncoder()</text><line style="stroke:#181818;stroke-width:0.6999999999999998;" x1="1492.4" x2="1521.8" y1="216.4955" y2="216.4955"/><line style="stroke:#181818;stroke-width:0.6999999999999998;" x1="1521.8" x2="1521.8" y1="216.4955" y2="225.5955"/><line style="stroke:#181818;stroke-width:0.6999999999999998;" x1="1493.1" x2="1521.8" y1="225.5955" y2="225.5955"/><polygon fill="#181818" points="1500.1,222.7955,1493.1,225.5955,1500.1,228.3955,1497.3,225.5955" style="stroke:#181818;stroke-width:0.6999999999999998;"/><text fill="#000000" font-family="sans-serif" font-size="9.1" font-weight="bold" lengthAdjust="spacing" textLength="4.9" x="1497.3" y="212.8116">7</text><text fill="#000000" font-family="sans-serif" font-size="9.1" lengthAdjust="spacing" textLength="184.8" x="1505" y="212.8116">generate(PasswordPolicy, PasswordEncoder)</text><polygon fill="#181818" points="971.95,244.6992,964.95,247.4992,971.95,250.2992,969.15,247.4992" style="stroke:#181818;stroke-width:0.6999999999999998;"/><line style="stroke:#181818;stroke-width:0.6999999999999998;stroke-dasharray:2.0,2.0;" x1="967.75" x2="1488.2" y1="247.4992" y2="247.4992"/><text fill="#000000" font-family="sans-serif" font-size="9.1" font-weight="bold" lengthAdjust="spacing" textLength="4.9" x="976.15" y="243.8153">8</text><text fill="#000000" font-family="sans-serif" font-size="9.1" lengthAdjust="spacing" textLength="38.5" x="983.85" y="243.8153">password</text><line style="stroke:#181818;stroke-width:0.6999999999999998;" x1="964.25" x2="997.15" y1="265.9029" y2="265.9029"/><line style="stroke:#181818;stroke-width:0.6999999999999998;" x1="997.15" x2="997.15" y1="265.9029" y2="275.0029"/><line style="stroke:#181818;stroke-width:0.6999999999999998;" x1="968.45" x2="997.15" y1="275.0029" y2="275.0029"/><polygon fill="#181818" points="975.45,272.2029,968.45,275.0029,975.45,277.8029,972.65,275.0029" style="stroke:#181818;stroke-width:0.6999999999999998;"/><text fill="#000000" font-family="sans-serif" font-size="9.1" font-weight="bold" lengthAdjust="spacing" textLength="4.9" x="972.65" y="262.219">9</text><text fill="#000000" font-family="sans-serif" font-size="9.1" lengthAdjust="spacing" textLength="266" x="980.35" y="262.219">addUser(email, password, firstName, lastName, roles, createdOn)</text><polygon fill="#181818" points="1360.8,297.6066,1367.8,300.4066,1360.8,303.2066,1363.6,300.4066" style="stroke:#181818;stroke-width:0.6999999999999998;"/><line style="stroke:#181818;stroke-width:0.6999999999999998;" x1="964.25" x2="1365" y1="300.4066" y2="300.4066"/><text fill="#000000" font-family="sans-serif" font-size="9.1" font-weight="bold" lengthAdjust="spacing" textLength="9.8" x="969.15" y="296.7228">10</text><text fill="#000000" font-family="sans-serif" font-size="9.1" lengthAdjust="spacing" textLength="323.4" x="981.75" y="296.7228">registerNewUser(email, password, firstName, lastName, email, roles,createdOn)</text><polygon fill="#181818" points="1793.4,319.5104,1800.4,322.3104,1793.4,325.1104,1796.2,322.3104" style="stroke:#181818;stroke-width:0.6999999999999998;"/><line style="stroke:#181818;stroke-width:0.6999999999999998;" x1="1376.2" x2="1797.6" y1="322.3104" y2="322.3104"/><text fill="#000000" font-family="sans-serif" font-size="9.1" font-weight="bold" lengthAdjust="spacing" textLength="9.8" x="1381.1" y="318.6265">11</text><text fill="#000000" font-family="sans-serif" font-size="9.1" lengthAdjust="spacing" textLength="145.6" x="1393.7" y="318.6265">SystemUserBuilder(policy, encoder)</text><polygon fill="#181818" points="1793.4,341.4141,1800.4,344.2141,1793.4,347.0141,1796.2,344.2141" style="stroke:#181818;stroke-width:0.6999999999999998;"/><line style="stroke:#181818;stroke-width:0.6999999999999998;" x1="1376.2" x2="1797.6" y1="344.2141" y2="344.2141"/><text fill="#000000" font-family="sans-serif" font-size="9.1" font-weight="bold" lengthAdjust="spacing" textLength="9.8" x="1381.1" y="340.5302">12</text><text fill="#000000" font-family="sans-serif" font-size="9.1" lengthAdjust="spacing" textLength="396.2" x="1393.7" y="340.5302">with(username, rawPassword, firstName, lastName, email).createdOn(createdOn).withRoles(roles)</text><polygon fill="#181818" points="1878.1,363.3178,1885.1,366.1178,1878.1,368.9178,1880.9,366.1178" style="stroke:#181818;stroke-width:0.6999999999999998;"/><line style="stroke:#181818;stroke-width:0.6999999999999998;" x1="1805.3" x2="1882.3" y1="366.1178" y2="366.1178"/><text fill="#000000" font-family="sans-serif" font-size="9.1" font-weight="bold" lengthAdjust="spacing" textLength="9.8" x="1810.2" y="362.4339">13</text><text fill="#000000" font-family="sans-serif" font-size="9.1" lengthAdjust="spacing" textLength="24.5" x="1822.8" y="362.4339">build()</text><polygon fill="#181818" points="1383.9,385.2215,1376.9,388.0215,1383.9,390.8215,1381.1,388.0215" style="stroke:#181818;stroke-width:0.6999999999999998;"/><line style="stroke:#181818;stroke-width:0.6999999999999998;stroke-dasharray:2.0,2.0;" x1="1379.7" x2="1885.8" y1="388.0215" y2="388.0215"/><text fill="#000000" font-family="sans-serif" font-size="9.1" font-weight="bold" lengthAdjust="spacing" textLength="9.8" x="1388.1" y="384.3376">14</text><text fill="#000000" font-family="sans-serif" font-size="9.1" lengthAdjust="spacing" textLength="50.4" x="1400.7" y="384.3376">SystemUser</text><polygon fill="#181818" points="2111.2,407.1252,2118.2,409.9252,2111.2,412.7252,2114,409.9252" style="stroke:#181818;stroke-width:0.6999999999999998;"/><line style="stroke:#181818;stroke-width:0.6999999999999998;" x1="1372.7" x2="2115.4" y1="409.9252" y2="409.9252"/><text fill="#000000" font-family="sans-serif" font-size="9.1" font-weight="bold" lengthAdjust="spacing" textLength="9.8" x="1377.6" y="406.2413">15</text><text fill="#000000" font-family="sans-serif" font-size="9.1" lengthAdjust="spacing" textLength="74.2" x="1390.2" y="406.2413">save(SystemUser)</text><polygon fill="#181818" points="1959.3,513.7549,1966.3,516.5549,1959.3,519.3549,1962.1,516.5549" style="stroke:#181818;stroke-width:0.6999999999999998;"/><line style="stroke:#181818;stroke-width:0.6999999999999998;" x1="964.25" x2="1963.5" y1="516.5549" y2="516.5549"/><text fill="#000000" font-family="sans-serif" font-size="9.1" font-weight="bold" lengthAdjust="spacing" textLength="9.8" x="969.15" y="470.508">16</text><text fill="#000000" font-family="sans-serif" font-size="9.1" lengthAdjust="spacing" textLength="74.2" x="981.75" y="428.145">CandidateBuilder()</text><text fill="#000000" font-family="sans-serif" font-size="9.1" lengthAdjust="spacing" textLength="69.3" x="981.75" y="440.2487">.withEmail(email)</text><text fill="#000000" font-family="sans-serif" font-size="9.1" lengthAdjust="spacing" textLength="105" x="981.75" y="452.3524">.withFirstName(firstName)</text><text fill="#000000" font-family="sans-serif" font-size="9.1" lengthAdjust="spacing" textLength="104.3" x="981.75" y="464.4562">.withLastName(lastName)</text><text fill="#000000" font-family="sans-serif" font-size="9.1" lengthAdjust="spacing" textLength="162.4" x="981.75" y="476.5599">.withRequirementsFile(requirementsFile)</text><text fill="#000000" font-family="sans-serif" font-size="9.1" lengthAdjust="spacing" textLength="137.9" x="981.75" y="488.6636">.withPhoneNumber(phoneNumber)</text><text fill="#000000" font-family="sans-serif" font-size="9.1" lengthAdjust="spacing" textLength="110.6" x="981.75" y="500.7673">.withAppStatus("ENABLE")</text><text fill="#000000" font-family="sans-serif" font-size="9.1" lengthAdjust="spacing" textLength="27.3" x="981.75" y="512.871">.build()</text><polygon fill="#181818" points="2037,535.6586,2044,538.4586,2037,541.2586,2039.8,538.4586" style="stroke:#181818;stroke-width:0.6999999999999998;"/><line style="stroke:#181818;stroke-width:0.6999999999999998;" x1="1971.2" x2="2041.2" y1="538.4586" y2="538.4586"/><text fill="#000000" font-family="sans-serif" font-size="9.1" font-weight="bold" lengthAdjust="spacing" textLength="9.8" x="1976.1" y="534.7747">17</text><text fill="#000000" font-family="sans-serif" font-size="9.1" lengthAdjust="spacing" textLength="24.5" x="1988.7" y="534.7747">build()</text><polygon fill="#181818" points="971.95,557.5623,964.95,560.3623,971.95,563.1623,969.15,560.3623" style="stroke:#181818;stroke-width:0.6999999999999998;"/><line style="stroke:#181818;stroke-width:0.6999999999999998;stroke-dasharray:2.0,2.0;" x1="967.75" x2="2048.2" y1="560.3623" y2="560.3623"/><text fill="#000000" font-family="sans-serif" font-size="9.1" font-weight="bold" lengthAdjust="spacing" textLength="9.8" x="976.15" y="556.6784">18</text><text fill="#000000" font-family="sans-serif" font-size="9.1" lengthAdjust="spacing" textLength="40.6" x="988.75" y="556.6784">Candidate</text><polygon fill="#181818" points="2202.9,579.466,2209.9,582.266,2202.9,585.066,2205.7,582.266" style="stroke:#181818;stroke-width:0.6999999999999998;"/><line style="stroke:#181818;stroke-width:0.6999999999999998;" x1="964.25" x2="2207.1" y1="582.266" y2="582.266"/><text fill="#000000" font-family="sans-serif" font-size="9.1" font-weight="bold" lengthAdjust="spacing" textLength="9.8" x="969.15" y="578.5821">19</text><text fill="#000000" font-family="sans-serif" font-size="9.1" lengthAdjust="spacing" textLength="64.4" x="981.75" y="578.5821">save(Candidate)</text><polygon fill="#181818" points="414.75,601.3697,407.75,604.1697,414.75,606.9697,411.95,604.1697" style="stroke:#181818;stroke-width:0.6999999999999998;"/><line style="stroke:#181818;stroke-width:0.6999999999999998;stroke-dasharray:2.0,2.0;" x1="410.55" x2="960.05" y1="604.1697" y2="604.1697"/><text fill="#000000" font-family="sans-serif" font-size="9.1" font-weight="bold" lengthAdjust="spacing" textLength="9.8" x="418.95" y="600.4858">20</text><text fill="#000000" font-family="sans-serif" font-size="9.1" lengthAdjust="spacing" textLength="106.4" x="431.55" y="600.4858">informs operation success</text><polygon fill="#181818" points="33.25,623.2734,26.25,626.0734,33.25,628.8734,30.45,626.0734" style="stroke:#181818;stroke-width:0.6999999999999998;"/><line style="stroke:#181818;stroke-width:0.6999999999999998;stroke-dasharray:2.0,2.0;" x1="29.05" x2="402.85" y1="626.0734" y2="626.0734"/><text fill="#000000" font-family="sans-serif" font-size="9.1" font-weight="bold" lengthAdjust="spacing" textLength="9.8" x="37.45" y="622.3896">21</text><text fill="#000000" font-family="sans-serif" font-size="9.1" lengthAdjust="spacing" textLength="106.4" x="50.05" y="622.3896">informs operation success</text><!--SRC=[bLR1Rk8m4BtdAonEYKJv05GXGPPsaGg9W6WlUp79jBKss5axAQ9VlsCdZfqiQBktn9uty-PbtW1jQi6Rymba4D2y5f9CaWeanQS9eOeaGKLbpN9MKLwJoR8eCWKosvZBR4CU7oi92dXDQoRuOd4pF1Qybg8ieSqP7_Sl2AHLLRByDgwftuLad-Ro0FA3vM2Wo-pu7Q6gFHh3TAqjvVGDpiZ8nsNR-wYKAdKHidW6xZMUFjz77AwgXhEkjcfOMNHj7LQ8ACIPCduVq4PcToDZoWjMq1hypAj_XxV2-d5uIazKGIlB7YgX63PtDP7xTQevoFxK1_H97QZ3n6ECdXdsWQ4uA4527XPw9kOO_KkHMf1SWhwZXCF5fNMWR1C427X0N88m2RyRKBKYcWe90Jiff-ILILNlw1ccfAJsIOSoQRwpUc8bJ4IbPuMMaocftWM7dHdgA2XWKCrnhAyLA5lIL1poQfajscd5begYRo1iKD5lY9WPYc4q9Vr9ptPmQeaF3iSz32wz9i8eSjGq7VUc_H0OXiZKc0EPeda-Pqnf4s5gRJ4mDhIkWk8emXL-wRqeGSsITBrV7fFzGAj1OlJ2dBorze0V3BCqTIhGlDSbBzOy5uKcwLYbpm52ni3G6gs5Jebzxp941kGKhxfhdnPcjgJSTz6zsM6ne7jZepkUTdDP9DmZdMtxrBWjz32-CNIjtC7bFmfqKMsTMsKEgm3JOn5S5tForoO9gquSiA9uqHUKtimURvkXb_GBRA9PpoDqZ6OwcHc0q92D0YoX2sLOwAJ9X8E1GDxkEGimxC4gvPfm8Nh1TDJDhfaJHJyWTA63v2RQlGzCktL9L_qNqcgCLsKO_UIcgxKnPTjxT_JKkxBNoLwzM6jQsUp5VcpFiLzjOEfPrTyztVMogWxuyzYeSBBUBLSlwuc-iH8RqUFRcdkInq7iUyFjKYyy7iWVzsAPnTrzW1uurj-6s_N8-AkGPqM4-JU0gvMe9iz1gK55lOooZTtVNyAqkpNmZvBW3m00]--></g></svg>