<?xml version="1.0" encoding="us-ascii" standalone="no"?><svg xmlns="http://www.w3.org/2000/svg" xmlns:xlink="http://www.w3.org/1999/xlink" contentStyleType="text/css" height="788px" preserveAspectRatio="none" style="width:2768px;height:788px;background:#FFFFFF;" version="1.1" viewBox="0 0 2768 788" width="2768px" zoomAndPan="magnify"><defs/><g><text fill="#000000" font-family="sans-serif" font-size="11.2" font-weight="bold" lengthAdjust="spacing" textLength="180.8" x="1295" y="22.8281">US 1000 - Register a Customer</text><rect fill="#FFFFFF" height="592.5563" style="stroke:#181818;stroke-width:0.8000000000000002;" width="8" x="54.8" y="105.1719"/><rect fill="#FFFFFF" height="23.4484" style="stroke:#181818;stroke-width:0.8000000000000002;" width="8" x="463.6" y="122.2203"/><rect fill="#FFFFFF" height="528.6109" style="stroke:#181818;stroke-width:0.8000000000000002;" width="8" x="463.6" y="169.1172"/><rect fill="#FFFFFF" height="481.7141" style="stroke:#181818;stroke-width:0.8000000000000002;" width="8" x="1136.4" y="192.5656"/><rect fill="#FFFFFF" height="23.4484" style="stroke:#181818;stroke-width:0.8000000000000002;" width="8" x="1545.2" y="192.5656"/><rect fill="#FFFFFF" height="144.6906" style="stroke:#181818;stroke-width:0.8000000000000002;" width="8" x="1688.8" y="326.6078"/><rect fill="#FFFFFF" height="57.2969" style="stroke:#181818;stroke-width:0.8000000000000002;" width="8" x="1828.8" y="239.4625"/><rect fill="#FFFFFF" height="70.3453" style="stroke:#181818;stroke-width:0.8000000000000002;" width="8" x="2220" y="354.0563"/><rect fill="#FFFFFF" height="46.8969" style="stroke:#181818;stroke-width:0.8000000000000002;" width="8" x="2321.6" y="424.4016"/><rect fill="#FFFFFF" height="132.6359" style="stroke:#181818;stroke-width:0.8000000000000002;" width="8" x="2418.4" y="471.2984"/><rect fill="#FFFFFF" height="23.4484" style="stroke:#181818;stroke-width:0.8000000000000002;" width="8" x="2510.4" y="603.9344"/><rect fill="#FFFFFF" height="23.4484" style="stroke:#181818;stroke-width:0.8000000000000002;" width="8" x="2594.8" y="447.85"/><rect fill="#FFFFFF" height="23.4484" style="stroke:#181818;stroke-width:0.8000000000000002;" width="8" x="2705.2" y="627.3828"/><line style="stroke:#181818;stroke-width:0.4000000000000001;stroke-dasharray:5.0,5.0;" x1="58.4" x2="58.4" y1="97.1719" y2="712.1281"/><line style="stroke:#181818;stroke-width:0.4000000000000001;stroke-dasharray:5.0,5.0;" x1="467.2" x2="467.2" y1="97.1719" y2="712.1281"/><line style="stroke:#181818;stroke-width:0.4000000000000001;stroke-dasharray:5.0,5.0;" x1="1140" x2="1140" y1="97.1719" y2="712.1281"/><line style="stroke:#181818;stroke-width:0.4000000000000001;stroke-dasharray:5.0,5.0;" x1="1548.8" x2="1548.8" y1="97.1719" y2="712.1281"/><line style="stroke:#181818;stroke-width:0.4000000000000001;stroke-dasharray:5.0,5.0;" x1="1692.8" x2="1692.8" y1="97.1719" y2="712.1281"/><line style="stroke:#181818;stroke-width:0.4000000000000001;stroke-dasharray:5.0,5.0;" x1="1832.8" x2="1832.8" y1="97.1719" y2="712.1281"/><line style="stroke:#181818;stroke-width:0.4000000000000001;stroke-dasharray:5.0,5.0;" x1="2223.6" x2="2223.6" y1="97.1719" y2="712.1281"/><line style="stroke:#181818;stroke-width:0.4000000000000001;stroke-dasharray:5.0,5.0;" x1="2325.2" x2="2325.2" y1="97.1719" y2="712.1281"/><line style="stroke:#181818;stroke-width:0.4000000000000001;stroke-dasharray:5.0,5.0;" x1="2422" x2="2422" y1="97.1719" y2="712.1281"/><line style="stroke:#181818;stroke-width:0.4000000000000001;stroke-dasharray:5.0,5.0;" x1="2514" x2="2514" y1="97.1719" y2="712.1281"/><line style="stroke:#181818;stroke-width:0.4000000000000001;stroke-dasharray:5.0,5.0;" x1="2598.8" x2="2598.8" y1="97.1719" y2="712.1281"/><line style="stroke:#181818;stroke-width:0.4000000000000001;stroke-dasharray:5.0,5.0;" x1="2709.2" x2="2709.2" y1="97.1719" y2="712.1281"/><text fill="#000000" font-family="sans-serif" font-size="11.2" lengthAdjust="spacing" textLength="104.8" x="4" y="94.8094">Customer Manager</text><ellipse cx="58.8" cy="42.7813" fill="#E2E2F0" rx="6.4" ry="6.4" style="stroke:#181818;stroke-width:0.4000000000000001;"/><path d="M58.8,49.1813 L58.8,70.7813 M48.4,55.5813 L69.2,55.5813 M58.8,70.7813 L48.4,82.7813 M58.8,70.7813 L69.2,82.7813 " fill="none" style="stroke:#181818;stroke-width:0.4000000000000001;"/><text fill="#000000" font-family="sans-serif" font-size="11.2" lengthAdjust="spacing" textLength="104.8" x="4" y="722.1563">Customer Manager</text><ellipse cx="58.8" cy="731.3188" fill="#E2E2F0" rx="6.4" ry="6.4" style="stroke:#181818;stroke-width:0.4000000000000001;"/><path d="M58.8,737.7188 L58.8,759.3188 M48.4,744.1188 L69.2,744.1188 M58.8,759.3188 L48.4,771.3188 M58.8,759.3188 L69.2,771.3188 " fill="none" style="stroke:#181818;stroke-width:0.4000000000000001;"/><rect fill="#E2E2F0" height="37.5813" rx="2" ry="2" style="stroke:#181818;stroke-width:0.4000000000000001;" width="92" x="421.6" y="58.7906"/><text fill="#000000" font-family="sans-serif" font-size="11.2" font-style="italic" lengthAdjust="spacing" textLength="80.8" x="427.2" y="75.2188">&#171;presentation&#187;</text><text fill="#000000" font-family="sans-serif" font-size="11.2" lengthAdjust="spacing" textLength="58.4" x="438.4" y="88.4094">AddUserUI</text><rect fill="#E2E2F0" height="37.5813" rx="2" ry="2" style="stroke:#181818;stroke-width:0.4000000000000001;" width="92" x="421.6" y="711.3281"/><text fill="#000000" font-family="sans-serif" font-size="11.2" font-style="italic" lengthAdjust="spacing" textLength="80.8" x="427.2" y="727.7563">&#171;presentation&#187;</text><text fill="#000000" font-family="sans-serif" font-size="11.2" lengthAdjust="spacing" textLength="58.4" x="438.4" y="740.9469">AddUserUI</text><rect fill="#E2E2F0" height="37.5813" rx="2" ry="2" style="stroke:#181818;stroke-width:0.4000000000000001;" width="114.4" x="1083.2" y="58.7906"/><text fill="#000000" font-family="sans-serif" font-size="11.2" font-style="italic" lengthAdjust="spacing" textLength="72" x="1104.4" y="75.2188">&#171;application&#187;</text><text fill="#000000" font-family="sans-serif" font-size="11.2" lengthAdjust="spacing" textLength="103.2" x="1088.8" y="88.4094">AddUserController</text><rect fill="#E2E2F0" height="37.5813" rx="2" ry="2" style="stroke:#181818;stroke-width:0.4000000000000001;" width="114.4" x="1083.2" y="711.3281"/><text fill="#000000" font-family="sans-serif" font-size="11.2" font-style="italic" lengthAdjust="spacing" textLength="72" x="1104.4" y="727.7563">&#171;application&#187;</text><text fill="#000000" font-family="sans-serif" font-size="11.2" lengthAdjust="spacing" textLength="103.2" x="1088.8" y="740.9469">AddUserController</text><rect fill="#E2E2F0" height="37.5813" rx="2" ry="2" style="stroke:#181818;stroke-width:0.4000000000000001;" width="125.6" x="1486.4" y="58.7906"/><text fill="#000000" font-family="sans-serif" font-size="11.2" font-style="italic" lengthAdjust="spacing" textLength="48.8" x="1524.8" y="75.2188">&#171;service&#187;</text><text fill="#000000" font-family="sans-serif" font-size="11.2" lengthAdjust="spacing" textLength="114.4" x="1492" y="88.4094">AuthorizationService</text><rect fill="#E2E2F0" height="37.5813" rx="2" ry="2" style="stroke:#181818;stroke-width:0.4000000000000001;" width="125.6" x="1486.4" y="711.3281"/><text fill="#000000" font-family="sans-serif" font-size="11.2" font-style="italic" lengthAdjust="spacing" textLength="48.8" x="1524.8" y="727.7563">&#171;service&#187;</text><text fill="#000000" font-family="sans-serif" font-size="11.2" lengthAdjust="spacing" textLength="114.4" x="1492" y="740.9469">AuthorizationService</text><rect fill="#E2E2F0" height="37.5813" rx="2" ry="2" style="stroke:#181818;stroke-width:0.4000000000000001;" width="145.6" x="1620" y="58.7906"/><text fill="#000000" font-family="sans-serif" font-size="11.2" font-style="italic" lengthAdjust="spacing" textLength="48.8" x="1668.4" y="75.2188">&#171;service&#187;</text><text fill="#000000" font-family="sans-serif" font-size="11.2" lengthAdjust="spacing" textLength="134.4" x="1625.6" y="88.4094">UserManagementService</text><rect fill="#E2E2F0" height="37.5813" rx="2" ry="2" style="stroke:#181818;stroke-width:0.4000000000000001;" width="145.6" x="1620" y="711.3281"/><text fill="#000000" font-family="sans-serif" font-size="11.2" font-style="italic" lengthAdjust="spacing" textLength="48.8" x="1668.4" y="727.7563">&#171;service&#187;</text><text fill="#000000" font-family="sans-serif" font-size="11.2" lengthAdjust="spacing" textLength="134.4" x="1625.6" y="740.9469">UserManagementService</text><rect fill="#E2E2F0" height="37.5813" rx="2" ry="2" style="stroke:#181818;stroke-width:0.4000000000000001;" width="118.4" x="1773.6" y="58.7906"/><text fill="#000000" font-family="sans-serif" font-size="11.2" font-style="italic" lengthAdjust="spacing" textLength="48.8" x="1808.4" y="75.2188">&#171;service&#187;</text><text fill="#000000" font-family="sans-serif" font-size="11.2" lengthAdjust="spacing" textLength="107.2" x="1779.2" y="88.4094">PasswordGenerator</text><rect fill="#E2E2F0" height="37.5813" rx="2" ry="2" style="stroke:#181818;stroke-width:0.4000000000000001;" width="118.4" x="1773.6" y="711.3281"/><text fill="#000000" font-family="sans-serif" font-size="11.2" font-style="italic" lengthAdjust="spacing" textLength="48.8" x="1808.4" y="727.7563">&#171;service&#187;</text><text fill="#000000" font-family="sans-serif" font-size="11.2" lengthAdjust="spacing" textLength="107.2" x="1779.2" y="740.9469">PasswordGenerator</text><rect fill="#E2E2F0" height="37.5813" rx="2" ry="2" style="stroke:#181818;stroke-width:0.4000000000000001;" width="112.8" x="2167.6" y="58.7906"/><text fill="#000000" font-family="sans-serif" font-size="11.2" font-style="italic" lengthAdjust="spacing" textLength="52.8" x="2197.6" y="75.2188">&#171;domain&#187;</text><text fill="#000000" font-family="sans-serif" font-size="11.2" lengthAdjust="spacing" textLength="101.6" x="2173.2" y="88.4094">SystemUserBuilder</text><rect fill="#E2E2F0" height="37.5813" rx="2" ry="2" style="stroke:#181818;stroke-width:0.4000000000000001;" width="112.8" x="2167.6" y="711.3281"/><text fill="#000000" font-family="sans-serif" font-size="11.2" font-style="italic" lengthAdjust="spacing" textLength="52.8" x="2197.6" y="727.7563">&#171;domain&#187;</text><text fill="#000000" font-family="sans-serif" font-size="11.2" lengthAdjust="spacing" textLength="101.6" x="2173.2" y="740.9469">SystemUserBuilder</text><rect fill="#E2E2F0" height="37.5813" rx="2" ry="2" style="stroke:#181818;stroke-width:0.4000000000000001;" width="74.4" x="2288.4" y="58.7906"/><text fill="#000000" font-family="sans-serif" font-size="11.2" font-style="italic" lengthAdjust="spacing" textLength="52.8" x="2299.2" y="75.2188">&#171;domain&#187;</text><text fill="#000000" font-family="sans-serif" font-size="11.2" lengthAdjust="spacing" textLength="63.2" x="2294" y="88.4094">SystemUser</text><rect fill="#E2E2F0" height="37.5813" rx="2" ry="2" style="stroke:#181818;stroke-width:0.4000000000000001;" width="74.4" x="2288.4" y="711.3281"/><text fill="#000000" font-family="sans-serif" font-size="11.2" font-style="italic" lengthAdjust="spacing" textLength="52.8" x="2299.2" y="727.7563">&#171;domain&#187;</text><text fill="#000000" font-family="sans-serif" font-size="11.2" lengthAdjust="spacing" textLength="63.2" x="2294" y="740.9469">SystemUser</text><rect fill="#E2E2F0" height="37.5813" rx="2" ry="2" style="stroke:#181818;stroke-width:0.4000000000000001;" width="103.2" x="2370.8" y="58.7906"/><text fill="#000000" font-family="sans-serif" font-size="11.2" font-style="italic" lengthAdjust="spacing" textLength="52.8" x="2396" y="75.2188">&#171;domain&#187;</text><text fill="#000000" font-family="sans-serif" font-size="11.2" lengthAdjust="spacing" textLength="92" x="2376.4" y="88.4094">CustomerBuilder</text><rect fill="#E2E2F0" height="37.5813" rx="2" ry="2" style="stroke:#181818;stroke-width:0.4000000000000001;" width="103.2" x="2370.8" y="711.3281"/><text fill="#000000" font-family="sans-serif" font-size="11.2" font-style="italic" lengthAdjust="spacing" textLength="52.8" x="2396" y="727.7563">&#171;domain&#187;</text><text fill="#000000" font-family="sans-serif" font-size="11.2" lengthAdjust="spacing" textLength="92" x="2376.4" y="740.9469">CustomerBuilder</text><rect fill="#E2E2F0" height="37.5813" rx="2" ry="2" style="stroke:#181818;stroke-width:0.4000000000000001;" width="64.8" x="2482" y="58.7906"/><text fill="#000000" font-family="sans-serif" font-size="11.2" font-style="italic" lengthAdjust="spacing" textLength="52.8" x="2488" y="75.2188">&#171;domain&#187;</text><text fill="#000000" font-family="sans-serif" font-size="11.2" lengthAdjust="spacing" textLength="53.6" x="2487.6" y="88.4094">Customer</text><rect fill="#E2E2F0" height="37.5813" rx="2" ry="2" style="stroke:#181818;stroke-width:0.4000000000000001;" width="64.8" x="2482" y="711.3281"/><text fill="#000000" font-family="sans-serif" font-size="11.2" font-style="italic" lengthAdjust="spacing" textLength="52.8" x="2488" y="727.7563">&#171;domain&#187;</text><text fill="#000000" font-family="sans-serif" font-size="11.2" lengthAdjust="spacing" textLength="53.6" x="2487.6" y="740.9469">Customer</text><text fill="#000000" font-family="sans-serif" font-size="11.2" font-style="italic" lengthAdjust="spacing" textLength="67.2" x="2562.8" y="81.6188">&#171;repository&#187;</text><text fill="#000000" font-family="sans-serif" font-size="11.2" lengthAdjust="spacing" textLength="83.2" x="2554.8" y="94.8094">UserRepository</text><path d="M2584.4,41.9906 C2584.4,33.9906 2598.8,33.9906 2598.8,33.9906 C2598.8,33.9906 2613.2,33.9906 2613.2,41.9906 L2613.2,62.7906 C2613.2,70.7906 2598.8,70.7906 2598.8,70.7906 C2598.8,70.7906 2584.4,70.7906 2584.4,62.7906 L2584.4,41.9906 " fill="#E2E2F0" style="stroke:#181818;stroke-width:1.2000000000000002;"/><path d="M2584.4,41.9906 C2584.4,49.9906 2598.8,49.9906 2598.8,49.9906 C2598.8,49.9906 2613.2,49.9906 2613.2,41.9906 " fill="none" style="stroke:#181818;stroke-width:1.2000000000000002;"/><text fill="#000000" font-family="sans-serif" font-size="11.2" font-style="italic" lengthAdjust="spacing" textLength="67.2" x="2562.8" y="722.1563">&#171;repository&#187;</text><text fill="#000000" font-family="sans-serif" font-size="11.2" lengthAdjust="spacing" textLength="83.2" x="2554.8" y="735.3469">UserRepository</text><path d="M2584.4,745.7094 C2584.4,737.7094 2598.8,737.7094 2598.8,737.7094 C2598.8,737.7094 2613.2,737.7094 2613.2,745.7094 L2613.2,766.5094 C2613.2,774.5094 2598.8,774.5094 2598.8,774.5094 C2598.8,774.5094 2584.4,774.5094 2584.4,766.5094 L2584.4,745.7094 " fill="#E2E2F0" style="stroke:#181818;stroke-width:1.2000000000000002;"/><path d="M2584.4,745.7094 C2584.4,753.7094 2598.8,753.7094 2598.8,753.7094 C2598.8,753.7094 2613.2,753.7094 2613.2,745.7094 " fill="none" style="stroke:#181818;stroke-width:1.2000000000000002;"/><text fill="#000000" font-family="sans-serif" font-size="11.2" font-style="italic" lengthAdjust="spacing" textLength="67.2" x="2673.2" y="81.6188">&#171;repository&#187;</text><text fill="#000000" font-family="sans-serif" font-size="11.2" lengthAdjust="spacing" textLength="112" x="2650.8" y="94.8094">CustomerRepository</text><path d="M2694.8,41.9906 C2694.8,33.9906 2709.2,33.9906 2709.2,33.9906 C2709.2,33.9906 2723.6,33.9906 2723.6,41.9906 L2723.6,62.7906 C2723.6,70.7906 2709.2,70.7906 2709.2,70.7906 C2709.2,70.7906 2694.8,70.7906 2694.8,62.7906 L2694.8,41.9906 " fill="#E2E2F0" style="stroke:#181818;stroke-width:1.2000000000000002;"/><path d="M2694.8,41.9906 C2694.8,49.9906 2709.2,49.9906 2709.2,49.9906 C2709.2,49.9906 2723.6,49.9906 2723.6,41.9906 " fill="none" style="stroke:#181818;stroke-width:1.2000000000000002;"/><text fill="#000000" font-family="sans-serif" font-size="11.2" font-style="italic" lengthAdjust="spacing" textLength="67.2" x="2673.2" y="722.1563">&#171;repository&#187;</text><text fill="#000000" font-family="sans-serif" font-size="11.2" lengthAdjust="spacing" textLength="112" x="2650.8" y="735.3469">CustomerRepository</text><path d="M2694.8,745.7094 C2694.8,737.7094 2709.2,737.7094 2709.2,737.7094 C2709.2,737.7094 2723.6,737.7094 2723.6,745.7094 L2723.6,766.5094 C2723.6,774.5094 2709.2,774.5094 2709.2,774.5094 C2709.2,774.5094 2694.8,774.5094 2694.8,766.5094 L2694.8,745.7094 " fill="#E2E2F0" style="stroke:#181818;stroke-width:1.2000000000000002;"/><path d="M2694.8,745.7094 C2694.8,753.7094 2709.2,753.7094 2709.2,753.7094 C2709.2,753.7094 2723.6,753.7094 2723.6,745.7094 " fill="none" style="stroke:#181818;stroke-width:1.2000000000000002;"/><rect fill="#FFFFFF" height="592.5563" style="stroke:#181818;stroke-width:0.8000000000000002;" width="8" x="54.8" y="105.1719"/><rect fill="#FFFFFF" height="23.4484" style="stroke:#181818;stroke-width:0.8000000000000002;" width="8" x="463.6" y="122.2203"/><rect fill="#FFFFFF" height="528.6109" style="stroke:#181818;stroke-width:0.8000000000000002;" width="8" x="463.6" y="169.1172"/><rect fill="#FFFFFF" height="481.7141" style="stroke:#181818;stroke-width:0.8000000000000002;" width="8" x="1136.4" y="192.5656"/><rect fill="#FFFFFF" height="23.4484" style="stroke:#181818;stroke-width:0.8000000000000002;" width="8" x="1545.2" y="192.5656"/><rect fill="#FFFFFF" height="144.6906" style="stroke:#181818;stroke-width:0.8000000000000002;" width="8" x="1688.8" y="326.6078"/><rect fill="#FFFFFF" height="57.2969" style="stroke:#181818;stroke-width:0.8000000000000002;" width="8" x="1828.8" y="239.4625"/><rect fill="#FFFFFF" height="70.3453" style="stroke:#181818;stroke-width:0.8000000000000002;" width="8" x="2220" y="354.0563"/><rect fill="#FFFFFF" height="46.8969" style="stroke:#181818;stroke-width:0.8000000000000002;" width="8" x="2321.6" y="424.4016"/><rect fill="#FFFFFF" height="132.6359" style="stroke:#181818;stroke-width:0.8000000000000002;" width="8" x="2418.4" y="471.2984"/><rect fill="#FFFFFF" height="23.4484" style="stroke:#181818;stroke-width:0.8000000000000002;" width="8" x="2510.4" y="603.9344"/><rect fill="#FFFFFF" height="23.4484" style="stroke:#181818;stroke-width:0.8000000000000002;" width="8" x="2594.8" y="447.85"/><rect fill="#FFFFFF" height="23.4484" style="stroke:#181818;stroke-width:0.8000000000000002;" width="8" x="2705.2" y="627.3828"/><polygon fill="#181818" points="454,119.0203,462,122.2203,454,125.4203,457.2,122.2203" style="stroke:#181818;stroke-width:0.8000000000000002;"/><line style="stroke:#181818;stroke-width:0.8000000000000002;" x1="62.8" x2="458.8" y1="122.2203" y2="122.2203"/><text fill="#000000" font-family="sans-serif" font-size="10.4" font-weight="bold" lengthAdjust="spacing" textLength="7.2" x="68.4" y="118.4266">1</text><text fill="#000000" font-family="sans-serif" font-size="10.4" lengthAdjust="spacing" textLength="154.4" x="78.8" y="118.4266">asks to create a new Customer</text><polygon fill="#181818" points="71.6,142.4688,63.6,145.6688,71.6,148.8688,68.4,145.6688" style="stroke:#181818;stroke-width:0.8000000000000002;"/><line style="stroke:#181818;stroke-width:0.8000000000000002;stroke-dasharray:2.0,2.0;" x1="66.8" x2="466.8" y1="145.6688" y2="145.6688"/><text fill="#000000" font-family="sans-serif" font-size="10.4" font-weight="bold" lengthAdjust="spacing" textLength="7.2" x="76.4" y="141.875">2</text><text fill="#000000" font-family="sans-serif" font-size="10.4" lengthAdjust="spacing" textLength="371.2" x="86.8" y="141.875">requests data (email, firstName, lastName, phoneNumber, customerCode)</text><polygon fill="#181818" points="454,165.9172,462,169.1172,454,172.3172,457.2,169.1172" style="stroke:#181818;stroke-width:0.8000000000000002;"/><line style="stroke:#181818;stroke-width:0.8000000000000002;" x1="62.8" x2="458.8" y1="169.1172" y2="169.1172"/><text fill="#000000" font-family="sans-serif" font-size="10.4" font-weight="bold" lengthAdjust="spacing" textLength="7.2" x="68.4" y="165.3234">3</text><text fill="#000000" font-family="sans-serif" font-size="10.4" lengthAdjust="spacing" textLength="92.8" x="78.8" y="165.3234">types request data</text><polygon fill="#181818" points="1126.8,189.3656,1134.8,192.5656,1126.8,195.7656,1130,192.5656" style="stroke:#181818;stroke-width:0.8000000000000002;"/><line style="stroke:#181818;stroke-width:0.8000000000000002;" x1="471.6" x2="1131.6" y1="192.5656" y2="192.5656"/><text fill="#000000" font-family="sans-serif" font-size="10.4" font-weight="bold" lengthAdjust="spacing" textLength="7.2" x="477.2" y="188.7719">4</text><text fill="#000000" font-family="sans-serif" font-size="10.4" lengthAdjust="spacing" textLength="639.2" x="487.6" y="188.7719">addCostumer(userData.email(), userData.firstName(), userData.lastName(), userData.phoneNumber(), userData.customerCode())</text><polygon fill="#181818" points="1539.6,212.8141,1547.6,216.0141,1539.6,219.2141,1542.8,216.0141" style="stroke:#181818;stroke-width:0.8000000000000002;"/><line style="stroke:#181818;stroke-width:0.8000000000000002;" x1="1144.4" x2="1544.4" y1="216.0141" y2="216.0141"/><text fill="#000000" font-family="sans-serif" font-size="10.4" font-weight="bold" lengthAdjust="spacing" textLength="7.2" x="1150" y="212.2203">5</text><text fill="#000000" font-family="sans-serif" font-size="10.4" lengthAdjust="spacing" textLength="371.2" x="1160.4" y="212.2203">authz.isAuthenticatedUserAuthorizedTo(BaseRoles.CUSTOMER_MANAGER)</text><polygon fill="#181818" points="1819.2,236.2625,1827.2,239.4625,1819.2,242.6625,1822.4,239.4625" style="stroke:#181818;stroke-width:0.8000000000000002;"/><line style="stroke:#181818;stroke-width:0.8000000000000002;" x1="1144.4" x2="1824" y1="239.4625" y2="239.4625"/><text fill="#000000" font-family="sans-serif" font-size="10.4" font-weight="bold" lengthAdjust="spacing" textLength="7.2" x="1150" y="235.6688">6</text><text fill="#000000" font-family="sans-serif" font-size="10.4" lengthAdjust="spacing" textLength="178.4" x="1160.4" y="235.6688">generateWithoutPolicyAndEncoder()</text><line style="stroke:#181818;stroke-width:0.8000000000000002;" x1="1836.8" x2="1870.4" y1="262.9109" y2="262.9109"/><line style="stroke:#181818;stroke-width:0.8000000000000002;" x1="1870.4" x2="1870.4" y1="262.9109" y2="273.3109"/><line style="stroke:#181818;stroke-width:0.8000000000000002;" x1="1837.6" x2="1870.4" y1="273.3109" y2="273.3109"/><polygon fill="#181818" points="1845.6,270.1109,1837.6,273.3109,1845.6,276.5109,1842.4,273.3109" style="stroke:#181818;stroke-width:0.8000000000000002;"/><text fill="#000000" font-family="sans-serif" font-size="10.4" font-weight="bold" lengthAdjust="spacing" textLength="7.2" x="1842.4" y="259.1172">7</text><text fill="#000000" font-family="sans-serif" font-size="10.4" lengthAdjust="spacing" textLength="220" x="1852.8" y="259.1172">generate(PasswordPolicy, PasswordEncoder)</text><polygon fill="#181818" points="1153.2,293.5594,1145.2,296.7594,1153.2,299.9594,1150,296.7594" style="stroke:#181818;stroke-width:0.8000000000000002;"/><line style="stroke:#181818;stroke-width:0.8000000000000002;stroke-dasharray:2.0,2.0;" x1="1148.4" x2="1832" y1="296.7594" y2="296.7594"/><text fill="#000000" font-family="sans-serif" font-size="10.4" font-weight="bold" lengthAdjust="spacing" textLength="7.2" x="1158" y="292.9656">8</text><text fill="#000000" font-family="sans-serif" font-size="10.4" lengthAdjust="spacing" textLength="48" x="1168.4" y="292.9656">password</text><line style="stroke:#181818;stroke-width:0.8000000000000002;" x1="1144.4" x2="1182" y1="316.2078" y2="316.2078"/><line style="stroke:#181818;stroke-width:0.8000000000000002;" x1="1182" x2="1182" y1="316.2078" y2="326.6078"/><line style="stroke:#181818;stroke-width:0.8000000000000002;" x1="1149.2" x2="1182" y1="326.6078" y2="326.6078"/><polygon fill="#181818" points="1157.2,323.4078,1149.2,326.6078,1157.2,329.8078,1154,326.6078" style="stroke:#181818;stroke-width:0.8000000000000002;"/><text fill="#000000" font-family="sans-serif" font-size="10.4" font-weight="bold" lengthAdjust="spacing" textLength="7.2" x="1154" y="312.4141">9</text><text fill="#000000" font-family="sans-serif" font-size="10.4" lengthAdjust="spacing" textLength="327.2" x="1164.4" y="312.4141">addUser(email, password, firstName, lastName, roles, createdOn)</text><polygon fill="#181818" points="1679.2,350.8563,1687.2,354.0563,1679.2,357.2563,1682.4,354.0563" style="stroke:#181818;stroke-width:0.8000000000000002;"/><line style="stroke:#181818;stroke-width:0.8000000000000002;" x1="1144.4" x2="1684" y1="354.0563" y2="354.0563"/><text fill="#000000" font-family="sans-serif" font-size="10.4" font-weight="bold" lengthAdjust="spacing" textLength="14.4" x="1150" y="350.2625">10</text><text fill="#000000" font-family="sans-serif" font-size="10.4" lengthAdjust="spacing" textLength="402.4" x="1167.6" y="350.2625">registerNewUser(email, password, firstName, lastName, email, roles, createdOn)</text><polygon fill="#181818" points="2210.4,374.3047,2218.4,377.5047,2210.4,380.7047,2213.6,377.5047" style="stroke:#181818;stroke-width:0.8000000000000002;"/><line style="stroke:#181818;stroke-width:0.8000000000000002;" x1="1696.8" x2="2215.2" y1="377.5047" y2="377.5047"/><text fill="#000000" font-family="sans-serif" font-size="10.4" font-weight="bold" lengthAdjust="spacing" textLength="14.4" x="1702.4" y="373.7109">11</text><text fill="#000000" font-family="sans-serif" font-size="10.4" lengthAdjust="spacing" textLength="176" x="1720" y="373.7109">SystemUserBuilder(policy, encoder)</text><polygon fill="#181818" points="2210.4,397.7531,2218.4,400.9531,2210.4,404.1531,2213.6,400.9531" style="stroke:#181818;stroke-width:0.8000000000000002;"/><line style="stroke:#181818;stroke-width:0.8000000000000002;" x1="1696.8" x2="2215.2" y1="400.9531" y2="400.9531"/><text fill="#000000" font-family="sans-serif" font-size="10.4" font-weight="bold" lengthAdjust="spacing" textLength="14.4" x="1702.4" y="397.1594">12</text><text fill="#000000" font-family="sans-serif" font-size="10.4" lengthAdjust="spacing" textLength="486.4" x="1720" y="397.1594">with(username, rawPassword, firstName, lastName, email).createdOn(createdOn).withRoles(roles)</text><polygon fill="#181818" points="2312,421.2016,2320,424.4016,2312,427.6016,2315.2,424.4016" style="stroke:#181818;stroke-width:0.8000000000000002;"/><line style="stroke:#181818;stroke-width:0.8000000000000002;" x1="2224" x2="2316.8" y1="424.4016" y2="424.4016"/><text fill="#000000" font-family="sans-serif" font-size="10.4" font-weight="bold" lengthAdjust="spacing" textLength="14.4" x="2229.6" y="420.6078">13</text><text fill="#000000" font-family="sans-serif" font-size="10.4" lengthAdjust="spacing" textLength="32" x="2247.2" y="420.6078">build()</text><polygon fill="#181818" points="1705.6,444.65,1697.6,447.85,1705.6,451.05,1702.4,447.85" style="stroke:#181818;stroke-width:0.8000000000000002;"/><line style="stroke:#181818;stroke-width:0.8000000000000002;stroke-dasharray:2.0,2.0;" x1="1700.8" x2="2320.8" y1="447.85" y2="447.85"/><text fill="#000000" font-family="sans-serif" font-size="10.4" font-weight="bold" lengthAdjust="spacing" textLength="14.4" x="1710.4" y="444.0563">14</text><text fill="#000000" font-family="sans-serif" font-size="10.4" lengthAdjust="spacing" textLength="58.4" x="1728" y="444.0563">SystemUser</text><polygon fill="#181818" points="2589.2,468.0984,2597.2,471.2984,2589.2,474.4984,2592.4,471.2984" style="stroke:#181818;stroke-width:0.8000000000000002;"/><line style="stroke:#181818;stroke-width:0.8000000000000002;" x1="1692.8" x2="2594" y1="471.2984" y2="471.2984"/><text fill="#000000" font-family="sans-serif" font-size="10.4" font-weight="bold" lengthAdjust="spacing" textLength="14.4" x="1698.4" y="467.5047">15</text><text fill="#000000" font-family="sans-serif" font-size="10.4" lengthAdjust="spacing" textLength="87.2" x="1716" y="467.5047">save(SystemUser)</text><polygon fill="#181818" points="2408.8,577.2859,2416.8,580.4859,2408.8,583.6859,2412,580.4859" style="stroke:#181818;stroke-width:0.8000000000000002;"/><line style="stroke:#181818;stroke-width:0.8000000000000002;" x1="1144.4" x2="2413.6" y1="580.4859" y2="580.4859"/><text fill="#000000" font-family="sans-serif" font-size="10.4" font-weight="bold" lengthAdjust="spacing" textLength="14.4" x="1150" y="533.8227">16</text><text fill="#000000" font-family="sans-serif" font-size="10.4" lengthAdjust="spacing" textLength="89.6" x="1167.6" y="490.9531">CustomerBuilder()</text><text fill="#000000" font-family="sans-serif" font-size="10.4" lengthAdjust="spacing" textLength="85.6" x="1167.6" y="503.2016">.withEmail(email)</text><text fill="#000000" font-family="sans-serif" font-size="10.4" lengthAdjust="spacing" textLength="132" x="1167.6" y="515.45">.withFirstName(firstName)</text><text fill="#000000" font-family="sans-serif" font-size="10.4" lengthAdjust="spacing" textLength="128" x="1167.6" y="527.6984">.withLastName(lastName)</text><text fill="#000000" font-family="sans-serif" font-size="10.4" lengthAdjust="spacing" textLength="172.8" x="1167.6" y="539.9469">.withPhoneNumber(phoneNumber)</text><text fill="#000000" font-family="sans-serif" font-size="10.4" lengthAdjust="spacing" textLength="178.4" x="1167.6" y="552.1953">.withCustomerCode(customerCode)</text><text fill="#000000" font-family="sans-serif" font-size="10.4" lengthAdjust="spacing" textLength="128" x="1167.6" y="564.4438">.withAppStatus("ENABLE")</text><text fill="#000000" font-family="sans-serif" font-size="10.4" lengthAdjust="spacing" textLength="35.2" x="1167.6" y="576.6922">.build()</text><polygon fill="#181818" points="2500.8,600.7344,2508.8,603.9344,2500.8,607.1344,2504,603.9344" style="stroke:#181818;stroke-width:0.8000000000000002;"/><line style="stroke:#181818;stroke-width:0.8000000000000002;" x1="2422.4" x2="2505.6" y1="603.9344" y2="603.9344"/><text fill="#000000" font-family="sans-serif" font-size="10.4" font-weight="bold" lengthAdjust="spacing" textLength="14.4" x="2428" y="600.1406">17</text><text fill="#000000" font-family="sans-serif" font-size="10.4" lengthAdjust="spacing" textLength="32" x="2445.6" y="600.1406">build()</text><polygon fill="#181818" points="1153.2,624.1828,1145.2,627.3828,1153.2,630.5828,1150,627.3828" style="stroke:#181818;stroke-width:0.8000000000000002;"/><line style="stroke:#181818;stroke-width:0.8000000000000002;stroke-dasharray:2.0,2.0;" x1="1148.4" x2="2513.6" y1="627.3828" y2="627.3828"/><text fill="#000000" font-family="sans-serif" font-size="10.4" font-weight="bold" lengthAdjust="spacing" textLength="14.4" x="1158" y="623.5891">18</text><text fill="#000000" font-family="sans-serif" font-size="10.4" lengthAdjust="spacing" textLength="48.8" x="1175.6" y="623.5891">Customer</text><polygon fill="#181818" points="2699.6,647.6313,2707.6,650.8313,2699.6,654.0313,2702.8,650.8313" style="stroke:#181818;stroke-width:0.8000000000000002;"/><line style="stroke:#181818;stroke-width:0.8000000000000002;" x1="1144.4" x2="2704.4" y1="650.8313" y2="650.8313"/><text fill="#000000" font-family="sans-serif" font-size="10.4" font-weight="bold" lengthAdjust="spacing" textLength="14.4" x="1150" y="647.0375">19</text><text fill="#000000" font-family="sans-serif" font-size="10.4" lengthAdjust="spacing" textLength="77.6" x="1167.6" y="647.0375">save(Customer)</text><polygon fill="#181818" points="480.4,671.0797,472.4,674.2797,480.4,677.4797,477.2,674.2797" style="stroke:#181818;stroke-width:0.8000000000000002;"/><line style="stroke:#181818;stroke-width:0.8000000000000002;stroke-dasharray:2.0,2.0;" x1="475.6" x2="1139.6" y1="674.2797" y2="674.2797"/><text fill="#000000" font-family="sans-serif" font-size="10.4" font-weight="bold" lengthAdjust="spacing" textLength="14.4" x="485.2" y="670.4859">20</text><text fill="#000000" font-family="sans-serif" font-size="10.4" lengthAdjust="spacing" textLength="133.6" x="502.8" y="670.4859">informs operation success</text><polygon fill="#181818" points="67.6,694.5281,59.6,697.7281,67.6,700.9281,64.4,697.7281" style="stroke:#181818;stroke-width:0.8000000000000002;"/><line style="stroke:#181818;stroke-width:0.8000000000000002;stroke-dasharray:2.0,2.0;" x1="62.8" x2="466.8" y1="697.7281" y2="697.7281"/><text fill="#000000" font-family="sans-serif" font-size="10.4" font-weight="bold" lengthAdjust="spacing" textLength="14.4" x="72.4" y="693.9344">21</text><text fill="#000000" font-family="sans-serif" font-size="10.4" lengthAdjust="spacing" textLength="133.6" x="90" y="693.9344">informs operation success</text><!--SRC=[bLLDZzem4BtdLrYS4WdGzefMI91IYhHy28XwgLHvazbTgy5ERMSH- -ixTkBOeKkxlINsUpDlNcOcjDQ2rwT7a95ckeG9oGxaqztT7HcHFJmpfK4IIj9QQN52K4HpBIGPk0Eoffm-WnmGgiWsggZKB6SLvPeCPaMHAP3PobvcAt9_NqbGm3NLJF3fz5ruAhYMeYpRcEbn_u14MbKboz_drVf5IFPcBmyWNraEbZhBZb-HgfgZQvh9rOW_eQAGbwrlitPKgREGnH8uI8fMMCPkUPjnkA279vDjNhEoQCiwp95HY1Db_3QXGMOtaUuZX87d_qGtjeQmWchwI1KqfkoX4efXQHUBt2zsHe7iJaE2Y-avBIMzffZ6OQzK0tP9j2MZgMc82Q9_Ag85oIMOEqeud7stTPni5KM87o5jYom9lsfGMX4ZXCI0TPH3yiIaqXjwWY4fgNkgNWI7ZUtm8SdRmAae88aAwCNtelIb0kMIs1nz9OsMQTERM4DHf4Bf6WF7DHhu6GbZgobEXgGxwUJrJftItc4WkdSUwe-JnAioIloRQVp8YaEHTWfG94x9svWfCotOxsQMmCwR6nyeZYAUuqVTYnBKECqEn-rwiV-ndcrcoyM-PrSl0JR_X3mtym3V64QhzKxWj5vcl5Zm7BLY5LxTRXaXvPeOkybgg4FYtji8YILvqwlsEfI5aPqe_sbCZQv37Eb6hqXJ-R3jnMBB0z7PkWkDwy5qOBCRDt3-ZmGjwYzv3lC8usCMN10JyiVkYAlM7N2k1EWpUcyRa3VLqFFk0tAISQSZzeh69fZjXDYgJI9COH9bcEZHY8bx7O6w_NCM8MpahF95U8XPAgrqkrycHD5NY3sq5zoY_NjlSDS-wBpxHCQDg-KO9z-vBMfX1xCflJtwqarcPvExUd3ZwLnp5xjWH8DnTTTfEAczjTC2PbLrmFzWhUB1OZERFom6viOvQxrEtxSwS3gDqd0ckhqPeDEUwMbdaTtHhUsETsswGxkzoFYJa2T5H6L65l-sHDLv3ahr4ffLbAtSgluGnoxLu7qR_GO0]--></g></svg>