<?xml version="1.0" encoding="us-ascii" standalone="no"?><svg xmlns="http://www.w3.org/2000/svg" xmlns:xlink="http://www.w3.org/1999/xlink" contentStyleType="text/css" height="376.8px" preserveAspectRatio="none" style="width:405px;height:376px;background:#FFFFFF;" version="1.1" viewBox="0 0 405 376" width="405.6px" zoomAndPan="magnify"><defs/><g><text fill="#000000" font-family="sans-serif" font-size="11.2" font-weight="bold" lengthAdjust="spacing" textLength="178.4" x="114.6" y="22.8281">US1000 - Register a Candidate</text><rect fill="#FFFFFF" height="201.1516" style="stroke:#181818;stroke-width:0.8000000000000002;" width="8" x="66.8" y="103.1813"/><rect fill="#FFFFFF" height="23.4484" style="stroke:#181818;stroke-width:0.8000000000000002;" width="8" x="362" y="120.2297"/><rect fill="#FFFFFF" height="23.4484" style="stroke:#181818;stroke-width:0.8000000000000002;" width="8" x="362" y="167.1266"/><rect fill="#FFFFFF" height="42.8969" style="stroke:#181818;stroke-width:0.8000000000000002;" width="8" x="362" y="214.0234"/><rect fill="none" height="72.7094" style="stroke:#000000;stroke-width:1.2000000000000002;" width="392.4" x="8" y="226.0234"/><line style="stroke:#181818;stroke-width:0.4000000000000001;stroke-dasharray:5.0,5.0;" x1="70.4" x2="70.4" y1="95.1813" y2="312.3328"/><line style="stroke:#181818;stroke-width:0.4000000000000001;stroke-dasharray:5.0,5.0;" x1="366" x2="366" y1="95.1813" y2="312.3328"/><text fill="#000000" font-family="sans-serif" font-size="11.2" lengthAdjust="spacing" textLength="104.8" x="16" y="92.8188">Customer Manager</text><ellipse cx="70.8" cy="40.7906" fill="#E2E2F0" rx="6.4" ry="6.4" style="stroke:#181818;stroke-width:0.4000000000000001;"/><path d="M70.8,47.1906 L70.8,68.7906 M60.4,53.5906 L81.2,53.5906 M70.8,68.7906 L60.4,80.7906 M70.8,68.7906 L81.2,80.7906 " fill="none" style="stroke:#181818;stroke-width:0.4000000000000001;"/><text fill="#000000" font-family="sans-serif" font-size="11.2" lengthAdjust="spacing" textLength="104.8" x="16" y="322.3609">Customer Manager</text><ellipse cx="70.8" cy="331.5234" fill="#E2E2F0" rx="6.4" ry="6.4" style="stroke:#181818;stroke-width:0.4000000000000001;"/><path d="M70.8,337.9234 L70.8,359.5234 M60.4,344.3234 L81.2,344.3234 M70.8,359.5234 L60.4,371.5234 M70.8,359.5234 L81.2,371.5234 " fill="none" style="stroke:#181818;stroke-width:0.4000000000000001;"/><rect fill="#E2E2F0" height="24.3906" rx="2" ry="2" style="stroke:#181818;stroke-width:0.4000000000000001;" width="52.8" x="339.6" y="69.9906"/><text fill="#000000" font-family="sans-serif" font-size="11.2" lengthAdjust="spacing" textLength="41.6" x="345.2" y="86.4188">:System</text><rect fill="#E2E2F0" height="24.3906" rx="2" ry="2" style="stroke:#181818;stroke-width:0.4000000000000001;" width="52.8" x="339.6" y="311.5328"/><text fill="#000000" font-family="sans-serif" font-size="11.2" lengthAdjust="spacing" textLength="41.6" x="345.2" y="327.9609">:System</text><rect fill="#FFFFFF" height="201.1516" style="stroke:#181818;stroke-width:0.8000000000000002;" width="8" x="66.8" y="103.1813"/><rect fill="#FFFFFF" height="23.4484" style="stroke:#181818;stroke-width:0.8000000000000002;" width="8" x="362" y="120.2297"/><rect fill="#FFFFFF" height="23.4484" style="stroke:#181818;stroke-width:0.8000000000000002;" width="8" x="362" y="167.1266"/><rect fill="#FFFFFF" height="42.8969" style="stroke:#181818;stroke-width:0.8000000000000002;" width="8" x="362" y="214.0234"/><polygon fill="#181818" points="352.4,117.0297,360.4,120.2297,352.4,123.4297,355.6,120.2297" style="stroke:#181818;stroke-width:0.8000000000000002;"/><line style="stroke:#181818;stroke-width:0.8000000000000002;" x1="74.8" x2="357.2" y1="120.2297" y2="120.2297"/><text fill="#000000" font-family="sans-serif" font-size="10.4" font-weight="bold" lengthAdjust="spacing" textLength="7.2" x="80.4" y="116.4359">1</text><text fill="#000000" font-family="sans-serif" font-size="10.4" lengthAdjust="spacing" textLength="212.8" x="90.8" y="116.4359">asks the system to create a new Customer</text><polygon fill="#181818" points="83.6,140.4781,75.6,143.6781,83.6,146.8781,80.4,143.6781" style="stroke:#181818;stroke-width:0.8000000000000002;"/><line style="stroke:#181818;stroke-width:0.8000000000000002;stroke-dasharray:2.0,2.0;" x1="78.8" x2="365.2" y1="143.6781" y2="143.6781"/><text fill="#000000" font-family="sans-serif" font-size="10.4" font-weight="bold" lengthAdjust="spacing" textLength="7.2" x="88.4" y="139.8844">2</text><text fill="#000000" font-family="sans-serif" font-size="10.4" lengthAdjust="spacing" textLength="257.6" x="98.8" y="139.8844">requests data (Email, Name, Phone, CustomerCode)</text><polygon fill="#181818" points="352.4,163.9266,360.4,167.1266,352.4,170.3266,355.6,167.1266" style="stroke:#181818;stroke-width:0.8000000000000002;"/><line style="stroke:#181818;stroke-width:0.8000000000000002;" x1="74.8" x2="357.2" y1="167.1266" y2="167.1266"/><text fill="#000000" font-family="sans-serif" font-size="10.4" font-weight="bold" lengthAdjust="spacing" textLength="7.2" x="80.4" y="163.3328">3</text><text fill="#000000" font-family="sans-serif" font-size="10.4" lengthAdjust="spacing" textLength="92.8" x="90.8" y="163.3328">types request data</text><polygon fill="#181818" points="83.6,187.375,75.6,190.575,83.6,193.775,80.4,190.575" style="stroke:#181818;stroke-width:0.8000000000000002;"/><line style="stroke:#181818;stroke-width:0.8000000000000002;stroke-dasharray:2.0,2.0;" x1="78.8" x2="365.2" y1="190.575" y2="190.575"/><text fill="#000000" font-family="sans-serif" font-size="10.4" font-weight="bold" lengthAdjust="spacing" textLength="7.2" x="88.4" y="186.7813">4</text><text fill="#000000" font-family="sans-serif" font-size="10.4" lengthAdjust="spacing" textLength="111.2" x="98.8" y="186.7813">requests confirmation</text><polygon fill="#181818" points="352.4,210.8234,360.4,214.0234,352.4,217.2234,355.6,214.0234" style="stroke:#181818;stroke-width:0.8000000000000002;"/><line style="stroke:#181818;stroke-width:0.8000000000000002;" x1="74.8" x2="357.2" y1="214.0234" y2="214.0234"/><text fill="#000000" font-family="sans-serif" font-size="10.4" font-weight="bold" lengthAdjust="spacing" textLength="7.2" x="80.4" y="210.2297">5</text><text fill="#000000" font-family="sans-serif" font-size="10.4" lengthAdjust="spacing" textLength="88.8" x="90.8" y="210.2297">confirms the data</text><path d="M8,226.0234 L57.6,226.0234 L57.6,231.8719 L49.6,239.8719 L8,239.8719 L8,226.0234 " fill="#EEEEEE" style="stroke:#000000;stroke-width:1.2000000000000002;"/><rect fill="none" height="72.7094" style="stroke:#000000;stroke-width:1.2000000000000002;" width="392.4" x="8" y="226.0234"/><text fill="#000000" font-family="sans-serif" font-size="10.4" font-weight="bold" lengthAdjust="spacing" textLength="13.6" x="20" y="236.8781">alt</text><text fill="#000000" font-family="sans-serif" font-size="8.8" font-weight="bold" lengthAdjust="spacing" textLength="40.8" x="69.6" y="236.1313">[!ERROR]</text><polygon fill="#181818" points="83.6,253.7203,75.6,256.9203,83.6,260.1203,80.4,256.9203" style="stroke:#181818;stroke-width:0.8000000000000002;"/><line style="stroke:#181818;stroke-width:0.8000000000000002;stroke-dasharray:2.0,2.0;" x1="78.8" x2="365.2" y1="256.9203" y2="256.9203"/><text fill="#000000" font-family="sans-serif" font-size="10.4" font-weight="bold" lengthAdjust="spacing" textLength="7.2" x="88.4" y="253.1266">6</text><text fill="#000000" font-family="sans-serif" font-size="10.4" lengthAdjust="spacing" textLength="133.6" x="98.8" y="253.1266">informs operation success</text><line style="stroke:#000000;stroke-width:0.8000000000000002;stroke-dasharray:2.0,2.0;" x1="8" x2="400.4" y1="264.1203" y2="264.1203"/><text fill="#000000" font-family="sans-serif" font-size="8.8" font-weight="bold" lengthAdjust="spacing" textLength="38.4" x="12" y="272.6281">[ERROR]</text><polygon fill="#181818" points="83.6,289.1328,75.6,292.3328,83.6,295.5328,80.4,292.3328" style="stroke:#181818;stroke-width:0.8000000000000002;"/><line style="stroke:#181818;stroke-width:0.8000000000000002;stroke-dasharray:2.0,2.0;" x1="78.8" x2="365.2" y1="292.3328" y2="292.3328"/><text fill="#000000" font-family="sans-serif" font-size="10.4" font-weight="bold" lengthAdjust="spacing" textLength="7.2" x="88.4" y="288.5391">7</text><text fill="#000000" font-family="sans-serif" font-size="10.4" lengthAdjust="spacing" textLength="191.2" x="98.8" y="288.5391">informs operation unsuccess and why</text><!--SRC=[fPBDQiCm48JlUegfJot4u5vzwCNas1yS-W1RUnEBMb8ghHlyzfLTEoac8P2U1BkptyoAfKwSxSm7UoLQMixnlddCiWmfIjxf8En1ACZMkYPXfQWIvr5qGPnX_qoMTeCa89bhc8h9ADRVSMofLse9I9-Gv9i- -fa4UUHz1aZ326C9ub1v7aW4ouSZx-Hmd5Rg14eZTkcKm_DNnq42uaQ4-xKXtQxmGePNU6kSZSyyLBYQ7rJDvsokh23zdiFiDLhzBspbx5PxGwATlItHHFZzs4k1g1NShSlojRmQJTkj6t1kptwCXT1L5OTmFXwtWN4hkRCJ6_4KSMZw2nwn6JTGwczxUNm_]--></g></svg>