<?xml version="1.0" encoding="us-ascii" standalone="no"?><svg xmlns="http://www.w3.org/2000/svg" xmlns:xlink="http://www.w3.org/1999/xlink" contentStyleType="text/css" height="1080px" preserveAspectRatio="none" style="width:1934px;height:1080px;background:#FFFFFF;" version="1.1" viewBox="0 0 1934 1080" width="1934px" zoomAndPan="magnify"><defs/><g><!--class AddUserUI--><g id="elem_AddUserUI"><rect codeLine="2" fill="#F1F1F1" height="48" id="AddUserUI" rx="2.5" ry="2.5" style="stroke:#181818;stroke-width:0.5;" width="105" x="1190.5" y="15.24"/><ellipse cx="1205.5" cy="31.24" fill="#ADD1B2" rx="11" ry="11" style="stroke:#181818;stroke-width:1.0;"/><path d="M1208.4731,36.8831 Q1207.8921,37.1819 1207.2529,37.3313 Q1206.6138,37.4807 1205.9082,37.4807 Q1203.4014,37.4807 1202.0815,35.8289 Q1200.7617,34.177 1200.7617,31.0559 Q1200.7617,27.9265 1202.0815,26.2747 Q1203.4014,24.6228 1205.9082,24.6228 Q1206.6138,24.6228 1207.2612,24.7722 Q1207.9087,24.9216 1208.4731,25.2205 L1208.4731,27.9431 Q1207.8423,27.3621 1207.2488,27.0923 Q1206.6553,26.8225 1206.0244,26.8225 Q1204.6797,26.8225 1203.9949,27.8892 Q1203.3101,28.9558 1203.3101,31.0559 Q1203.3101,33.1477 1203.9949,34.2144 Q1204.6797,35.281 1206.0244,35.281 Q1206.6553,35.281 1207.2488,35.0112 Q1207.8423,34.7415 1208.4731,34.1604 Z " fill="#000000"/><text fill="#000000" font-family="sans-serif" font-size="14" lengthAdjust="spacing" textLength="73" x="1219.5" y="36.531">AddUserUI</text><line style="stroke:#181818;stroke-width:0.5;" x1="1191.5" x2="1294.5" y1="47.24" y2="47.24"/><line style="stroke:#181818;stroke-width:0.5;" x1="1191.5" x2="1294.5" y1="55.24" y2="55.24"/></g><!--class AddUserController--><g id="elem_AddUserController"><rect codeLine="6" fill="#F1F1F1" height="130.4414" id="AddUserController" rx="2.5" ry="2.5" style="stroke:#181818;stroke-width:0.5;" width="451" x="740.5" y="255.98"/><ellipse cx="897.25" cy="271.98" fill="#ADD1B2" rx="11" ry="11" style="stroke:#181818;stroke-width:1.0;"/><path d="M900.2231,277.6231 Q899.6421,277.9219 899.0029,278.0713 Q898.3638,278.2207 897.6582,278.2207 Q895.1514,278.2207 893.8315,276.5689 Q892.5117,274.917 892.5117,271.7959 Q892.5117,268.6665 893.8315,267.0147 Q895.1514,265.3628 897.6582,265.3628 Q898.3638,265.3628 899.0112,265.5122 Q899.6587,265.6616 900.2231,265.9605 L900.2231,268.6831 Q899.5923,268.1021 898.9988,267.8323 Q898.4053,267.5625 897.7744,267.5625 Q896.4297,267.5625 895.7449,268.6292 Q895.0601,269.6958 895.0601,271.7959 Q895.0601,273.8877 895.7449,274.9544 Q896.4297,276.021 897.7744,276.021 Q898.4053,276.021 898.9988,275.7512 Q899.5923,275.4815 900.2231,274.9004 Z " fill="#000000"/><text fill="#000000" font-family="sans-serif" font-size="14" lengthAdjust="spacing" textLength="129" x="917.75" y="277.271">AddUserController</text><line style="stroke:#181818;stroke-width:0.5;" x1="741.5" x2="1190.5" y1="287.98" y2="287.98"/><rect fill="none" height="6" style="stroke:#C82930;stroke-width:1.0;" width="6" x="748.5" y="298.7241"/><text fill="#000000" font-family="sans-serif" font-size="14" lengthAdjust="spacing" textLength="31" x="760.5" y="305.5152">auth</text><rect fill="none" height="6" style="stroke:#C82930;stroke-width:1.0;" width="6" x="748.5" y="315.2124"/><text fill="#000000" font-family="sans-serif" font-size="14" lengthAdjust="spacing" textLength="52" x="760.5" y="322.0034">userSvc</text><rect fill="none" height="6" style="stroke:#C82930;stroke-width:1.0;" width="6" x="748.5" y="331.7007"/><text fill="#000000" font-family="sans-serif" font-size="14" lengthAdjust="spacing" textLength="140" x="760.5" y="338.4917">candidateRepository</text><line style="stroke:#181818;stroke-width:0.5;" x1="741.5" x2="1190.5" y1="345.4448" y2="345.4448"/><ellipse cx="751.5" cy="359.189" fill="#84BE84" rx="3" ry="3" style="stroke:#038048;stroke-width:1.0;"/><text fill="#000000" font-family="sans-serif" font-size="14" lengthAdjust="spacing" textLength="425" x="760.5" y="362.98">AddUserController(authorizationService, customerRepository)</text><ellipse cx="751.5" cy="375.6773" fill="#84BE84" rx="3" ry="3" style="stroke:#038048;stroke-width:1.0;"/><text fill="#000000" font-family="sans-serif" font-size="14" lengthAdjust="spacing" textLength="199" x="760.5" y="379.4683">getCustomer(customerCode)</text></g><!--class AuthorizationService--><g id="elem_AuthorizationService"><rect codeLine="14" fill="#F1F1F1" height="97.4648" id="AuthorizationService" rx="2.5" ry="2.5" style="stroke:#181818;stroke-width:0.5;" width="269" x="227.5" y="479.39"/><ellipse cx="286.25" cy="495.39" fill="#ADD1B2" rx="11" ry="11" style="stroke:#181818;stroke-width:1.0;"/><path d="M289.2231,501.0331 Q288.6421,501.3319 288.0029,501.4813 Q287.3638,501.6307 286.6582,501.6307 Q284.1514,501.6307 282.8315,499.9789 Q281.5117,498.327 281.5117,495.2059 Q281.5117,492.0765 282.8315,490.4247 Q284.1514,488.7728 286.6582,488.7728 Q287.3638,488.7728 288.0112,488.9222 Q288.6587,489.0716 289.2231,489.3705 L289.2231,492.0931 Q288.5923,491.5121 287.9988,491.2423 Q287.4053,490.9725 286.7744,490.9725 Q285.4297,490.9725 284.7449,492.0392 Q284.0601,493.1058 284.0601,495.2059 Q284.0601,497.2977 284.7449,498.3644 Q285.4297,499.431 286.7744,499.431 Q287.4053,499.431 287.9988,499.1612 Q288.5923,498.8915 289.2231,498.3104 Z " fill="#000000"/><text fill="#000000" font-family="sans-serif" font-size="14" lengthAdjust="spacing" textLength="143" x="306.75" y="500.681">AuthorizationService</text><line style="stroke:#181818;stroke-width:0.5;" x1="228.5" x2="495.5" y1="511.39" y2="511.39"/><rect fill="none" height="6" style="stroke:#C82930;stroke-width:1.0;" width="6" x="235.5" y="522.1341"/><text fill="#000000" font-family="sans-serif" font-size="14" lengthAdjust="spacing" textLength="55" x="247.5" y="528.9252">LOGGER</text><rect fill="none" height="6" style="stroke:#C82930;stroke-width:1.0;" width="6" x="235.5" y="538.6224"/><text fill="#000000" font-family="sans-serif" font-size="14" lengthAdjust="spacing" textLength="74" x="247.5" y="545.4134">theSession</text><line style="stroke:#181818;stroke-width:0.5;" x1="228.5" x2="495.5" y1="552.3666" y2="552.3666"/><ellipse cx="238.5" cy="566.1107" fill="#84BE84" rx="3" ry="3" style="stroke:#038048;stroke-width:1.0;"/><text fill="#000000" font-family="sans-serif" font-size="14" lengthAdjust="spacing" textLength="243" x="247.5" y="569.9017">isAuthenticatedUserAuthorizedTo()</text></g><!--class Customer--><g id="elem_Customer"><rect codeLine="20" fill="#F1F1F1" height="179.9063" id="Customer" rx="2.5" ry="2.5" style="stroke:#181818;stroke-width:0.5;" width="144" x="28" y="669.84"/><ellipse cx="63.25" cy="685.84" fill="#ADD1B2" rx="11" ry="11" style="stroke:#181818;stroke-width:1.0;"/><path d="M66.2231,691.4831 Q65.6421,691.7819 65.0029,691.9313 Q64.3638,692.0807 63.6582,692.0807 Q61.1514,692.0807 59.8315,690.4289 Q58.5117,688.777 58.5117,685.6559 Q58.5117,682.5265 59.8315,680.8747 Q61.1514,679.2228 63.6582,679.2228 Q64.3638,679.2228 65.0112,679.3722 Q65.6587,679.5216 66.2231,679.8205 L66.2231,682.5431 Q65.5923,681.9621 64.9988,681.6923 Q64.4053,681.4225 63.7744,681.4225 Q62.4297,681.4225 61.7449,682.4892 Q61.0601,683.5558 61.0601,685.6559 Q61.0601,687.7477 61.7449,688.8144 Q62.4297,689.881 63.7744,689.881 Q64.4053,689.881 64.9988,689.6112 Q65.5923,689.3415 66.2231,688.7604 Z " fill="#000000"/><text fill="#000000" font-family="sans-serif" font-size="14" lengthAdjust="spacing" textLength="67" x="81.75" y="691.131">Customer</text><line style="stroke:#181818;stroke-width:0.5;" x1="29" x2="171" y1="701.84" y2="701.84"/><rect fill="none" height="6" style="stroke:#C82930;stroke-width:1.0;" width="6" x="36" y="712.5841"/><text fill="#000000" font-family="sans-serif" font-size="14" lengthAdjust="spacing" textLength="100" x="48" y="719.3752">customerCode</text><rect fill="none" height="6" style="stroke:#C82930;stroke-width:1.0;" width="6" x="36" y="729.0724"/><text fill="#000000" font-family="sans-serif" font-size="14" lengthAdjust="spacing" textLength="37" x="48" y="735.8634">email</text><rect fill="none" height="6" style="stroke:#C82930;stroke-width:1.0;" width="6" x="36" y="745.5607"/><text fill="#000000" font-family="sans-serif" font-size="14" lengthAdjust="spacing" textLength="66" x="48" y="752.3517">firstName</text><rect fill="none" height="6" style="stroke:#C82930;stroke-width:1.0;" width="6" x="36" y="762.049"/><text fill="#000000" font-family="sans-serif" font-size="14" lengthAdjust="spacing" textLength="63" x="48" y="768.84">lastName</text><rect fill="none" height="6" style="stroke:#C82930;stroke-width:1.0;" width="6" x="36" y="778.5373"/><text fill="#000000" font-family="sans-serif" font-size="14" lengthAdjust="spacing" textLength="99" x="48" y="785.3283">phoneNumber</text><rect fill="none" height="6" style="stroke:#C82930;stroke-width:1.0;" width="6" x="36" y="795.0255"/><text fill="#000000" font-family="sans-serif" font-size="14" lengthAdjust="spacing" textLength="101" x="48" y="801.8166">companyName</text><rect fill="none" height="6" style="stroke:#C82930;stroke-width:1.0;" width="6" x="36" y="811.5138"/><text fill="#000000" font-family="sans-serif" font-size="14" lengthAdjust="spacing" textLength="118" x="48" y="818.3048">companyAddress</text><rect fill="none" height="6" style="stroke:#C82930;stroke-width:1.0;" width="6" x="36" y="828.0021"/><text fill="#000000" font-family="sans-serif" font-size="14" lengthAdjust="spacing" textLength="66" x="48" y="834.7931">createdAt</text><line style="stroke:#181818;stroke-width:0.5;" x1="29" x2="171" y1="841.7463" y2="841.7463"/></g><!--class UserManagementService--><g id="elem_UserManagementService"><rect codeLine="33" fill="#F1F1F1" height="113.9531" id="UserManagementService" rx="2.5" ry="2.5" style="stroke:#181818;stroke-width:0.5;" width="869" x="531.5" y="471.15"/><ellipse cx="877.75" cy="487.15" fill="#ADD1B2" rx="11" ry="11" style="stroke:#181818;stroke-width:1.0;"/><path d="M880.7231,492.7931 Q880.1421,493.0919 879.5029,493.2413 Q878.8638,493.3907 878.1582,493.3907 Q875.6514,493.3907 874.3315,491.7389 Q873.0117,490.087 873.0117,486.9659 Q873.0117,483.8365 874.3315,482.1847 Q875.6514,480.5328 878.1582,480.5328 Q878.8638,480.5328 879.5112,480.6822 Q880.1587,480.8316 880.7231,481.1305 L880.7231,483.8531 Q880.0923,483.2721 879.4988,483.0023 Q878.9053,482.7325 878.2744,482.7325 Q876.9297,482.7325 876.2449,483.7992 Q875.5601,484.8658 875.5601,486.9659 Q875.5601,489.0577 876.2449,490.1244 Q876.9297,491.191 878.2744,491.191 Q878.9053,491.191 879.4988,490.9212 Q880.0923,490.6515 880.7231,490.0704 Z " fill="#000000"/><text fill="#000000" font-family="sans-serif" font-size="14" lengthAdjust="spacing" textLength="168" x="898.25" y="492.441">UserManagementService</text><line style="stroke:#181818;stroke-width:0.5;" x1="532.5" x2="1399.5" y1="503.15" y2="503.15"/><rect fill="none" height="6" style="stroke:#C82930;stroke-width:1.0;" width="6" x="539.5" y="513.8941"/><text fill="#000000" font-family="sans-serif" font-size="14" lengthAdjust="spacing" textLength="103" x="551.5" y="520.6852">userRepository</text><rect fill="none" height="6" style="stroke:#C82930;stroke-width:1.0;" width="6" x="539.5" y="530.3824"/><text fill="#000000" font-family="sans-serif" font-size="14" lengthAdjust="spacing" textLength="56" x="551.5" y="537.1734">encoder</text><rect fill="none" height="6" style="stroke:#C82930;stroke-width:1.0;" width="6" x="539.5" y="546.8707"/><text fill="#000000" font-family="sans-serif" font-size="14" lengthAdjust="spacing" textLength="40" x="551.5" y="553.6617">policy</text><line style="stroke:#181818;stroke-width:0.5;" x1="532.5" x2="1399.5" y1="560.6148" y2="560.6148"/><ellipse cx="542.5" cy="574.359" fill="#84BE84" rx="3" ry="3" style="stroke:#038048;stroke-width:1.0;"/><text fill="#000000" font-family="sans-serif" font-size="14" lengthAdjust="spacing" textLength="843" x="551.5" y="578.15">registerNewUser(email, password, firstName, lastName, customerCode, companyName, companyAddress, roles, createdOn)</text></g><!--class CustomerBuilder--><g id="elem_CustomerBuilder"><rect codeLine="43" fill="#F1F1F1" height="163.418" id="CustomerBuilder" rx="2.5" ry="2.5" style="stroke:#181818;stroke-width:0.5;" width="186" x="7" y="446.42"/><ellipse cx="39.55" cy="462.42" fill="#ADD1B2" rx="11" ry="11" style="stroke:#181818;stroke-width:1.0;"/><path d="M42.5231,468.0631 Q41.9421,468.3619 41.3029,468.5113 Q40.6638,468.6607 39.9582,468.6607 Q37.4514,468.6607 36.1315,467.0089 Q34.8117,465.357 34.8117,462.2359 Q34.8117,459.1065 36.1315,457.4547 Q37.4514,455.8028 39.9582,455.8028 Q40.6638,455.8028 41.3112,455.9522 Q41.9587,456.1016 42.5231,456.4005 L42.5231,459.1231 Q41.8923,458.5421 41.2988,458.2723 Q40.7053,458.0025 40.0744,458.0025 Q38.7297,458.0025 38.0449,459.0692 Q37.3601,460.1358 37.3601,462.2359 Q37.3601,464.3277 38.0449,465.3944 Q38.7297,466.461 40.0744,466.461 Q40.7053,466.461 41.2988,466.1912 Q41.8923,465.9215 42.5231,465.3404 Z " fill="#000000"/><text fill="#000000" font-family="sans-serif" font-size="14" lengthAdjust="spacing" textLength="115" x="57.45" y="467.711">CustomerBuilder</text><line style="stroke:#181818;stroke-width:0.5;" x1="8" x2="192" y1="478.42" y2="478.42"/><line style="stroke:#181818;stroke-width:0.5;" x1="8" x2="192" y1="486.42" y2="486.42"/><ellipse cx="18" cy="500.1641" fill="#84BE84" rx="3" ry="3" style="stroke:#038048;stroke-width:1.0;"/><text fill="#000000" font-family="sans-serif" font-size="14" lengthAdjust="spacing" textLength="76" x="27" y="503.9552">withEmail()</text><ellipse cx="18" cy="516.6524" fill="#84BE84" rx="3" ry="3" style="stroke:#038048;stroke-width:1.0;"/><text fill="#000000" font-family="sans-serif" font-size="14" lengthAdjust="spacing" textLength="78" x="27" y="520.4434">withName()</text><ellipse cx="18" cy="533.1407" fill="#84BE84" rx="3" ry="3" style="stroke:#038048;stroke-width:1.0;"/><text fill="#000000" font-family="sans-serif" font-size="14" lengthAdjust="spacing" textLength="142" x="27" y="536.9317">withCustomerCode()</text><ellipse cx="18" cy="549.629" fill="#84BE84" rx="3" ry="3" style="stroke:#038048;stroke-width:1.0;"/><text fill="#000000" font-family="sans-serif" font-size="14" lengthAdjust="spacing" textLength="137" x="27" y="553.42">withPhoneNumber()</text><ellipse cx="18" cy="566.1173" fill="#84BE84" rx="3" ry="3" style="stroke:#038048;stroke-width:1.0;"/><text fill="#000000" font-family="sans-serif" font-size="14" lengthAdjust="spacing" textLength="143" x="27" y="569.9083">withCompanyName()</text><ellipse cx="18" cy="582.6055" fill="#84BE84" rx="3" ry="3" style="stroke:#038048;stroke-width:1.0;"/><text fill="#000000" font-family="sans-serif" font-size="14" lengthAdjust="spacing" textLength="160" x="27" y="586.3966">withCompanyAddress()</text><ellipse cx="18" cy="599.0938" fill="#84BE84" rx="3" ry="3" style="stroke:#038048;stroke-width:1.0;"/><text fill="#000000" font-family="sans-serif" font-size="14" lengthAdjust="spacing" textLength="45" x="27" y="602.8848">build()</text></g><!--class RepositoryFactory--><g id="elem_RepositoryFactory"><rect codeLine="54" fill="#F1F1F1" height="64.4883" id="RepositoryFactory" rx="2.5" ry="2.5" style="stroke:#181818;stroke-width:0.5;" width="159" x="1441.5" y="288.95"/><ellipse cx="1458.3" cy="304.95" fill="#ADD1B2" rx="11" ry="11" style="stroke:#181818;stroke-width:1.0;"/><path d="M1461.2731,310.5931 Q1460.6921,310.8919 1460.0529,311.0413 Q1459.4138,311.1907 1458.7082,311.1907 Q1456.2014,311.1907 1454.8815,309.5389 Q1453.5617,307.887 1453.5617,304.7659 Q1453.5617,301.6365 1454.8815,299.9847 Q1456.2014,298.3328 1458.7082,298.3328 Q1459.4138,298.3328 1460.0612,298.4822 Q1460.7087,298.6316 1461.2731,298.9305 L1461.2731,301.6531 Q1460.6423,301.0721 1460.0488,300.8023 Q1459.4553,300.5325 1458.8244,300.5325 Q1457.4797,300.5325 1456.7949,301.5992 Q1456.1101,302.6658 1456.1101,304.7659 Q1456.1101,306.8577 1456.7949,307.9244 Q1457.4797,308.991 1458.8244,308.991 Q1459.4553,308.991 1460.0488,308.7212 Q1460.6423,308.4515 1461.2731,307.8704 Z " fill="#000000"/><text fill="#000000" font-family="sans-serif" font-size="14" lengthAdjust="spacing" textLength="123" x="1472.7" y="310.241">RepositoryFactory</text><line style="stroke:#181818;stroke-width:0.5;" x1="1442.5" x2="1599.5" y1="320.95" y2="320.95"/><line style="stroke:#181818;stroke-width:0.5;" x1="1442.5" x2="1599.5" y1="328.95" y2="328.95"/><ellipse cx="1452.5" cy="342.6941" fill="#84BE84" rx="3" ry="3" style="stroke:#038048;stroke-width:1.0;"/><text fill="#000000" font-family="sans-serif" font-size="14" lengthAdjust="spacing" textLength="133" x="1461.5" y="346.4852">RepositoryFactory()</text></g><!--class PersistenceContext--><g id="elem_PersistenceContext"><rect codeLine="59" fill="#F1F1F1" height="64.4883" id="PersistenceContext" rx="2.5" ry="2.5" style="stroke:#181818;stroke-width:0.5;" width="164" x="1334" y="131.49"/><ellipse cx="1349" cy="147.49" fill="#ADD1B2" rx="11" ry="11" style="stroke:#181818;stroke-width:1.0;"/><path d="M1351.9731,153.1331 Q1351.3921,153.4319 1350.7529,153.5813 Q1350.1138,153.7307 1349.4082,153.7307 Q1346.9014,153.7307 1345.5815,152.0789 Q1344.2617,150.427 1344.2617,147.3059 Q1344.2617,144.1765 1345.5815,142.5247 Q1346.9014,140.8728 1349.4082,140.8728 Q1350.1138,140.8728 1350.7612,141.0222 Q1351.4087,141.1716 1351.9731,141.4705 L1351.9731,144.1931 Q1351.3423,143.6121 1350.7488,143.3423 Q1350.1553,143.0725 1349.5244,143.0725 Q1348.1797,143.0725 1347.4949,144.1392 Q1346.8101,145.2058 1346.8101,147.3059 Q1346.8101,149.3977 1347.4949,150.4644 Q1348.1797,151.531 1349.5244,151.531 Q1350.1553,151.531 1350.7488,151.2612 Q1351.3423,150.9915 1351.9731,150.4104 Z " fill="#000000"/><text fill="#000000" font-family="sans-serif" font-size="14" lengthAdjust="spacing" textLength="132" x="1363" y="152.781">PersistenceContext</text><line style="stroke:#181818;stroke-width:0.5;" x1="1335" x2="1497" y1="163.49" y2="163.49"/><line style="stroke:#181818;stroke-width:0.5;" x1="1335" x2="1497" y1="171.49" y2="171.49"/><rect fill="#F24D5C" height="6" style="stroke:#C82930;stroke-width:1.0;" width="6" x="1342" y="182.2341"/><text fill="#000000" font-family="sans-serif" font-size="14" lengthAdjust="spacing" textLength="92" x="1354" y="189.0252">repositories()</text></g><!--class CustomerRepository--><g id="elem_CustomerRepository"><rect codeLine="64" fill="#F1F1F1" height="64.4883" id="CustomerRepository" rx="2.5" ry="2.5" style="stroke:#181818;stroke-width:0.5;" width="172" x="1435" y="495.88"/><ellipse cx="1450" cy="511.88" fill="#B4A7E5" rx="11" ry="11" style="stroke:#181818;stroke-width:1.0;"/><path d="M1445.9277,507.6451 L1445.9277,505.4869 L1453.3071,505.4869 L1453.3071,507.6451 L1450.8418,507.6451 L1450.8418,515.7218 L1453.3071,515.7218 L1453.3071,517.88 L1445.9277,517.88 L1445.9277,515.7218 L1448.3931,515.7218 L1448.3931,507.6451 Z " fill="#000000"/><text fill="#000000" font-family="sans-serif" font-size="14" font-style="italic" lengthAdjust="spacing" textLength="140" x="1464" y="517.171">CustomerRepository</text><line style="stroke:#181818;stroke-width:0.5;" x1="1436" x2="1606" y1="527.88" y2="527.88"/><line style="stroke:#181818;stroke-width:0.5;" x1="1436" x2="1606" y1="535.88" y2="535.88"/><ellipse cx="1446" cy="549.6241" fill="#84BE84" rx="3" ry="3" style="stroke:#038048;stroke-width:1.0;"/><text fill="#000000" font-family="sans-serif" font-size="14" lengthAdjust="spacing" textLength="40" x="1455" y="553.4152">save()</text></g><!--class InMemoryCustomerRepository--><g id="elem_InMemoryCustomerRepository"><rect codeLine="68" fill="#F1F1F1" height="64.4883" id="InMemoryCustomerRepository" rx="2.5" ry="2.5" style="stroke:#181818;stroke-width:0.5;" width="281" x="1330.5" y="7"/><ellipse cx="1363.95" cy="23" fill="#ADD1B2" rx="11" ry="11" style="stroke:#181818;stroke-width:1.0;"/><path d="M1366.9231,28.6431 Q1366.3421,28.9419 1365.7029,29.0913 Q1365.0638,29.2407 1364.3582,29.2407 Q1361.8514,29.2407 1360.5315,27.5889 Q1359.2117,25.937 1359.2117,22.8159 Q1359.2117,19.6865 1360.5315,18.0347 Q1361.8514,16.3828 1364.3582,16.3828 Q1365.0638,16.3828 1365.7112,16.5322 Q1366.3587,16.6816 1366.9231,16.9805 L1366.9231,19.7031 Q1366.2923,19.1221 1365.6988,18.8523 Q1365.1053,18.5825 1364.4744,18.5825 Q1363.1297,18.5825 1362.4449,19.6492 Q1361.7601,20.7158 1361.7601,22.8159 Q1361.7601,24.9077 1362.4449,25.9744 Q1363.1297,27.041 1364.4744,27.041 Q1365.1053,27.041 1365.6988,26.7712 Q1366.2923,26.5015 1366.9231,25.9204 Z " fill="#000000"/><text fill="#000000" font-family="sans-serif" font-size="14" lengthAdjust="spacing" textLength="208" x="1382.05" y="28.291">InMemoryCustomerRepository</text><line style="stroke:#181818;stroke-width:0.5;" x1="1331.5" x2="1610.5" y1="39" y2="39"/><line style="stroke:#181818;stroke-width:0.5;" x1="1331.5" x2="1610.5" y1="47" y2="47"/><ellipse cx="1341.5" cy="60.7441" fill="#84BE84" rx="3" ry="3" style="stroke:#038048;stroke-width:1.0;"/><text fill="#000000" font-family="sans-serif" font-size="14" lengthAdjust="spacing" textLength="255" x="1350.5" y="64.5352">findByCustomerCode(customerCode)</text></g><!--class JpaCustomerRepository--><g id="elem_JpaCustomerRepository"><rect codeLine="72" fill="#F1F1F1" height="64.4883" id="JpaCustomerRepository" rx="2.5" ry="2.5" style="stroke:#181818;stroke-width:0.5;" width="281" x="1646.5" y="7"/><ellipse cx="1702.25" cy="23" fill="#ADD1B2" rx="11" ry="11" style="stroke:#181818;stroke-width:1.0;"/><path d="M1705.2231,28.6431 Q1704.6421,28.9419 1704.0029,29.0913 Q1703.3638,29.2407 1702.6582,29.2407 Q1700.1514,29.2407 1698.8315,27.5889 Q1697.5117,25.937 1697.5117,22.8159 Q1697.5117,19.6865 1698.8315,18.0347 Q1700.1514,16.3828 1702.6582,16.3828 Q1703.3638,16.3828 1704.0112,16.5322 Q1704.6587,16.6816 1705.2231,16.9805 L1705.2231,19.7031 Q1704.5923,19.1221 1703.9988,18.8523 Q1703.4053,18.5825 1702.7744,18.5825 Q1701.4297,18.5825 1700.7449,19.6492 Q1700.0601,20.7158 1700.0601,22.8159 Q1700.0601,24.9077 1700.7449,25.9744 Q1701.4297,27.041 1702.7744,27.041 Q1703.4053,27.041 1703.9988,26.7712 Q1704.5923,26.5015 1705.2231,25.9204 Z " fill="#000000"/><text fill="#000000" font-family="sans-serif" font-size="14" lengthAdjust="spacing" textLength="161" x="1722.75" y="28.291">JpaCustomerRepository</text><line style="stroke:#181818;stroke-width:0.5;" x1="1647.5" x2="1926.5" y1="39" y2="39"/><line style="stroke:#181818;stroke-width:0.5;" x1="1647.5" x2="1926.5" y1="47" y2="47"/><ellipse cx="1657.5" cy="60.7441" fill="#84BE84" rx="3" ry="3" style="stroke:#038048;stroke-width:1.0;"/><text fill="#000000" font-family="sans-serif" font-size="14" lengthAdjust="spacing" textLength="255" x="1666.5" y="64.5352">findByCustomerCode(customerCode)</text></g><!--class SystemUserBuilder--><g id="elem_SystemUserBuilder"><rect codeLine="75" fill="#F1F1F1" height="163.418" id="SystemUserBuilder" rx="2.5" ry="2.5" style="stroke:#181818;stroke-width:0.5;" width="159" x="886.5" y="678.08"/><ellipse cx="901.5" cy="694.08" fill="#ADD1B2" rx="11" ry="11" style="stroke:#181818;stroke-width:1.0;"/><path d="M904.4731,699.7231 Q903.8921,700.0219 903.2529,700.1713 Q902.6138,700.3207 901.9082,700.3207 Q899.4014,700.3207 898.0815,698.6689 Q896.7617,697.017 896.7617,693.8959 Q896.7617,690.7665 898.0815,689.1147 Q899.4014,687.4628 901.9082,687.4628 Q902.6138,687.4628 903.2612,687.6122 Q903.9087,687.7616 904.4731,688.0605 L904.4731,690.7831 Q903.8423,690.2021 903.2488,689.9323 Q902.6553,689.6625 902.0244,689.6625 Q900.6797,689.6625 899.9949,690.7292 Q899.3101,691.7958 899.3101,693.8959 Q899.3101,695.9877 899.9949,697.0544 Q900.6797,698.121 902.0244,698.121 Q902.6553,698.121 903.2488,697.8512 Q903.8423,697.5815 904.4731,697.0004 Z " fill="#000000"/><text fill="#000000" font-family="sans-serif" font-size="14" lengthAdjust="spacing" textLength="127" x="915.5" y="699.371">SystemUserBuilder</text><line style="stroke:#181818;stroke-width:0.5;" x1="887.5" x2="1044.5" y1="710.08" y2="710.08"/><line style="stroke:#181818;stroke-width:0.5;" x1="887.5" x2="1044.5" y1="718.08" y2="718.08"/><ellipse cx="897.5" cy="731.8241" fill="#84BE84" rx="3" ry="3" style="stroke:#038048;stroke-width:1.0;"/><text fill="#000000" font-family="sans-serif" font-size="14" lengthAdjust="spacing" textLength="108" x="906.5" y="735.6152">withUsername()</text><ellipse cx="897.5" cy="748.3124" fill="#84BE84" rx="3" ry="3" style="stroke:#038048;stroke-width:1.0;"/><text fill="#000000" font-family="sans-serif" font-size="14" lengthAdjust="spacing" textLength="104" x="906.5" y="752.1034">withPassword()</text><ellipse cx="897.5" cy="764.8007" fill="#84BE84" rx="3" ry="3" style="stroke:#038048;stroke-width:1.0;"/><text fill="#000000" font-family="sans-serif" font-size="14" lengthAdjust="spacing" textLength="78" x="906.5" y="768.5917">withName()</text><ellipse cx="897.5" cy="781.289" fill="#84BE84" rx="3" ry="3" style="stroke:#038048;stroke-width:1.0;"/><text fill="#000000" font-family="sans-serif" font-size="14" lengthAdjust="spacing" textLength="76" x="906.5" y="785.08">withEmail()</text><ellipse cx="897.5" cy="797.7773" fill="#84BE84" rx="3" ry="3" style="stroke:#038048;stroke-width:1.0;"/><text fill="#000000" font-family="sans-serif" font-size="14" lengthAdjust="spacing" textLength="110" x="906.5" y="801.5683">withcreatedOn()</text><ellipse cx="897.5" cy="814.2655" fill="#84BE84" rx="3" ry="3" style="stroke:#038048;stroke-width:1.0;"/><text fill="#000000" font-family="sans-serif" font-size="14" lengthAdjust="spacing" textLength="76" x="906.5" y="818.0566">withRoles()</text><ellipse cx="897.5" cy="830.7538" fill="#84BE84" rx="3" ry="3" style="stroke:#038048;stroke-width:1.0;"/><text fill="#000000" font-family="sans-serif" font-size="14" lengthAdjust="spacing" textLength="45" x="906.5" y="834.5448">build()</text></g><!--class SystemUser--><g id="elem_SystemUser"><rect codeLine="85" fill="#F1F1F1" height="163.418" id="SystemUser" rx="2.5" ry="2.5" style="stroke:#181818;stroke-width:0.5;" width="111" x="910.5" y="909.74"/><ellipse cx="925.5" cy="925.74" fill="#ADD1B2" rx="11" ry="11" style="stroke:#181818;stroke-width:1.0;"/><path d="M928.4731,931.3831 Q927.8921,931.6819 927.2529,931.8313 Q926.6138,931.9807 925.9082,931.9807 Q923.4014,931.9807 922.0815,930.3289 Q920.7617,928.677 920.7617,925.5559 Q920.7617,922.4265 922.0815,920.7747 Q923.4014,919.1228 925.9082,919.1228 Q926.6138,919.1228 927.2612,919.2722 Q927.9087,919.4216 928.4731,919.7205 L928.4731,922.4431 Q927.8423,921.8621 927.2488,921.5923 Q926.6553,921.3225 926.0244,921.3225 Q924.6797,921.3225 923.9949,922.3892 Q923.3101,923.4558 923.3101,925.5559 Q923.3101,927.6477 923.9949,928.7144 Q924.6797,929.781 926.0244,929.781 Q926.6553,929.781 927.2488,929.5112 Q927.8423,929.2415 928.4731,928.6604 Z " fill="#000000"/><text fill="#000000" font-family="sans-serif" font-size="14" lengthAdjust="spacing" textLength="79" x="939.5" y="931.031">SystemUser</text><line style="stroke:#181818;stroke-width:0.5;" x1="911.5" x2="1020.5" y1="941.74" y2="941.74"/><rect fill="none" height="6" style="stroke:#C82930;stroke-width:1.0;" width="6" x="918.5" y="952.4841"/><text fill="#000000" font-family="sans-serif" font-size="14" lengthAdjust="spacing" textLength="68" x="930.5" y="959.2752">username</text><rect fill="none" height="6" style="stroke:#C82930;stroke-width:1.0;" width="6" x="918.5" y="968.9724"/><text fill="#000000" font-family="sans-serif" font-size="14" lengthAdjust="spacing" textLength="66" x="930.5" y="975.7634">password</text><rect fill="none" height="6" style="stroke:#C82930;stroke-width:1.0;" width="6" x="918.5" y="985.4607"/><text fill="#000000" font-family="sans-serif" font-size="14" lengthAdjust="spacing" textLength="66" x="930.5" y="992.2517">firstName</text><rect fill="none" height="6" style="stroke:#C82930;stroke-width:1.0;" width="6" x="918.5" y="1001.949"/><text fill="#000000" font-family="sans-serif" font-size="14" lengthAdjust="spacing" textLength="63" x="930.5" y="1008.74">lastName</text><rect fill="none" height="6" style="stroke:#C82930;stroke-width:1.0;" width="6" x="918.5" y="1018.4373"/><text fill="#000000" font-family="sans-serif" font-size="14" lengthAdjust="spacing" textLength="37" x="930.5" y="1025.2283">email</text><rect fill="none" height="6" style="stroke:#C82930;stroke-width:1.0;" width="6" x="918.5" y="1034.9255"/><text fill="#000000" font-family="sans-serif" font-size="14" lengthAdjust="spacing" textLength="34" x="930.5" y="1041.7166">roles</text><rect fill="none" height="6" style="stroke:#C82930;stroke-width:1.0;" width="6" x="918.5" y="1051.4138"/><text fill="#000000" font-family="sans-serif" font-size="14" lengthAdjust="spacing" textLength="71" x="930.5" y="1058.2048">createdOn</text><line style="stroke:#181818;stroke-width:0.5;" x1="911.5" x2="1020.5" y1="1065.158" y2="1065.158"/></g><!--class UserRepository--><g id="elem_UserRepository"><rect codeLine="94" fill="#F1F1F1" height="64.4883" id="UserRepository" rx="2.5" ry="2.5" style="stroke:#181818;stroke-width:0.5;" width="136" x="1336" y="727.54"/><ellipse cx="1351" cy="743.54" fill="#ADD1B2" rx="11" ry="11" style="stroke:#181818;stroke-width:1.0;"/><path d="M1353.9731,749.1831 Q1353.3921,749.4819 1352.7529,749.6313 Q1352.1138,749.7807 1351.4082,749.7807 Q1348.9014,749.7807 1347.5815,748.1289 Q1346.2617,746.477 1346.2617,743.3559 Q1346.2617,740.2265 1347.5815,738.5747 Q1348.9014,736.9228 1351.4082,736.9228 Q1352.1138,736.9228 1352.7612,737.0722 Q1353.4087,737.2216 1353.9731,737.5205 L1353.9731,740.2431 Q1353.3423,739.6621 1352.7488,739.3923 Q1352.1553,739.1225 1351.5244,739.1225 Q1350.1797,739.1225 1349.4949,740.1892 Q1348.8101,741.2558 1348.8101,743.3559 Q1348.8101,745.4477 1349.4949,746.5144 Q1350.1797,747.581 1351.5244,747.581 Q1352.1553,747.581 1352.7488,747.3112 Q1353.3423,747.0415 1353.9731,746.4604 Z " fill="#000000"/><text fill="#000000" font-family="sans-serif" font-size="14" lengthAdjust="spacing" textLength="104" x="1365" y="748.831">UserRepository</text><line style="stroke:#181818;stroke-width:0.5;" x1="1337" x2="1471" y1="759.54" y2="759.54"/><line style="stroke:#181818;stroke-width:0.5;" x1="1337" x2="1471" y1="767.54" y2="767.54"/><ellipse cx="1347" cy="781.2841" fill="#84BE84" rx="3" ry="3" style="stroke:#038048;stroke-width:1.0;"/><text fill="#000000" font-family="sans-serif" font-size="14" lengthAdjust="spacing" textLength="40" x="1356" y="785.0752">save()</text></g><!--link AddUserController to AuthorizationService--><g id="link_AddUserController_AuthorizationService"><path codeLine="98" d="M740.08,373.85 C666.83,393.34 585.94,417.84 514,446.42 C490.95,455.57 472.1755,464.4779 450.1555,476.1079 " fill="none" id="AddUserController-to-AuthorizationService" style="stroke:#181818;stroke-width:1.0;"/><polygon fill="#181818" points="444.85,478.91,454.6763,478.2438,449.2712,476.5749,450.9401,471.1698,444.85,478.91" style="stroke:#181818;stroke-width:1.0;"/></g><!--link AddUserController to UserManagementService--><g id="link_AddUserController_UserManagementService"><path codeLine="99" d="M966,386.76 C966,413.74 966,438.81 966,464.84 " fill="none" id="AddUserController-to-UserManagementService" style="stroke:#181818;stroke-width:1.0;"/><polygon fill="#181818" points="966,470.84,970,461.84,966,465.84,962,461.84,966,470.84" style="stroke:#181818;stroke-width:1.0;"/></g><!--link UserManagementService to SystemUserBuilder--><g id="link_UserManagementService_SystemUserBuilder"><path codeLine="100" d="M966,585.6 C966,613.36 966,641.31 966,671.78 " fill="none" id="UserManagementService-to-SystemUserBuilder" style="stroke:#181818;stroke-width:1.0;"/><polygon fill="#181818" points="966,677.78,970,668.78,966,672.78,962,668.78,966,677.78" style="stroke:#181818;stroke-width:1.0;"/></g><!--link SystemUserBuilder to SystemUser--><g id="link_SystemUserBuilder_SystemUser"><path codeLine="101" d="M966,841.76 C966,863.71 966,881.48 966,903.44 " fill="none" id="SystemUserBuilder-to-SystemUser" style="stroke:#181818;stroke-width:1.0;"/><polygon fill="#181818" points="966,909.44,970,900.44,966,904.44,962,900.44,966,909.44" style="stroke:#181818;stroke-width:1.0;"/></g><!--link RepositoryFactory to UserRepository--><g id="link_RepositoryFactory_UserRepository"><path codeLine="102" d="M1558.47,353.79 C1582.56,376.69 1611.74,409.94 1625,446.42 C1649.8,514.68 1659.11,545.71 1625,609.84 C1593,669.99 1530.1788,707.7741 1477.9188,731.1041 " fill="none" id="RepositoryFactory-to-UserRepository" style="stroke:#181818;stroke-width:1.0;"/><polygon fill="#181818" points="1472.44,733.55,1482.2888,733.5338,1477.0057,731.5118,1479.0277,726.2286,1472.44,733.55" style="stroke:#181818;stroke-width:1.0;"/></g><!--link UserManagementService to UserRepository--><g id="link_UserManagementService_UserRepository"><path codeLine="103" d="M1073.71,585.6 C1158.69,630.16 1268.806,687.9041 1338.296,724.3341 " fill="none" id="UserManagementService-to-UserRepository" style="stroke:#181818;stroke-width:1.0;"/><polygon fill="#181818" points="1343.61,727.12,1337.4962,719.3985,1339.1816,724.7984,1333.7817,726.4839,1343.61,727.12" style="stroke:#181818;stroke-width:1.0;"/></g><!--link PersistenceContext to RepositoryFactory--><g id="link_PersistenceContext_RepositoryFactory"><path codeLine="104" d="M1437.25,196.19 C1455.41,223.08 1478.0421,256.5977 1496.2421,283.5477 " fill="none" id="PersistenceContext-to-RepositoryFactory" style="stroke:#181818;stroke-width:1.0;"/><polygon fill="#181818" points="1499.6,288.52,1497.878,278.8229,1496.8017,284.3764,1491.2482,283.3001,1499.6,288.52" style="stroke:#181818;stroke-width:1.0;"/></g><!--link RepositoryFactory to CustomerRepository--><g id="link_RepositoryFactory_CustomerRepository"><path codeLine="106" d="M1521,353.77 C1521,392.28 1521,450.99 1521,489.52 " fill="none" id="RepositoryFactory-to-CustomerRepository" style="stroke:#181818;stroke-width:1.0;"/><polygon fill="#181818" points="1521,495.52,1525,486.52,1521,490.52,1517,486.52,1521,495.52" style="stroke:#181818;stroke-width:1.0;"/></g><!--link AddUserController to CustomerRepository--><g id="link_AddUserController_CustomerRepository"><path codeLine="109" d="M1191.77,365.57 C1266.16,384.69 1347.76,411.06 1418,446.42 C1443.36,459.19 1463.9994,474.7848 1483.0894,491.4448 " fill="none" id="AddUserController-to-CustomerRepository" style="stroke:#181818;stroke-width:1.0;"/><polygon fill="#181818" points="1487.61,495.39,1483.4592,486.4585,1483.8428,492.1024,1478.199,492.486,1487.61,495.39" style="stroke:#181818;stroke-width:1.0;"/></g><!--link AddUserController to CustomerBuilder--><g id="link_AddUserController_CustomerBuilder"><path codeLine="111" d="M740.06,331.71 C585.68,344.75 379.21,375.29 210,446.42 C204.43,448.76 204.1752,448.6085 198.6952,451.5285 " fill="none" id="AddUserController-to-CustomerBuilder" style="stroke:#181818;stroke-width:1.0;"/><polygon fill="#181818" points="193.4,454.35,203.2238,453.6478,197.8127,451.9987,199.4618,446.5876,193.4,454.35" style="stroke:#181818;stroke-width:1.0;"/></g><!--link CustomerBuilder to Customer--><g id="link_CustomerBuilder_Customer"><path codeLine="112" d="M100,610.1 C100,629.34 100,643.97 100,663.56 " fill="none" id="CustomerBuilder-to-Customer" style="stroke:#181818;stroke-width:1.0;"/><polygon fill="#181818" points="100,669.56,104,660.56,100,664.56,96,660.56,100,669.56" style="stroke:#181818;stroke-width:1.0;"/></g><!--link AddUserUI to PersistenceContext--><g id="link_AddUserUI_PersistenceContext"><path codeLine="115" d="M1275.95,63.57 C1303.01,82.73 1336.6929,106.5833 1366.5129,127.6933 " fill="none" id="AddUserUI-to-PersistenceContext" style="stroke:#181818;stroke-width:1.0;"/><polygon fill="#181818" points="1371.41,131.16,1366.3755,122.6952,1367.3291,128.2711,1361.7532,129.2246,1371.41,131.16" style="stroke:#181818;stroke-width:1.0;"/></g><!--link AddUserUI to AddUserController--><g id="link_AddUserUI_AddUserController"><path codeLine="116" d="M1219.86,63.63 C1178.51,105.42 1094.8203,190.0052 1034.1303,251.3352 " fill="none" id="AddUserUI-to-AddUserController" style="stroke:#181818;stroke-width:1.0;"/><polygon fill="#181818" points="1029.91,255.6,1039.0837,252.0163,1033.4269,252.046,1033.3973,246.3892,1029.91,255.6" style="stroke:#181818;stroke-width:1.0;"/></g><!--SRC=[dLLBRjim4Dtp55mwa7I508cH1YaQ9x2R0p3Is2OWaG99sNMBthqpD2bH7sVHbORpVNmpGvMri9O_LDM71VFnmlymzfUnCjMkjN96rpKOj1PSTEw8dmujkrE9KYbK9IlXO0kjjj9fSs7PF7X5WTh8ty99hNPWJhA4d9UTTRe1CmJViUm0RXtqg-YmrXNS9U0MidbyFzwUdv-sABWZxC1QDBDCMl87vMI9G3soc02gdtgL98w5CHalU5gTpj08MPEmbyQwZMYy5WDxkJrg1Pkk-GJZ4-Yc5UeIhU68x1Z4vZK62DA3yym740JmLIXnW0P1fzSZtXEY4P4g4Pj1gTMrB95x0mTf7PWDd2dFocFEUOk9pzfK-O0zxv7devlcAUny0Zhds530Jq3-fZnxR4hWOoVholEOdQKxFX4A9DeVA6-KrqdXg7iVIEpT1aGJLS15sa-gYSBGpe6hRwAa3_MLPtFzTGP2r3iOInog4cY2uPVpOGKtCKo23H4IxMOli3_hsIpJvRaL9qWdx4MzGeF66-vxgQh7ouYL6plmlHN_duDVS-mkUCs6vcJe5_ViaavTsUQSAFED2KCqKcwcNh7NWwQVbP5sIuFKQsBpE5vmXkwwZbt0v2EAVgIlnsGblNNOIdyCg-jbFy51xg5HOJxitvZIq4J2DdyNY-9-yK6wuRgutMnvvyb_rYCsxzhOZyt7leYLazVZTic9uy8-aDUi2biiVB-m6UmMZqkkNtj6KgOFJ-epbCEV71dcDveup6goVm00]--></g></svg>