<?xml version="1.0" encoding="us-ascii" standalone="no"?><svg xmlns="http://www.w3.org/2000/svg" xmlns:xlink="http://www.w3.org/1999/xlink" contentStyleType="text/css" height="663px" preserveAspectRatio="none" style="width:828px;height:663px;background:#FFFFFF;" version="1.1" viewBox="0 0 828 663" width="828px" zoomAndPan="magnify"><defs/><g><rect fill="#FFFFFF" height="469.0742" style="stroke:#181818;stroke-width:1.0;" width="10" x="63.5" y="93.6211"/><rect fill="#FFFFFF" height="445.7832" style="stroke:#181818;stroke-width:1.0;" width="10" x="552.5" y="116.9121"/><line style="stroke:#181818;stroke-width:0.5;stroke-dasharray:5.0,5.0;" x1="68" x2="68" y1="83.6211" y2="580.6953"/><line style="stroke:#181818;stroke-width:0.5;stroke-dasharray:5.0,5.0;" x1="557.5" x2="557.5" y1="83.6211" y2="580.6953"/><text fill="#000000" font-family="sans-serif" font-size="14" lengthAdjust="spacing" textLength="117" x="9" y="80.1074">CustomerManager</text><ellipse cx="68.5" cy="13.5" fill="#E2E2F0" rx="8" ry="8" style="stroke:#181818;stroke-width:0.5;"/><path d="M68.5,21.5 L68.5,48.5 M55.5,29.5 L81.5,29.5 M68.5,48.5 L55.5,63.5 M68.5,48.5 L81.5,63.5 " fill="none" style="stroke:#181818;stroke-width:0.5;"/><text fill="#000000" font-family="sans-serif" font-size="14" lengthAdjust="spacing" textLength="117" x="9" y="594.8027">CustomerManager</text><ellipse cx="68.5" cy="606.8164" fill="#E2E2F0" rx="8" ry="8" style="stroke:#181818;stroke-width:0.5;"/><path d="M68.5,614.8164 L68.5,641.8164 M55.5,622.8164 L81.5,622.8164 M68.5,641.8164 L55.5,656.8164 M68.5,641.8164 L81.5,656.8164 " fill="none" style="stroke:#181818;stroke-width:0.5;"/><rect fill="#E2E2F0" height="32.6211" rx="2.5" ry="2.5" style="stroke:#181818;stroke-width:0.5;" width="64" x="525.5" y="50"/><text fill="#000000" font-family="sans-serif" font-size="14" lengthAdjust="spacing" textLength="50" x="532.5" y="72.1074">:System</text><rect fill="#E2E2F0" height="32.6211" rx="2.5" ry="2.5" style="stroke:#181818;stroke-width:0.5;" width="64" x="525.5" y="579.6953"/><text fill="#000000" font-family="sans-serif" font-size="14" lengthAdjust="spacing" textLength="50" x="532.5" y="601.8027">:System</text><rect fill="#FFFFFF" height="469.0742" style="stroke:#181818;stroke-width:1.0;" width="10" x="63.5" y="93.6211"/><rect fill="#FFFFFF" height="445.7832" style="stroke:#181818;stroke-width:1.0;" width="10" x="552.5" y="116.9121"/><polygon fill="#181818" points="540.5,112.9121,550.5,116.9121,540.5,120.9121,544.5,116.9121" style="stroke:#181818;stroke-width:1.0;"/><line style="stroke:#181818;stroke-width:1.0;" x1="73.5" x2="546.5" y1="116.9121" y2="116.9121"/><text fill="#000000" font-family="sans-serif" font-size="13" font-weight="bold" lengthAdjust="spacing" textLength="7" x="80.5" y="111.6494">1</text><text fill="#000000" font-family="sans-serif" font-size="13" lengthAdjust="spacing" textLength="397" x="91.5" y="111.6494">asks the system to set time and date of an interview for an aplication</text><line style="stroke:#181818;stroke-width:1.0;stroke-dasharray:2.0,2.0;" x1="562.5" x2="604.5" y1="148.2031" y2="148.2031"/><line style="stroke:#181818;stroke-width:1.0;stroke-dasharray:2.0,2.0;" x1="604.5" x2="604.5" y1="148.2031" y2="161.2031"/><line style="stroke:#181818;stroke-width:1.0;stroke-dasharray:2.0,2.0;" x1="563.5" x2="604.5" y1="161.2031" y2="161.2031"/><polygon fill="#181818" points="573.5,157.2031,563.5,161.2031,573.5,165.2031,569.5,161.2031" style="stroke:#181818;stroke-width:1.0;"/><text fill="#000000" font-family="sans-serif" font-size="13" font-weight="bold" lengthAdjust="spacing" textLength="7" x="569.5" y="142.9404">2</text><text fill="#000000" font-family="sans-serif" font-size="13" lengthAdjust="spacing" textLength="134" x="580.5" y="142.9404">find list of JobOpenings</text><polygon fill="#181818" points="84.5,188.4941,74.5,192.4941,84.5,196.4941,80.5,192.4941" style="stroke:#181818;stroke-width:1.0;"/><line style="stroke:#181818;stroke-width:1.0;stroke-dasharray:2.0,2.0;" x1="78.5" x2="551.5" y1="192.4941" y2="192.4941"/><text fill="#000000" font-family="sans-serif" font-size="13" font-weight="bold" lengthAdjust="spacing" textLength="7" x="90.5" y="187.2314">3</text><text fill="#000000" font-family="sans-serif" font-size="13" lengthAdjust="spacing" textLength="444" x="101.5" y="187.2314">shows the list of JobOpenings and request to type the number of one of them</text><polygon fill="#181818" points="540.5,219.7852,550.5,223.7852,540.5,227.7852,544.5,223.7852" style="stroke:#181818;stroke-width:1.0;"/><line style="stroke:#181818;stroke-width:1.0;" x1="73.5" x2="546.5" y1="223.7852" y2="223.7852"/><text fill="#000000" font-family="sans-serif" font-size="13" font-weight="bold" lengthAdjust="spacing" textLength="7" x="80.5" y="218.5225">4</text><text fill="#000000" font-family="sans-serif" font-size="13" lengthAdjust="spacing" textLength="72" x="91.5" y="218.5225">type number</text><line style="stroke:#181818;stroke-width:1.0;stroke-dasharray:2.0,2.0;" x1="562.5" x2="604.5" y1="255.0762" y2="255.0762"/><line style="stroke:#181818;stroke-width:1.0;stroke-dasharray:2.0,2.0;" x1="604.5" x2="604.5" y1="255.0762" y2="268.0762"/><line style="stroke:#181818;stroke-width:1.0;stroke-dasharray:2.0,2.0;" x1="563.5" x2="604.5" y1="268.0762" y2="268.0762"/><polygon fill="#181818" points="573.5,264.0762,563.5,268.0762,573.5,272.0762,569.5,268.0762" style="stroke:#181818;stroke-width:1.0;"/><text fill="#000000" font-family="sans-serif" font-size="13" font-weight="bold" lengthAdjust="spacing" textLength="7" x="569.5" y="249.8135">5</text><text fill="#000000" font-family="sans-serif" font-size="13" lengthAdjust="spacing" textLength="241" x="580.5" y="249.8135">find list of Applications in this JobOpening</text><polygon fill="#181818" points="84.5,295.3672,74.5,299.3672,84.5,303.3672,80.5,299.3672" style="stroke:#181818;stroke-width:1.0;"/><line style="stroke:#181818;stroke-width:1.0;stroke-dasharray:2.0,2.0;" x1="78.5" x2="551.5" y1="299.3672" y2="299.3672"/><text fill="#000000" font-family="sans-serif" font-size="13" font-weight="bold" lengthAdjust="spacing" textLength="7" x="90.5" y="294.1045">6</text><text fill="#000000" font-family="sans-serif" font-size="13" lengthAdjust="spacing" textLength="277" x="101.5" y="294.1045">shows the list of Applications of the JobOpening</text><polygon fill="#181818" points="84.5,326.6582,74.5,330.6582,84.5,334.6582,80.5,330.6582" style="stroke:#181818;stroke-width:1.0;"/><line style="stroke:#181818;stroke-width:1.0;stroke-dasharray:2.0,2.0;" x1="78.5" x2="551.5" y1="330.6582" y2="330.6582"/><text fill="#000000" font-family="sans-serif" font-size="13" font-weight="bold" lengthAdjust="spacing" textLength="7" x="90.5" y="325.3955">7</text><text fill="#000000" font-family="sans-serif" font-size="13" lengthAdjust="spacing" textLength="225" x="101.5" y="325.3955">request enter number of the application</text><polygon fill="#181818" points="540.5,357.9492,550.5,361.9492,540.5,365.9492,544.5,361.9492" style="stroke:#181818;stroke-width:1.0;"/><line style="stroke:#181818;stroke-width:1.0;" x1="73.5" x2="546.5" y1="361.9492" y2="361.9492"/><text fill="#000000" font-family="sans-serif" font-size="13" font-weight="bold" lengthAdjust="spacing" textLength="7" x="80.5" y="356.6865">8</text><text fill="#000000" font-family="sans-serif" font-size="13" lengthAdjust="spacing" textLength="72" x="91.5" y="356.6865">type number</text><polygon fill="#181818" points="84.5,389.2402,74.5,393.2402,84.5,397.2402,80.5,393.2402" style="stroke:#181818;stroke-width:1.0;"/><line style="stroke:#181818;stroke-width:1.0;stroke-dasharray:2.0,2.0;" x1="78.5" x2="551.5" y1="393.2402" y2="393.2402"/><text fill="#000000" font-family="sans-serif" font-size="13" font-weight="bold" lengthAdjust="spacing" textLength="7" x="90.5" y="387.9775">9</text><text fill="#000000" font-family="sans-serif" font-size="13" lengthAdjust="spacing" textLength="194" x="101.5" y="387.9775">request enter date of the interview</text><polygon fill="#181818" points="540.5,420.5313,550.5,424.5313,540.5,428.5313,544.5,424.5313" style="stroke:#181818;stroke-width:1.0;"/><line style="stroke:#181818;stroke-width:1.0;" x1="73.5" x2="546.5" y1="424.5313" y2="424.5313"/><text fill="#000000" font-family="sans-serif" font-size="13" font-weight="bold" lengthAdjust="spacing" textLength="14" x="80.5" y="419.2686">10</text><text fill="#000000" font-family="sans-serif" font-size="13" lengthAdjust="spacing" textLength="54" x="98.5" y="419.2686">type date</text><polygon fill="#181818" points="84.5,451.8223,74.5,455.8223,84.5,459.8223,80.5,455.8223" style="stroke:#181818;stroke-width:1.0;"/><line style="stroke:#181818;stroke-width:1.0;stroke-dasharray:2.0,2.0;" x1="78.5" x2="551.5" y1="455.8223" y2="455.8223"/><text fill="#000000" font-family="sans-serif" font-size="13" font-weight="bold" lengthAdjust="spacing" textLength="14" x="90.5" y="450.5596">11</text><text fill="#000000" font-family="sans-serif" font-size="13" lengthAdjust="spacing" textLength="194" x="108.5" y="450.5596">request enter time of the interview</text><polygon fill="#181818" points="540.5,483.1133,550.5,487.1133,540.5,491.1133,544.5,487.1133" style="stroke:#181818;stroke-width:1.0;"/><line style="stroke:#181818;stroke-width:1.0;" x1="73.5" x2="546.5" y1="487.1133" y2="487.1133"/><text fill="#000000" font-family="sans-serif" font-size="13" font-weight="bold" lengthAdjust="spacing" textLength="14" x="80.5" y="481.8506">12</text><text fill="#000000" font-family="sans-serif" font-size="13" lengthAdjust="spacing" textLength="54" x="98.5" y="481.8506">type time</text><line style="stroke:#181818;stroke-width:1.0;stroke-dasharray:2.0,2.0;" x1="562.5" x2="604.5" y1="518.4043" y2="518.4043"/><line style="stroke:#181818;stroke-width:1.0;stroke-dasharray:2.0,2.0;" x1="604.5" x2="604.5" y1="518.4043" y2="531.4043"/><line style="stroke:#181818;stroke-width:1.0;stroke-dasharray:2.0,2.0;" x1="563.5" x2="604.5" y1="531.4043" y2="531.4043"/><polygon fill="#181818" points="573.5,527.4043,563.5,531.4043,573.5,535.4043,569.5,531.4043" style="stroke:#181818;stroke-width:1.0;"/><text fill="#000000" font-family="sans-serif" font-size="13" font-weight="bold" lengthAdjust="spacing" textLength="14" x="569.5" y="513.1416">13</text><text fill="#000000" font-family="sans-serif" font-size="13" lengthAdjust="spacing" textLength="55" x="587.5" y="513.1416">save data</text><polygon fill="#181818" points="79.5,558.6953,69.5,562.6953,79.5,566.6953,75.5,562.6953" style="stroke:#181818;stroke-width:1.0;"/><line style="stroke:#181818;stroke-width:1.0;stroke-dasharray:2.0,2.0;" x1="73.5" x2="556.5" y1="562.6953" y2="562.6953"/><text fill="#000000" font-family="sans-serif" font-size="13" font-weight="bold" lengthAdjust="spacing" textLength="14" x="85.5" y="557.4326">14</text><text fill="#000000" font-family="sans-serif" font-size="13" lengthAdjust="spacing" textLength="219" x="103.5" y="557.4326">informs operation success/unsuccess</text><!--SRC=[ZPFFReCm3CRlUGgBUxLx3vCgRfFG3dk254mRhKbOx53rxUU4yMU8ZNAA7Fldpv-3ZknTj6SCIkcQVO2o0arGG1c9lSLGQQSl68fyRthDA2bAIThX5OhZnuCORG57gVeau2i2vH2m1q86DXP1kmQQLEfREODnZA4tU8TMEaf0TpTJQpRUpLqcjfgx75OzMoFWco5Eu3T_Vk_G6NUXTKbP5KUWgxyF2ZSgiiI0Nn7bIgJpeyESExYJihtB-YLebKh8jGEvPdJpIT6dRXgTn1UX6rheMc74zQqvVa46YJkCSL9CcrZCc2hrJDiTSnSzRZs1fxN_ZKtf-z3yffw7flH_za6wputrLcFZv8bQSRN3a2q1YdMDH2_H_PnKWnkFLhv5N7wPRm00]--></g></svg>