<?xml version="1.0" encoding="us-ascii" standalone="no"?><svg xmlns="http://www.w3.org/2000/svg" xmlns:xlink="http://www.w3.org/1999/xlink" contentStyleType="text/css" height="889px" preserveAspectRatio="none" style="width:2397px;height:889px;background:#FFFFFF;" version="1.1" viewBox="0 0 2397 889" width="2397px" zoomAndPan="magnify"><defs/><g><!--class ScheaduleInterviewUI--><g id="elem_ScheaduleInterviewUI"><rect codeLine="2" fill="#F1F1F1" height="42.6211" id="ScheaduleInterviewUI" rx="1.25" ry="1.25" style="stroke:#181818;stroke-width:0.25;" width="104" x="1081.75" y="87.25"/><ellipse cx="1098.7" cy="95.25" fill="#ADD1B2" rx="5.5" ry="5.5" style="stroke:#181818;stroke-width:0.5;"/><path d="M1100.0828,93.1875 Q1100.1609,93.0781 1100.2547,93.0234 Q1100.3484,92.9688 1100.4578,92.9688 Q1100.6453,92.9688 1100.7625,93.1016 Q1100.8797,93.2266 1100.8797,93.5313 L1100.8797,94.2578 Q1100.8797,94.5625 1100.7625,94.6953 Q1100.6453,94.8281 1100.4578,94.8281 Q1100.2859,94.8281 1100.1844,94.7266 Q1100.0828,94.6328 1100.0281,94.375 Q1100.0047,94.1953 1099.9109,94.1016 Q1099.7469,93.9141 1099.4422,93.8047 Q1099.1375,93.6953 1098.825,93.6953 Q1098.4422,93.6953 1098.1219,93.8594 Q1097.8094,94.0234 1097.5594,94.3984 Q1097.3172,94.7734 1097.3172,95.2891 L1097.3172,95.8359 Q1097.3172,96.4531 1097.7625,96.8672 Q1098.2078,97.2734 1099.0047,97.2734 Q1099.4734,97.2734 1099.8016,97.1484 Q1099.9969,97.0703 1100.2078,96.8516 Q1100.3406,96.7188 1100.4109,96.6797 Q1100.4891,96.6406 1100.5906,96.6406 Q1100.7547,96.6406 1100.8797,96.7734 Q1101.0125,96.8984 1101.0125,97.0703 Q1101.0125,97.2422 1100.8406,97.4453 Q1100.5906,97.7344 1100.1922,97.8984 Q1099.6531,98.125 1099.0047,98.125 Q1098.2469,98.125 1097.6453,97.8125 Q1097.1531,97.5625 1096.8094,97.0313 Q1096.4656,96.4922 1096.4656,95.8516 L1096.4656,95.2734 Q1096.4656,94.6094 1096.7703,94.0391 Q1097.0828,93.4609 1097.6297,93.1563 Q1098.1766,92.8438 1098.7938,92.8438 Q1099.1609,92.8438 1099.4813,92.9297 Q1099.8094,93.0078 1100.0828,93.1875 Z " fill="#000000"/><text fill="#000000" font-family="sans-serif" font-size="7" lengthAdjust="spacing" textLength="67" x="1107.8" y="98.1484">ScheaduleInterviewUI</text><line style="stroke:#181818;stroke-width:0.25;" x1="1082.25" x2="1185.25" y1="103.25" y2="103.25"/><rect fill="none" height="3" style="stroke:#C82930;stroke-width:0.5;" width="3" x="1085.75" y="109.1553"/><text fill="#000000" font-family="sans-serif" font-size="7" lengthAdjust="spacing" textLength="91" x="1091.75" y="112.8037">scheaduleInterviewController</text><line style="stroke:#181818;stroke-width:0.25;" x1="1082.25" x2="1185.25" y1="116.5605" y2="116.5605"/><ellipse cx="1087.25" cy="123.9658" fill="#84BE84" rx="1.5" ry="1.5" style="stroke:#038048;stroke-width:0.5;"/><text fill="#000000" font-family="sans-serif" font-size="7" lengthAdjust="spacing" textLength="34" x="1091.75" y="126.1143">doShown()</text></g><!--class JobApplication--><g id="elem_JobApplication"><rect codeLine="6" fill="#F1F1F1" height="210.2109" id="JobApplication" rx="1.25" ry="1.25" style="stroke:#181818;stroke-width:0.25;" width="363" x="537.25" y="3.5"/><ellipse cx="693.875" cy="11.5" fill="#ADD1B2" rx="5.5" ry="5.5" style="stroke:#181818;stroke-width:0.5;"/><path d="M695.2578,9.4375 Q695.3359,9.3281 695.4297,9.2734 Q695.5234,9.2188 695.6328,9.2188 Q695.8203,9.2188 695.9375,9.3516 Q696.0547,9.4766 696.0547,9.7813 L696.0547,10.5078 Q696.0547,10.8125 695.9375,10.9453 Q695.8203,11.0781 695.6328,11.0781 Q695.4609,11.0781 695.3594,10.9766 Q695.2578,10.8828 695.2031,10.625 Q695.1797,10.4453 695.0859,10.3516 Q694.9219,10.1641 694.6172,10.0547 Q694.3125,9.9453 694,9.9453 Q693.6172,9.9453 693.2969,10.1094 Q692.9844,10.2734 692.7344,10.6484 Q692.4922,11.0234 692.4922,11.5391 L692.4922,12.0859 Q692.4922,12.7031 692.9375,13.1172 Q693.3828,13.5234 694.1797,13.5234 Q694.6484,13.5234 694.9766,13.3984 Q695.1719,13.3203 695.3828,13.1016 Q695.5156,12.9688 695.5859,12.9297 Q695.6641,12.8906 695.7656,12.8906 Q695.9297,12.8906 696.0547,13.0234 Q696.1875,13.1484 696.1875,13.3203 Q696.1875,13.4922 696.0156,13.6953 Q695.7656,13.9844 695.3672,14.1484 Q694.8281,14.375 694.1797,14.375 Q693.4219,14.375 692.8203,14.0625 Q692.3281,13.8125 691.9844,13.2813 Q691.6406,12.7422 691.6406,12.1016 L691.6406,11.5234 Q691.6406,10.8594 691.9453,10.2891 Q692.2578,9.7109 692.8047,9.4063 Q693.3516,9.0938 693.9688,9.0938 Q694.3359,9.0938 694.6563,9.1797 Q694.9844,9.2578 695.2578,9.4375 Z " fill="#000000"/><text fill="#000000" font-family="sans-serif" font-size="7" lengthAdjust="spacing" textLength="45.5" x="704.125" y="14.3984">JobApplication</text><line style="stroke:#181818;stroke-width:0.25;" x1="537.75" x2="899.75" y1="19.5" y2="19.5"/><rect fill="none" height="3" style="stroke:#C82930;stroke-width:0.5;" width="3" x="541.25" y="25.4053"/><text fill="#000000" font-family="sans-serif" font-size="7" lengthAdjust="spacing" textLength="49.5" x="547.25" y="29.0537">jobApplicationId</text><rect fill="none" height="3" style="stroke:#C82930;stroke-width:0.5;" width="3" x="541.25" y="34.7158"/><text fill="#000000" font-family="sans-serif" font-size="7" lengthAdjust="spacing" textLength="36.5" x="547.25" y="38.3643">jobOpening</text><rect fill="none" height="3" style="stroke:#C82930;stroke-width:0.5;" width="3" x="541.25" y="44.0264"/><text fill="#000000" font-family="sans-serif" font-size="7" lengthAdjust="spacing" textLength="31" x="547.25" y="47.6748">candidate</text><rect fill="none" height="3" style="stroke:#C82930;stroke-width:0.5;" width="3" x="541.25" y="53.3369"/><text fill="#000000" font-family="sans-serif" font-size="7" lengthAdjust="spacing" textLength="7" x="547.25" y="56.9854">cv</text><rect fill="none" height="3" style="stroke:#C82930;stroke-width:0.5;" width="3" x="541.25" y="62.6475"/><text fill="#000000" font-family="sans-serif" font-size="7" lengthAdjust="spacing" textLength="51" x="547.25" y="66.2959">screeningResult</text><rect fill="none" height="3" style="stroke:#C82930;stroke-width:0.5;" width="3" x="541.25" y="71.958"/><text fill="#000000" font-family="sans-serif" font-size="7" lengthAdjust="spacing" textLength="67.5" x="547.25" y="75.6064">screeningJustification</text><rect fill="none" height="3" style="stroke:#C82930;stroke-width:0.5;" width="3" x="541.25" y="81.2686"/><text fill="#000000" font-family="sans-serif" font-size="7" lengthAdjust="spacing" textLength="33" x="547.25" y="84.917">finalResult</text><line style="stroke:#181818;stroke-width:0.25;" x1="537.75" x2="899.75" y1="88.6738" y2="88.6738"/><ellipse cx="542.75" cy="96.0791" fill="#84BE84" rx="1.5" ry="1.5" style="stroke:#038048;stroke-width:0.5;"/><text fill="#000000" font-family="sans-serif" font-size="7" lengthAdjust="spacing" textLength="350" x="547.25" y="98.2275">JobApplication(jobApplicationId, jobOpening, candidate, cv, screeningResult, screeningJustification, finalResult)</text><ellipse cx="542.75" cy="105.3896" fill="#84BE84" rx="1.5" ry="1.5" style="stroke:#038048;stroke-width:0.5;"/><text fill="#000000" font-family="sans-serif" font-size="7" lengthAdjust="spacing" textLength="54.5" x="547.25" y="107.5381">jobApplicationId()</text><ellipse cx="542.75" cy="114.7002" fill="#84BE84" rx="1.5" ry="1.5" style="stroke:#038048;stroke-width:0.5;"/><text fill="#000000" font-family="sans-serif" font-size="7" lengthAdjust="spacing" textLength="41.5" x="547.25" y="116.8486">jobOpening()</text><ellipse cx="542.75" cy="124.0107" fill="#84BE84" rx="1.5" ry="1.5" style="stroke:#038048;stroke-width:0.5;"/><text fill="#000000" font-family="sans-serif" font-size="7" lengthAdjust="spacing" textLength="36" x="547.25" y="126.1592">candidate()</text><ellipse cx="542.75" cy="133.3213" fill="#84BE84" rx="1.5" ry="1.5" style="stroke:#038048;stroke-width:0.5;"/><text fill="#000000" font-family="sans-serif" font-size="7" lengthAdjust="spacing" textLength="12" x="547.25" y="135.4697">cv()</text><ellipse cx="542.75" cy="142.6318" fill="#84BE84" rx="1.5" ry="1.5" style="stroke:#038048;stroke-width:0.5;"/><text fill="#000000" font-family="sans-serif" font-size="7" lengthAdjust="spacing" textLength="56" x="547.25" y="144.7803">screeningResult()</text><ellipse cx="542.75" cy="151.9424" fill="#84BE84" rx="1.5" ry="1.5" style="stroke:#038048;stroke-width:0.5;"/><text fill="#000000" font-family="sans-serif" font-size="7" lengthAdjust="spacing" textLength="72.5" x="547.25" y="154.0908">screeningJustification()</text><ellipse cx="542.75" cy="161.2529" fill="#84BE84" rx="1.5" ry="1.5" style="stroke:#038048;stroke-width:0.5;"/><text fill="#000000" font-family="sans-serif" font-size="7" lengthAdjust="spacing" textLength="38" x="547.25" y="163.4014">finalResult()</text><ellipse cx="542.75" cy="170.5635" fill="#84BE84" rx="1.5" ry="1.5" style="stroke:#038048;stroke-width:0.5;"/><text fill="#000000" font-family="sans-serif" font-size="7" lengthAdjust="spacing" textLength="26" x="547.25" y="172.7119">toDTO()</text><ellipse cx="542.75" cy="179.874" fill="#84BE84" rx="1.5" ry="1.5" style="stroke:#038048;stroke-width:0.5;"/><text fill="#000000" font-family="sans-serif" font-size="7" lengthAdjust="spacing" textLength="67.5" x="547.25" y="182.0225">equals(final Object o)</text><ellipse cx="542.75" cy="189.1846" fill="#84BE84" rx="1.5" ry="1.5" style="stroke:#038048;stroke-width:0.5;"/><text fill="#000000" font-family="sans-serif" font-size="7" lengthAdjust="spacing" textLength="37.5" x="547.25" y="191.333">hashCode()</text><ellipse cx="542.75" cy="198.4951" fill="#84BE84" rx="1.5" ry="1.5" style="stroke:#038048;stroke-width:0.5;"/><text fill="#000000" font-family="sans-serif" font-size="7" lengthAdjust="spacing" textLength="281.5" x="547.25" y="200.6436">addScreeningResultAndJustification(String screeningResult, String screeningJustification)</text><ellipse cx="542.75" cy="207.8057" fill="#84BE84" rx="1.5" ry="1.5" style="stroke:#038048;stroke-width:0.5;"/><text fill="#000000" font-family="sans-serif" font-size="7" lengthAdjust="spacing" textLength="27.5" x="547.25" y="209.9541">identity()</text></g><!--class JobApplicationDTO--><g id="elem_JobApplicationDTO"><rect codeLine="28" fill="#F1F1F1" height="98.4844" id="JobApplicationDTO" rx="1.25" ry="1.25" style="stroke:#181818;stroke-width:0.25;" width="80.5" x="918" y="59.25"/><ellipse cx="927.3" cy="67.25" fill="#ADD1B2" rx="5.5" ry="5.5" style="stroke:#181818;stroke-width:0.5;"/><path d="M928.6828,65.1875 Q928.7609,65.0781 928.8547,65.0234 Q928.9484,64.9688 929.0578,64.9688 Q929.2453,64.9688 929.3625,65.1016 Q929.4797,65.2266 929.4797,65.5313 L929.4797,66.2578 Q929.4797,66.5625 929.3625,66.6953 Q929.2453,66.8281 929.0578,66.8281 Q928.8859,66.8281 928.7844,66.7266 Q928.6828,66.6328 928.6281,66.375 Q928.6047,66.1953 928.5109,66.1016 Q928.3469,65.9141 928.0422,65.8047 Q927.7375,65.6953 927.425,65.6953 Q927.0422,65.6953 926.7219,65.8594 Q926.4094,66.0234 926.1594,66.3984 Q925.9172,66.7734 925.9172,67.2891 L925.9172,67.8359 Q925.9172,68.4531 926.3625,68.8672 Q926.8078,69.2734 927.6047,69.2734 Q928.0734,69.2734 928.4016,69.1484 Q928.5969,69.0703 928.8078,68.8516 Q928.9406,68.7188 929.0109,68.6797 Q929.0891,68.6406 929.1906,68.6406 Q929.3547,68.6406 929.4797,68.7734 Q929.6125,68.8984 929.6125,69.0703 Q929.6125,69.2422 929.4406,69.4453 Q929.1906,69.7344 928.7922,69.8984 Q928.2531,70.125 927.6047,70.125 Q926.8469,70.125 926.2453,69.8125 Q925.7531,69.5625 925.4094,69.0313 Q925.0656,68.4922 925.0656,67.8516 L925.0656,67.2734 Q925.0656,66.6094 925.3703,66.0391 Q925.6828,65.4609 926.2297,65.1563 Q926.7766,64.8438 927.3938,64.8438 Q927.7609,64.8438 928.0813,64.9297 Q928.4094,65.0078 928.6828,65.1875 Z " fill="#000000"/><text fill="#000000" font-family="sans-serif" font-size="7" lengthAdjust="spacing" textLength="60.5" x="934.7" y="70.1484">JobApplicationDTO</text><line style="stroke:#181818;stroke-width:0.25;" x1="918.5" x2="998" y1="75.25" y2="75.25"/><rect fill="none" height="3" style="stroke:#C82930;stroke-width:0.5;" width="3" x="922" y="81.1553"/><text fill="#000000" font-family="sans-serif" font-size="7" lengthAdjust="spacing" textLength="49.5" x="928" y="84.8037">jobApplicationId</text><rect fill="none" height="3" style="stroke:#C82930;stroke-width:0.5;" width="3" x="922" y="90.4658"/><text fill="#000000" font-family="sans-serif" font-size="7" lengthAdjust="spacing" textLength="36.5" x="928" y="94.1143">jobOpening</text><rect fill="none" height="3" style="stroke:#C82930;stroke-width:0.5;" width="3" x="922" y="99.7764"/><text fill="#000000" font-family="sans-serif" font-size="7" lengthAdjust="spacing" textLength="31" x="928" y="103.4248">candidate</text><rect fill="none" height="3" style="stroke:#C82930;stroke-width:0.5;" width="3" x="922" y="109.0869"/><text fill="#000000" font-family="sans-serif" font-size="7" lengthAdjust="spacing" textLength="7" x="928" y="112.7354">cv</text><rect fill="none" height="3" style="stroke:#C82930;stroke-width:0.5;" width="3" x="922" y="118.3975"/><text fill="#000000" font-family="sans-serif" font-size="7" lengthAdjust="spacing" textLength="51" x="928" y="122.0459">screeningResult</text><rect fill="none" height="3" style="stroke:#C82930;stroke-width:0.5;" width="3" x="922" y="127.708"/><text fill="#000000" font-family="sans-serif" font-size="7" lengthAdjust="spacing" textLength="67.5" x="928" y="131.3564">screeningJustification</text><rect fill="none" height="3" style="stroke:#C82930;stroke-width:0.5;" width="3" x="922" y="137.0186"/><text fill="#000000" font-family="sans-serif" font-size="7" lengthAdjust="spacing" textLength="33" x="928" y="140.667">finalResult</text><line style="stroke:#181818;stroke-width:0.25;" x1="918.5" x2="998" y1="144.4238" y2="144.4238"/><ellipse cx="923.5" cy="151.8291" fill="#84BE84" rx="1.5" ry="1.5" style="stroke:#038048;stroke-width:0.5;"/><text fill="#000000" font-family="sans-serif" font-size="7" lengthAdjust="spacing" textLength="65.5" x="928" y="153.9775">JobApplicationDTO()</text></g><!--class ScheaduleInterviewController--><g id="elem_ScheaduleInterviewController"><rect codeLine="41" fill="#F1F1F1" height="117.1055" id="ScheaduleInterviewController" rx="1.25" ry="1.25" style="stroke:#181818;stroke-width:0.25;" width="624" x="526.25" y="271.5"/><ellipse cx="790.125" cy="279.5" fill="#ADD1B2" rx="5.5" ry="5.5" style="stroke:#181818;stroke-width:0.5;"/><path d="M791.5078,277.4375 Q791.5859,277.3281 791.6797,277.2734 Q791.7734,277.2188 791.8828,277.2188 Q792.0703,277.2188 792.1875,277.3516 Q792.3047,277.4766 792.3047,277.7813 L792.3047,278.5078 Q792.3047,278.8125 792.1875,278.9453 Q792.0703,279.0781 791.8828,279.0781 Q791.7109,279.0781 791.6094,278.9766 Q791.5078,278.8828 791.4531,278.625 Q791.4297,278.4453 791.3359,278.3516 Q791.1719,278.1641 790.8672,278.0547 Q790.5625,277.9453 790.25,277.9453 Q789.8672,277.9453 789.5469,278.1094 Q789.2344,278.2734 788.9844,278.6484 Q788.7422,279.0234 788.7422,279.5391 L788.7422,280.0859 Q788.7422,280.7031 789.1875,281.1172 Q789.6328,281.5234 790.4297,281.5234 Q790.8984,281.5234 791.2266,281.3984 Q791.4219,281.3203 791.6328,281.1016 Q791.7656,280.9688 791.8359,280.9297 Q791.9141,280.8906 792.0156,280.8906 Q792.1797,280.8906 792.3047,281.0234 Q792.4375,281.1484 792.4375,281.3203 Q792.4375,281.4922 792.2656,281.6953 Q792.0156,281.9844 791.6172,282.1484 Q791.0781,282.375 790.4297,282.375 Q789.6719,282.375 789.0703,282.0625 Q788.5781,281.8125 788.2344,281.2813 Q787.8906,280.7422 787.8906,280.1016 L787.8906,279.5234 Q787.8906,278.8594 788.1953,278.2891 Q788.5078,277.7109 789.0547,277.4063 Q789.6016,277.0938 790.2188,277.0938 Q790.5859,277.0938 790.9063,277.1797 Q791.2344,277.2578 791.5078,277.4375 Z " fill="#000000"/><text fill="#000000" font-family="sans-serif" font-size="7" lengthAdjust="spacing" textLength="92" x="800.375" y="282.3984">ScheaduleInterviewController</text><line style="stroke:#181818;stroke-width:0.25;" x1="526.75" x2="1149.75" y1="287.5" y2="287.5"/><rect fill="none" height="3" style="stroke:#C82930;stroke-width:0.5;" width="3" x="530.25" y="293.4053"/><text fill="#000000" font-family="sans-serif" font-size="7" lengthAdjust="spacing" textLength="64" x="536.25" y="297.0537">authorizationService</text><rect fill="none" height="3" style="stroke:#C82930;stroke-width:0.5;" width="3" x="530.25" y="302.7158"/><text fill="#000000" font-family="sans-serif" font-size="7" lengthAdjust="spacing" textLength="98" x="536.25" y="306.3643">interviewApplicationRepository;</text><rect fill="none" height="3" style="stroke:#C82930;stroke-width:0.5;" width="3" x="530.25" y="312.0264"/><text fill="#000000" font-family="sans-serif" font-size="7" lengthAdjust="spacing" textLength="54" x="536.25" y="315.6748">svcJobOpenings;</text><rect fill="none" height="3" style="stroke:#C82930;stroke-width:0.5;" width="3" x="530.25" y="321.3369"/><text fill="#000000" font-family="sans-serif" font-size="7" lengthAdjust="spacing" textLength="59.5" x="536.25" y="324.9854">jobOpeningParser;</text><rect fill="none" height="3" style="stroke:#C82930;stroke-width:0.5;" width="3" x="530.25" y="330.6475"/><text fill="#000000" font-family="sans-serif" font-size="7" lengthAdjust="spacing" textLength="61.5" x="536.25" y="334.2959">svcJobApplications;</text><rect fill="none" height="3" style="stroke:#C82930;stroke-width:0.5;" width="3" x="530.25" y="339.958"/><text fill="#000000" font-family="sans-serif" font-size="7" lengthAdjust="spacing" textLength="85" x="536.25" y="343.6064">interviewApplicationParser;</text><line style="stroke:#181818;stroke-width:0.25;" x1="526.75" x2="1149.75" y1="347.3633" y2="347.3633"/><ellipse cx="531.75" cy="354.7686" fill="#84BE84" rx="1.5" ry="1.5" style="stroke:#038048;stroke-width:0.5;"/><text fill="#000000" font-family="sans-serif" font-size="7" lengthAdjust="spacing" textLength="611" x="536.25" y="356.917">ScheaduleInterviewController(authorizationService, jobApplicationRepository, interviewApplicationRepository, svcJobOpenings, jobOpeningParser, svcJobApplications, interviewApplicationParser)</text><ellipse cx="531.75" cy="364.0791" fill="#84BE84" rx="1.5" ry="1.5" style="stroke:#038048;stroke-width:0.5;"/><text fill="#000000" font-family="sans-serif" font-size="7" lengthAdjust="spacing" textLength="136" x="536.25" y="366.2275">listMyJobOpeningsForScheaduleInterview()</text><ellipse cx="531.75" cy="373.3896" fill="#84BE84" rx="1.5" ry="1.5" style="stroke:#038048;stroke-width:0.5;"/><text fill="#000000" font-family="sans-serif" font-size="7" lengthAdjust="spacing" textLength="65" x="536.25" y="375.5381">scheaduleInterview()</text><ellipse cx="531.75" cy="382.7002" fill="#84BE84" rx="1.5" ry="1.5" style="stroke:#038048;stroke-width:0.5;"/><text fill="#000000" font-family="sans-serif" font-size="7" lengthAdjust="spacing" textLength="171" x="536.25" y="384.8486">listAcceptedApplicationsForInterview(jobOpeningDTO)</text></g><!--class InterviewApplicationBuilder--><g id="elem_InterviewApplicationBuilder"><rect codeLine="57" fill="#F1F1F1" height="172.9688" id="InterviewApplicationBuilder" rx="1.25" ry="1.25" style="stroke:#181818;stroke-width:0.25;" width="151" x="357.75" y="243.5"/><ellipse cx="389.125" cy="251.5" fill="#ADD1B2" rx="5.5" ry="5.5" style="stroke:#181818;stroke-width:0.5;"/><path d="M390.5078,249.4375 Q390.5859,249.3281 390.6797,249.2734 Q390.7734,249.2188 390.8828,249.2188 Q391.0703,249.2188 391.1875,249.3516 Q391.3047,249.4766 391.3047,249.7813 L391.3047,250.5078 Q391.3047,250.8125 391.1875,250.9453 Q391.0703,251.0781 390.8828,251.0781 Q390.7109,251.0781 390.6094,250.9766 Q390.5078,250.8828 390.4531,250.625 Q390.4297,250.4453 390.3359,250.3516 Q390.1719,250.1641 389.8672,250.0547 Q389.5625,249.9453 389.25,249.9453 Q388.8672,249.9453 388.5469,250.1094 Q388.2344,250.2734 387.9844,250.6484 Q387.7422,251.0234 387.7422,251.5391 L387.7422,252.0859 Q387.7422,252.7031 388.1875,253.1172 Q388.6328,253.5234 389.4297,253.5234 Q389.8984,253.5234 390.2266,253.3984 Q390.4219,253.3203 390.6328,253.1016 Q390.7656,252.9688 390.8359,252.9297 Q390.9141,252.8906 391.0156,252.8906 Q391.1797,252.8906 391.3047,253.0234 Q391.4375,253.1484 391.4375,253.3203 Q391.4375,253.4922 391.2656,253.6953 Q391.0156,253.9844 390.6172,254.1484 Q390.0781,254.375 389.4297,254.375 Q388.6719,254.375 388.0703,254.0625 Q387.5781,253.8125 387.2344,253.2813 Q386.8906,252.7422 386.8906,252.1016 L386.8906,251.5234 Q386.8906,250.8594 387.1953,250.2891 Q387.5078,249.7109 388.0547,249.4063 Q388.6016,249.0938 389.2188,249.0938 Q389.5859,249.0938 389.9063,249.1797 Q390.2344,249.2578 390.5078,249.4375 Z " fill="#000000"/><text fill="#000000" font-family="sans-serif" font-size="7" lengthAdjust="spacing" textLength="84" x="399.375" y="254.3984">InterviewApplicationBuilder</text><line style="stroke:#181818;stroke-width:0.25;" x1="358.25" x2="508.25" y1="259.5" y2="259.5"/><rect fill="none" height="3" style="stroke:#C82930;stroke-width:0.5;" width="3" x="361.75" y="265.4053"/><text fill="#000000" font-family="sans-serif" font-size="7" lengthAdjust="spacing" textLength="49.5" x="367.75" y="269.0537">jobApplicationId</text><rect fill="none" height="3" style="stroke:#C82930;stroke-width:0.5;" width="3" x="361.75" y="274.7158"/><text fill="#000000" font-family="sans-serif" font-size="7" lengthAdjust="spacing" textLength="15" x="367.75" y="278.3643">Date</text><rect fill="none" height="3" style="stroke:#C82930;stroke-width:0.5;" width="3" x="361.75" y="284.0264"/><text fill="#000000" font-family="sans-serif" font-size="7" lengthAdjust="spacing" textLength="53" x="367.75" y="287.6748">TimeScheaduled</text><rect fill="none" height="3" style="stroke:#C82930;stroke-width:0.5;" width="3" x="361.75" y="293.3369"/><text fill="#000000" font-family="sans-serif" font-size="7" lengthAdjust="spacing" textLength="34" x="367.75" y="296.9854">TimeSpent</text><rect fill="none" height="3" style="stroke:#C82930;stroke-width:0.5;" width="3" x="361.75" y="302.6475"/><text fill="#000000" font-family="sans-serif" font-size="7" lengthAdjust="spacing" textLength="38" x="367.75" y="306.2959">AnswersFile</text><rect fill="none" height="3" style="stroke:#C82930;stroke-width:0.5;" width="3" x="361.75" y="311.958"/><text fill="#000000" font-family="sans-serif" font-size="7" lengthAdjust="spacing" textLength="20" x="367.75" y="315.6064">Grade</text><rect fill="none" height="3" style="stroke:#C82930;stroke-width:0.5;" width="3" x="361.75" y="321.2686"/><text fill="#000000" font-family="sans-serif" font-size="7" lengthAdjust="spacing" textLength="34" x="367.75" y="324.917">Interviewer</text><line style="stroke:#181818;stroke-width:0.25;" x1="358.25" x2="508.25" y1="328.6738" y2="328.6738"/><ellipse cx="363.25" cy="336.0791" fill="#84BE84" rx="1.5" ry="1.5" style="stroke:#038048;stroke-width:0.5;"/><text fill="#000000" font-family="sans-serif" font-size="7" lengthAdjust="spacing" textLength="55" x="367.75" y="338.2275">buildOrThrough()</text><ellipse cx="363.25" cy="345.3896" fill="#84BE84" rx="1.5" ry="1.5" style="stroke:#038048;stroke-width:0.5;"/><text fill="#000000" font-family="sans-serif" font-size="7" lengthAdjust="spacing" textLength="138" x="367.75" y="347.5381">withJobApplicationId(String jobApplicationId)</text><ellipse cx="363.25" cy="354.7002" fill="#84BE84" rx="1.5" ry="1.5" style="stroke:#038048;stroke-width:0.5;"/><text fill="#000000" font-family="sans-serif" font-size="7" lengthAdjust="spacing" textLength="63" x="367.75" y="356.8486">withDate(Date date)</text><ellipse cx="363.25" cy="364.0107" fill="#84BE84" rx="1.5" ry="1.5" style="stroke:#038048;stroke-width:0.5;"/><text fill="#000000" font-family="sans-serif" font-size="7" lengthAdjust="spacing" textLength="137.5" x="367.75" y="366.1592">withTimeScheaduled(Date timeScheaduled)</text><ellipse cx="363.25" cy="373.3213" fill="#84BE84" rx="1.5" ry="1.5" style="stroke:#038048;stroke-width:0.5;"/><text fill="#000000" font-family="sans-serif" font-size="7" lengthAdjust="spacing" textLength="99.5" x="367.75" y="375.4697">withTimeSpent(Date timeSpent)</text><ellipse cx="363.25" cy="382.6318" fill="#84BE84" rx="1.5" ry="1.5" style="stroke:#038048;stroke-width:0.5;"/><text fill="#000000" font-family="sans-serif" font-size="7" lengthAdjust="spacing" textLength="106" x="367.75" y="384.7803">withAnswersFile(File answersFile)</text><ellipse cx="363.25" cy="391.9424" fill="#84BE84" rx="1.5" ry="1.5" style="stroke:#038048;stroke-width:0.5;"/><text fill="#000000" font-family="sans-serif" font-size="7" lengthAdjust="spacing" textLength="76" x="367.75" y="394.0908">withGrade(String grade)</text><ellipse cx="363.25" cy="401.2529" fill="#84BE84" rx="1.5" ry="1.5" style="stroke:#038048;stroke-width:0.5;"/><text fill="#000000" font-family="sans-serif" font-size="7" lengthAdjust="spacing" textLength="105.5" x="367.75" y="403.4014">withInterviewer(String interviewer)</text><ellipse cx="363.25" cy="410.5635" fill="#84BE84" rx="1.5" ry="1.5" style="stroke:#038048;stroke-width:0.5;"/><text fill="#000000" font-family="sans-serif" font-size="7" lengthAdjust="spacing" textLength="20" x="367.75" y="412.7119">build()</text></g><!--class InterviewApplication--><g id="elem_InterviewApplication"><rect codeLine="75" fill="#F1F1F1" height="98.4844" id="InterviewApplication" rx="1.25" ry="1.25" style="stroke:#181818;stroke-width:0.25;" width="347.5" x="1052" y="511.75"/><ellipse cx="1192.625" cy="519.75" fill="#ADD1B2" rx="5.5" ry="5.5" style="stroke:#181818;stroke-width:0.5;"/><path d="M1194.0078,517.6875 Q1194.0859,517.5781 1194.1797,517.5234 Q1194.2734,517.4688 1194.3828,517.4688 Q1194.5703,517.4688 1194.6875,517.6016 Q1194.8047,517.7266 1194.8047,518.0313 L1194.8047,518.7578 Q1194.8047,519.0625 1194.6875,519.1953 Q1194.5703,519.3281 1194.3828,519.3281 Q1194.2109,519.3281 1194.1094,519.2266 Q1194.0078,519.1328 1193.9531,518.875 Q1193.9297,518.6953 1193.8359,518.6016 Q1193.6719,518.4141 1193.3672,518.3047 Q1193.0625,518.1953 1192.75,518.1953 Q1192.3672,518.1953 1192.0469,518.3594 Q1191.7344,518.5234 1191.4844,518.8984 Q1191.2422,519.2734 1191.2422,519.7891 L1191.2422,520.3359 Q1191.2422,520.9531 1191.6875,521.3672 Q1192.1328,521.7734 1192.9297,521.7734 Q1193.3984,521.7734 1193.7266,521.6484 Q1193.9219,521.5703 1194.1328,521.3516 Q1194.2656,521.2188 1194.3359,521.1797 Q1194.4141,521.1406 1194.5156,521.1406 Q1194.6797,521.1406 1194.8047,521.2734 Q1194.9375,521.3984 1194.9375,521.5703 Q1194.9375,521.7422 1194.7656,521.9453 Q1194.5156,522.2344 1194.1172,522.3984 Q1193.5781,522.625 1192.9297,522.625 Q1192.1719,522.625 1191.5703,522.3125 Q1191.0781,522.0625 1190.7344,521.5313 Q1190.3906,520.9922 1190.3906,520.3516 L1190.3906,519.7734 Q1190.3906,519.1094 1190.6953,518.5391 Q1191.0078,517.9609 1191.5547,517.6563 Q1192.1016,517.3438 1192.7188,517.3438 Q1193.0859,517.3438 1193.4063,517.4297 Q1193.7344,517.5078 1194.0078,517.6875 Z " fill="#000000"/><text fill="#000000" font-family="sans-serif" font-size="7" lengthAdjust="spacing" textLength="62" x="1202.875" y="522.6484">InterviewApplication</text><line style="stroke:#181818;stroke-width:0.25;" x1="1052.5" x2="1399" y1="527.75" y2="527.75"/><rect fill="none" height="3" style="stroke:#C82930;stroke-width:0.5;" width="3" x="1056" y="533.6553"/><text fill="#000000" font-family="sans-serif" font-size="7" lengthAdjust="spacing" textLength="49.5" x="1062" y="537.3037">jobApplicationId</text><rect fill="none" height="3" style="stroke:#C82930;stroke-width:0.5;" width="3" x="1056" y="542.9658"/><text fill="#000000" font-family="sans-serif" font-size="7" lengthAdjust="spacing" textLength="15" x="1062" y="546.6143">Date</text><rect fill="none" height="3" style="stroke:#C82930;stroke-width:0.5;" width="3" x="1056" y="552.2764"/><text fill="#000000" font-family="sans-serif" font-size="7" lengthAdjust="spacing" textLength="53" x="1062" y="555.9248">TimeScheaduled</text><rect fill="none" height="3" style="stroke:#C82930;stroke-width:0.5;" width="3" x="1056" y="561.5869"/><text fill="#000000" font-family="sans-serif" font-size="7" lengthAdjust="spacing" textLength="34" x="1062" y="565.2354">TimeSpent</text><rect fill="none" height="3" style="stroke:#C82930;stroke-width:0.5;" width="3" x="1056" y="570.8975"/><text fill="#000000" font-family="sans-serif" font-size="7" lengthAdjust="spacing" textLength="38" x="1062" y="574.5459">AnswersFile</text><rect fill="none" height="3" style="stroke:#C82930;stroke-width:0.5;" width="3" x="1056" y="580.208"/><text fill="#000000" font-family="sans-serif" font-size="7" lengthAdjust="spacing" textLength="20" x="1062" y="583.8564">Grade</text><rect fill="none" height="3" style="stroke:#C82930;stroke-width:0.5;" width="3" x="1056" y="589.5186"/><text fill="#000000" font-family="sans-serif" font-size="7" lengthAdjust="spacing" textLength="34" x="1062" y="593.167">Interviewer</text><line style="stroke:#181818;stroke-width:0.25;" x1="1052.5" x2="1399" y1="596.9238" y2="596.9238"/><ellipse cx="1057.5" cy="604.3291" fill="#84BE84" rx="1.5" ry="1.5" style="stroke:#038048;stroke-width:0.5;"/><text fill="#000000" font-family="sans-serif" font-size="7" lengthAdjust="spacing" textLength="334.5" x="1062" y="606.4775">InterviewApplication(jobApplicationId, Date, TimeScheaduled, TimeSpent, AnswersFile, Grade, Interviewer)</text></g><!--class JobOpeningDTO--><g id="elem_JobOpeningDTO"><rect codeLine="89" fill="#F1F1F1" height="117.1055" id="JobOpeningDTO" rx="1.25" ry="1.25" style="stroke:#181818;stroke-width:0.25;" width="71" x="437.25" y="705.5"/><ellipse cx="445.65" cy="713.5" fill="#ADD1B2" rx="5.5" ry="5.5" style="stroke:#181818;stroke-width:0.5;"/><path d="M447.0328,711.4375 Q447.1109,711.3281 447.2047,711.2734 Q447.2984,711.2188 447.4078,711.2188 Q447.5953,711.2188 447.7125,711.3516 Q447.8297,711.4766 447.8297,711.7813 L447.8297,712.5078 Q447.8297,712.8125 447.7125,712.9453 Q447.5953,713.0781 447.4078,713.0781 Q447.2359,713.0781 447.1344,712.9766 Q447.0328,712.8828 446.9781,712.625 Q446.9547,712.4453 446.8609,712.3516 Q446.6969,712.1641 446.3922,712.0547 Q446.0875,711.9453 445.775,711.9453 Q445.3922,711.9453 445.0719,712.1094 Q444.7594,712.2734 444.5094,712.6484 Q444.2672,713.0234 444.2672,713.5391 L444.2672,714.0859 Q444.2672,714.7031 444.7125,715.1172 Q445.1578,715.5234 445.9547,715.5234 Q446.4234,715.5234 446.7516,715.3984 Q446.9469,715.3203 447.1578,715.1016 Q447.2906,714.9688 447.3609,714.9297 Q447.4391,714.8906 447.5406,714.8906 Q447.7047,714.8906 447.8297,715.0234 Q447.9625,715.1484 447.9625,715.3203 Q447.9625,715.4922 447.7906,715.6953 Q447.5406,715.9844 447.1422,716.1484 Q446.6031,716.375 445.9547,716.375 Q445.1969,716.375 444.5953,716.0625 Q444.1031,715.8125 443.7594,715.2813 Q443.4156,714.7422 443.4156,714.1016 L443.4156,713.5234 Q443.4156,712.8594 443.7203,712.2891 Q444.0328,711.7109 444.5797,711.4063 Q445.1266,711.0938 445.7438,711.0938 Q446.1109,711.0938 446.4313,711.1797 Q446.7594,711.2578 447.0328,711.4375 Z " fill="#000000"/><text fill="#000000" font-family="sans-serif" font-size="7" lengthAdjust="spacing" textLength="53" x="452.85" y="716.3984">JobOpeningDTO</text><line style="stroke:#181818;stroke-width:0.25;" x1="437.75" x2="507.75" y1="721.5" y2="721.5"/><rect fill="none" height="3" style="stroke:#C82930;stroke-width:0.5;" width="3" x="441.25" y="727.4053"/><text fill="#000000" font-family="sans-serif" font-size="7" lengthAdjust="spacing" textLength="42.5" x="447.25" y="731.0537">jobReference</text><rect fill="none" height="3" style="stroke:#C82930;stroke-width:0.5;" width="3" x="441.25" y="736.7158"/><text fill="#000000" font-family="sans-serif" font-size="7" lengthAdjust="spacing" textLength="23" x="447.25" y="740.3643">jobTitle</text><rect fill="none" height="3" style="stroke:#C82930;stroke-width:0.5;" width="3" x="441.25" y="746.0264"/><text fill="#000000" font-family="sans-serif" font-size="7" lengthAdjust="spacing" textLength="45" x="447.25" y="749.6748">jobDescription</text><rect fill="none" height="3" style="stroke:#C82930;stroke-width:0.5;" width="3" x="441.25" y="755.3369"/><text fill="#000000" font-family="sans-serif" font-size="7" lengthAdjust="spacing" textLength="25.5" x="447.25" y="758.9854">address</text><rect fill="none" height="3" style="stroke:#C82930;stroke-width:0.5;" width="3" x="441.25" y="764.6475"/><text fill="#000000" font-family="sans-serif" font-size="7" lengthAdjust="spacing" textLength="41.5" x="447.25" y="768.2959">contractType</text><rect fill="none" height="3" style="stroke:#C82930;stroke-width:0.5;" width="3" x="441.25" y="773.958"/><text fill="#000000" font-family="sans-serif" font-size="7" lengthAdjust="spacing" textLength="56.5" x="447.25" y="777.6064">numberVacancies</text><rect fill="none" height="3" style="stroke:#C82930;stroke-width:0.5;" width="3" x="441.25" y="783.2686"/><text fill="#000000" font-family="sans-serif" font-size="7" lengthAdjust="spacing" textLength="17.5" x="447.25" y="786.917">mode</text><rect fill="none" height="3" style="stroke:#C82930;stroke-width:0.5;" width="3" x="441.25" y="792.5791"/><text fill="#000000" font-family="sans-serif" font-size="7" lengthAdjust="spacing" textLength="28.5" x="447.25" y="796.2275">company</text><rect fill="none" height="3" style="stroke:#C82930;stroke-width:0.5;" width="3" x="441.25" y="801.8896"/><text fill="#000000" font-family="sans-serif" font-size="7" lengthAdjust="spacing" textLength="57" x="447.25" y="805.5381">costumerManager</text><line style="stroke:#181818;stroke-width:0.25;" x1="437.75" x2="507.75" y1="809.2949" y2="809.2949"/><ellipse cx="442.75" cy="816.7002" fill="#84BE84" rx="1.5" ry="1.5" style="stroke:#038048;stroke-width:0.5;"/><text fill="#000000" font-family="sans-serif" font-size="7" lengthAdjust="spacing" textLength="58" x="447.25" y="818.8486">JobOpeningDTO()</text></g><!--class JobOpening--><g id="elem_JobOpening"><rect codeLine="101" fill="#F1F1F1" height="228.832" id="JobOpening" rx="1.25" ry="1.25" style="stroke:#181818;stroke-width:0.25;" width="80.5" x="3.5" y="446.5"/><ellipse cx="22.925" cy="454.5" fill="#ADD1B2" rx="5.5" ry="5.5" style="stroke:#181818;stroke-width:0.5;"/><path d="M24.3078,452.4375 Q24.3859,452.3281 24.4797,452.2734 Q24.5734,452.2188 24.6828,452.2188 Q24.8703,452.2188 24.9875,452.3516 Q25.1047,452.4766 25.1047,452.7813 L25.1047,453.5078 Q25.1047,453.8125 24.9875,453.9453 Q24.8703,454.0781 24.6828,454.0781 Q24.5109,454.0781 24.4094,453.9766 Q24.3078,453.8828 24.2531,453.625 Q24.2297,453.4453 24.1359,453.3516 Q23.9719,453.1641 23.6672,453.0547 Q23.3625,452.9453 23.05,452.9453 Q22.6672,452.9453 22.3469,453.1094 Q22.0344,453.2734 21.7844,453.6484 Q21.5422,454.0234 21.5422,454.5391 L21.5422,455.0859 Q21.5422,455.7031 21.9875,456.1172 Q22.4328,456.5234 23.2297,456.5234 Q23.6984,456.5234 24.0266,456.3984 Q24.2219,456.3203 24.4328,456.1016 Q24.5656,455.9688 24.6359,455.9297 Q24.7141,455.8906 24.8156,455.8906 Q24.9797,455.8906 25.1047,456.0234 Q25.2375,456.1484 25.2375,456.3203 Q25.2375,456.4922 25.0656,456.6953 Q24.8156,456.9844 24.4172,457.1484 Q23.8781,457.375 23.2297,457.375 Q22.4719,457.375 21.8703,457.0625 Q21.3781,456.8125 21.0344,456.2813 Q20.6906,455.7422 20.6906,455.1016 L20.6906,454.5234 Q20.6906,453.8594 20.9953,453.2891 Q21.3078,452.7109 21.8547,452.4063 Q22.4016,452.0938 23.0188,452.0938 Q23.3859,452.0938 23.7063,452.1797 Q24.0344,452.2578 24.3078,452.4375 Z " fill="#000000"/><text fill="#000000" font-family="sans-serif" font-size="7" lengthAdjust="spacing" textLength="38" x="32.575" y="457.3984">JobOpening</text><line style="stroke:#181818;stroke-width:0.25;" x1="4" x2="83.5" y1="462.5" y2="462.5"/><rect fill="none" height="3" style="stroke:#C82930;stroke-width:0.5;" width="3" x="7.5" y="468.4053"/><text fill="#000000" font-family="sans-serif" font-size="7" lengthAdjust="spacing" textLength="42.5" x="13.5" y="472.0537">jobReference</text><rect fill="none" height="3" style="stroke:#C82930;stroke-width:0.5;" width="3" x="7.5" y="477.7158"/><text fill="#000000" font-family="sans-serif" font-size="7" lengthAdjust="spacing" textLength="23" x="13.5" y="481.3643">jobTitle</text><rect fill="none" height="3" style="stroke:#C82930;stroke-width:0.5;" width="3" x="7.5" y="487.0264"/><text fill="#000000" font-family="sans-serif" font-size="7" lengthAdjust="spacing" textLength="45" x="13.5" y="490.6748">jobDescription</text><rect fill="none" height="3" style="stroke:#C82930;stroke-width:0.5;" width="3" x="7.5" y="496.3369"/><text fill="#000000" font-family="sans-serif" font-size="7" lengthAdjust="spacing" textLength="25.5" x="13.5" y="499.9854">address</text><rect fill="none" height="3" style="stroke:#C82930;stroke-width:0.5;" width="3" x="7.5" y="505.6475"/><text fill="#000000" font-family="sans-serif" font-size="7" lengthAdjust="spacing" textLength="41.5" x="13.5" y="509.2959">contractType</text><rect fill="none" height="3" style="stroke:#C82930;stroke-width:0.5;" width="3" x="7.5" y="514.958"/><text fill="#000000" font-family="sans-serif" font-size="7" lengthAdjust="spacing" textLength="56.5" x="13.5" y="518.6064">numberVacancies</text><rect fill="none" height="3" style="stroke:#C82930;stroke-width:0.5;" width="3" x="7.5" y="524.2686"/><text fill="#000000" font-family="sans-serif" font-size="7" lengthAdjust="spacing" textLength="17.5" x="13.5" y="527.917">mode</text><rect fill="none" height="3" style="stroke:#C82930;stroke-width:0.5;" width="3" x="7.5" y="533.5791"/><text fill="#000000" font-family="sans-serif" font-size="7" lengthAdjust="spacing" textLength="28.5" x="13.5" y="537.2275">company</text><rect fill="none" height="3" style="stroke:#C82930;stroke-width:0.5;" width="3" x="7.5" y="542.8896"/><text fill="#000000" font-family="sans-serif" font-size="7" lengthAdjust="spacing" textLength="57" x="13.5" y="546.5381">costumerManager</text><line style="stroke:#181818;stroke-width:0.25;" x1="4" x2="83.5" y1="550.2949" y2="550.2949"/><ellipse cx="9" cy="557.7002" fill="#84BE84" rx="1.5" ry="1.5" style="stroke:#038048;stroke-width:0.5;"/><text fill="#000000" font-family="sans-serif" font-size="7" lengthAdjust="spacing" textLength="43" x="13.5" y="559.8486">JobOpening()</text><ellipse cx="9" cy="567.0107" fill="#84BE84" rx="1.5" ry="1.5" style="stroke:#038048;stroke-width:0.5;"/><text fill="#000000" font-family="sans-serif" font-size="7" lengthAdjust="spacing" textLength="47.5" x="13.5" y="569.1592">jobReference()</text><ellipse cx="9" cy="576.3213" fill="#84BE84" rx="1.5" ry="1.5" style="stroke:#038048;stroke-width:0.5;"/><text fill="#000000" font-family="sans-serif" font-size="7" lengthAdjust="spacing" textLength="28" x="13.5" y="578.4697">jobTitle()</text><ellipse cx="9" cy="585.6318" fill="#84BE84" rx="1.5" ry="1.5" style="stroke:#038048;stroke-width:0.5;"/><text fill="#000000" font-family="sans-serif" font-size="7" lengthAdjust="spacing" textLength="50" x="13.5" y="587.7803">jobDescription()</text><ellipse cx="9" cy="594.9424" fill="#84BE84" rx="1.5" ry="1.5" style="stroke:#038048;stroke-width:0.5;"/><text fill="#000000" font-family="sans-serif" font-size="7" lengthAdjust="spacing" textLength="30.5" x="13.5" y="597.0908">address()</text><ellipse cx="9" cy="604.2529" fill="#84BE84" rx="1.5" ry="1.5" style="stroke:#038048;stroke-width:0.5;"/><text fill="#000000" font-family="sans-serif" font-size="7" lengthAdjust="spacing" textLength="46.5" x="13.5" y="606.4014">contractType()</text><ellipse cx="9" cy="613.5635" fill="#84BE84" rx="1.5" ry="1.5" style="stroke:#038048;stroke-width:0.5;"/><text fill="#000000" font-family="sans-serif" font-size="7" lengthAdjust="spacing" textLength="61.5" x="13.5" y="615.7119">numberVacancies()</text><ellipse cx="9" cy="622.874" fill="#84BE84" rx="1.5" ry="1.5" style="stroke:#038048;stroke-width:0.5;"/><text fill="#000000" font-family="sans-serif" font-size="7" lengthAdjust="spacing" textLength="22.5" x="13.5" y="625.0225">mode()</text><ellipse cx="9" cy="632.1846" fill="#84BE84" rx="1.5" ry="1.5" style="stroke:#038048;stroke-width:0.5;"/><text fill="#000000" font-family="sans-serif" font-size="7" lengthAdjust="spacing" textLength="33.5" x="13.5" y="634.333">company()</text><ellipse cx="9" cy="641.4951" fill="#84BE84" rx="1.5" ry="1.5" style="stroke:#038048;stroke-width:0.5;"/><text fill="#000000" font-family="sans-serif" font-size="7" lengthAdjust="spacing" textLength="62" x="13.5" y="643.6436">costumerManager()</text><ellipse cx="9" cy="650.8057" fill="#84BE84" rx="1.5" ry="1.5" style="stroke:#038048;stroke-width:0.5;"/><text fill="#000000" font-family="sans-serif" font-size="7" lengthAdjust="spacing" textLength="26" x="13.5" y="652.9541">toDTO()</text><ellipse cx="9" cy="660.1162" fill="#84BE84" rx="1.5" ry="1.5" style="stroke:#038048;stroke-width:0.5;"/><text fill="#000000" font-family="sans-serif" font-size="7" lengthAdjust="spacing" textLength="67.5" x="13.5" y="662.2646">equals(final Object o)</text><ellipse cx="9" cy="669.4268" fill="#84BE84" rx="1.5" ry="1.5" style="stroke:#038048;stroke-width:0.5;"/><text fill="#000000" font-family="sans-serif" font-size="7" lengthAdjust="spacing" textLength="37.5" x="13.5" y="671.5752">hashCode()</text></g><!--class JobApplicationDTOService--><g id="elem_JobApplicationDTOService"><rect codeLine="131" fill="#F1F1F1" height="42.6211" id="JobApplicationDTOService" rx="1.25" ry="1.25" style="stroke:#181818;stroke-width:0.25;" width="234" x="101.75" y="539.75"/><ellipse cx="174.625" cy="547.75" fill="#ADD1B2" rx="5.5" ry="5.5" style="stroke:#181818;stroke-width:0.5;"/><path d="M176.0078,545.6875 Q176.0859,545.5781 176.1797,545.5234 Q176.2734,545.4688 176.3828,545.4688 Q176.5703,545.4688 176.6875,545.6016 Q176.8047,545.7266 176.8047,546.0313 L176.8047,546.7578 Q176.8047,547.0625 176.6875,547.1953 Q176.5703,547.3281 176.3828,547.3281 Q176.2109,547.3281 176.1094,547.2266 Q176.0078,547.1328 175.9531,546.875 Q175.9297,546.6953 175.8359,546.6016 Q175.6719,546.4141 175.3672,546.3047 Q175.0625,546.1953 174.75,546.1953 Q174.3672,546.1953 174.0469,546.3594 Q173.7344,546.5234 173.4844,546.8984 Q173.2422,547.2734 173.2422,547.7891 L173.2422,548.3359 Q173.2422,548.9531 173.6875,549.3672 Q174.1328,549.7734 174.9297,549.7734 Q175.3984,549.7734 175.7266,549.6484 Q175.9219,549.5703 176.1328,549.3516 Q176.2656,549.2188 176.3359,549.1797 Q176.4141,549.1406 176.5156,549.1406 Q176.6797,549.1406 176.8047,549.2734 Q176.9375,549.3984 176.9375,549.5703 Q176.9375,549.7422 176.7656,549.9453 Q176.5156,550.2344 176.1172,550.3984 Q175.5781,550.625 174.9297,550.625 Q174.1719,550.625 173.5703,550.3125 Q173.0781,550.0625 172.7344,549.5313 Q172.3906,548.9922 172.3906,548.3516 L172.3906,547.7734 Q172.3906,547.1094 172.6953,546.5391 Q173.0078,545.9609 173.5547,545.6563 Q174.1016,545.3438 174.7188,545.3438 Q175.0859,545.3438 175.4063,545.4297 Q175.7344,545.5078 176.0078,545.6875 Z " fill="#000000"/><text fill="#000000" font-family="sans-serif" font-size="7" lengthAdjust="spacing" textLength="84" x="184.875" y="550.6484">JobApplicationDTOService</text><line style="stroke:#181818;stroke-width:0.25;" x1="102.25" x2="335.25" y1="555.75" y2="555.75"/><rect fill="none" height="3" style="stroke:#C82930;stroke-width:0.5;" width="3" x="105.75" y="561.6553"/><text fill="#000000" font-family="sans-serif" font-size="7" lengthAdjust="spacing" textLength="64" x="111.75" y="565.3037">aplicationRepository</text><line style="stroke:#181818;stroke-width:0.25;" x1="102.25" x2="335.25" y1="569.0605" y2="569.0605"/><ellipse cx="107.25" cy="576.4658" fill="#84BE84" rx="1.5" ry="1.5" style="stroke:#038048;stroke-width:0.5;"/><text fill="#000000" font-family="sans-serif" font-size="7" lengthAdjust="spacing" textLength="221" x="111.75" y="578.6143">allJobApplicationsAfterScreewningResultByJobReference(jobOpening)</text></g><!--class JobOpeningDTOParser--><g id="elem_JobOpeningDTOParser"><rect codeLine="136" fill="#F1F1F1" height="61.2422" id="JobOpeningDTOParser" rx="1.25" ry="1.25" style="stroke:#181818;stroke-width:0.25;" width="94" x="353.25" y="530.5"/><ellipse cx="362.55" cy="538.5" fill="#ADD1B2" rx="5.5" ry="5.5" style="stroke:#181818;stroke-width:0.5;"/><path d="M363.9328,536.4375 Q364.0109,536.3281 364.1047,536.2734 Q364.1984,536.2188 364.3078,536.2188 Q364.4953,536.2188 364.6125,536.3516 Q364.7297,536.4766 364.7297,536.7813 L364.7297,537.5078 Q364.7297,537.8125 364.6125,537.9453 Q364.4953,538.0781 364.3078,538.0781 Q364.1359,538.0781 364.0344,537.9766 Q363.9328,537.8828 363.8781,537.625 Q363.8547,537.4453 363.7609,537.3516 Q363.5969,537.1641 363.2922,537.0547 Q362.9875,536.9453 362.675,536.9453 Q362.2922,536.9453 361.9719,537.1094 Q361.6594,537.2734 361.4094,537.6484 Q361.1672,538.0234 361.1672,538.5391 L361.1672,539.0859 Q361.1672,539.7031 361.6125,540.1172 Q362.0578,540.5234 362.8547,540.5234 Q363.3234,540.5234 363.6516,540.3984 Q363.8469,540.3203 364.0578,540.1016 Q364.1906,539.9688 364.2609,539.9297 Q364.3391,539.8906 364.4406,539.8906 Q364.6047,539.8906 364.7297,540.0234 Q364.8625,540.1484 364.8625,540.3203 Q364.8625,540.4922 364.6906,540.6953 Q364.4406,540.9844 364.0422,541.1484 Q363.5031,541.375 362.8547,541.375 Q362.0969,541.375 361.4953,541.0625 Q361.0031,540.8125 360.6594,540.2813 Q360.3156,539.7422 360.3156,539.1016 L360.3156,538.5234 Q360.3156,537.8594 360.6203,537.2891 Q360.9328,536.7109 361.4797,536.4063 Q362.0266,536.0938 362.6438,536.0938 Q363.0109,536.0938 363.3313,536.1797 Q363.6594,536.2578 363.9328,536.4375 Z " fill="#000000"/><text fill="#000000" font-family="sans-serif" font-size="7" lengthAdjust="spacing" textLength="74" x="369.95" y="541.3984">JobOpeningDTOParser</text><line style="stroke:#181818;stroke-width:0.25;" x1="353.75" x2="446.75" y1="546.5" y2="546.5"/><rect fill="none" height="3" style="stroke:#C82930;stroke-width:0.5;" width="3" x="357.25" y="552.4053"/><text fill="#000000" font-family="sans-serif" font-size="7" lengthAdjust="spacing" textLength="64" x="363.25" y="556.0537">authorizationService</text><rect fill="none" height="3" style="stroke:#C82930;stroke-width:0.5;" width="3" x="357.25" y="561.7158"/><text fill="#000000" font-family="sans-serif" font-size="7" lengthAdjust="spacing" textLength="70.5" x="363.25" y="565.3643">jobOpeningRepository</text><line style="stroke:#181818;stroke-width:0.25;" x1="353.75" x2="446.75" y1="569.1211" y2="569.1211"/><ellipse cx="358.75" cy="576.5264" fill="#84BE84" rx="1.5" ry="1.5" style="stroke:#038048;stroke-width:0.5;"/><text fill="#000000" font-family="sans-serif" font-size="7" lengthAdjust="spacing" textLength="79" x="363.25" y="578.6748">JobOpeningDTOParser()</text><ellipse cx="358.75" cy="585.8369" fill="#84BE84" rx="1.5" ry="1.5" style="stroke:#038048;stroke-width:0.5;"/><text fill="#000000" font-family="sans-serif" font-size="7" lengthAdjust="spacing" textLength="81" x="363.25" y="587.9854">valueOf(jobOpeningDTO)</text></g><!--class InterviewApplicationDTOParser--><g id="elem_InterviewApplicationDTOParser"><rect codeLine="145" fill="#F1F1F1" height="70.5527" id="InterviewApplicationDTOParser" rx="1.25" ry="1.25" style="stroke:#181818;stroke-width:0.25;" width="119.5" x="1417" y="525.75"/><ellipse cx="1426.975" cy="533.75" fill="#ADD1B2" rx="5.5" ry="5.5" style="stroke:#181818;stroke-width:0.5;"/><path d="M1428.3578,531.6875 Q1428.4359,531.5781 1428.5297,531.5234 Q1428.6234,531.4688 1428.7328,531.4688 Q1428.9203,531.4688 1429.0375,531.6016 Q1429.1547,531.7266 1429.1547,532.0313 L1429.1547,532.7578 Q1429.1547,533.0625 1429.0375,533.1953 Q1428.9203,533.3281 1428.7328,533.3281 Q1428.5609,533.3281 1428.4594,533.2266 Q1428.3578,533.1328 1428.3031,532.875 Q1428.2797,532.6953 1428.1859,532.6016 Q1428.0219,532.4141 1427.7172,532.3047 Q1427.4125,532.1953 1427.1,532.1953 Q1426.7172,532.1953 1426.3969,532.3594 Q1426.0844,532.5234 1425.8344,532.8984 Q1425.5922,533.2734 1425.5922,533.7891 L1425.5922,534.3359 Q1425.5922,534.9531 1426.0375,535.3672 Q1426.4828,535.7734 1427.2797,535.7734 Q1427.7484,535.7734 1428.0766,535.6484 Q1428.2719,535.5703 1428.4828,535.3516 Q1428.6156,535.2188 1428.6859,535.1797 Q1428.7641,535.1406 1428.8656,535.1406 Q1429.0297,535.1406 1429.1547,535.2734 Q1429.2875,535.3984 1429.2875,535.5703 Q1429.2875,535.7422 1429.1156,535.9453 Q1428.8656,536.2344 1428.4672,536.3984 Q1427.9281,536.625 1427.2797,536.625 Q1426.5219,536.625 1425.9203,536.3125 Q1425.4281,536.0625 1425.0844,535.5313 Q1424.7406,534.9922 1424.7406,534.3516 L1424.7406,533.7734 Q1424.7406,533.1094 1425.0453,532.5391 Q1425.3578,531.9609 1425.9047,531.6563 Q1426.4516,531.3438 1427.0688,531.3438 Q1427.4359,531.3438 1427.7563,531.4297 Q1428.0844,531.5078 1428.3578,531.6875 Z " fill="#000000"/><text fill="#000000" font-family="sans-serif" font-size="7" lengthAdjust="spacing" textLength="98" x="1434.525" y="536.6484">InterviewApplicationDTOParser</text><line style="stroke:#181818;stroke-width:0.25;" x1="1417.5" x2="1536" y1="541.75" y2="541.75"/><rect fill="none" height="3" style="stroke:#C82930;stroke-width:0.5;" width="3" x="1421" y="547.6553"/><text fill="#000000" font-family="sans-serif" font-size="7" lengthAdjust="spacing" textLength="64" x="1427" y="551.3037">authorizationService</text><rect fill="none" height="3" style="stroke:#C82930;stroke-width:0.5;" width="3" x="1421" y="556.9658"/><text fill="#000000" font-family="sans-serif" font-size="7" lengthAdjust="spacing" textLength="70.5" x="1427" y="560.6143">jobOpeningRepository</text><rect fill="none" height="3" style="stroke:#C82930;stroke-width:0.5;" width="3" x="1421" y="566.2764"/><text fill="#000000" font-family="sans-serif" font-size="7" lengthAdjust="spacing" textLength="78" x="1427" y="569.9248">jobApplicationRepository</text><line style="stroke:#181818;stroke-width:0.25;" x1="1417.5" x2="1536" y1="573.6816" y2="573.6816"/><ellipse cx="1422.5" cy="581.0869" fill="#84BE84" rx="1.5" ry="1.5" style="stroke:#038048;stroke-width:0.5;"/><text fill="#000000" font-family="sans-serif" font-size="7" lengthAdjust="spacing" textLength="103" x="1427" y="583.2354">InterviewApplicationDTOParser()</text><ellipse cx="1422.5" cy="590.3975" fill="#84BE84" rx="1.5" ry="1.5" style="stroke:#038048;stroke-width:0.5;"/><text fill="#000000" font-family="sans-serif" font-size="7" lengthAdjust="spacing" textLength="106.5" x="1427" y="592.5459">valueOf(interviewApplicationDTO)</text></g><!--class InterviewApplicationDTO--><g id="elem_InterviewApplicationDTO"><rect codeLine="204" fill="#F1F1F1" height="98.4844" id="InterviewApplicationDTO" rx="1.25" ry="1.25" style="stroke:#181818;stroke-width:0.25;" width="95" x="1298.25" y="280.75"/><ellipse cx="1306.65" cy="288.75" fill="#ADD1B2" rx="5.5" ry="5.5" style="stroke:#181818;stroke-width:0.5;"/><path d="M1308.0328,286.6875 Q1308.1109,286.5781 1308.2047,286.5234 Q1308.2984,286.4688 1308.4078,286.4688 Q1308.5953,286.4688 1308.7125,286.6016 Q1308.8297,286.7266 1308.8297,287.0313 L1308.8297,287.7578 Q1308.8297,288.0625 1308.7125,288.1953 Q1308.5953,288.3281 1308.4078,288.3281 Q1308.2359,288.3281 1308.1344,288.2266 Q1308.0328,288.1328 1307.9781,287.875 Q1307.9547,287.6953 1307.8609,287.6016 Q1307.6969,287.4141 1307.3922,287.3047 Q1307.0875,287.1953 1306.775,287.1953 Q1306.3922,287.1953 1306.0719,287.3594 Q1305.7594,287.5234 1305.5094,287.8984 Q1305.2672,288.2734 1305.2672,288.7891 L1305.2672,289.3359 Q1305.2672,289.9531 1305.7125,290.3672 Q1306.1578,290.7734 1306.9547,290.7734 Q1307.4234,290.7734 1307.7516,290.6484 Q1307.9469,290.5703 1308.1578,290.3516 Q1308.2906,290.2188 1308.3609,290.1797 Q1308.4391,290.1406 1308.5406,290.1406 Q1308.7047,290.1406 1308.8297,290.2734 Q1308.9625,290.3984 1308.9625,290.5703 Q1308.9625,290.7422 1308.7906,290.9453 Q1308.5406,291.2344 1308.1422,291.3984 Q1307.6031,291.625 1306.9547,291.625 Q1306.1969,291.625 1305.5953,291.3125 Q1305.1031,291.0625 1304.7594,290.5313 Q1304.4156,289.9922 1304.4156,289.3516 L1304.4156,288.7734 Q1304.4156,288.1094 1304.7203,287.5391 Q1305.0328,286.9609 1305.5797,286.6563 Q1306.1266,286.3438 1306.7438,286.3438 Q1307.1109,286.3438 1307.4313,286.4297 Q1307.7594,286.5078 1308.0328,286.6875 Z " fill="#000000"/><text fill="#000000" font-family="sans-serif" font-size="7" lengthAdjust="spacing" textLength="77" x="1313.85" y="291.6484">InterviewApplicationDTO</text><line style="stroke:#181818;stroke-width:0.25;" x1="1298.75" x2="1392.75" y1="296.75" y2="296.75"/><rect fill="none" height="3" style="stroke:#C82930;stroke-width:0.5;" width="3" x="1302.25" y="302.6553"/><text fill="#000000" font-family="sans-serif" font-size="7" lengthAdjust="spacing" textLength="49.5" x="1308.25" y="306.3037">jobApplicationId</text><rect fill="none" height="3" style="stroke:#C82930;stroke-width:0.5;" width="3" x="1302.25" y="311.9658"/><text fill="#000000" font-family="sans-serif" font-size="7" lengthAdjust="spacing" textLength="15" x="1308.25" y="315.6143">Date</text><rect fill="none" height="3" style="stroke:#C82930;stroke-width:0.5;" width="3" x="1302.25" y="321.2764"/><text fill="#000000" font-family="sans-serif" font-size="7" lengthAdjust="spacing" textLength="53" x="1308.25" y="324.9248">TimeScheaduled</text><rect fill="none" height="3" style="stroke:#C82930;stroke-width:0.5;" width="3" x="1302.25" y="330.5869"/><text fill="#000000" font-family="sans-serif" font-size="7" lengthAdjust="spacing" textLength="34" x="1308.25" y="334.2354">TimeSpent</text><rect fill="none" height="3" style="stroke:#C82930;stroke-width:0.5;" width="3" x="1302.25" y="339.8975"/><text fill="#000000" font-family="sans-serif" font-size="7" lengthAdjust="spacing" textLength="38" x="1308.25" y="343.5459">AnswersFile</text><rect fill="none" height="3" style="stroke:#C82930;stroke-width:0.5;" width="3" x="1302.25" y="349.208"/><text fill="#000000" font-family="sans-serif" font-size="7" lengthAdjust="spacing" textLength="20" x="1308.25" y="352.8564">Grade</text><rect fill="none" height="3" style="stroke:#C82930;stroke-width:0.5;" width="3" x="1302.25" y="358.5186"/><text fill="#000000" font-family="sans-serif" font-size="7" lengthAdjust="spacing" textLength="34" x="1308.25" y="362.167">Interviewer</text><line style="stroke:#181818;stroke-width:0.25;" x1="1298.75" x2="1392.75" y1="365.9238" y2="365.9238"/><ellipse cx="1303.75" cy="373.3291" fill="#84BE84" rx="1.5" ry="1.5" style="stroke:#038048;stroke-width:0.5;"/><text fill="#000000" font-family="sans-serif" font-size="7" lengthAdjust="spacing" textLength="82" x="1308.25" y="375.4775">InterviewApplicationDTO()</text></g><!--class JobOpeningDTOService--><g id="elem_JobOpeningDTOService"><rect codeLine="156" fill="#F1F1F1" height="51.9316" id="JobOpeningDTOService" rx="1.25" ry="1.25" style="stroke:#181818;stroke-width:0.25;" width="159.5" x="465" y="535"/><ellipse cx="504.375" cy="543" fill="#ADD1B2" rx="5.5" ry="5.5" style="stroke:#181818;stroke-width:0.5;"/><path d="M505.7578,540.9375 Q505.8359,540.8281 505.9297,540.7734 Q506.0234,540.7188 506.1328,540.7188 Q506.3203,540.7188 506.4375,540.8516 Q506.5547,540.9766 506.5547,541.2813 L506.5547,542.0078 Q506.5547,542.3125 506.4375,542.4453 Q506.3203,542.5781 506.1328,542.5781 Q505.9609,542.5781 505.8594,542.4766 Q505.7578,542.3828 505.7031,542.125 Q505.6797,541.9453 505.5859,541.8516 Q505.4219,541.6641 505.1172,541.5547 Q504.8125,541.4453 504.5,541.4453 Q504.1172,541.4453 503.7969,541.6094 Q503.4844,541.7734 503.2344,542.1484 Q502.9922,542.5234 502.9922,543.0391 L502.9922,543.5859 Q502.9922,544.2031 503.4375,544.6172 Q503.8828,545.0234 504.6797,545.0234 Q505.1484,545.0234 505.4766,544.8984 Q505.6719,544.8203 505.8828,544.6016 Q506.0156,544.4688 506.0859,544.4297 Q506.1641,544.3906 506.2656,544.3906 Q506.4297,544.3906 506.5547,544.5234 Q506.6875,544.6484 506.6875,544.8203 Q506.6875,544.9922 506.5156,545.1953 Q506.2656,545.4844 505.8672,545.6484 Q505.3281,545.875 504.6797,545.875 Q503.9219,545.875 503.3203,545.5625 Q502.8281,545.3125 502.4844,544.7813 Q502.1406,544.2422 502.1406,543.6016 L502.1406,543.0234 Q502.1406,542.3594 502.4453,541.7891 Q502.7578,541.2109 503.3047,540.9063 Q503.8516,540.5938 504.4688,540.5938 Q504.8359,540.5938 505.1563,540.6797 Q505.4844,540.7578 505.7578,540.9375 Z " fill="#000000"/><text fill="#000000" font-family="sans-serif" font-size="7" lengthAdjust="spacing" textLength="76.5" x="514.625" y="545.8984">JobOpeningDTOService</text><line style="stroke:#181818;stroke-width:0.25;" x1="465.5" x2="624" y1="551" y2="551"/><rect fill="none" height="3" style="stroke:#C82930;stroke-width:0.5;" width="3" x="469" y="556.9053"/><text fill="#000000" font-family="sans-serif" font-size="7" lengthAdjust="spacing" textLength="64" x="475" y="560.5537">authorizationService</text><rect fill="none" height="3" style="stroke:#C82930;stroke-width:0.5;" width="3" x="469" y="566.2158"/><text fill="#000000" font-family="sans-serif" font-size="7" lengthAdjust="spacing" textLength="70.5" x="475" y="569.8643">jobOpeningRepository</text><line style="stroke:#181818;stroke-width:0.25;" x1="465.5" x2="624" y1="573.6211" y2="573.6211"/><ellipse cx="470.5" cy="581.0264" fill="#84BE84" rx="1.5" ry="1.5" style="stroke:#038048;stroke-width:0.5;"/><text fill="#000000" font-family="sans-serif" font-size="7" lengthAdjust="spacing" textLength="146.5" x="475" y="583.1748">allJobOpeningsAssignedToMeAnalysisPhase()</text></g><!--class RepositoryFactory--><g id="elem_RepositoryFactory"><rect codeLine="163" fill="#F1F1F1" height="33.3105" id="RepositoryFactory" rx="1.25" ry="1.25" style="stroke:#181818;stroke-width:0.25;" width="76" x="1554.25" y="544.25"/><ellipse cx="1562.65" cy="552.25" fill="#ADD1B2" rx="5.5" ry="5.5" style="stroke:#181818;stroke-width:0.5;"/><path d="M1564.0328,550.1875 Q1564.1109,550.0781 1564.2047,550.0234 Q1564.2984,549.9688 1564.4078,549.9688 Q1564.5953,549.9688 1564.7125,550.1016 Q1564.8297,550.2266 1564.8297,550.5313 L1564.8297,551.2578 Q1564.8297,551.5625 1564.7125,551.6953 Q1564.5953,551.8281 1564.4078,551.8281 Q1564.2359,551.8281 1564.1344,551.7266 Q1564.0328,551.6328 1563.9781,551.375 Q1563.9547,551.1953 1563.8609,551.1016 Q1563.6969,550.9141 1563.3922,550.8047 Q1563.0875,550.6953 1562.775,550.6953 Q1562.3922,550.6953 1562.0719,550.8594 Q1561.7594,551.0234 1561.5094,551.3984 Q1561.2672,551.7734 1561.2672,552.2891 L1561.2672,552.8359 Q1561.2672,553.4531 1561.7125,553.8672 Q1562.1578,554.2734 1562.9547,554.2734 Q1563.4234,554.2734 1563.7516,554.1484 Q1563.9469,554.0703 1564.1578,553.8516 Q1564.2906,553.7188 1564.3609,553.6797 Q1564.4391,553.6406 1564.5406,553.6406 Q1564.7047,553.6406 1564.8297,553.7734 Q1564.9625,553.8984 1564.9625,554.0703 Q1564.9625,554.2422 1564.7906,554.4453 Q1564.5406,554.7344 1564.1422,554.8984 Q1563.6031,555.125 1562.9547,555.125 Q1562.1969,555.125 1561.5953,554.8125 Q1561.1031,554.5625 1560.7594,554.0313 Q1560.4156,553.4922 1560.4156,552.8516 L1560.4156,552.2734 Q1560.4156,551.6094 1560.7203,551.0391 Q1561.0328,550.4609 1561.5797,550.1563 Q1562.1266,549.8438 1562.7438,549.8438 Q1563.1109,549.8438 1563.4313,549.9297 Q1563.7594,550.0078 1564.0328,550.1875 Z " fill="#000000"/><text fill="#000000" font-family="sans-serif" font-size="7" lengthAdjust="spacing" textLength="58" x="1569.85" y="555.1484">RepositoryFactory</text><line style="stroke:#181818;stroke-width:0.25;" x1="1554.75" x2="1629.75" y1="560.25" y2="560.25"/><line style="stroke:#181818;stroke-width:0.25;" x1="1554.75" x2="1629.75" y1="564.25" y2="564.25"/><ellipse cx="1559.75" cy="571.6553" fill="#84BE84" rx="1.5" ry="1.5" style="stroke:#038048;stroke-width:0.5;"/><text fill="#000000" font-family="sans-serif" font-size="7" lengthAdjust="spacing" textLength="63" x="1564.25" y="573.8037">RepositoryFactory()</text></g><!--class PersistenceContext--><g id="elem_PersistenceContext"><rect codeLine="168" fill="#F1F1F1" height="33.3105" id="PersistenceContext" rx="1.25" ry="1.25" style="stroke:#181818;stroke-width:0.25;" width="77" x="1482.25" y="313.25"/><ellipse cx="1489.75" cy="321.25" fill="#ADD1B2" rx="5.5" ry="5.5" style="stroke:#181818;stroke-width:0.5;"/><path d="M1491.1328,319.1875 Q1491.2109,319.0781 1491.3047,319.0234 Q1491.3984,318.9688 1491.5078,318.9688 Q1491.6953,318.9688 1491.8125,319.1016 Q1491.9297,319.2266 1491.9297,319.5313 L1491.9297,320.2578 Q1491.9297,320.5625 1491.8125,320.6953 Q1491.6953,320.8281 1491.5078,320.8281 Q1491.3359,320.8281 1491.2344,320.7266 Q1491.1328,320.6328 1491.0781,320.375 Q1491.0547,320.1953 1490.9609,320.1016 Q1490.7969,319.9141 1490.4922,319.8047 Q1490.1875,319.6953 1489.875,319.6953 Q1489.4922,319.6953 1489.1719,319.8594 Q1488.8594,320.0234 1488.6094,320.3984 Q1488.3672,320.7734 1488.3672,321.2891 L1488.3672,321.8359 Q1488.3672,322.4531 1488.8125,322.8672 Q1489.2578,323.2734 1490.0547,323.2734 Q1490.5234,323.2734 1490.8516,323.1484 Q1491.0469,323.0703 1491.2578,322.8516 Q1491.3906,322.7188 1491.4609,322.6797 Q1491.5391,322.6406 1491.6406,322.6406 Q1491.8047,322.6406 1491.9297,322.7734 Q1492.0625,322.8984 1492.0625,323.0703 Q1492.0625,323.2422 1491.8906,323.4453 Q1491.6406,323.7344 1491.2422,323.8984 Q1490.7031,324.125 1490.0547,324.125 Q1489.2969,324.125 1488.6953,323.8125 Q1488.2031,323.5625 1487.8594,323.0313 Q1487.5156,322.4922 1487.5156,321.8516 L1487.5156,321.2734 Q1487.5156,320.6094 1487.8203,320.0391 Q1488.1328,319.4609 1488.6797,319.1563 Q1489.2266,318.8438 1489.8438,318.8438 Q1490.2109,318.8438 1490.5313,318.9297 Q1490.8594,319.0078 1491.1328,319.1875 Z " fill="#000000"/><text fill="#000000" font-family="sans-serif" font-size="7" lengthAdjust="spacing" textLength="61" x="1496.75" y="324.1484">PersistenceContext</text><line style="stroke:#181818;stroke-width:0.25;" x1="1482.75" x2="1558.75" y1="329.25" y2="329.25"/><line style="stroke:#181818;stroke-width:0.25;" x1="1482.75" x2="1558.75" y1="333.25" y2="333.25"/><rect fill="#F24D5C" height="3" style="stroke:#C82930;stroke-width:0.5;" width="3" x="1486.25" y="339.1553"/><text fill="#000000" font-family="sans-serif" font-size="7" lengthAdjust="spacing" textLength="42" x="1492.25" y="342.8037">repositories()</text></g><!--class JobApplicationRepository--><g id="elem_JobApplicationRepository"><rect codeLine="173" fill="#F1F1F1" height="33.3105" id="JobApplicationRepository" rx="1.25" ry="1.25" style="stroke:#181818;stroke-width:0.25;" width="234" x="1908.25" y="747.25"/><ellipse cx="1983.125" cy="755.25" fill="#B4A7E5" rx="5.5" ry="5.5" style="stroke:#181818;stroke-width:0.5;"/><path d="M1983.6016,753.5703 L1983.6016,756.8984 L1984.4609,756.8984 Q1984.7656,756.8984 1984.8984,757.0156 Q1985.0313,757.1328 1985.0313,757.3281 Q1985.0313,757.5156 1984.8984,757.6328 Q1984.7656,757.75 1984.4609,757.75 L1981.8906,757.75 Q1981.5859,757.75 1981.4531,757.6328 Q1981.3203,757.5156 1981.3203,757.3203 Q1981.3203,757.1328 1981.4531,757.0156 Q1981.5859,756.8984 1981.8906,756.8984 L1982.75,756.8984 L1982.75,753.5703 L1981.8906,753.5703 Q1981.5859,753.5703 1981.4531,753.4531 Q1981.3203,753.3359 1981.3203,753.1406 Q1981.3203,752.9531 1981.4531,752.8359 Q1981.5859,752.7188 1981.8906,752.7188 L1984.4609,752.7188 Q1984.7656,752.7188 1984.8984,752.8359 Q1985.0313,752.9531 1985.0313,753.1406 Q1985.0313,753.3359 1984.8984,753.4531 Q1984.7656,753.5703 1984.4609,753.5703 L1983.6016,753.5703 Z " fill="#000000"/><text fill="#000000" font-family="sans-serif" font-size="7" font-style="italic" lengthAdjust="spacing" textLength="80" x="1993.375" y="758.1484">JobApplicationRepository</text><line style="stroke:#181818;stroke-width:0.25;" x1="1908.75" x2="2141.75" y1="763.25" y2="763.25"/><line style="stroke:#181818;stroke-width:0.25;" x1="1908.75" x2="2141.75" y1="767.25" y2="767.25"/><ellipse cx="1913.75" cy="774.6553" fill="#84BE84" rx="1.5" ry="1.5" style="stroke:#038048;stroke-width:0.5;"/><text fill="#000000" font-family="sans-serif" font-size="7" lengthAdjust="spacing" textLength="221" x="1918.25" y="776.8037">findJobApplicationsAfterScreeningResultByJobReference(jobOpening)</text></g><!--class InterviewApplicationRepository--><g id="elem_InterviewApplicationRepository"><rect codeLine="176" fill="#F1F1F1" height="33.3105" id="InterviewApplicationRepository" rx="1.25" ry="1.25" style="stroke:#181818;stroke-width:0.25;" width="159" x="1117.25" y="747.25"/><ellipse cx="1146.625" cy="755.25" fill="#B4A7E5" rx="5.5" ry="5.5" style="stroke:#181818;stroke-width:0.5;"/><path d="M1147.1016,753.5703 L1147.1016,756.8984 L1147.9609,756.8984 Q1148.2656,756.8984 1148.3984,757.0156 Q1148.5313,757.1328 1148.5313,757.3281 Q1148.5313,757.5156 1148.3984,757.6328 Q1148.2656,757.75 1147.9609,757.75 L1145.3906,757.75 Q1145.0859,757.75 1144.9531,757.6328 Q1144.8203,757.5156 1144.8203,757.3203 Q1144.8203,757.1328 1144.9531,757.0156 Q1145.0859,756.8984 1145.3906,756.8984 L1146.25,756.8984 L1146.25,753.5703 L1145.3906,753.5703 Q1145.0859,753.5703 1144.9531,753.4531 Q1144.8203,753.3359 1144.8203,753.1406 Q1144.8203,752.9531 1144.9531,752.8359 Q1145.0859,752.7188 1145.3906,752.7188 L1147.9609,752.7188 Q1148.2656,752.7188 1148.3984,752.8359 Q1148.5313,752.9531 1148.5313,753.1406 Q1148.5313,753.3359 1148.3984,753.4531 Q1148.2656,753.5703 1147.9609,753.5703 L1147.1016,753.5703 Z " fill="#000000"/><text fill="#000000" font-family="sans-serif" font-size="7" font-style="italic" lengthAdjust="spacing" textLength="96" x="1156.875" y="758.1484">InterviewApplicationRepository</text><line style="stroke:#181818;stroke-width:0.25;" x1="1117.75" x2="1275.75" y1="763.25" y2="763.25"/><line style="stroke:#181818;stroke-width:0.25;" x1="1117.75" x2="1275.75" y1="767.25" y2="767.25"/><ellipse cx="1122.75" cy="774.6553" fill="#84BE84" rx="1.5" ry="1.5" style="stroke:#038048;stroke-width:0.5;"/><text fill="#000000" font-family="sans-serif" font-size="7" lengthAdjust="spacing" textLength="146" x="1127.25" y="776.8037">save(InterviewApplication interviewApplication)</text></g><!--class InMemoryInterviewApplicationRepository--><g id="elem_InMemoryInterviewApplicationRepository"><rect codeLine="179" fill="#F1F1F1" height="33.3105" id="InMemoryInterviewApplicationRepository" rx="1.25" ry="1.25" style="stroke:#181818;stroke-width:0.25;" width="159" x="940.75" y="852.5"/><ellipse cx="955.675" cy="860.5" fill="#ADD1B2" rx="5.5" ry="5.5" style="stroke:#181818;stroke-width:0.5;"/><path d="M957.0578,858.4375 Q957.1359,858.3281 957.2297,858.2734 Q957.3234,858.2188 957.4328,858.2188 Q957.6203,858.2188 957.7375,858.3516 Q957.8547,858.4766 957.8547,858.7813 L957.8547,859.5078 Q957.8547,859.8125 957.7375,859.9453 Q957.6203,860.0781 957.4328,860.0781 Q957.2609,860.0781 957.1594,859.9766 Q957.0578,859.8828 957.0031,859.625 Q956.9797,859.4453 956.8859,859.3516 Q956.7219,859.1641 956.4172,859.0547 Q956.1125,858.9453 955.8,858.9453 Q955.4172,858.9453 955.0969,859.1094 Q954.7844,859.2734 954.5344,859.6484 Q954.2922,860.0234 954.2922,860.5391 L954.2922,861.0859 Q954.2922,861.7031 954.7375,862.1172 Q955.1828,862.5234 955.9797,862.5234 Q956.4484,862.5234 956.7766,862.3984 Q956.9719,862.3203 957.1828,862.1016 Q957.3156,861.9688 957.3859,861.9297 Q957.4641,861.8906 957.5656,861.8906 Q957.7297,861.8906 957.8547,862.0234 Q957.9875,862.1484 957.9875,862.3203 Q957.9875,862.4922 957.8156,862.6953 Q957.5656,862.9844 957.1672,863.1484 Q956.6281,863.375 955.9797,863.375 Q955.2219,863.375 954.6203,863.0625 Q954.1281,862.8125 953.7844,862.2813 Q953.4406,861.7422 953.4406,861.1016 L953.4406,860.5234 Q953.4406,859.8594 953.7453,859.2891 Q954.0578,858.7109 954.6047,858.4063 Q955.1516,858.0938 955.7688,858.0938 Q956.1359,858.0938 956.4563,858.1797 Q956.7844,858.2578 957.0578,858.4375 Z " fill="#000000"/><text fill="#000000" font-family="sans-serif" font-size="7" lengthAdjust="spacing" textLength="126.5" x="964.325" y="863.3984">InMemoryInterviewApplicationRepository</text><line style="stroke:#181818;stroke-width:0.25;" x1="941.25" x2="1099.25" y1="868.5" y2="868.5"/><line style="stroke:#181818;stroke-width:0.25;" x1="941.25" x2="1099.25" y1="872.5" y2="872.5"/><ellipse cx="946.25" cy="879.9053" fill="#84BE84" rx="1.5" ry="1.5" style="stroke:#038048;stroke-width:0.5;"/><text fill="#000000" font-family="sans-serif" font-size="7" lengthAdjust="spacing" textLength="146" x="950.75" y="882.0537">save(InterviewApplication interviewApplication)</text></g><!--class InMemoryJobApplicationRepository--><g id="elem_InMemoryJobApplicationRepository"><rect codeLine="182" fill="#F1F1F1" height="33.3105" id="InMemoryJobApplicationRepository" rx="1.25" ry="1.25" style="stroke:#181818;stroke-width:0.25;" width="234" x="1908.25" y="852.5"/><ellipse cx="1968.125" cy="860.5" fill="#ADD1B2" rx="5.5" ry="5.5" style="stroke:#181818;stroke-width:0.5;"/><path d="M1969.5078,858.4375 Q1969.5859,858.3281 1969.6797,858.2734 Q1969.7734,858.2188 1969.8828,858.2188 Q1970.0703,858.2188 1970.1875,858.3516 Q1970.3047,858.4766 1970.3047,858.7813 L1970.3047,859.5078 Q1970.3047,859.8125 1970.1875,859.9453 Q1970.0703,860.0781 1969.8828,860.0781 Q1969.7109,860.0781 1969.6094,859.9766 Q1969.5078,859.8828 1969.4531,859.625 Q1969.4297,859.4453 1969.3359,859.3516 Q1969.1719,859.1641 1968.8672,859.0547 Q1968.5625,858.9453 1968.25,858.9453 Q1967.8672,858.9453 1967.5469,859.1094 Q1967.2344,859.2734 1966.9844,859.6484 Q1966.7422,860.0234 1966.7422,860.5391 L1966.7422,861.0859 Q1966.7422,861.7031 1967.1875,862.1172 Q1967.6328,862.5234 1968.4297,862.5234 Q1968.8984,862.5234 1969.2266,862.3984 Q1969.4219,862.3203 1969.6328,862.1016 Q1969.7656,861.9688 1969.8359,861.9297 Q1969.9141,861.8906 1970.0156,861.8906 Q1970.1797,861.8906 1970.3047,862.0234 Q1970.4375,862.1484 1970.4375,862.3203 Q1970.4375,862.4922 1970.2656,862.6953 Q1970.0156,862.9844 1969.6172,863.1484 Q1969.0781,863.375 1968.4297,863.375 Q1967.6719,863.375 1967.0703,863.0625 Q1966.5781,862.8125 1966.2344,862.2813 Q1965.8906,861.7422 1965.8906,861.1016 L1965.8906,860.5234 Q1965.8906,859.8594 1966.1953,859.2891 Q1966.5078,858.7109 1967.0547,858.4063 Q1967.6016,858.0938 1968.2188,858.0938 Q1968.5859,858.0938 1968.9063,858.1797 Q1969.2344,858.2578 1969.5078,858.4375 Z " fill="#000000"/><text fill="#000000" font-family="sans-serif" font-size="7" lengthAdjust="spacing" textLength="110" x="1978.375" y="863.3984">InMemoryJobApplicationRepository</text><line style="stroke:#181818;stroke-width:0.25;" x1="1908.75" x2="2141.75" y1="868.5" y2="868.5"/><line style="stroke:#181818;stroke-width:0.25;" x1="1908.75" x2="2141.75" y1="872.5" y2="872.5"/><ellipse cx="1913.75" cy="879.9053" fill="#84BE84" rx="1.5" ry="1.5" style="stroke:#038048;stroke-width:0.5;"/><text fill="#000000" font-family="sans-serif" font-size="7" lengthAdjust="spacing" textLength="221" x="1918.25" y="882.0537">findJobApplicationsAfterScreeningResultByJobReference(jobOpening)</text></g><!--class JpaInterviewApplicationRepository--><g id="elem_JpaInterviewApplicationRepository"><rect codeLine="185" fill="#F1F1F1" height="33.3105" id="JpaInterviewApplicationRepository" rx="1.25" ry="1.25" style="stroke:#181818;stroke-width:0.25;" width="159" x="1117.25" y="852.5"/><ellipse cx="1141.125" cy="860.5" fill="#ADD1B2" rx="5.5" ry="5.5" style="stroke:#181818;stroke-width:0.5;"/><path d="M1142.5078,858.4375 Q1142.5859,858.3281 1142.6797,858.2734 Q1142.7734,858.2188 1142.8828,858.2188 Q1143.0703,858.2188 1143.1875,858.3516 Q1143.3047,858.4766 1143.3047,858.7813 L1143.3047,859.5078 Q1143.3047,859.8125 1143.1875,859.9453 Q1143.0703,860.0781 1142.8828,860.0781 Q1142.7109,860.0781 1142.6094,859.9766 Q1142.5078,859.8828 1142.4531,859.625 Q1142.4297,859.4453 1142.3359,859.3516 Q1142.1719,859.1641 1141.8672,859.0547 Q1141.5625,858.9453 1141.25,858.9453 Q1140.8672,858.9453 1140.5469,859.1094 Q1140.2344,859.2734 1139.9844,859.6484 Q1139.7422,860.0234 1139.7422,860.5391 L1139.7422,861.0859 Q1139.7422,861.7031 1140.1875,862.1172 Q1140.6328,862.5234 1141.4297,862.5234 Q1141.8984,862.5234 1142.2266,862.3984 Q1142.4219,862.3203 1142.6328,862.1016 Q1142.7656,861.9688 1142.8359,861.9297 Q1142.9141,861.8906 1143.0156,861.8906 Q1143.1797,861.8906 1143.3047,862.0234 Q1143.4375,862.1484 1143.4375,862.3203 Q1143.4375,862.4922 1143.2656,862.6953 Q1143.0156,862.9844 1142.6172,863.1484 Q1142.0781,863.375 1141.4297,863.375 Q1140.6719,863.375 1140.0703,863.0625 Q1139.5781,862.8125 1139.2344,862.2813 Q1138.8906,861.7422 1138.8906,861.1016 L1138.8906,860.5234 Q1138.8906,859.8594 1139.1953,859.2891 Q1139.5078,858.7109 1140.0547,858.4063 Q1140.6016,858.0938 1141.2188,858.0938 Q1141.5859,858.0938 1141.9063,858.1797 Q1142.2344,858.2578 1142.5078,858.4375 Z " fill="#000000"/><text fill="#000000" font-family="sans-serif" font-size="7" lengthAdjust="spacing" textLength="107" x="1151.375" y="863.3984">JpaInterviewApplicationRepository</text><line style="stroke:#181818;stroke-width:0.25;" x1="1117.75" x2="1275.75" y1="868.5" y2="868.5"/><line style="stroke:#181818;stroke-width:0.25;" x1="1117.75" x2="1275.75" y1="872.5" y2="872.5"/><ellipse cx="1122.75" cy="879.9053" fill="#84BE84" rx="1.5" ry="1.5" style="stroke:#038048;stroke-width:0.5;"/><text fill="#000000" font-family="sans-serif" font-size="7" lengthAdjust="spacing" textLength="146" x="1127.25" y="882.0537">save(InterviewApplication interviewApplication)</text></g><!--class JpaJobApplicationRepository--><g id="elem_JpaJobApplicationRepository"><rect codeLine="188" fill="#F1F1F1" height="33.3105" id="JpaJobApplicationRepository" rx="1.25" ry="1.25" style="stroke:#181818;stroke-width:0.25;" width="234" x="2159.75" y="852.5"/><ellipse cx="2229.375" cy="860.5" fill="#ADD1B2" rx="5.5" ry="5.5" style="stroke:#181818;stroke-width:0.5;"/><path d="M2230.7578,858.4375 Q2230.8359,858.3281 2230.9297,858.2734 Q2231.0234,858.2188 2231.1328,858.2188 Q2231.3203,858.2188 2231.4375,858.3516 Q2231.5547,858.4766 2231.5547,858.7813 L2231.5547,859.5078 Q2231.5547,859.8125 2231.4375,859.9453 Q2231.3203,860.0781 2231.1328,860.0781 Q2230.9609,860.0781 2230.8594,859.9766 Q2230.7578,859.8828 2230.7031,859.625 Q2230.6797,859.4453 2230.5859,859.3516 Q2230.4219,859.1641 2230.1172,859.0547 Q2229.8125,858.9453 2229.5,858.9453 Q2229.1172,858.9453 2228.7969,859.1094 Q2228.4844,859.2734 2228.2344,859.6484 Q2227.9922,860.0234 2227.9922,860.5391 L2227.9922,861.0859 Q2227.9922,861.7031 2228.4375,862.1172 Q2228.8828,862.5234 2229.6797,862.5234 Q2230.1484,862.5234 2230.4766,862.3984 Q2230.6719,862.3203 2230.8828,862.1016 Q2231.0156,861.9688 2231.0859,861.9297 Q2231.1641,861.8906 2231.2656,861.8906 Q2231.4297,861.8906 2231.5547,862.0234 Q2231.6875,862.1484 2231.6875,862.3203 Q2231.6875,862.4922 2231.5156,862.6953 Q2231.2656,862.9844 2230.8672,863.1484 Q2230.3281,863.375 2229.6797,863.375 Q2228.9219,863.375 2228.3203,863.0625 Q2227.8281,862.8125 2227.4844,862.2813 Q2227.1406,861.7422 2227.1406,861.1016 L2227.1406,860.5234 Q2227.1406,859.8594 2227.4453,859.2891 Q2227.7578,858.7109 2228.3047,858.4063 Q2228.8516,858.0938 2229.4688,858.0938 Q2229.8359,858.0938 2230.1563,858.1797 Q2230.4844,858.2578 2230.7578,858.4375 Z " fill="#000000"/><text fill="#000000" font-family="sans-serif" font-size="7" lengthAdjust="spacing" textLength="90.5" x="2239.625" y="863.3984">JpaJobApplicationRepository</text><line style="stroke:#181818;stroke-width:0.25;" x1="2160.25" x2="2393.25" y1="868.5" y2="868.5"/><line style="stroke:#181818;stroke-width:0.25;" x1="2160.25" x2="2393.25" y1="872.5" y2="872.5"/><ellipse cx="2165.25" cy="879.9053" fill="#84BE84" rx="1.5" ry="1.5" style="stroke:#038048;stroke-width:0.5;"/><text fill="#000000" font-family="sans-serif" font-size="7" lengthAdjust="spacing" textLength="221" x="2169.75" y="882.0537">findJobApplicationsAfterScreeningResultByJobReference(jobOpening)</text></g><!--class JobOpeningRepository--><g id="elem_JobOpeningRepository"><rect codeLine="191" fill="#F1F1F1" height="33.3105" id="JobOpeningRepository" rx="1.25" ry="1.25" style="stroke:#181818;stroke-width:0.25;" width="289.5" x="1447.5" y="747.25"/><ellipse cx="1553.875" cy="755.25" fill="#B4A7E5" rx="5.5" ry="5.5" style="stroke:#181818;stroke-width:0.5;"/><path d="M1554.3516,753.5703 L1554.3516,756.8984 L1555.2109,756.8984 Q1555.5156,756.8984 1555.6484,757.0156 Q1555.7813,757.1328 1555.7813,757.3281 Q1555.7813,757.5156 1555.6484,757.6328 Q1555.5156,757.75 1555.2109,757.75 L1552.6406,757.75 Q1552.3359,757.75 1552.2031,757.6328 Q1552.0703,757.5156 1552.0703,757.3203 Q1552.0703,757.1328 1552.2031,757.0156 Q1552.3359,756.8984 1552.6406,756.8984 L1553.5,756.8984 L1553.5,753.5703 L1552.6406,753.5703 Q1552.3359,753.5703 1552.2031,753.4531 Q1552.0703,753.3359 1552.0703,753.1406 Q1552.0703,752.9531 1552.2031,752.8359 Q1552.3359,752.7188 1552.6406,752.7188 L1555.2109,752.7188 Q1555.5156,752.7188 1555.6484,752.8359 Q1555.7813,752.9531 1555.7813,753.1406 Q1555.7813,753.3359 1555.6484,753.4531 Q1555.5156,753.5703 1555.2109,753.5703 L1554.3516,753.5703 Z " fill="#000000"/><text fill="#000000" font-family="sans-serif" font-size="7" font-style="italic" lengthAdjust="spacing" textLength="72.5" x="1564.125" y="758.1484">JobOpeningRepository</text><line style="stroke:#181818;stroke-width:0.25;" x1="1448" x2="1736.5" y1="763.25" y2="763.25"/><line style="stroke:#181818;stroke-width:0.25;" x1="1448" x2="1736.5" y1="767.25" y2="767.25"/><ellipse cx="1453" cy="774.6553" fill="#84BE84" rx="1.5" ry="1.5" style="stroke:#038048;stroke-width:0.5;"/><text fill="#000000" font-family="sans-serif" font-size="7" lengthAdjust="spacing" textLength="276.5" x="1457.5" y="776.8037">findJobOpeningsWithInterviewAssignedToMeInScreeningOrInterviewPhase(currentUser)</text></g><!--class InMemoryJobOpeningRepository--><g id="elem_InMemoryJobOpeningRepository"><rect codeLine="195" fill="#F1F1F1" height="33.3105" id="InMemoryJobOpeningRepository" rx="1.25" ry="1.25" style="stroke:#181818;stroke-width:0.25;" width="289.5" x="1294" y="852.5"/><ellipse cx="1385.375" cy="860.5" fill="#ADD1B2" rx="5.5" ry="5.5" style="stroke:#181818;stroke-width:0.5;"/><path d="M1386.7578,858.4375 Q1386.8359,858.3281 1386.9297,858.2734 Q1387.0234,858.2188 1387.1328,858.2188 Q1387.3203,858.2188 1387.4375,858.3516 Q1387.5547,858.4766 1387.5547,858.7813 L1387.5547,859.5078 Q1387.5547,859.8125 1387.4375,859.9453 Q1387.3203,860.0781 1387.1328,860.0781 Q1386.9609,860.0781 1386.8594,859.9766 Q1386.7578,859.8828 1386.7031,859.625 Q1386.6797,859.4453 1386.5859,859.3516 Q1386.4219,859.1641 1386.1172,859.0547 Q1385.8125,858.9453 1385.5,858.9453 Q1385.1172,858.9453 1384.7969,859.1094 Q1384.4844,859.2734 1384.2344,859.6484 Q1383.9922,860.0234 1383.9922,860.5391 L1383.9922,861.0859 Q1383.9922,861.7031 1384.4375,862.1172 Q1384.8828,862.5234 1385.6797,862.5234 Q1386.1484,862.5234 1386.4766,862.3984 Q1386.6719,862.3203 1386.8828,862.1016 Q1387.0156,861.9688 1387.0859,861.9297 Q1387.1641,861.8906 1387.2656,861.8906 Q1387.4297,861.8906 1387.5547,862.0234 Q1387.6875,862.1484 1387.6875,862.3203 Q1387.6875,862.4922 1387.5156,862.6953 Q1387.2656,862.9844 1386.8672,863.1484 Q1386.3281,863.375 1385.6797,863.375 Q1384.9219,863.375 1384.3203,863.0625 Q1383.8281,862.8125 1383.4844,862.2813 Q1383.1406,861.7422 1383.1406,861.1016 L1383.1406,860.5234 Q1383.1406,859.8594 1383.4453,859.2891 Q1383.7578,858.7109 1384.3047,858.4063 Q1384.8516,858.0938 1385.4688,858.0938 Q1385.8359,858.0938 1386.1563,858.1797 Q1386.4844,858.2578 1386.7578,858.4375 Z " fill="#000000"/><text fill="#000000" font-family="sans-serif" font-size="7" lengthAdjust="spacing" textLength="102.5" x="1395.625" y="863.3984">InMemoryJobOpeningRepository</text><line style="stroke:#181818;stroke-width:0.25;" x1="1294.5" x2="1583" y1="868.5" y2="868.5"/><line style="stroke:#181818;stroke-width:0.25;" x1="1294.5" x2="1583" y1="872.5" y2="872.5"/><ellipse cx="1299.5" cy="879.9053" fill="#84BE84" rx="1.5" ry="1.5" style="stroke:#038048;stroke-width:0.5;"/><text fill="#000000" font-family="sans-serif" font-size="7" lengthAdjust="spacing" textLength="276.5" x="1304" y="882.0537">findJobOpeningsWithInterviewAssignedToMeInScreeningOrInterviewPhase(currentUser)</text></g><!--class JpaJobOpeningRepository--><g id="elem_JpaJobOpeningRepository"><rect codeLine="199" fill="#F1F1F1" height="33.3105" id="JpaJobOpeningRepository" rx="1.25" ry="1.25" style="stroke:#181818;stroke-width:0.25;" width="289.5" x="1601" y="852.5"/><ellipse cx="1702.125" cy="860.5" fill="#ADD1B2" rx="5.5" ry="5.5" style="stroke:#181818;stroke-width:0.5;"/><path d="M1703.5078,858.4375 Q1703.5859,858.3281 1703.6797,858.2734 Q1703.7734,858.2188 1703.8828,858.2188 Q1704.0703,858.2188 1704.1875,858.3516 Q1704.3047,858.4766 1704.3047,858.7813 L1704.3047,859.5078 Q1704.3047,859.8125 1704.1875,859.9453 Q1704.0703,860.0781 1703.8828,860.0781 Q1703.7109,860.0781 1703.6094,859.9766 Q1703.5078,859.8828 1703.4531,859.625 Q1703.4297,859.4453 1703.3359,859.3516 Q1703.1719,859.1641 1702.8672,859.0547 Q1702.5625,858.9453 1702.25,858.9453 Q1701.8672,858.9453 1701.5469,859.1094 Q1701.2344,859.2734 1700.9844,859.6484 Q1700.7422,860.0234 1700.7422,860.5391 L1700.7422,861.0859 Q1700.7422,861.7031 1701.1875,862.1172 Q1701.6328,862.5234 1702.4297,862.5234 Q1702.8984,862.5234 1703.2266,862.3984 Q1703.4219,862.3203 1703.6328,862.1016 Q1703.7656,861.9688 1703.8359,861.9297 Q1703.9141,861.8906 1704.0156,861.8906 Q1704.1797,861.8906 1704.3047,862.0234 Q1704.4375,862.1484 1704.4375,862.3203 Q1704.4375,862.4922 1704.2656,862.6953 Q1704.0156,862.9844 1703.6172,863.1484 Q1703.0781,863.375 1702.4297,863.375 Q1701.6719,863.375 1701.0703,863.0625 Q1700.5781,862.8125 1700.2344,862.2813 Q1699.8906,861.7422 1699.8906,861.1016 L1699.8906,860.5234 Q1699.8906,859.8594 1700.1953,859.2891 Q1700.5078,858.7109 1701.0547,858.4063 Q1701.6016,858.0938 1702.2188,858.0938 Q1702.5859,858.0938 1702.9063,858.1797 Q1703.2344,858.2578 1703.5078,858.4375 Z " fill="#000000"/><text fill="#000000" font-family="sans-serif" font-size="7" lengthAdjust="spacing" textLength="83" x="1712.375" y="863.3984">JpaJobOpeningRepository</text><line style="stroke:#181818;stroke-width:0.25;" x1="1601.5" x2="1890" y1="868.5" y2="868.5"/><line style="stroke:#181818;stroke-width:0.25;" x1="1601.5" x2="1890" y1="872.5" y2="872.5"/><ellipse cx="1606.5" cy="879.9053" fill="#84BE84" rx="1.5" ry="1.5" style="stroke:#038048;stroke-width:0.5;"/><text fill="#000000" font-family="sans-serif" font-size="7" lengthAdjust="spacing" textLength="276.5" x="1611" y="882.0537">findJobOpeningsWithInterviewAssignedToMeInScreeningOrInterviewPhase(currentUser)</text></g><!--class AuthorizationService--><g id="elem_AuthorizationService"><rect codeLine="217" fill="#F1F1F1" height="61.2422" id="AuthorizationService" rx="1.25" ry="1.25" style="stroke:#181818;stroke-width:0.25;" width="392" x="642.25" y="530.5"/><ellipse cx="803.875" cy="538.5" fill="#ADD1B2" rx="5.5" ry="5.5" style="stroke:#181818;stroke-width:0.5;"/><path d="M805.2578,536.4375 Q805.3359,536.3281 805.4297,536.2734 Q805.5234,536.2188 805.6328,536.2188 Q805.8203,536.2188 805.9375,536.3516 Q806.0547,536.4766 806.0547,536.7813 L806.0547,537.5078 Q806.0547,537.8125 805.9375,537.9453 Q805.8203,538.0781 805.6328,538.0781 Q805.4609,538.0781 805.3594,537.9766 Q805.2578,537.8828 805.2031,537.625 Q805.1797,537.4453 805.0859,537.3516 Q804.9219,537.1641 804.6172,537.0547 Q804.3125,536.9453 804,536.9453 Q803.6172,536.9453 803.2969,537.1094 Q802.9844,537.2734 802.7344,537.6484 Q802.4922,538.0234 802.4922,538.5391 L802.4922,539.0859 Q802.4922,539.7031 802.9375,540.1172 Q803.3828,540.5234 804.1797,540.5234 Q804.6484,540.5234 804.9766,540.3984 Q805.1719,540.3203 805.3828,540.1016 Q805.5156,539.9688 805.5859,539.9297 Q805.6641,539.8906 805.7656,539.8906 Q805.9297,539.8906 806.0547,540.0234 Q806.1875,540.1484 806.1875,540.3203 Q806.1875,540.4922 806.0156,540.6953 Q805.7656,540.9844 805.3672,541.1484 Q804.8281,541.375 804.1797,541.375 Q803.4219,541.375 802.8203,541.0625 Q802.3281,540.8125 801.9844,540.2813 Q801.6406,539.7422 801.6406,539.1016 L801.6406,538.5234 Q801.6406,537.8594 801.9453,537.2891 Q802.2578,536.7109 802.8047,536.4063 Q803.3516,536.0938 803.9688,536.0938 Q804.3359,536.0938 804.6563,536.1797 Q804.9844,536.2578 805.2578,536.4375 Z " fill="#000000"/><text fill="#000000" font-family="sans-serif" font-size="7" lengthAdjust="spacing" textLength="64.5" x="814.125" y="541.3984">AuthorizationService</text><line style="stroke:#181818;stroke-width:0.25;" x1="642.75" x2="1033.75" y1="546.5" y2="546.5"/><rect fill="none" height="3" style="stroke:#C82930;stroke-width:0.5;" width="3" x="646.25" y="552.4053"/><text fill="#000000" font-family="sans-serif" font-size="7" lengthAdjust="spacing" textLength="30" x="652.25" y="556.0537">LOGGER</text><rect fill="none" height="3" style="stroke:#C82930;stroke-width:0.5;" width="3" x="646.25" y="561.7158"/><text fill="#000000" font-family="sans-serif" font-size="7" lengthAdjust="spacing" textLength="35" x="652.25" y="565.3643">theSession</text><line style="stroke:#181818;stroke-width:0.25;" x1="642.75" x2="1033.75" y1="569.1211" y2="569.1211"/><ellipse cx="647.75" cy="576.5264" fill="#84BE84" rx="1.5" ry="1.5" style="stroke:#038048;stroke-width:0.5;"/><text fill="#000000" font-family="sans-serif" font-size="7" lengthAdjust="spacing" textLength="110" x="652.25" y="578.6748">isAuthenticatedUserAuthorizedTo()</text><ellipse cx="647.75" cy="585.8369" fill="#84BE84" rx="1.5" ry="1.5" style="stroke:#038048;stroke-width:0.5;"/><text fill="#000000" font-family="sans-serif" font-size="7" lengthAdjust="spacing" textLength="379" x="652.25" y="587.9854">ensureAuthenticatedUserHasAnyOf(BaseRoles.POWER_USER, BaseRoles.ADMIN, BaseRoles.CUSTOMER_MANAGER)</text></g><!--reverse link JobApplicationDTO to ScheaduleInterviewController--><g id="link_JobApplicationDTO_ScheaduleInterviewController"><path codeLine="39" d="M935.1571,160.4939 C926.8821,178.2389 918.39,195.605 908.75,213.5 C898.41,232.69 886.335,253.155 875.135,271.475 " fill="none" id="JobApplicationDTO-backto-ScheaduleInterviewController" style="stroke:#181818;stroke-width:0.5;"/><polygon fill="#181818" points="936.425,157.775,932.7105,161.0081,935.3684,160.0408,936.3357,162.6986,936.425,157.775" style="stroke:#181818;stroke-width:0.5;"/></g><!--reverse link JobApplication to ScheaduleInterviewController--><g id="link_JobApplication_ScheaduleInterviewController"><path codeLine="40" d="M776.8692,216.2377 C787.6542,236.1427 797.15,253.66 806.795,271.455 " fill="none" id="JobApplication-backto-ScheaduleInterviewController" style="stroke:#181818;stroke-width:0.5;"/><polygon fill="#181818" points="775.44,213.6,775.8253,218.5093,776.631,215.7981,779.3422,216.6038,775.44,213.6" style="stroke:#181818;stroke-width:0.5;"/></g><!--reverse link InterviewApplicationBuilder to ScheaduleInterviewController--><g id="link_InterviewApplicationBuilder_ScheaduleInterviewController"><path codeLine="54" d="M511.79,330 C517.585,330 520.375,330 526.165,330 " fill="none" id="InterviewApplicationBuilder-backto-ScheaduleInterviewController" style="stroke:#181818;stroke-width:0.5;"/><polygon fill="#181818" points="508.79,330,513.29,332,511.29,330,513.29,328,508.79,330" style="stroke:#181818;stroke-width:0.5;"/></g><!--link ScheaduleInterviewController to InterviewApplication--><g id="link_ScheaduleInterviewController_InterviewApplication"><path codeLine="55" d="M942.5,388.54 C974.795,406.815 1010.385,427.25 1042.75,446.5 C1077.895,467.405 1113.8342,489.6349 1146.3992,510.0799 " fill="none" id="ScheaduleInterviewController-to-InterviewApplication" style="stroke:#181818;stroke-width:0.5;"/><polygon fill="#181818" points="1148.94,511.675,1146.1923,507.5884,1146.8227,510.3457,1144.0654,510.9761,1148.94,511.675" style="stroke:#181818;stroke-width:0.5;"/></g><!--link ScheaduleInterviewController to JobOpening--><g id="link_ScheaduleInterviewController_JobOpening"><path codeLine="125" d="M645.415,388.555 C603.49,399.375 559.145,409.475 517.25,416.5 C423.985,432.14 169.845,391.73 92.75,446.5 C89.675,448.685 88.9539,449.0169 86.2489,451.6269 " fill="none" id="ScheaduleInterviewController-to-JobOpening" style="stroke:#181818;stroke-width:0.5;"/><polygon fill="#181818" points="84.09,453.71,88.7171,452.0247,85.8891,451.9741,85.9396,449.1461,84.09,453.71" style="stroke:#181818;stroke-width:0.5;"/></g><!--link ScheaduleInterviewController to JobOpeningDTOParser--><g id="link_ScheaduleInterviewController_JobOpeningDTOParser"><path codeLine="142" d="M621.665,388.53 C543.51,410.95 470.79,434.14 456.25,446.5 C430.585,468.315 416.4893,501.8168 408.5843,527.6018 " fill="none" id="ScheaduleInterviewController-to-JobOpeningDTOParser" style="stroke:#181818;stroke-width:0.5;"/><polygon fill="#181818" points="407.705,530.47,410.9361,526.7539,408.4378,528.0798,407.1118,525.5814,407.705,530.47" style="stroke:#181818;stroke-width:0.5;"/></g><!--link JobOpeningDTOParser to JobOpeningDTO--><g id="link_JobOpeningDTOParser_JobOpeningDTO"><path codeLine="143" d="M411.025,591.525 C421.775,621.47 437.5515,665.4314 450.9115,702.6514 " fill="none" id="JobOpeningDTOParser-to-JobOpeningDTO" style="stroke:#181818;stroke-width:0.5;stroke-dasharray:7.0,7.0;"/><polygon fill="#181818" points="451.925,705.475,452.2871,700.5639,451.0804,703.122,448.5223,701.9153,451.925,705.475" style="stroke:#181818;stroke-width:0.5;"/></g><!--link ScheaduleInterviewController to InterviewApplicationDTOParser--><g id="link_ScheaduleInterviewController_InterviewApplicationDTOParser"><path codeLine="152" d="M1149.84,388.535 C1276.475,413.095 1396.21,437.99 1408.25,446.5 C1435.59,465.825 1452.7814,497.0607 1463.5514,522.9157 " fill="none" id="ScheaduleInterviewController-to-InterviewApplicationDTOParser" style="stroke:#181818;stroke-width:0.5;"/><polygon fill="#181818" points="1464.705,525.685,1464.8209,520.7619,1463.7437,523.3772,1461.1284,522.3,1464.705,525.685" style="stroke:#181818;stroke-width:0.5;"/></g><!--reverse link InterviewApplicationDTO to InterviewApplicationDTOParser--><g id="link_InterviewApplicationDTO_InterviewApplicationDTOParser"><path codeLine="153" d="M1375.0146,381.8819 C1400.0246,425.7969 1434.68,486.64 1456.895,525.64 " fill="none" id="InterviewApplicationDTO-backto-InterviewApplicationDTOParser" style="stroke:#181818;stroke-width:0.5;stroke-dasharray:7.0,7.0;"/><polygon fill="#181818" points="1373.53,379.275,1374.019,384.1751,1374.7672,381.4474,1377.4949,382.1956,1373.53,379.275" style="stroke:#181818;stroke-width:0.5;"/></g><!--link ScheaduleInterviewController to InterviewApplicationDTO--><g id="link_ScheaduleInterviewController_InterviewApplicationDTO"><path codeLine="214" d="M1150.48,330 C1199.68,330 1245.88,330 1295.075,330 " fill="none" id="ScheaduleInterviewController-to-InterviewApplicationDTO" style="stroke:#181818;stroke-width:0.5;"/><polygon fill="#181818" points="1298.075,330,1293.575,328,1295.575,330,1293.575,332,1298.075,330" style="stroke:#181818;stroke-width:0.5;"/></g><!--link ScheaduleInterviewController to AuthorizationService--><g id="link_ScheaduleInterviewController_AuthorizationService"><path codeLine="224" d="M838.25,388.54 C838.25,433.72 838.25,491.59 838.25,527.48 " fill="none" id="ScheaduleInterviewController-to-AuthorizationService" style="stroke:#181818;stroke-width:0.5;"/><polygon fill="#181818" points="838.25,530.48,840.25,525.98,838.25,527.98,836.25,525.98,838.25,530.48" style="stroke:#181818;stroke-width:0.5;"/></g><!--link PersistenceContext to RepositoryFactory--><g id="link_PersistenceContext_RepositoryFactory"><path codeLine="225" d="M1525.835,346.855 C1538.995,389.19 1573.1695,499.1202 1586.2995,541.3602 " fill="none" id="PersistenceContext-to-RepositoryFactory" style="stroke:#181818;stroke-width:0.5;"/><polygon fill="#181818" points="1587.19,544.225,1587.7641,539.3342,1586.4479,541.8377,1583.9444,540.5215,1587.19,544.225" style="stroke:#181818;stroke-width:0.5;"/></g><!--link ScheaduleInterviewController to JobApplicationDTOService--><g id="link_ScheaduleInterviewController_JobApplicationDTOService"><path codeLine="226" d="M632.57,388.545 C594.385,398.48 554.72,408.25 517.25,416.5 C441.04,433.28 414.36,412.235 344.25,446.5 C298.365,468.925 258.949,511.0091 237.074,537.2941 " fill="none" id="ScheaduleInterviewController-to-JobApplicationDTOService" style="stroke:#181818;stroke-width:0.5;"/><polygon fill="#181818" points="235.155,539.6,239.5708,537.4205,236.7542,537.6784,236.4963,534.8618,235.155,539.6" style="stroke:#181818;stroke-width:0.5;"/></g><!--link RepositoryFactory to JobApplicationRepository--><g id="link_RepositoryFactory_JobApplicationRepository"><path codeLine="227" d="M1627.135,577.775 C1708.29,615.635 1906.3013,708.0067 1987.5513,745.9117 " fill="none" id="RepositoryFactory-to-JobApplicationRepository" style="stroke:#181818;stroke-width:0.5;"/><polygon fill="#181818" points="1990.27,747.18,1987.0375,743.465,1988.0044,746.1231,1985.3464,747.09,1990.27,747.18" style="stroke:#181818;stroke-width:0.5;"/></g><!--link RepositoryFactory to JobOpeningRepository--><g id="link_RepositoryFactory_JobOpeningRepository"><path codeLine="228" d="M1592.25,577.86 C1592.25,615.76 1592.25,706.22 1592.25,744.13 " fill="none" id="RepositoryFactory-to-JobOpeningRepository" style="stroke:#181818;stroke-width:0.5;"/><polygon fill="#181818" points="1592.25,747.13,1594.25,742.63,1592.25,744.63,1590.25,742.63,1592.25,747.13" style="stroke:#181818;stroke-width:0.5;"/></g><!--link RepositoryFactory to InterviewApplicationRepository--><g id="link_RepositoryFactory_InterviewApplicationRepository"><path codeLine="229" d="M1590.19,577.77 C1586.16,602.62 1574.87,649.86 1545.25,675.5 C1539.86,680.17 1367.246,722.3702 1267.406,746.5002 " fill="none" id="RepositoryFactory-to-InterviewApplicationRepository" style="stroke:#181818;stroke-width:0.5;"/><polygon fill="#181818" points="1264.49,747.205,1269.3339,748.0919,1266.92,746.6177,1268.3942,744.2038,1264.49,747.205" style="stroke:#181818;stroke-width:0.5;"/></g><!--reverse link JobApplicationRepository to InMemoryJobApplicationRepository--><g id="link_JobApplicationRepository_InMemoryJobApplicationRepository"><path codeLine="232" d="M2025.25,789.79 C2025.25,809.315 2025.25,832.85 2025.25,852.405 " fill="none" id="JobApplicationRepository-backto-InMemoryJobApplicationRepository" style="stroke:#181818;stroke-width:0.5;stroke-dasharray:7.0,7.0;"/><polygon fill="none" points="2025.25,780.79,2022.25,789.79,2028.25,789.79,2025.25,780.79" style="stroke:#181818;stroke-width:0.5;"/></g><!--reverse link JobApplicationRepository to JpaJobApplicationRepository--><g id="link_JobApplicationRepository_JpaJobApplicationRepository"><path codeLine="233" d="M2072.8591,784.236 C2120.0391,803.791 2190.375,832.945 2237.52,852.49 " fill="none" id="JobApplicationRepository-backto-JpaJobApplicationRepository" style="stroke:#181818;stroke-width:0.5;stroke-dasharray:7.0,7.0;"/><polygon fill="none" points="2064.545,780.79,2071.7105,787.0074,2074.0078,781.4646,2064.545,780.79" style="stroke:#181818;stroke-width:0.5;"/></g><!--reverse link InterviewApplicationRepository to InMemoryInterviewApplicationRepository--><g id="link_InterviewApplicationRepository_InMemoryInterviewApplicationRepository"><path codeLine="234" d="M1161.4206,785.3668 C1128.3106,804.9218 1080.87,832.945 1047.78,852.49 " fill="none" id="InterviewApplicationRepository-backto-InMemoryInterviewApplicationRepository" style="stroke:#181818;stroke-width:0.5;stroke-dasharray:7.0,7.0;"/><polygon fill="none" points="1169.17,780.79,1159.895,782.7837,1162.9462,787.95,1169.17,780.79" style="stroke:#181818;stroke-width:0.5;"/></g><!--reverse link InterviewApplicationRepository to JpaInterviewApplicationRepository--><g id="link_InterviewApplicationRepository_JpaInterviewApplicationRepository"><path codeLine="235" d="M1196.75,789.79 C1196.75,809.315 1196.75,832.85 1196.75,852.405 " fill="none" id="InterviewApplicationRepository-backto-JpaInterviewApplicationRepository" style="stroke:#181818;stroke-width:0.5;stroke-dasharray:7.0,7.0;"/><polygon fill="none" points="1196.75,780.79,1193.75,789.79,1199.75,789.79,1196.75,780.79" style="stroke:#181818;stroke-width:0.5;"/></g><!--reverse link JobOpeningRepository to InMemoryJobOpeningRepository--><g id="link_JobOpeningRepository_InMemoryJobOpeningRepository"><path codeLine="238" d="M1560.8196,785.8463 C1532.0246,805.4013 1491.47,832.945 1462.69,852.49 " fill="none" id="JobOpeningRepository-backto-InMemoryJobOpeningRepository" style="stroke:#181818;stroke-width:0.5;stroke-dasharray:7.0,7.0;"/><polygon fill="none" points="1568.265,780.79,1559.1342,783.3645,1562.505,788.3281,1568.265,780.79" style="stroke:#181818;stroke-width:0.5;"/></g><!--reverse link JobOpeningRepository to JpaJobOpeningRepository--><g id="link_JobOpeningRepository_JpaJobOpeningRepository"><path codeLine="239" d="M1623.6804,785.8463 C1652.4754,805.4013 1693.03,832.945 1721.81,852.49 " fill="none" id="JobOpeningRepository-backto-JpaJobOpeningRepository" style="stroke:#181818;stroke-width:0.5;stroke-dasharray:7.0,7.0;"/><polygon fill="none" points="1616.235,780.79,1621.995,788.3281,1625.3658,783.3645,1616.235,780.79" style="stroke:#181818;stroke-width:0.5;"/></g><!--link ScheaduleInterviewController to JobOpeningDTOService--><g id="link_ScheaduleInterviewController_JobOpeningDTOService"><path codeLine="242" d="M717.095,388.565 C688.125,405.21 658.35,424.805 633.25,446.5 C603.205,472.47 578.0681,507.4602 562.0381,532.2702 " fill="none" id="ScheaduleInterviewController-to-JobOpeningDTOService" style="stroke:#181818;stroke-width:0.5;"/><polygon fill="#181818" points="560.41,534.79,564.532,532.0957,561.7667,532.6902,561.1722,529.9249,560.41,534.79" style="stroke:#181818;stroke-width:0.5;"/></g><!--link JobOpeningDTOService to JobOpeningDTO--><g id="link_JobOpeningDTOService_JobOpeningDTO"><path codeLine="245" d="M535.63,587.085 C525.095,616.65 508.4224,663.4242 494.4874,702.5142 " fill="none" id="JobOpeningDTOService-to-JobOpeningDTO" style="stroke:#181818;stroke-width:0.5;"/><polygon fill="#181818" points="493.48,705.34,496.8749,701.7729,494.3195,702.9852,493.1072,700.4297,493.48,705.34" style="stroke:#181818;stroke-width:0.5;"/></g><!--link ScheaduleInterviewUI to PersistenceContext--><g id="link_ScheaduleInterviewUI_PersistenceContext"><path codeLine="247" d="M1180.72,129.78 C1235.205,154.51 1327.095,198.195 1401.75,243.5 C1437.925,265.455 1474.8577,293.2458 1498.0177,311.3758 " fill="none" id="ScheaduleInterviewUI-to-PersistenceContext" style="stroke:#181818;stroke-width:0.5;"/><polygon fill="#181818" points="1500.38,313.225,1498.0694,308.8763,1498.4114,311.684,1495.6038,312.026,1500.38,313.225" style="stroke:#181818;stroke-width:0.5;"/></g><!--link ScheaduleInterviewUI to ScheaduleInterviewController--><g id="link_ScheaduleInterviewUI_ScheaduleInterviewController"><path codeLine="248" d="M1109.78,129.885 C1084.715,151.465 1043.985,185.805 1007.25,213.5 C981.32,233.05 954.8819,251.7074 928.4019,269.8024 " fill="none" id="ScheaduleInterviewUI-to-ScheaduleInterviewController" style="stroke:#181818;stroke-width:0.5;"/><polygon fill="#181818" points="925.925,271.495,930.7688,270.6074,927.9891,270.0845,928.512,267.3048,925.925,271.495" style="stroke:#181818;stroke-width:0.5;"/></g><!--SRC=[pLZRak8s47tNL-YHAGm_i5jRvRa6AYnJNBAFMnfRWBQCxKWoX2Jpxsd9Cf9jsJ2fcjbz0QlLtQUxtJU84Y84NaOxIk8YePDKKdvWzBYUu7_G28lMnLsMIfub2ULe66VBNNPC1pVe5KLQqJHx2VCyOH6HB4kLXXyroYGkIVESfYpTmY4YQSnY8YaQHGUDoAc-Mr1H9DAbJ0iXsSPeGgCDIqbYk8ODv44JDd1G0miAZuUWYHbqG0ROWRm1p2R8m10DZZwUeShJGNyr0Ekq6gQ-Sc3rMMRtgxb-edyM9143pO3dBpze976cBdP4xEwoMAEIE5xM0SCqhgCi9OVBTY2Qz9eKg6OnJIMJfyuK04D_NXQKKNf5QDcJndXKvAClRSct2va0zCgfO912xZBE_jP2IyKIWT-OLUoEoWNDCy5ana-VL0mEqVGSDV6f5iHdmWNbbijHeZbzsYkPOQ_D0v-zGUELMaE32uu43JU2bXE1nuMWnm78muG9EJivMXyptlP95OFmKfLy64KqbpHsOK6DvRDsGdhS84YiIodo1KyyLjyMB8cXV_PBZ_p2o6HPZ-AEWhlNvOLNR4_Fo7550BzKbOMfE58k7bcYM9yuYTNt6Kir_HS5CkUh7S-AxKu5xyZaRjfiXQPpDEqmxCgMWVh0gkWDiMvPUIrhD9THMUpmgAEvTfmOg0zCBC6mQCyg6xVgO2uSLwjhPaatndsdtVdUm_k-02-aP-3Tw_bMHmiiME1Y1ILKu2BfpecGRUis-Q6DOQnzND0DvJI51eODPSLaGglhUmfzc-KwSHK9HX6dGkZdI2KxYUJgb6l-jDY_KFu7WLaGCLhox664gOSes-SaFPMFGXPxocSa9Lk81yR3kd7rMMJeVej_0OF1MeWS7jPCSudQF9VWc7Wc6pFFPzVKCx5Xxvc-B_U4Ib8RxfnhrckwtK3WkMC5qTBE5l9wkTtPeA1wujK7ivb0vIZr31Ye498aZVaHRW1JRq57krRSgebXWsxxkqvzJzwNyqOX-sUurL0pnwD3Rsy7aXHqlcaE5loAy1k2TTQfO-wpTpnkyFSDaV_hvgXh8UZeMFvGC3_dbK7fnT7XwVTuNEJZJYt-LkXaOyTUvq-ACaMhTIKKWcrJ6g-o6GsXa4w2YMUedh9oAc0h_mYr3L-wgmtRz9hKC_HuM6zKYgjmqR-aQOQy4YkRWPBGuTyGy6VQyJP1LlyWYJiBxChwib2JtdqHy0Gvq86FoxiKkhDvHlUWujq1tZrO9l5oycwkWEuFVELJJqsuC5LTV7DNChT89kaPU6vNzB9aee83kbmBiyEqtjL7GvUn_JZK_kx-4xRJQYlhR-2NEs_ewR1w3_Xz_lJqi807kQDBM8JK-ZPaGl6hFoX04urLU2e5AgRb7oYfA3XjyVr6H9YUO1xTGdmNMKB5-7d-xM7nVRryM0JOKiFxsUIhIxXRBrVp6N3EmgyXs7J5xqHmtESOyZHknTlgzbTjLjuT2hKdIflTcLgTxEq1vsVjRr_mdZjxqET_n-EB_VQ2U4-FG_sMrU4lU76Dgekjl8n5ksSquz2EVBTOHnz22BrjtQoonpNHMOLQ_3xzwudcQ-TuDs-VaUKlXly0]--></g></svg>