<?xml version="1.0" encoding="us-ascii" standalone="no"?><svg xmlns="http://www.w3.org/2000/svg" xmlns:xlink="http://www.w3.org/1999/xlink" contentStyleType="text/css" height="544px" preserveAspectRatio="none" style="width:632px;height:544px;background:#FFFFFF;" version="1.1" viewBox="0 0 632 544" width="632px" zoomAndPan="magnify"><defs/><g><rect fill="#FFFFFF" height="357.541" style="stroke:#181818;stroke-width:1.0;" width="10" x="76.5" y="93.6211"/><rect fill="#FFFFFF" height="75.582" style="stroke:#181818;stroke-width:1.0;" width="10" x="573.5" y="116.9121"/><rect fill="#FFFFFF" height="31.291" style="stroke:#181818;stroke-width:1.0;" width="10" x="573.5" y="223.7852"/><rect fill="#FFFFFF" height="149.7949" style="stroke:#181818;stroke-width:1.0;" width="10" x="573.5" y="286.3672"/><rect fill="none" height="98.5039" style="stroke:#000000;stroke-width:1.5;" width="610.5" x="10" y="345.6582"/><line style="stroke:#181818;stroke-width:0.5;stroke-dasharray:5.0,5.0;" x1="81" x2="81" y1="83.6211" y2="461.1621"/><line style="stroke:#181818;stroke-width:0.5;stroke-dasharray:5.0,5.0;" x1="578.5" x2="578.5" y1="83.6211" y2="461.1621"/><text fill="#000000" font-family="sans-serif" font-size="14" lengthAdjust="spacing" textLength="117" x="20" y="80.1074">CustomerManager</text><ellipse cx="81.5" cy="13.5" fill="#E2E2F0" rx="8" ry="8" style="stroke:#181818;stroke-width:0.5;"/><path d="M81.5,21.5 L81.5,48.5 M68.5,29.5 L94.5,29.5 M81.5,48.5 L68.5,63.5 M81.5,48.5 L94.5,63.5 " fill="none" style="stroke:#181818;stroke-width:0.5;"/><text fill="#000000" font-family="sans-serif" font-size="14" lengthAdjust="spacing" textLength="117" x="20" y="475.2695">CustomerManager</text><ellipse cx="81.5" cy="487.2832" fill="#E2E2F0" rx="8" ry="8" style="stroke:#181818;stroke-width:0.5;"/><path d="M81.5,495.2832 L81.5,522.2832 M68.5,503.2832 L94.5,503.2832 M81.5,522.2832 L68.5,537.2832 M81.5,522.2832 L94.5,537.2832 " fill="none" style="stroke:#181818;stroke-width:0.5;"/><rect fill="#E2E2F0" height="32.6211" rx="2.5" ry="2.5" style="stroke:#181818;stroke-width:0.5;" width="64" x="546.5" y="50"/><text fill="#000000" font-family="sans-serif" font-size="14" lengthAdjust="spacing" textLength="50" x="553.5" y="72.1074">:System</text><rect fill="#E2E2F0" height="32.6211" rx="2.5" ry="2.5" style="stroke:#181818;stroke-width:0.5;" width="64" x="546.5" y="460.1621"/><text fill="#000000" font-family="sans-serif" font-size="14" lengthAdjust="spacing" textLength="50" x="553.5" y="482.2695">:System</text><rect fill="#FFFFFF" height="357.541" style="stroke:#181818;stroke-width:1.0;" width="10" x="76.5" y="93.6211"/><rect fill="#FFFFFF" height="75.582" style="stroke:#181818;stroke-width:1.0;" width="10" x="573.5" y="116.9121"/><rect fill="#FFFFFF" height="31.291" style="stroke:#181818;stroke-width:1.0;" width="10" x="573.5" y="223.7852"/><rect fill="#FFFFFF" height="149.7949" style="stroke:#181818;stroke-width:1.0;" width="10" x="573.5" y="286.3672"/><polygon fill="#181818" points="561.5,112.9121,571.5,116.9121,561.5,120.9121,565.5,116.9121" style="stroke:#181818;stroke-width:1.0;"/><line style="stroke:#181818;stroke-width:1.0;" x1="86.5" x2="567.5" y1="116.9121" y2="116.9121"/><text fill="#000000" font-family="sans-serif" font-size="13" font-weight="bold" lengthAdjust="spacing" textLength="7" x="93.5" y="111.6494">1</text><text fill="#000000" font-family="sans-serif" font-size="13" lengthAdjust="spacing" textLength="273" x="104.5" y="111.6494">asks the system to display data of a Candidate</text><line style="stroke:#181818;stroke-width:1.0;stroke-dasharray:2.0,2.0;" x1="583.5" x2="625.5" y1="148.2031" y2="148.2031"/><line style="stroke:#181818;stroke-width:1.0;stroke-dasharray:2.0,2.0;" x1="625.5" x2="625.5" y1="148.2031" y2="161.2031"/><line style="stroke:#181818;stroke-width:1.0;stroke-dasharray:2.0,2.0;" x1="584.5" x2="625.5" y1="161.2031" y2="161.2031"/><polygon fill="#181818" points="594.5,157.2031,584.5,161.2031,594.5,165.2031,590.5,161.2031" style="stroke:#181818;stroke-width:1.0;"/><text fill="#000000" font-family="sans-serif" font-size="13" font-weight="bold" lengthAdjust="spacing" textLength="7" x="590.5" y="142.9404">2</text><text fill="#000000" font-family="sans-serif" font-size="13" lengthAdjust="spacing" textLength="4" x="601.5" y="142.9404">&#160;</text><polygon fill="#181818" points="97.5,188.4941,87.5,192.4941,97.5,196.4941,93.5,192.4941" style="stroke:#181818;stroke-width:1.0;"/><line style="stroke:#181818;stroke-width:1.0;stroke-dasharray:2.0,2.0;" x1="91.5" x2="577.5" y1="192.4941" y2="192.4941"/><text fill="#000000" font-family="sans-serif" font-size="13" font-weight="bold" lengthAdjust="spacing" textLength="7" x="103.5" y="187.2314">3</text><text fill="#000000" font-family="sans-serif" font-size="13" lengthAdjust="spacing" textLength="85" x="114.5" y="187.2314">requests email</text><polygon fill="#181818" points="561.5,219.7852,571.5,223.7852,561.5,227.7852,565.5,223.7852" style="stroke:#181818;stroke-width:1.0;"/><line style="stroke:#181818;stroke-width:1.0;" x1="86.5" x2="567.5" y1="223.7852" y2="223.7852"/><text fill="#000000" font-family="sans-serif" font-size="13" font-weight="bold" lengthAdjust="spacing" textLength="7" x="93.5" y="218.5225">4</text><text fill="#000000" font-family="sans-serif" font-size="13" lengthAdjust="spacing" textLength="67" x="104.5" y="218.5225">types email</text><polygon fill="#181818" points="97.5,251.0762,87.5,255.0762,97.5,259.0762,93.5,255.0762" style="stroke:#181818;stroke-width:1.0;"/><line style="stroke:#181818;stroke-width:1.0;stroke-dasharray:2.0,2.0;" x1="91.5" x2="577.5" y1="255.0762" y2="255.0762"/><text fill="#000000" font-family="sans-serif" font-size="13" font-weight="bold" lengthAdjust="spacing" textLength="7" x="103.5" y="249.8135">5</text><text fill="#000000" font-family="sans-serif" font-size="13" lengthAdjust="spacing" textLength="124" x="114.5" y="249.8135">requests confirmation</text><polygon fill="#181818" points="561.5,282.3672,571.5,286.3672,561.5,290.3672,565.5,286.3672" style="stroke:#181818;stroke-width:1.0;"/><line style="stroke:#181818;stroke-width:1.0;" x1="86.5" x2="567.5" y1="286.3672" y2="286.3672"/><text fill="#000000" font-family="sans-serif" font-size="13" font-weight="bold" lengthAdjust="spacing" textLength="7" x="93.5" y="281.1045">6</text><text fill="#000000" font-family="sans-serif" font-size="13" lengthAdjust="spacing" textLength="100" x="104.5" y="281.1045">confirms the data</text><line style="stroke:#181818;stroke-width:1.0;stroke-dasharray:2.0,2.0;" x1="583.5" x2="625.5" y1="317.6582" y2="317.6582"/><line style="stroke:#181818;stroke-width:1.0;stroke-dasharray:2.0,2.0;" x1="625.5" x2="625.5" y1="317.6582" y2="330.6582"/><line style="stroke:#181818;stroke-width:1.0;stroke-dasharray:2.0,2.0;" x1="584.5" x2="625.5" y1="330.6582" y2="330.6582"/><polygon fill="#181818" points="594.5,326.6582,584.5,330.6582,594.5,334.6582,590.5,330.6582" style="stroke:#181818;stroke-width:1.0;"/><text fill="#000000" font-family="sans-serif" font-size="13" font-weight="bold" lengthAdjust="spacing" textLength="7" x="590.5" y="312.3955">7</text><text fill="#000000" font-family="sans-serif" font-size="13" lengthAdjust="spacing" textLength="4" x="601.5" y="312.3955">&#160;</text><path d="M10,345.6582 L71,345.6582 L71,354.9492 L61,364.9492 L10,364.9492 L10,345.6582 " fill="#EEEEEE" style="stroke:#000000;stroke-width:1.5;"/><rect fill="none" height="98.5039" style="stroke:#000000;stroke-width:1.5;" width="610.5" x="10" y="345.6582"/><text fill="#000000" font-family="sans-serif" font-size="13" font-weight="bold" lengthAdjust="spacing" textLength="16" x="25" y="360.6865">alt</text><text fill="#000000" font-family="sans-serif" font-size="11" font-weight="bold" lengthAdjust="spacing" textLength="46" x="86" y="359.5283">[!ERROR]</text><polygon fill="#181818" points="97.5,384.2402,87.5,388.2402,97.5,392.2402,93.5,388.2402" style="stroke:#181818;stroke-width:1.0;"/><line style="stroke:#181818;stroke-width:1.0;stroke-dasharray:2.0,2.0;" x1="91.5" x2="572.5" y1="388.2402" y2="388.2402"/><text fill="#000000" font-family="sans-serif" font-size="13" font-weight="bold" lengthAdjust="spacing" textLength="7" x="103.5" y="382.9775">8</text><text fill="#000000" font-family="sans-serif" font-size="13" lengthAdjust="spacing" textLength="452" x="114.5" y="382.9775">shows email, name, phone, app_status and requirements_file of the Candidate</text><line style="stroke:#000000;stroke-width:1.0;stroke-dasharray:2.0,2.0;" x1="10" x2="620.5" y1="397.2402" y2="397.2402"/><text fill="#000000" font-family="sans-serif" font-size="11" font-weight="bold" lengthAdjust="spacing" textLength="43" x="15" y="409.1104">[ERROR]</text><polygon fill="#181818" points="97.5,432.1621,87.5,436.1621,97.5,440.1621,93.5,436.1621" style="stroke:#181818;stroke-width:1.0;"/><line style="stroke:#181818;stroke-width:1.0;stroke-dasharray:2.0,2.0;" x1="91.5" x2="577.5" y1="436.1621" y2="436.1621"/><text fill="#000000" font-family="sans-serif" font-size="13" font-weight="bold" lengthAdjust="spacing" textLength="7" x="103.5" y="430.8994">9</text><text fill="#000000" font-family="sans-serif" font-size="13" lengthAdjust="spacing" textLength="218" x="114.5" y="430.8994">informs operation unsuccess and why</text><!--SRC=[dLBBJiCm4BpxAvQSsn_8WKl54I653wYMP4CiOg_nhgdozpXf8PKLgOMJjQ_PcLbZKlR9lL4q1blb28SaoexYCtfyfmWeK1MvQkcrNwXKjXjJpkyVeQfV9r5o5TGPxaD01m9PKg0CdPKmuWGTAWBtW710tzaSqhhd5yEiQFjhR5CKIXurHFfC92f03kreEje0lqLVfq0_05lZTtDesVSsEbJB_dzKBWXdDsVl_c8MZWeFJqtpqjoaB0EVBf9tuD7H3iB0FZyOmb4KDGdaWotQR2H7NkNOsv7cOyxardCQ6eNWlhtMzppBuq1niGcIbzIs9ETrfs7QDevoCUipvhfS_jDl]--></g></svg>