<?xml version="1.0" encoding="us-ascii" standalone="no"?><svg xmlns="http://www.w3.org/2000/svg" xmlns:xlink="http://www.w3.org/1999/xlink" contentStyleType="text/css" height="754px" preserveAspectRatio="none" style="width:974px;height:754px;background:#FFFFFF;" version="1.1" viewBox="0 0 974 754" width="974px" zoomAndPan="magnify"><defs/><g><!--class DisplayInfoCandidateUI--><g id="elem_DisplayInfoCandidateUI"><rect codeLine="2" fill="#F1F1F1" height="48" id="DisplayInfoCandidateUI" rx="2.5" ry="2.5" style="stroke:#181818;stroke-width:0.5;" width="178" x="511" y="7"/><ellipse cx="526" cy="23" fill="#ADD1B2" rx="11" ry="11" style="stroke:#181818;stroke-width:1.0;"/><path d="M528.7656,18.875 Q528.9219,18.6563 529.1094,18.5469 Q529.2969,18.4375 529.5156,18.4375 Q529.8906,18.4375 530.125,18.7031 Q530.3594,18.9531 530.3594,19.5625 L530.3594,21.0156 Q530.3594,21.625 530.125,21.8906 Q529.8906,22.1563 529.5156,22.1563 Q529.1719,22.1563 528.9688,21.9531 Q528.7656,21.7656 528.6563,21.25 Q528.6094,20.8906 528.4219,20.7031 Q528.0938,20.3281 527.4844,20.1094 Q526.875,19.8906 526.25,19.8906 Q525.4844,19.8906 524.8438,20.2188 Q524.2188,20.5469 523.7188,21.2969 Q523.2344,22.0469 523.2344,23.0781 L523.2344,24.1719 Q523.2344,25.4063 524.125,26.2344 Q525.0156,27.0469 526.6094,27.0469 Q527.5469,27.0469 528.2031,26.7969 Q528.5938,26.6406 529.0156,26.2031 Q529.2813,25.9375 529.4219,25.8594 Q529.5781,25.7813 529.7813,25.7813 Q530.1094,25.7813 530.3594,26.0469 Q530.625,26.2969 530.625,26.6406 Q530.625,26.9844 530.2813,27.3906 Q529.7813,27.9688 528.9844,28.2969 Q527.9063,28.75 526.6094,28.75 Q525.0938,28.75 523.8906,28.125 Q522.9063,27.625 522.2188,26.5625 Q521.5313,25.4844 521.5313,24.2031 L521.5313,23.0469 Q521.5313,21.7188 522.1406,20.5781 Q522.7656,19.4219 523.8594,18.8125 Q524.9531,18.1875 526.1875,18.1875 Q526.9219,18.1875 527.5625,18.3594 Q528.2188,18.5156 528.7656,18.875 Z " fill="#000000"/><text fill="#000000" font-family="sans-serif" font-size="14" lengthAdjust="spacing" textLength="146" x="540" y="28.7969">DisplayInfoCandidateUI</text><line style="stroke:#181818;stroke-width:0.5;" x1="512" x2="688" y1="39" y2="39"/><line style="stroke:#181818;stroke-width:0.5;" x1="512" x2="688" y1="47" y2="47"/></g><!--class DisplayInfoCandidateController--><g id="elem_DisplayInfoCandidateController"><rect codeLine="6" fill="#F1F1F1" height="122.4844" id="DisplayInfoCandidateController" rx="2.5" ry="2.5" style="stroke:#181818;stroke-width:0.5;" width="498" x="171" y="115"/><ellipse cx="317.75" cy="131" fill="#ADD1B2" rx="11" ry="11" style="stroke:#181818;stroke-width:1.0;"/><path d="M320.5156,126.875 Q320.6719,126.6563 320.8594,126.5469 Q321.0469,126.4375 321.2656,126.4375 Q321.6406,126.4375 321.875,126.7031 Q322.1094,126.9531 322.1094,127.5625 L322.1094,129.0156 Q322.1094,129.625 321.875,129.8906 Q321.6406,130.1563 321.2656,130.1563 Q320.9219,130.1563 320.7188,129.9531 Q320.5156,129.7656 320.4063,129.25 Q320.3594,128.8906 320.1719,128.7031 Q319.8438,128.3281 319.2344,128.1094 Q318.625,127.8906 318,127.8906 Q317.2344,127.8906 316.5938,128.2188 Q315.9688,128.5469 315.4688,129.2969 Q314.9844,130.0469 314.9844,131.0781 L314.9844,132.1719 Q314.9844,133.4063 315.875,134.2344 Q316.7656,135.0469 318.3594,135.0469 Q319.2969,135.0469 319.9531,134.7969 Q320.3438,134.6406 320.7656,134.2031 Q321.0313,133.9375 321.1719,133.8594 Q321.3281,133.7813 321.5313,133.7813 Q321.8594,133.7813 322.1094,134.0469 Q322.375,134.2969 322.375,134.6406 Q322.375,134.9844 322.0313,135.3906 Q321.5313,135.9688 320.7344,136.2969 Q319.6563,136.75 318.3594,136.75 Q316.8438,136.75 315.6406,136.125 Q314.6563,135.625 313.9688,134.5625 Q313.2813,133.4844 313.2813,132.2031 L313.2813,131.0469 Q313.2813,129.7188 313.8906,128.5781 Q314.5156,127.4219 315.6094,126.8125 Q316.7031,126.1875 317.9375,126.1875 Q318.6719,126.1875 319.3125,126.3594 Q319.9688,126.5156 320.5156,126.875 Z " fill="#000000"/><text fill="#000000" font-family="sans-serif" font-size="14" lengthAdjust="spacing" textLength="196" x="338.25" y="136.7969">DisplayInfoCandidateController</text><line style="stroke:#181818;stroke-width:0.5;" x1="172" x2="668" y1="147" y2="147"/><rect fill="none" height="6" style="stroke:#C82930;stroke-width:1.0;" width="6" x="179" y="158.8105"/><text fill="#000000" font-family="sans-serif" font-size="14" lengthAdjust="spacing" textLength="128" x="191" y="166.1074">authorizationService</text><rect fill="none" height="6" style="stroke:#C82930;stroke-width:1.0;" width="6" x="179" y="177.4316"/><text fill="#000000" font-family="sans-serif" font-size="14" lengthAdjust="spacing" textLength="109" x="191" y="184.7285">candidateService</text><line style="stroke:#181818;stroke-width:0.5;" x1="172" x2="668" y1="192.2422" y2="192.2422"/><ellipse cx="182" cy="207.0527" fill="#84BE84" rx="3" ry="3" style="stroke:#038048;stroke-width:1.0;"/><text fill="#000000" font-family="sans-serif" font-size="14" lengthAdjust="spacing" textLength="472" x="191" y="211.3496">DisplayInfoCandidateController(authorizationService, candidateRepository)</text><ellipse cx="182" cy="225.6738" fill="#84BE84" rx="3" ry="3" style="stroke:#038048;stroke-width:1.0;"/><text fill="#000000" font-family="sans-serif" font-size="14" lengthAdjust="spacing" textLength="128" x="191" y="229.9707">getCandidate(email)</text></g><!--class Candidate--><g id="elem_Candidate"><rect codeLine="15" fill="#F1F1F1" height="196.9688" id="Candidate" rx="2.5" ry="2.5" style="stroke:#181818;stroke-width:0.5;" width="132" x="7" y="297"/><ellipse cx="37.75" cy="313" fill="#ADD1B2" rx="11" ry="11" style="stroke:#181818;stroke-width:1.0;"/><path d="M40.5156,308.875 Q40.6719,308.6563 40.8594,308.5469 Q41.0469,308.4375 41.2656,308.4375 Q41.6406,308.4375 41.875,308.7031 Q42.1094,308.9531 42.1094,309.5625 L42.1094,311.0156 Q42.1094,311.625 41.875,311.8906 Q41.6406,312.1563 41.2656,312.1563 Q40.9219,312.1563 40.7188,311.9531 Q40.5156,311.7656 40.4063,311.25 Q40.3594,310.8906 40.1719,310.7031 Q39.8438,310.3281 39.2344,310.1094 Q38.625,309.8906 38,309.8906 Q37.2344,309.8906 36.5938,310.2188 Q35.9688,310.5469 35.4688,311.2969 Q34.9844,312.0469 34.9844,313.0781 L34.9844,314.1719 Q34.9844,315.4063 35.875,316.2344 Q36.7656,317.0469 38.3594,317.0469 Q39.2969,317.0469 39.9531,316.7969 Q40.3438,316.6406 40.7656,316.2031 Q41.0313,315.9375 41.1719,315.8594 Q41.3281,315.7813 41.5313,315.7813 Q41.8594,315.7813 42.1094,316.0469 Q42.375,316.2969 42.375,316.6406 Q42.375,316.9844 42.0313,317.3906 Q41.5313,317.9688 40.7344,318.2969 Q39.6563,318.75 38.3594,318.75 Q36.8438,318.75 35.6406,318.125 Q34.6563,317.625 33.9688,316.5625 Q33.2813,315.4844 33.2813,314.2031 L33.2813,313.0469 Q33.2813,311.7188 33.8906,310.5781 Q34.5156,309.4219 35.6094,308.8125 Q36.7031,308.1875 37.9375,308.1875 Q38.6719,308.1875 39.3125,308.3594 Q39.9688,308.5156 40.5156,308.875 Z " fill="#000000"/><text fill="#000000" font-family="sans-serif" font-size="14" lengthAdjust="spacing" textLength="65" x="55.25" y="318.7969">Candidate</text><line style="stroke:#181818;stroke-width:0.5;" x1="8" x2="138" y1="329" y2="329"/><rect fill="none" height="6" style="stroke:#C82930;stroke-width:1.0;" width="6" x="15" y="340.8105"/><text fill="#000000" font-family="sans-serif" font-size="14" lengthAdjust="spacing" textLength="33" x="27" y="348.1074">email</text><rect fill="none" height="6" style="stroke:#C82930;stroke-width:1.0;" width="6" x="15" y="359.4316"/><text fill="#000000" font-family="sans-serif" font-size="14" lengthAdjust="spacing" textLength="59" x="27" y="366.7285">firstName</text><rect fill="none" height="6" style="stroke:#C82930;stroke-width:1.0;" width="6" x="15" y="378.0527"/><text fill="#000000" font-family="sans-serif" font-size="14" lengthAdjust="spacing" textLength="58" x="27" y="385.3496">lastName</text><rect fill="none" height="6" style="stroke:#C82930;stroke-width:1.0;" width="6" x="15" y="396.6738"/><text fill="#000000" font-family="sans-serif" font-size="14" lengthAdjust="spacing" textLength="106" x="27" y="403.9707">requirementsFile</text><rect fill="none" height="6" style="stroke:#C82930;stroke-width:1.0;" width="6" x="15" y="415.2949"/><text fill="#000000" font-family="sans-serif" font-size="14" lengthAdjust="spacing" textLength="89" x="27" y="422.5918">phoneNumber</text><rect fill="none" height="6" style="stroke:#C82930;stroke-width:1.0;" width="6" x="15" y="433.916"/><text fill="#000000" font-family="sans-serif" font-size="14" lengthAdjust="spacing" textLength="64" x="27" y="441.2129">appStatus</text><rect fill="none" height="6" style="stroke:#C82930;stroke-width:1.0;" width="6" x="15" y="452.5371"/><text fill="#000000" font-family="sans-serif" font-size="14" lengthAdjust="spacing" textLength="61" x="27" y="459.834">createdAt</text><line style="stroke:#181818;stroke-width:0.5;" x1="8" x2="138" y1="467.3477" y2="467.3477"/><ellipse cx="18" cy="482.1582" fill="#84BE84" rx="3" ry="3" style="stroke:#038048;stroke-width:1.0;"/><text fill="#000000" font-family="sans-serif" font-size="14" lengthAdjust="spacing" textLength="44" x="27" y="486.4551">toDto()</text></g><!--class CandidateDTO--><g id="elem_CandidateDTO"><rect codeLine="26" fill="#F1F1F1" height="159.7266" id="CandidateDTO" rx="2.5" ry="2.5" style="stroke:#181818;stroke-width:0.5;" width="132" x="174" y="315.5"/><ellipse cx="191.25" cy="331.5" fill="#ADD1B2" rx="11" ry="11" style="stroke:#181818;stroke-width:1.0;"/><path d="M194.0156,327.375 Q194.1719,327.1563 194.3594,327.0469 Q194.5469,326.9375 194.7656,326.9375 Q195.1406,326.9375 195.375,327.2031 Q195.6094,327.4531 195.6094,328.0625 L195.6094,329.5156 Q195.6094,330.125 195.375,330.3906 Q195.1406,330.6563 194.7656,330.6563 Q194.4219,330.6563 194.2188,330.4531 Q194.0156,330.2656 193.9063,329.75 Q193.8594,329.3906 193.6719,329.2031 Q193.3438,328.8281 192.7344,328.6094 Q192.125,328.3906 191.5,328.3906 Q190.7344,328.3906 190.0938,328.7188 Q189.4688,329.0469 188.9688,329.7969 Q188.4844,330.5469 188.4844,331.5781 L188.4844,332.6719 Q188.4844,333.9063 189.375,334.7344 Q190.2656,335.5469 191.8594,335.5469 Q192.7969,335.5469 193.4531,335.2969 Q193.8438,335.1406 194.2656,334.7031 Q194.5313,334.4375 194.6719,334.3594 Q194.8281,334.2813 195.0313,334.2813 Q195.3594,334.2813 195.6094,334.5469 Q195.875,334.7969 195.875,335.1406 Q195.875,335.4844 195.5313,335.8906 Q195.0313,336.4688 194.2344,336.7969 Q193.1563,337.25 191.8594,337.25 Q190.3438,337.25 189.1406,336.625 Q188.1563,336.125 187.4688,335.0625 Q186.7813,333.9844 186.7813,332.7031 L186.7813,331.5469 Q186.7813,330.2188 187.3906,329.0781 Q188.0156,327.9219 189.1094,327.3125 Q190.2031,326.6875 191.4375,326.6875 Q192.1719,326.6875 192.8125,326.8594 Q193.4688,327.0156 194.0156,327.375 Z " fill="#000000"/><text fill="#000000" font-family="sans-serif" font-size="14" lengthAdjust="spacing" textLength="95" x="205.75" y="337.2969">CandidateDTO</text><line style="stroke:#181818;stroke-width:0.5;" x1="175" x2="305" y1="347.5" y2="347.5"/><rect fill="none" height="6" style="stroke:#C82930;stroke-width:1.0;" width="6" x="182" y="359.3105"/><text fill="#000000" font-family="sans-serif" font-size="14" lengthAdjust="spacing" textLength="33" x="194" y="366.6074">email</text><rect fill="none" height="6" style="stroke:#C82930;stroke-width:1.0;" width="6" x="182" y="377.9316"/><text fill="#000000" font-family="sans-serif" font-size="14" lengthAdjust="spacing" textLength="59" x="194" y="385.2285">firstName</text><rect fill="none" height="6" style="stroke:#C82930;stroke-width:1.0;" width="6" x="182" y="396.5527"/><text fill="#000000" font-family="sans-serif" font-size="14" lengthAdjust="spacing" textLength="58" x="194" y="403.8496">lastName</text><rect fill="none" height="6" style="stroke:#C82930;stroke-width:1.0;" width="6" x="182" y="415.1738"/><text fill="#000000" font-family="sans-serif" font-size="14" lengthAdjust="spacing" textLength="106" x="194" y="422.4707">requirementsFile</text><rect fill="none" height="6" style="stroke:#C82930;stroke-width:1.0;" width="6" x="182" y="433.7949"/><text fill="#000000" font-family="sans-serif" font-size="14" lengthAdjust="spacing" textLength="89" x="194" y="441.0918">phoneNumber</text><rect fill="none" height="6" style="stroke:#C82930;stroke-width:1.0;" width="6" x="182" y="452.416"/><text fill="#000000" font-family="sans-serif" font-size="14" lengthAdjust="spacing" textLength="61" x="194" y="459.7129">createdAt</text><line style="stroke:#181818;stroke-width:0.5;" x1="175" x2="305" y1="467.2266" y2="467.2266"/></g><!--class CandidateService--><g id="elem_CandidateService"><rect codeLine="39" fill="#F1F1F1" height="85.2422" id="CandidateService" rx="2.5" ry="2.5" style="stroke:#181818;stroke-width:0.5;" width="157" x="341.5" y="353"/><ellipse cx="362.35" cy="369" fill="#ADD1B2" rx="11" ry="11" style="stroke:#181818;stroke-width:1.0;"/><path d="M365.1156,364.875 Q365.2719,364.6563 365.4594,364.5469 Q365.6469,364.4375 365.8656,364.4375 Q366.2406,364.4375 366.475,364.7031 Q366.7094,364.9531 366.7094,365.5625 L366.7094,367.0156 Q366.7094,367.625 366.475,367.8906 Q366.2406,368.1563 365.8656,368.1563 Q365.5219,368.1563 365.3188,367.9531 Q365.1156,367.7656 365.0063,367.25 Q364.9594,366.8906 364.7719,366.7031 Q364.4438,366.3281 363.8344,366.1094 Q363.225,365.8906 362.6,365.8906 Q361.8344,365.8906 361.1938,366.2188 Q360.5688,366.5469 360.0688,367.2969 Q359.5844,368.0469 359.5844,369.0781 L359.5844,370.1719 Q359.5844,371.4063 360.475,372.2344 Q361.3656,373.0469 362.9594,373.0469 Q363.8969,373.0469 364.5531,372.7969 Q364.9438,372.6406 365.3656,372.2031 Q365.6313,371.9375 365.7719,371.8594 Q365.9281,371.7813 366.1313,371.7813 Q366.4594,371.7813 366.7094,372.0469 Q366.975,372.2969 366.975,372.6406 Q366.975,372.9844 366.6313,373.3906 Q366.1313,373.9688 365.3344,374.2969 Q364.2563,374.75 362.9594,374.75 Q361.4438,374.75 360.2406,374.125 Q359.2563,373.625 358.5688,372.5625 Q357.8813,371.4844 357.8813,370.2031 L357.8813,369.0469 Q357.8813,367.7188 358.4906,366.5781 Q359.1156,365.4219 360.2094,364.8125 Q361.3031,364.1875 362.5375,364.1875 Q363.2719,364.1875 363.9125,364.3594 Q364.5688,364.5156 365.1156,364.875 Z " fill="#000000"/><text fill="#000000" font-family="sans-serif" font-size="14" lengthAdjust="spacing" textLength="112" x="377.65" y="374.7969">CandidateService</text><line style="stroke:#181818;stroke-width:0.5;" x1="342.5" x2="497.5" y1="385" y2="385"/><rect fill="none" height="6" style="stroke:#C82930;stroke-width:1.0;" width="6" x="349.5" y="396.8105"/><text fill="#000000" font-family="sans-serif" font-size="14" lengthAdjust="spacing" textLength="131" x="361.5" y="404.1074">enrolmentRepository</text><line style="stroke:#181818;stroke-width:0.5;" x1="342.5" x2="497.5" y1="411.6211" y2="411.6211"/><ellipse cx="352.5" cy="426.4316" fill="#84BE84" rx="3" ry="3" style="stroke:#038048;stroke-width:1.0;"/><text fill="#000000" font-family="sans-serif" font-size="14" lengthAdjust="spacing" textLength="83" x="361.5" y="430.7285">findByEmail()</text></g><!--class RepositoryFactory--><g id="elem_RepositoryFactory"><rect codeLine="47" fill="#F1F1F1" height="66.6211" id="RepositoryFactory" rx="2.5" ry="2.5" style="stroke:#181818;stroke-width:0.5;" width="152" x="815" y="362"/><ellipse cx="831.8" cy="378" fill="#ADD1B2" rx="11" ry="11" style="stroke:#181818;stroke-width:1.0;"/><path d="M834.5656,373.875 Q834.7219,373.6563 834.9094,373.5469 Q835.0969,373.4375 835.3156,373.4375 Q835.6906,373.4375 835.925,373.7031 Q836.1594,373.9531 836.1594,374.5625 L836.1594,376.0156 Q836.1594,376.625 835.925,376.8906 Q835.6906,377.1563 835.3156,377.1563 Q834.9719,377.1563 834.7688,376.9531 Q834.5656,376.7656 834.4563,376.25 Q834.4094,375.8906 834.2219,375.7031 Q833.8938,375.3281 833.2844,375.1094 Q832.675,374.8906 832.05,374.8906 Q831.2844,374.8906 830.6438,375.2188 Q830.0188,375.5469 829.5188,376.2969 Q829.0344,377.0469 829.0344,378.0781 L829.0344,379.1719 Q829.0344,380.4063 829.925,381.2344 Q830.8156,382.0469 832.4094,382.0469 Q833.3469,382.0469 834.0031,381.7969 Q834.3938,381.6406 834.8156,381.2031 Q835.0813,380.9375 835.2219,380.8594 Q835.3781,380.7813 835.5813,380.7813 Q835.9094,380.7813 836.1594,381.0469 Q836.425,381.2969 836.425,381.6406 Q836.425,381.9844 836.0813,382.3906 Q835.5813,382.9688 834.7844,383.2969 Q833.7063,383.75 832.4094,383.75 Q830.8938,383.75 829.6906,383.125 Q828.7063,382.625 828.0188,381.5625 Q827.3313,380.4844 827.3313,379.2031 L827.3313,378.0469 Q827.3313,376.7188 827.9406,375.5781 Q828.5656,374.4219 829.6594,373.8125 Q830.7531,373.1875 831.9875,373.1875 Q832.7219,373.1875 833.3625,373.3594 Q834.0188,373.5156 834.5656,373.875 Z " fill="#000000"/><text fill="#000000" font-family="sans-serif" font-size="14" lengthAdjust="spacing" textLength="116" x="846.2" y="383.7969">RepositoryFactory</text><line style="stroke:#181818;stroke-width:0.5;" x1="816" x2="966" y1="394" y2="394"/><line style="stroke:#181818;stroke-width:0.5;" x1="816" x2="966" y1="402" y2="402"/><ellipse cx="826" cy="416.8105" fill="#84BE84" rx="3" ry="3" style="stroke:#038048;stroke-width:1.0;"/><text fill="#000000" font-family="sans-serif" font-size="14" lengthAdjust="spacing" textLength="126" x="835" y="421.1074">RepositoryFactory()</text></g><!--class PersistenceContext--><g id="elem_PersistenceContext"><rect codeLine="52" fill="#F1F1F1" height="66.6211" id="PersistenceContext" rx="2.5" ry="2.5" style="stroke:#181818;stroke-width:0.5;" width="154" x="759" y="142.5"/><ellipse cx="774" cy="158.5" fill="#ADD1B2" rx="11" ry="11" style="stroke:#181818;stroke-width:1.0;"/><path d="M776.7656,154.375 Q776.9219,154.1563 777.1094,154.0469 Q777.2969,153.9375 777.5156,153.9375 Q777.8906,153.9375 778.125,154.2031 Q778.3594,154.4531 778.3594,155.0625 L778.3594,156.5156 Q778.3594,157.125 778.125,157.3906 Q777.8906,157.6563 777.5156,157.6563 Q777.1719,157.6563 776.9688,157.4531 Q776.7656,157.2656 776.6563,156.75 Q776.6094,156.3906 776.4219,156.2031 Q776.0938,155.8281 775.4844,155.6094 Q774.875,155.3906 774.25,155.3906 Q773.4844,155.3906 772.8438,155.7188 Q772.2188,156.0469 771.7188,156.7969 Q771.2344,157.5469 771.2344,158.5781 L771.2344,159.6719 Q771.2344,160.9063 772.125,161.7344 Q773.0156,162.5469 774.6094,162.5469 Q775.5469,162.5469 776.2031,162.2969 Q776.5938,162.1406 777.0156,161.7031 Q777.2813,161.4375 777.4219,161.3594 Q777.5781,161.2813 777.7813,161.2813 Q778.1094,161.2813 778.3594,161.5469 Q778.625,161.7969 778.625,162.1406 Q778.625,162.4844 778.2813,162.8906 Q777.7813,163.4688 776.9844,163.7969 Q775.9063,164.25 774.6094,164.25 Q773.0938,164.25 771.8906,163.625 Q770.9063,163.125 770.2188,162.0625 Q769.5313,160.9844 769.5313,159.7031 L769.5313,158.5469 Q769.5313,157.2188 770.1406,156.0781 Q770.7656,154.9219 771.8594,154.3125 Q772.9531,153.6875 774.1875,153.6875 Q774.9219,153.6875 775.5625,153.8594 Q776.2188,154.0156 776.7656,154.375 Z " fill="#000000"/><text fill="#000000" font-family="sans-serif" font-size="14" lengthAdjust="spacing" textLength="122" x="788" y="164.2969">PersistenceContext</text><line style="stroke:#181818;stroke-width:0.5;" x1="760" x2="912" y1="174.5" y2="174.5"/><line style="stroke:#181818;stroke-width:0.5;" x1="760" x2="912" y1="182.5" y2="182.5"/><rect fill="#F24D5C" height="6" style="stroke:#C82930;stroke-width:1.0;" width="6" x="767" y="194.3105"/><text fill="#000000" font-family="sans-serif" font-size="14" lengthAdjust="spacing" textLength="84" x="779" y="201.6074">repositories()</text></g><!--class CandidateRepository--><g id="elem_CandidateRepository"><rect codeLine="57" fill="#F1F1F1" height="66.6211" id="CandidateRepository" rx="2.5" ry="2.5" style="stroke:#181818;stroke-width:0.5;" width="165" x="572.5" y="554"/><ellipse cx="587.5" cy="570" fill="#B4A7E5" rx="11" ry="11" style="stroke:#181818;stroke-width:1.0;"/><path d="M588.4531,566.6406 L588.4531,573.2969 L590.1719,573.2969 Q590.7813,573.2969 591.0469,573.5313 Q591.3125,573.7656 591.3125,574.1563 Q591.3125,574.5313 591.0469,574.7656 Q590.7813,575 590.1719,575 L585.0313,575 Q584.4219,575 584.1563,574.7656 Q583.8906,574.5313 583.8906,574.1406 Q583.8906,573.7656 584.1563,573.5313 Q584.4219,573.2969 585.0313,573.2969 L586.75,573.2969 L586.75,566.6406 L585.0313,566.6406 Q584.4219,566.6406 584.1563,566.4063 Q583.8906,566.1719 583.8906,565.7813 Q583.8906,565.4063 584.1563,565.1719 Q584.4219,564.9375 585.0313,564.9375 L590.1719,564.9375 Q590.7813,564.9375 591.0469,565.1719 Q591.3125,565.4063 591.3125,565.7813 Q591.3125,566.1719 591.0469,566.4063 Q590.7813,566.6406 590.1719,566.6406 L588.4531,566.6406 Z " fill="#000000"/><text fill="#000000" font-family="sans-serif" font-size="14" font-style="italic" lengthAdjust="spacing" textLength="133" x="601.5" y="575.7969">CandidateRepository</text><line style="stroke:#181818;stroke-width:0.5;" x1="573.5" x2="736.5" y1="586" y2="586"/><line style="stroke:#181818;stroke-width:0.5;" x1="573.5" x2="736.5" y1="594" y2="594"/><ellipse cx="583.5" cy="608.8105" fill="#84BE84" rx="3" ry="3" style="stroke:#038048;stroke-width:1.0;"/><text fill="#000000" font-family="sans-serif" font-size="14" lengthAdjust="spacing" textLength="116" x="592.5" y="613.1074">findByEmail(email)</text></g><!--class InMemoryCandidateRepository--><g id="elem_InMemoryCandidateRepository"><rect codeLine="61" fill="#F1F1F1" height="66.6211" id="InMemoryCandidateRepository" rx="2.5" ry="2.5" style="stroke:#181818;stroke-width:0.5;" width="226" x="421" y="681"/><ellipse cx="436" cy="697" fill="#ADD1B2" rx="11" ry="11" style="stroke:#181818;stroke-width:1.0;"/><path d="M438.7656,692.875 Q438.9219,692.6563 439.1094,692.5469 Q439.2969,692.4375 439.5156,692.4375 Q439.8906,692.4375 440.125,692.7031 Q440.3594,692.9531 440.3594,693.5625 L440.3594,695.0156 Q440.3594,695.625 440.125,695.8906 Q439.8906,696.1563 439.5156,696.1563 Q439.1719,696.1563 438.9688,695.9531 Q438.7656,695.7656 438.6563,695.25 Q438.6094,694.8906 438.4219,694.7031 Q438.0938,694.3281 437.4844,694.1094 Q436.875,693.8906 436.25,693.8906 Q435.4844,693.8906 434.8438,694.2188 Q434.2188,694.5469 433.7188,695.2969 Q433.2344,696.0469 433.2344,697.0781 L433.2344,698.1719 Q433.2344,699.4063 434.125,700.2344 Q435.0156,701.0469 436.6094,701.0469 Q437.5469,701.0469 438.2031,700.7969 Q438.5938,700.6406 439.0156,700.2031 Q439.2813,699.9375 439.4219,699.8594 Q439.5781,699.7813 439.7813,699.7813 Q440.1094,699.7813 440.3594,700.0469 Q440.625,700.2969 440.625,700.6406 Q440.625,700.9844 440.2813,701.3906 Q439.7813,701.9688 438.9844,702.2969 Q437.9063,702.75 436.6094,702.75 Q435.0938,702.75 433.8906,702.125 Q432.9063,701.625 432.2188,700.5625 Q431.5313,699.4844 431.5313,698.2031 L431.5313,697.0469 Q431.5313,695.7188 432.1406,694.5781 Q432.7656,693.4219 433.8594,692.8125 Q434.9531,692.1875 436.1875,692.1875 Q436.9219,692.1875 437.5625,692.3594 Q438.2188,692.5156 438.7656,692.875 Z " fill="#000000"/><text fill="#000000" font-family="sans-serif" font-size="14" lengthAdjust="spacing" textLength="194" x="450" y="702.7969">InMemoryCandidateRepository</text><line style="stroke:#181818;stroke-width:0.5;" x1="422" x2="646" y1="713" y2="713"/><line style="stroke:#181818;stroke-width:0.5;" x1="422" x2="646" y1="721" y2="721"/><ellipse cx="432" cy="735.8105" fill="#84BE84" rx="3" ry="3" style="stroke:#038048;stroke-width:1.0;"/><text fill="#000000" font-family="sans-serif" font-size="14" lengthAdjust="spacing" textLength="116" x="441" y="740.1074">findByEmail(email)</text></g><!--class JpaCandidateRepository--><g id="elem_JpaCandidateRepository"><rect codeLine="65" fill="#F1F1F1" height="66.6211" id="JpaCandidateRepository" rx="2.5" ry="2.5" style="stroke:#181818;stroke-width:0.5;" width="187" x="682.5" y="681"/><ellipse cx="697.5" cy="697" fill="#ADD1B2" rx="11" ry="11" style="stroke:#181818;stroke-width:1.0;"/><path d="M700.2656,692.875 Q700.4219,692.6563 700.6094,692.5469 Q700.7969,692.4375 701.0156,692.4375 Q701.3906,692.4375 701.625,692.7031 Q701.8594,692.9531 701.8594,693.5625 L701.8594,695.0156 Q701.8594,695.625 701.625,695.8906 Q701.3906,696.1563 701.0156,696.1563 Q700.6719,696.1563 700.4688,695.9531 Q700.2656,695.7656 700.1563,695.25 Q700.1094,694.8906 699.9219,694.7031 Q699.5938,694.3281 698.9844,694.1094 Q698.375,693.8906 697.75,693.8906 Q696.9844,693.8906 696.3438,694.2188 Q695.7188,694.5469 695.2188,695.2969 Q694.7344,696.0469 694.7344,697.0781 L694.7344,698.1719 Q694.7344,699.4063 695.625,700.2344 Q696.5156,701.0469 698.1094,701.0469 Q699.0469,701.0469 699.7031,700.7969 Q700.0938,700.6406 700.5156,700.2031 Q700.7813,699.9375 700.9219,699.8594 Q701.0781,699.7813 701.2813,699.7813 Q701.6094,699.7813 701.8594,700.0469 Q702.125,700.2969 702.125,700.6406 Q702.125,700.9844 701.7813,701.3906 Q701.2813,701.9688 700.4844,702.2969 Q699.4063,702.75 698.1094,702.75 Q696.5938,702.75 695.3906,702.125 Q694.4063,701.625 693.7188,700.5625 Q693.0313,699.4844 693.0313,698.2031 L693.0313,697.0469 Q693.0313,695.7188 693.6406,694.5781 Q694.2656,693.4219 695.3594,692.8125 Q696.4531,692.1875 697.6875,692.1875 Q698.4219,692.1875 699.0625,692.3594 Q699.7188,692.5156 700.2656,692.875 Z " fill="#000000"/><text fill="#000000" font-family="sans-serif" font-size="14" lengthAdjust="spacing" textLength="155" x="711.5" y="702.7969">JpaCandidateRepository</text><line style="stroke:#181818;stroke-width:0.5;" x1="683.5" x2="868.5" y1="713" y2="713"/><line style="stroke:#181818;stroke-width:0.5;" x1="683.5" x2="868.5" y1="721" y2="721"/><ellipse cx="693.5" cy="735.8105" fill="#84BE84" rx="3" ry="3" style="stroke:#038048;stroke-width:1.0;"/><text fill="#000000" font-family="sans-serif" font-size="14" lengthAdjust="spacing" textLength="116" x="702.5" y="740.1074">findByEmail(email)</text></g><!--class AuthorizationService--><g id="elem_AuthorizationService"><rect codeLine="69" fill="#F1F1F1" height="103.8633" id="AuthorizationService" rx="2.5" ry="2.5" style="stroke:#181818;stroke-width:0.5;" width="246" x="534" y="343.5"/><ellipse cx="588.25" cy="359.5" fill="#ADD1B2" rx="11" ry="11" style="stroke:#181818;stroke-width:1.0;"/><path d="M591.0156,355.375 Q591.1719,355.1563 591.3594,355.0469 Q591.5469,354.9375 591.7656,354.9375 Q592.1406,354.9375 592.375,355.2031 Q592.6094,355.4531 592.6094,356.0625 L592.6094,357.5156 Q592.6094,358.125 592.375,358.3906 Q592.1406,358.6563 591.7656,358.6563 Q591.4219,358.6563 591.2188,358.4531 Q591.0156,358.2656 590.9063,357.75 Q590.8594,357.3906 590.6719,357.2031 Q590.3438,356.8281 589.7344,356.6094 Q589.125,356.3906 588.5,356.3906 Q587.7344,356.3906 587.0938,356.7188 Q586.4688,357.0469 585.9688,357.7969 Q585.4844,358.5469 585.4844,359.5781 L585.4844,360.6719 Q585.4844,361.9063 586.375,362.7344 Q587.2656,363.5469 588.8594,363.5469 Q589.7969,363.5469 590.4531,363.2969 Q590.8438,363.1406 591.2656,362.7031 Q591.5313,362.4375 591.6719,362.3594 Q591.8281,362.2813 592.0313,362.2813 Q592.3594,362.2813 592.6094,362.5469 Q592.875,362.7969 592.875,363.1406 Q592.875,363.4844 592.5313,363.8906 Q592.0313,364.4688 591.2344,364.7969 Q590.1563,365.25 588.8594,365.25 Q587.3438,365.25 586.1406,364.625 Q585.1563,364.125 584.4688,363.0625 Q583.7813,361.9844 583.7813,360.7031 L583.7813,359.5469 Q583.7813,358.2188 584.3906,357.0781 Q585.0156,355.9219 586.1094,355.3125 Q587.2031,354.6875 588.4375,354.6875 Q589.1719,354.6875 589.8125,354.8594 Q590.4688,355.0156 591.0156,355.375 Z " fill="#000000"/><text fill="#000000" font-family="sans-serif" font-size="14" lengthAdjust="spacing" textLength="129" x="608.75" y="365.2969">AuthorizationService</text><line style="stroke:#181818;stroke-width:0.5;" x1="535" x2="779" y1="375.5" y2="375.5"/><rect fill="none" height="6" style="stroke:#C82930;stroke-width:1.0;" width="6" x="542" y="387.3105"/><text fill="#000000" font-family="sans-serif" font-size="14" lengthAdjust="spacing" textLength="60" x="554" y="394.6074">LOGGER</text><rect fill="none" height="6" style="stroke:#C82930;stroke-width:1.0;" width="6" x="542" y="405.9316"/><text fill="#000000" font-family="sans-serif" font-size="14" lengthAdjust="spacing" textLength="70" x="554" y="413.2285">theSession</text><line style="stroke:#181818;stroke-width:0.5;" x1="535" x2="779" y1="420.7422" y2="420.7422"/><ellipse cx="545" cy="435.5527" fill="#84BE84" rx="3" ry="3" style="stroke:#038048;stroke-width:1.0;"/><text fill="#000000" font-family="sans-serif" font-size="14" lengthAdjust="spacing" textLength="220" x="554" y="439.8496">isAuthenticatedUserAuthorizedTo()</text></g><!--link DisplayInfoCandidateController to AuthorizationService--><g id="link_DisplayInfoCandidateController_AuthorizationService"><path codeLine="74" d="M485.39,237.01 C521.7,270.33 561.969,307.2936 596.649,339.1136 " fill="none" id="DisplayInfoCandidateController-to-AuthorizationService" style="stroke:#181818;stroke-width:1.0;"/><polygon fill="#181818" points="601.07,343.17,597.1428,334.138,597.3858,339.7896,591.7342,340.0327,601.07,343.17" style="stroke:#181818;stroke-width:1.0;"/></g><!--link PersistenceContext to RepositoryFactory--><g id="link_PersistenceContext_RepositoryFactory"><path codeLine="76" d="M844.23,209.56 C854.6,250.57 870.8385,314.7932 881.2385,355.9032 " fill="none" id="PersistenceContext-to-RepositoryFactory" style="stroke:#181818;stroke-width:1.0;"/><polygon fill="#181818" points="882.71,361.72,884.3806,352.0139,881.4837,356.8727,876.6249,353.9759,882.71,361.72" style="stroke:#181818;stroke-width:1.0;"/></g><!--link RepositoryFactory to CandidateRepository--><g id="link_RepositoryFactory_CandidateRepository"><path codeLine="78" d="M863.04,429.05 C845.17,448.93 820.93,474.23 797,494 C770.35,516.02 743.3581,534.1625 716.4181,550.7625 " fill="none" id="RepositoryFactory-to-CandidateRepository" style="stroke:#181818;stroke-width:1.0;"/><polygon fill="#181818" points="711.31,553.91,721.0706,552.5941,715.5668,551.287,716.8738,545.7833,711.31,553.91" style="stroke:#181818;stroke-width:1.0;"/></g><!--reverse link CandidateRepository to InMemoryCandidateRepository--><g id="link_CandidateRepository_InMemoryCandidateRepository"><path codeLine="82" d="M611.0015,633.9539 C593.2215,652.3239 583.57,662.29 565.74,680.71 " fill="none" id="CandidateRepository-backto-InMemoryCandidateRepository" style="stroke:#181818;stroke-width:1.0;stroke-dasharray:7.0,7.0;"/><polygon fill="none" points="623.52,621.02,606.6902,629.7811,615.3128,638.1268,623.52,621.02" style="stroke:#181818;stroke-width:1.0;"/></g><!--reverse link CandidateRepository to JpaCandidateRepository--><g id="link_CandidateRepository_JpaCandidateRepository"><path codeLine="83" d="M698.9985,633.9539 C716.7785,652.3239 726.43,662.29 744.26,680.71 " fill="none" id="CandidateRepository-backto-JpaCandidateRepository" style="stroke:#181818;stroke-width:1.0;stroke-dasharray:7.0,7.0;"/><polygon fill="none" points="686.48,621.02,694.6872,638.1268,703.3098,629.7811,686.48,621.02" style="stroke:#181818;stroke-width:1.0;"/></g><!--link DisplayInfoCandidateController to CandidateService--><g id="link_DisplayInfoCandidateController_CandidateService"><path codeLine="87" d="M420,237.01 C420,273.85 420,314.1 420,346.93 " fill="none" id="DisplayInfoCandidateController-to-CandidateService" style="stroke:#181818;stroke-width:1.0;"/><polygon fill="#181818" points="420,352.93,424,343.93,420,347.93,416,343.93,420,352.93" style="stroke:#181818;stroke-width:1.0;"/></g><!--link DisplayInfoCandidateController to Candidate--><g id="link_DisplayInfoCandidateController_Candidate"><path codeLine="89" d="M257.99,237.06 C222.7,253.77 186.75,273.81 156,297 C150.23,301.35 148.975,302.0747 143.525,307.1647 " fill="none" id="DisplayInfoCandidateController-to-Candidate" style="stroke:#181818;stroke-width:1.0;"/><polygon fill="#181818" points="139.14,311.26,148.4477,308.0403,142.7942,307.8472,142.9873,302.1937,139.14,311.26" style="stroke:#181818;stroke-width:1.0;"/></g><!--link DisplayInfoCandidateController to CandidateDTO--><g id="link_DisplayInfoCandidateController_CandidateDTO"><path codeLine="90" d="M370.34,237.01 C350.36,261.15 330.8552,284.7075 309.5052,310.5075 " fill="none" id="DisplayInfoCandidateController-to-CandidateDTO" style="stroke:#181818;stroke-width:1.0;"/><polygon fill="#181818" points="305.68,315.13,314.4995,310.7464,308.8677,311.2779,308.3362,305.6461,305.68,315.13" style="stroke:#181818;stroke-width:1.0;"/></g><!--link DisplayInfoCandidateUI to PersistenceContext--><g id="link_DisplayInfoCandidateUI_PersistenceContext"><path codeLine="92" d="M638.18,55.13 C677.19,78.77 732.9686,112.5706 776.8986,139.1906 " fill="none" id="DisplayInfoCandidateUI-to-PersistenceContext" style="stroke:#181818;stroke-width:1.0;"/><polygon fill="#181818" points="782.03,142.3,776.4059,134.2149,777.7538,139.7088,772.2599,141.0568,782.03,142.3" style="stroke:#181818;stroke-width:1.0;"/></g><!--link DisplayInfoCandidateUI to DisplayInfoCandidateController--><g id="link_DisplayInfoCandidateUI_DisplayInfoCandidateController"><path codeLine="93" d="M570.68,55.29 C550.26,71.52 526.7273,90.207 500.2273,111.267 " fill="none" id="DisplayInfoCandidateUI-to-DisplayInfoCandidateController" style="stroke:#181818;stroke-width:1.0;"/><polygon fill="#181818" points="495.53,115,505.0646,112.532,499.4444,111.8892,500.0873,106.2689,495.53,115" style="stroke:#181818;stroke-width:1.0;"/></g><!--link CandidateService to CandidateRepository--><g id="link_CandidateService_CandidateRepository"><path codeLine="95" d="M457.48,438.26 C474.54,456.28 495.48,477.06 516,494 C542.38,515.78 568.8993,533.9224 595.2993,550.6224 " fill="none" id="CandidateService-to-CandidateRepository" style="stroke:#181818;stroke-width:1.0;"/><polygon fill="#181818" points="600.37,553.83,594.9024,545.6382,596.1445,551.157,590.6256,552.3991,600.37,553.83" style="stroke:#181818;stroke-width:1.0;"/></g><!--SRC=[dLJPRi8m47ptL_WHb8Olg2fHBb6rK75yW9jiYgN4JcsdAZt-lUkSb9XGu8LuFRCxdd4In4nhEkOwZTb-BY8vOYBa8JEmdTClGdu82Kv2Hb8O9UCO549zoZApauf_CiEbM8Dwvm5WEQZWLSaxqwpdQdJJz5b1AZKtKktxn7i5KxVeGS9utBUYAzdr7YgaFiq1-11nfSs29K0e_doAs7hfKmLl6LUGW31wokEockwaW4MMl80g2YnDruQPJ1VBG07E2OS6bnurScnahzyOM2iPRvPMJAF6iZi4EVKSopaSdn-_DRRqCKyA13fjspLMOYeH5-7zVc95zKeJooODRCe2-vSVm6lNIrx1UWQbkJOWWZnS-33bkLL5uw1B1iTz5J7KDsh7ZBI_wfgSYqbpyGG90g_XFgJi6jhGSKTpRn-NizbaXGzcXvvhZTl4uzhYqN0Us92s6bJL0C9DSK_El66-V-SSIeZ3PmjkXKD8EqSBT1pVHkzovVPxCEXo-pJ9RRETyuzp7r_YoqWNWV7jT7V7xw45jitkGdTFFl2uka4TUVm2]--></g></svg>