<?xml version="1.0" encoding="us-ascii" standalone="no"?><svg xmlns="http://www.w3.org/2000/svg" xmlns:xlink="http://www.w3.org/1999/xlink" contentStyleType="text/css" height="689px" preserveAspectRatio="none" style="width:2347px;height:689px;background:#FFFFFF;" version="1.1" viewBox="0 0 2347 689" width="2347px" zoomAndPan="magnify"><defs/><g><rect fill="#FFFFFF" height="450.7344" style="stroke:#181818;stroke-width:1.0;" width="10" x="315.5" y="121.5332"/><rect fill="#FFFFFF" height="62.582" style="stroke:#181818;stroke-width:1.0;" width="10" x="510.5" y="215.4063"/><rect fill="#FFFFFF" height="31.291" style="stroke:#181818;stroke-width:1.0;" width="10" x="510.5" y="509.6855"/><rect fill="#FFFFFF" height="31.291" style="stroke:#181818;stroke-width:1.0;" width="10" x="858.5" y="215.4063"/><rect fill="#FFFFFF" height="31.291" style="stroke:#181818;stroke-width:1.0;" width="10" x="1007" y="277.9883"/><rect fill="#FFFFFF" height="161.1152" style="stroke:#181818;stroke-width:1.0;" width="10" x="1007" y="348.5703"/><rect fill="#FFFFFF" height="31.291" style="stroke:#181818;stroke-width:1.0;" width="10" x="1802" y="416.1523"/><rect fill="#FFFFFF" height="75.582" style="stroke:#181818;stroke-width:1.0;" width="10" x="2210.5" y="309.2793"/><line style="stroke:#181818;stroke-width:0.5;stroke-dasharray:5.0,5.0;" x1="66" x2="66" y1="88.2422" y2="590.2676"/><line style="stroke:#181818;stroke-width:0.5;stroke-dasharray:5.0,5.0;" x1="320.5" x2="320.5" y1="88.2422" y2="590.2676"/><line style="stroke:#181818;stroke-width:0.5;stroke-dasharray:5.0,5.0;" x1="515.5" x2="515.5" y1="88.2422" y2="590.2676"/><line style="stroke:#181818;stroke-width:0.5;stroke-dasharray:5.0,5.0;" x1="863" x2="863" y1="88.2422" y2="590.2676"/><line style="stroke:#181818;stroke-width:0.5;stroke-dasharray:5.0,5.0;" x1="1012" x2="1012" y1="88.2422" y2="590.2676"/><line style="stroke:#181818;stroke-width:0.5;stroke-dasharray:5.0,5.0;" x1="1806.5" x2="1806.5" y1="88.2422" y2="590.2676"/><line style="stroke:#181818;stroke-width:0.5;stroke-dasharray:5.0,5.0;" x1="1931" x2="1931" y1="465.2734" y2="590.2676"/><line style="stroke:#181818;stroke-width:0.5;stroke-dasharray:5.0,5.0;" x1="2066" x2="2066" y1="88.2422" y2="590.2676"/><line style="stroke:#181818;stroke-width:0.5;stroke-dasharray:5.0,5.0;" x1="2215" x2="2215" y1="88.2422" y2="590.2676"/><text fill="#000000" font-family="sans-serif" font-size="14" lengthAdjust="spacing" textLength="117" x="5" y="84.7285">CustomerManager</text><ellipse cx="66.5" cy="18.1211" fill="#E2E2F0" rx="8" ry="8" style="stroke:#181818;stroke-width:0.5;"/><path d="M66.5,26.1211 L66.5,53.1211 M53.5,34.1211 L79.5,34.1211 M66.5,53.1211 L53.5,68.1211 M66.5,53.1211 L79.5,68.1211 " fill="none" style="stroke:#181818;stroke-width:0.5;"/><text fill="#000000" font-family="sans-serif" font-size="14" lengthAdjust="spacing" textLength="117" x="5" y="604.375">CustomerManager</text><ellipse cx="66.5" cy="616.3887" fill="#E2E2F0" rx="8" ry="8" style="stroke:#181818;stroke-width:0.5;"/><path d="M66.5,624.3887 L66.5,651.3887 M53.5,632.3887 L79.5,632.3887 M66.5,651.3887 L53.5,666.3887 M66.5,651.3887 L79.5,666.3887 " fill="none" style="stroke:#181818;stroke-width:0.5;"/><rect fill="#E2E2F0" height="51.2422" rx="2.5" ry="2.5" style="stroke:#181818;stroke-width:0.5;" width="160" x="240.5" y="36"/><text fill="#000000" font-family="sans-serif" font-size="14" font-style="italic" lengthAdjust="spacing" textLength="95" x="273" y="58.1074">&#171;presentation&#187;</text><text fill="#000000" font-family="sans-serif" font-size="14" lengthAdjust="spacing" textLength="146" x="247.5" y="76.7285">DisplayInfoCandidateUI</text><rect fill="#E2E2F0" height="51.2422" rx="2.5" ry="2.5" style="stroke:#181818;stroke-width:0.5;" width="160" x="240.5" y="589.2676"/><text fill="#000000" font-family="sans-serif" font-size="14" font-style="italic" lengthAdjust="spacing" textLength="95" x="273" y="611.375">&#171;presentation&#187;</text><text fill="#000000" font-family="sans-serif" font-size="14" lengthAdjust="spacing" textLength="146" x="247.5" y="629.9961">DisplayInfoCandidateUI</text><rect fill="#E2E2F0" height="51.2422" rx="2.5" ry="2.5" style="stroke:#181818;stroke-width:0.5;" width="210" x="410.5" y="36"/><text fill="#000000" font-family="sans-serif" font-size="14" font-style="italic" lengthAdjust="spacing" textLength="84" x="473.5" y="58.1074">&#171;application&#187;</text><text fill="#000000" font-family="sans-serif" font-size="14" lengthAdjust="spacing" textLength="196" x="417.5" y="76.7285">DisplayInfoCandidateController</text><rect fill="#E2E2F0" height="51.2422" rx="2.5" ry="2.5" style="stroke:#181818;stroke-width:0.5;" width="210" x="410.5" y="589.2676"/><text fill="#000000" font-family="sans-serif" font-size="14" font-style="italic" lengthAdjust="spacing" textLength="84" x="473.5" y="611.375">&#171;application&#187;</text><text fill="#000000" font-family="sans-serif" font-size="14" lengthAdjust="spacing" textLength="196" x="417.5" y="629.9961">DisplayInfoCandidateController</text><rect fill="#E2E2F0" height="51.2422" rx="2.5" ry="2.5" style="stroke:#181818;stroke-width:0.5;" width="151" x="788" y="36"/><text fill="#000000" font-family="sans-serif" font-size="14" font-style="italic" lengthAdjust="spacing" textLength="60" x="833.5" y="58.1074">&#171;service&#187;</text><text fill="#000000" font-family="sans-serif" font-size="14" lengthAdjust="spacing" textLength="137" x="795" y="76.7285">AuthenticationService</text><rect fill="#E2E2F0" height="51.2422" rx="2.5" ry="2.5" style="stroke:#181818;stroke-width:0.5;" width="151" x="788" y="589.2676"/><text fill="#000000" font-family="sans-serif" font-size="14" font-style="italic" lengthAdjust="spacing" textLength="60" x="833.5" y="611.375">&#171;service&#187;</text><text fill="#000000" font-family="sans-serif" font-size="14" lengthAdjust="spacing" textLength="137" x="795" y="629.9961">AuthenticationService</text><rect fill="#E2E2F0" height="51.2422" rx="2.5" ry="2.5" style="stroke:#181818;stroke-width:0.5;" width="126" x="949" y="36"/><text fill="#000000" font-family="sans-serif" font-size="14" font-style="italic" lengthAdjust="spacing" textLength="60" x="982" y="58.1074">&#171;service&#187;</text><text fill="#000000" font-family="sans-serif" font-size="14" lengthAdjust="spacing" textLength="112" x="956" y="76.7285">CandidateService</text><rect fill="#E2E2F0" height="51.2422" rx="2.5" ry="2.5" style="stroke:#181818;stroke-width:0.5;" width="126" x="949" y="589.2676"/><text fill="#000000" font-family="sans-serif" font-size="14" font-style="italic" lengthAdjust="spacing" textLength="60" x="982" y="611.375">&#171;service&#187;</text><text fill="#000000" font-family="sans-serif" font-size="14" lengthAdjust="spacing" textLength="112" x="956" y="629.9961">CandidateService</text><rect fill="#E2E2F0" height="51.2422" rx="2.5" ry="2.5" style="stroke:#181818;stroke-width:0.5;" width="79" x="1767.5" y="36"/><text fill="#000000" font-family="sans-serif" font-size="14" font-style="italic" lengthAdjust="spacing" textLength="62" x="1776" y="58.1074">&#171;domain&#187;</text><text fill="#000000" font-family="sans-serif" font-size="14" lengthAdjust="spacing" textLength="65" x="1774.5" y="76.7285">Candidate</text><rect fill="#E2E2F0" height="51.2422" rx="2.5" ry="2.5" style="stroke:#181818;stroke-width:0.5;" width="79" x="1767.5" y="589.2676"/><text fill="#000000" font-family="sans-serif" font-size="14" font-style="italic" lengthAdjust="spacing" textLength="62" x="1776" y="611.375">&#171;domain&#187;</text><text fill="#000000" font-family="sans-serif" font-size="14" lengthAdjust="spacing" textLength="65" x="1774.5" y="629.9961">Candidate</text><rect fill="#E2E2F0" height="51.2422" rx="2.5" ry="2.5" style="stroke:#181818;stroke-width:0.5;" width="109" x="1877" y="589.2676"/><text fill="#000000" font-family="sans-serif" font-size="14" font-style="italic" lengthAdjust="spacing" textLength="36" x="1913.5" y="611.375">&#171;dto&#187;</text><text fill="#000000" font-family="sans-serif" font-size="14" lengthAdjust="spacing" textLength="95" x="1884" y="629.9961">CandidateDTO</text><rect fill="#E2E2F0" height="51.2422" rx="2.5" ry="2.5" style="stroke:#181818;stroke-width:0.5;" width="140" x="1996" y="36"/><text fill="#000000" font-family="sans-serif" font-size="14" font-style="italic" lengthAdjust="spacing" textLength="62" x="2035" y="58.1074">&#171;domain&#187;</text><text fill="#000000" font-family="sans-serif" font-size="14" lengthAdjust="spacing" textLength="126" x="2003" y="76.7285">PasswordGenerator</text><rect fill="#E2E2F0" height="51.2422" rx="2.5" ry="2.5" style="stroke:#181818;stroke-width:0.5;" width="140" x="1996" y="589.2676"/><text fill="#000000" font-family="sans-serif" font-size="14" font-style="italic" lengthAdjust="spacing" textLength="62" x="2035" y="611.375">&#171;domain&#187;</text><text fill="#000000" font-family="sans-serif" font-size="14" lengthAdjust="spacing" textLength="126" x="2003" y="629.9961">PasswordGenerator</text><text fill="#000000" font-family="sans-serif" font-size="14" font-style="italic" lengthAdjust="spacing" textLength="79" x="2173" y="66.1074">&#171;repository&#187;</text><text fill="#000000" font-family="sans-serif" font-size="14" lengthAdjust="spacing" textLength="133" x="2146" y="84.7285">CandidateRepository</text><path d="M2197.5,15 C2197.5,5 2215.5,5 2215.5,5 C2215.5,5 2233.5,5 2233.5,15 L2233.5,41 C2233.5,51 2215.5,51 2215.5,51 C2215.5,51 2197.5,51 2197.5,41 L2197.5,15 " fill="#E2E2F0" style="stroke:#181818;stroke-width:1.5;"/><path d="M2197.5,15 C2197.5,25 2215.5,25 2215.5,25 C2215.5,25 2233.5,25 2233.5,15 " fill="none" style="stroke:#181818;stroke-width:1.5;"/><text fill="#000000" font-family="sans-serif" font-size="14" font-style="italic" lengthAdjust="spacing" textLength="79" x="2173" y="604.375">&#171;repository&#187;</text><text fill="#000000" font-family="sans-serif" font-size="14" lengthAdjust="spacing" textLength="133" x="2146" y="622.9961">CandidateRepository</text><path d="M2197.5,636.5098 C2197.5,626.5098 2215.5,626.5098 2215.5,626.5098 C2215.5,626.5098 2233.5,626.5098 2233.5,636.5098 L2233.5,662.5098 C2233.5,672.5098 2215.5,672.5098 2215.5,672.5098 C2215.5,672.5098 2197.5,672.5098 2197.5,662.5098 L2197.5,636.5098 " fill="#E2E2F0" style="stroke:#181818;stroke-width:1.5;"/><path d="M2197.5,636.5098 C2197.5,646.5098 2215.5,646.5098 2215.5,646.5098 C2215.5,646.5098 2233.5,646.5098 2233.5,636.5098 " fill="none" style="stroke:#181818;stroke-width:1.5;"/><rect fill="#FFFFFF" height="450.7344" style="stroke:#181818;stroke-width:1.0;" width="10" x="315.5" y="121.5332"/><rect fill="#FFFFFF" height="62.582" style="stroke:#181818;stroke-width:1.0;" width="10" x="510.5" y="215.4063"/><rect fill="#FFFFFF" height="31.291" style="stroke:#181818;stroke-width:1.0;" width="10" x="510.5" y="509.6855"/><rect fill="#FFFFFF" height="31.291" style="stroke:#181818;stroke-width:1.0;" width="10" x="858.5" y="215.4063"/><rect fill="#FFFFFF" height="31.291" style="stroke:#181818;stroke-width:1.0;" width="10" x="1007" y="277.9883"/><rect fill="#FFFFFF" height="161.1152" style="stroke:#181818;stroke-width:1.0;" width="10" x="1007" y="348.5703"/><rect fill="#FFFFFF" height="31.291" style="stroke:#181818;stroke-width:1.0;" width="10" x="1802" y="416.1523"/><rect fill="#FFFFFF" height="75.582" style="stroke:#181818;stroke-width:1.0;" width="10" x="2210.5" y="309.2793"/><polygon fill="#181818" points="303.5,117.5332,313.5,121.5332,303.5,125.5332,307.5,121.5332" style="stroke:#181818;stroke-width:1.0;"/><line style="stroke:#181818;stroke-width:1.0;" x1="66.5" x2="309.5" y1="121.5332" y2="121.5332"/><text fill="#000000" font-family="sans-serif" font-size="13" font-weight="bold" lengthAdjust="spacing" textLength="7" x="73.5" y="116.2705">1</text><text fill="#000000" font-family="sans-serif" font-size="13" lengthAdjust="spacing" textLength="219" x="84.5" y="116.2705">requests to display info of a candidate</text><polygon fill="#181818" points="77.5,148.8242,67.5,152.8242,77.5,156.8242,73.5,152.8242" style="stroke:#181818;stroke-width:1.0;"/><line style="stroke:#181818;stroke-width:1.0;stroke-dasharray:2.0,2.0;" x1="71.5" x2="314.5" y1="152.8242" y2="152.8242"/><text fill="#000000" font-family="sans-serif" font-size="13" font-weight="bold" lengthAdjust="spacing" textLength="7" x="83.5" y="147.5615">2</text><text fill="#000000" font-family="sans-serif" font-size="13" lengthAdjust="spacing" textLength="181" x="94.5" y="147.5615">requests email of the candidate</text><polygon fill="#181818" points="303.5,180.1152,313.5,184.1152,303.5,188.1152,307.5,184.1152" style="stroke:#181818;stroke-width:1.0;"/><line style="stroke:#181818;stroke-width:1.0;" x1="66.5" x2="309.5" y1="184.1152" y2="184.1152"/><text fill="#000000" font-family="sans-serif" font-size="13" font-weight="bold" lengthAdjust="spacing" textLength="7" x="73.5" y="178.8525">3</text><text fill="#000000" font-family="sans-serif" font-size="13" lengthAdjust="spacing" textLength="82" x="84.5" y="178.8525">provides email</text><polygon fill="#181818" points="498.5,211.4063,508.5,215.4063,498.5,219.4063,502.5,215.4063" style="stroke:#181818;stroke-width:1.0;"/><line style="stroke:#181818;stroke-width:1.0;" x1="325.5" x2="504.5" y1="215.4063" y2="215.4063"/><text fill="#000000" font-family="sans-serif" font-size="13" font-weight="bold" lengthAdjust="spacing" textLength="7" x="332.5" y="210.1436">4</text><text fill="#000000" font-family="sans-serif" font-size="13" lengthAdjust="spacing" textLength="115" x="343.5" y="210.1436">getCandidate(email)</text><polygon fill="#181818" points="851.5,242.6973,861.5,246.6973,851.5,250.6973,855.5,246.6973" style="stroke:#181818;stroke-width:1.0;"/><line style="stroke:#181818;stroke-width:1.0;" x1="520.5" x2="857.5" y1="246.6973" y2="246.6973"/><text fill="#000000" font-family="sans-serif" font-size="13" font-weight="bold" lengthAdjust="spacing" textLength="7" x="527.5" y="241.4346">5</text><text fill="#000000" font-family="sans-serif" font-size="13" lengthAdjust="spacing" textLength="303" x="538.5" y="241.4346">authenticatedUser = loggedinUserWithPermissions()</text><polygon fill="#181818" points="995,273.9883,1005,277.9883,995,281.9883,999,277.9883" style="stroke:#181818;stroke-width:1.0;"/><line style="stroke:#181818;stroke-width:1.0;" x1="515.5" x2="1001" y1="277.9883" y2="277.9883"/><text fill="#000000" font-family="sans-serif" font-size="13" font-weight="bold" lengthAdjust="spacing" textLength="7" x="522.5" y="272.7256">6</text><text fill="#000000" font-family="sans-serif" font-size="13" lengthAdjust="spacing" textLength="108" x="533.5" y="272.7256">findByEmail(email)</text><polygon fill="#181818" points="2198.5,305.2793,2208.5,309.2793,2198.5,313.2793,2202.5,309.2793" style="stroke:#181818;stroke-width:1.0;"/><line style="stroke:#181818;stroke-width:1.0;" x1="1012" x2="2204.5" y1="309.2793" y2="309.2793"/><text fill="#000000" font-family="sans-serif" font-size="13" font-weight="bold" lengthAdjust="spacing" textLength="7" x="1019" y="304.0166">7</text><text fill="#000000" font-family="sans-serif" font-size="13" lengthAdjust="spacing" textLength="108" x="1030" y="304.0166">findByEmail(email)</text><line style="stroke:#181818;stroke-width:1.0;" x1="2220.5" x2="2267.5" y1="335.5703" y2="335.5703"/><line style="stroke:#181818;stroke-width:1.0;" x1="2267.5" x2="2267.5" y1="335.5703" y2="348.5703"/><line style="stroke:#181818;stroke-width:1.0;" x1="2226.5" x2="2267.5" y1="348.5703" y2="348.5703"/><polygon fill="#181818" points="2236.5,344.5703,2226.5,348.5703,2236.5,352.5703,2232.5,348.5703" style="stroke:#181818;stroke-width:1.0;"/><text fill="#000000" font-family="sans-serif" font-size="13" font-weight="bold" lengthAdjust="spacing" textLength="7" x="2232.5" y="330.3076">8</text><text fill="#000000" font-family="sans-serif" font-size="13" lengthAdjust="spacing" textLength="97" x="2243.5" y="330.3076">finding candidate</text><polygon fill="#181818" points="1028,380.8613,1018,384.8613,1028,388.8613,1024,384.8613" style="stroke:#181818;stroke-width:1.0;"/><line style="stroke:#181818;stroke-width:1.0;stroke-dasharray:2.0,2.0;" x1="1022" x2="2214.5" y1="384.8613" y2="384.8613"/><text fill="#000000" font-family="sans-serif" font-size="13" font-weight="bold" lengthAdjust="spacing" textLength="7" x="1034" y="379.5986">9</text><text fill="#000000" font-family="sans-serif" font-size="13" lengthAdjust="spacing" textLength="56" x="1045" y="379.5986">candidate</text><polygon fill="#181818" points="1790,412.1523,1800,416.1523,1790,420.1523,1794,416.1523" style="stroke:#181818;stroke-width:1.0;"/><line style="stroke:#181818;stroke-width:1.0;" x1="1017" x2="1796" y1="416.1523" y2="416.1523"/><text fill="#000000" font-family="sans-serif" font-size="13" font-weight="bold" lengthAdjust="spacing" textLength="14" x="1024" y="410.8896">10</text><text fill="#000000" font-family="sans-serif" font-size="13" lengthAdjust="spacing" textLength="748" x="1042" y="410.8896">candidateDTO = CandidateDTO(this.email, this.name.firstName(), this.name.lastName, this.requirementsFile, this.phoneNumber);</text><polygon fill="#181818" points="1865,443.4434,1875,447.4434,1865,451.4434,1869,447.4434" style="stroke:#181818;stroke-width:1.0;"/><line style="stroke:#181818;stroke-width:1.0;" x1="1807" x2="1871" y1="447.4434" y2="447.4434"/><text fill="#000000" font-family="sans-serif" font-size="13" font-weight="bold" lengthAdjust="spacing" textLength="14" x="1814" y="442.1807">11</text><text fill="#000000" font-family="sans-serif" font-size="13" lengthAdjust="spacing" textLength="23" x="1832" y="442.1807">new</text><rect fill="#E2E2F0" height="51.2422" rx="2.5" ry="2.5" style="stroke:#181818;stroke-width:0.5;" width="109" x="1877" y="424.1523"/><text fill="#000000" font-family="sans-serif" font-size="14" font-style="italic" lengthAdjust="spacing" textLength="36" x="1913.5" y="446.2598">&#171;dto&#187;</text><text fill="#000000" font-family="sans-serif" font-size="14" lengthAdjust="spacing" textLength="95" x="1884" y="464.8809">CandidateDTO</text><polygon fill="#181818" points="531.5,505.6855,521.5,509.6855,531.5,513.6855,527.5,509.6855" style="stroke:#181818;stroke-width:1.0;"/><line style="stroke:#181818;stroke-width:1.0;stroke-dasharray:2.0,2.0;" x1="525.5" x2="1011" y1="509.6855" y2="509.6855"/><text fill="#000000" font-family="sans-serif" font-size="13" font-weight="bold" lengthAdjust="spacing" textLength="14" x="537.5" y="504.4229">12</text><text fill="#000000" font-family="sans-serif" font-size="13" lengthAdjust="spacing" textLength="82" x="555.5" y="504.4229">candidateDTO</text><polygon fill="#181818" points="336.5,536.9766,326.5,540.9766,336.5,544.9766,332.5,540.9766" style="stroke:#181818;stroke-width:1.0;"/><line style="stroke:#181818;stroke-width:1.0;stroke-dasharray:2.0,2.0;" x1="330.5" x2="514.5" y1="540.9766" y2="540.9766"/><text fill="#000000" font-family="sans-serif" font-size="13" font-weight="bold" lengthAdjust="spacing" textLength="14" x="342.5" y="535.7139">13</text><text fill="#000000" font-family="sans-serif" font-size="13" lengthAdjust="spacing" textLength="82" x="360.5" y="535.7139">candidateDTO</text><polygon fill="#181818" points="77.5,568.2676,67.5,572.2676,77.5,576.2676,73.5,572.2676" style="stroke:#181818;stroke-width:1.0;"/><line style="stroke:#181818;stroke-width:1.0;stroke-dasharray:2.0,2.0;" x1="71.5" x2="319.5" y1="572.2676" y2="572.2676"/><text fill="#000000" font-family="sans-serif" font-size="13" font-weight="bold" lengthAdjust="spacing" textLength="14" x="83.5" y="567.0049">14</text><text fill="#000000" font-family="sans-serif" font-size="13" lengthAdjust="spacing" textLength="140" x="101.5" y="567.0049">showInfo(candidateDTO)</text><!--SRC=[XLJHZjem47pFLwnuWbEv3w1tI9IZLwIM8YweZzLUiYIM4Zkr3OY_xwuJai21Ba_sUcOysTa4zzxeVVbEDeemySR2OBvttfHaVw76ZEm0q44SHHLQhn9LeVOmU56kAl2qr3ipHvsg53rjbm6wNSBJKsN9aVRebT7JwUVSkT7Ucg9ehfl7cv-iWbLLgEIco6plSxwWENqZUr091Uvi6_zWhgjBrxpsnZxbRR6vODoXrDPcAyQcfaIbxqDVujyr-Y-l1E_DjPCrEdSqDdqbJHQvyu6mVhrGPoryHqVGAc-eCaun_2JmpMBDUDlMX1F5C9vo31Emz6zFpZlm1jAwww2uxM1sW92S9ILuTU05aoAERypqkCScTbC8XrlUOxNNLDOSL4eDC2XCGuGJoCYtpeVXUDJT9X2ssnKakYXapm8XnmbW5pIbMyu8dg4mMKQfqhBzeto-9bigvtWGt734JQFRYXBp17PAfzzE2_5oTjGZr9xQBLCYeJ5RMlqPM-3jXWcHaCvSeIgTtUgxy1WpRarsc9ww24OGdiQJ36CFBBFs3FqX7FfSkSTWz0k4jSQI7dVAEh_YrN3KBnTOLvkQ382oL7BxtNTLdCjLRZIjmZzZzBNnq_LljcfAuaqioXVmyC0sDHsRetw_MtnufMPmhbxgRej3MdMypInUq3u6-w7IZRlBpL7-ISE-n4Mw_7Ny1m00]--></g></svg>