<?xml version="1.0" encoding="us-ascii" standalone="no"?><svg xmlns="http://www.w3.org/2000/svg" xmlns:xlink="http://www.w3.org/1999/xlink" contentStyleType="text/css" height="372.6px" preserveAspectRatio="none" style="width:491px;height:372px;background:#FFFFFF;" version="1.1" viewBox="0 0 491 372" width="491.4px" zoomAndPan="magnify"><defs/><g><text fill="#000000" font-family="sans-serif" font-size="8.4" font-weight="bold" lengthAdjust="spacing" textLength="101.4" x="190.8" y="14.1211">US 2002 Domain Model</text><!--cluster ja--><g id="cluster_ja"><path d="M5.1,138.143 L69.3,138.143 A2.25,2.25 0 0 1 70.8,139.643 L75,151.6359 L384.9,151.6359 A1.5,1.5 0 0 1 386.4,153.1359 L386.4,363.107 A1.5,1.5 0 0 1 384.9,364.607 L5.1,364.607 A1.5,1.5 0 0 1 3.6,363.107 L3.6,139.643 A1.5,1.5 0 0 1 5.1,138.143 " fill="none" style="stroke:#000000;stroke-width:0.8999999999999999;"/><line style="stroke:#000000;stroke-width:0.8999999999999999;" x1="3.6" x2="75" y1="151.6359" y2="151.6359"/><text fill="#000000" font-family="sans-serif" font-size="8.4" font-weight="bold" lengthAdjust="spacing" textLength="63.6" x="6" y="147.4641">JobApplication</text><text fill="#000000" font-family="sans-serif" font-size="8.4" font-style="italic" lengthAdjust="spacing" textLength="50.4" x="172.2" y="160.957">&#171;aggregate&#187;</text></g><!--cluster jo--><g id="cluster_jo"><path d="M402.3,286.199 L453.9,286.199 A2.25,2.25 0 0 1 455.4,287.699 L459.6,299.6919 L485.7,299.6919 A1.5,1.5 0 0 1 487.2,301.1919 L487.2,367.349 A1.5,1.5 0 0 1 485.7,368.849 L402.3,368.849 A1.5,1.5 0 0 1 400.8,367.349 L400.8,287.699 A1.5,1.5 0 0 1 402.3,286.199 " fill="none" style="stroke:#000000;stroke-width:0.8999999999999999;"/><line style="stroke:#000000;stroke-width:0.8999999999999999;" x1="400.8" x2="459.6" y1="299.6919" y2="299.6919"/><text fill="#000000" font-family="sans-serif" font-size="8.4" font-weight="bold" lengthAdjust="spacing" textLength="51" x="403.2" y="295.5201">JobOpening</text><text fill="#000000" font-family="sans-serif" font-size="8.4" font-style="italic" lengthAdjust="spacing" textLength="50.4" x="421.2" y="309.013">&#171;aggregate&#187;</text></g><!--cluster ca--><g id="cluster_ca"><path d="M189.9,26.093 L233.7,26.093 A2.25,2.25 0 0 1 235.2,27.593 L239.4,39.5859 L267.3,39.5859 A1.5,1.5 0 0 1 268.8,41.0859 L268.8,107.243 A1.5,1.5 0 0 1 267.3,108.743 L189.9,108.743 A1.5,1.5 0 0 1 188.4,107.243 L188.4,27.593 A1.5,1.5 0 0 1 189.9,26.093 " fill="none" style="stroke:#000000;stroke-width:0.8999999999999999;"/><line style="stroke:#000000;stroke-width:0.8999999999999999;" x1="188.4" x2="239.4" y1="39.5859" y2="39.5859"/><text fill="#000000" font-family="sans-serif" font-size="8.4" font-weight="bold" lengthAdjust="spacing" textLength="43.2" x="190.8" y="35.4141">Candidate</text><text fill="#000000" font-family="sans-serif" font-size="8.4" font-style="italic" lengthAdjust="spacing" textLength="50.4" x="205.8" y="48.907">&#171;aggregate&#187;</text></g><!--class JobApplicationID--><g id="elem_JobApplicationID"><rect codeLine="5" fill="#90EE90" height="42.4523" id="JobApplicationID" rx="1.5" ry="1.5" style="stroke:#181818;stroke-width:0.3;" width="87.6" x="289.2" y="168.743"/><ellipse cx="298.2" cy="185.1691" fill="#ADD1B2" rx="6.6" ry="6.6" style="stroke:#181818;stroke-width:0.6;"/><path d="M299.9839,188.555 Q299.6353,188.7343 299.2518,188.8239 Q298.8683,188.9136 298.4449,188.9136 Q296.9408,188.9136 296.1489,187.9225 Q295.357,186.9313 295.357,185.0587 Q295.357,183.1811 296.1489,182.1899 Q296.9408,181.1988 298.4449,181.1988 Q298.8683,181.1988 299.2567,181.2885 Q299.6452,181.3781 299.9839,181.5574 L299.9839,183.191 Q299.6054,182.8424 299.2493,182.6805 Q298.8932,182.5187 298.5146,182.5187 Q297.7078,182.5187 297.2969,183.1586 Q296.886,183.7986 296.886,185.0587 Q296.886,186.3138 297.2969,186.9538 Q297.7078,187.5938 298.5146,187.5938 Q298.8932,187.5938 299.2493,187.4319 Q299.6054,187.27 299.9839,186.9214 Z " fill="#000000"/><text fill="#000000" font-family="sans-serif" font-size="7.2" font-style="italic" lengthAdjust="spacing" textLength="17.4" x="332.1" y="178.7039">&#171;VO&#187;</text><text fill="#000000" font-family="sans-serif" font-size="7.2" font-style="italic" lengthAdjust="spacing" textLength="32.4" x="324.6" y="187.1836">&#171;identity&#187;</text><text fill="#000000" font-family="sans-serif" font-size="8.4" lengthAdjust="spacing" textLength="68.4" x="306.6" y="196.8234">JobApplicationID</text><line style="stroke:#181818;stroke-width:0.3;" x1="289.8" x2="376.2" y1="201.5953" y2="201.5953"/><line style="stroke:#181818;stroke-width:0.3;" x1="289.8" x2="376.2" y1="206.3953" y2="206.3953"/></g><!--class JobApplication--><g id="elem_JobApplication"><rect codeLine="6" fill="#B22222" height="42.4523" id="JobApplication" rx="1.5" ry="1.5" style="stroke:#181818;stroke-width:0.3;" width="79.2" x="189" y="168.743"/><ellipse cx="198" cy="185.1691" fill="#ADD1B2" rx="6.6" ry="6.6" style="stroke:#181818;stroke-width:0.6;"/><path d="M199.7839,188.555 Q199.4353,188.7343 199.0518,188.8239 Q198.6683,188.9136 198.2449,188.9136 Q196.7408,188.9136 195.9489,187.9225 Q195.157,186.9313 195.157,185.0587 Q195.157,183.1811 195.9489,182.1899 Q196.7408,181.1988 198.2449,181.1988 Q198.6683,181.1988 199.0567,181.2885 Q199.4452,181.3781 199.7839,181.5574 L199.7839,183.191 Q199.4054,182.8424 199.0493,182.6805 Q198.6932,182.5187 198.3146,182.5187 Q197.5078,182.5187 197.0969,183.1586 Q196.686,183.7986 196.686,185.0587 Q196.686,186.3138 197.0969,186.9538 Q197.5078,187.5938 198.3146,187.5938 Q198.6932,187.5938 199.0493,187.4319 Q199.4054,187.27 199.7839,186.9214 Z " fill="#000000"/><text fill="#000000" font-family="sans-serif" font-size="7.2" font-style="italic" lengthAdjust="spacing" textLength="21" x="225.9" y="178.7039">&#171;root&#187;</text><text fill="#000000" font-family="sans-serif" font-size="7.2" font-style="italic" lengthAdjust="spacing" textLength="25.8" x="223.5" y="187.1836">&#171;entity&#187;</text><text fill="#000000" font-family="sans-serif" font-size="8.4" lengthAdjust="spacing" textLength="60" x="206.4" y="196.8234">JobApplication</text><line style="stroke:#181818;stroke-width:0.3;" x1="189.6" x2="267.6" y1="201.5953" y2="201.5953"/><line style="stroke:#181818;stroke-width:0.3;" x1="189.6" x2="267.6" y1="206.3953" y2="206.3953"/></g><!--class CvFile--><g id="elem_CvFile"><rect codeLine="7" fill="#F1F1F1" height="33.9727" id="CvFile" rx="1.5" ry="1.5" style="stroke:#181818;stroke-width:0.3;" width="43.8" x="13.5" y="321.035"/><ellipse cx="22.5" cy="333.2213" fill="#ADD1B2" rx="6.6" ry="6.6" style="stroke:#181818;stroke-width:0.6;"/><path d="M24.2839,336.6071 Q23.9353,336.7864 23.5518,336.8761 Q23.1683,336.9657 22.7449,336.9657 Q21.2408,336.9657 20.4489,335.9746 Q19.657,334.9835 19.657,333.1108 Q19.657,331.2332 20.4489,330.2421 Q21.2408,329.251 22.7449,329.251 Q23.1683,329.251 23.5567,329.3406 Q23.9452,329.4303 24.2839,329.6096 L24.2839,331.2432 Q23.9054,330.8945 23.5493,330.7327 Q23.1932,330.5708 22.8146,330.5708 Q22.0078,330.5708 21.5969,331.2108 Q21.186,331.8508 21.186,333.1108 Q21.186,334.3659 21.5969,335.0059 Q22.0078,335.6459 22.8146,335.6459 Q23.1932,335.6459 23.5493,335.484 Q23.9054,335.3222 24.2839,334.9735 Z " fill="#000000"/><text fill="#000000" font-family="sans-serif" font-size="7.2" font-style="italic" lengthAdjust="spacing" textLength="17.4" x="34.5" y="330.9959">&#171;VO&#187;</text><text fill="#000000" font-family="sans-serif" font-size="8.4" lengthAdjust="spacing" textLength="24.6" x="30.9" y="340.6358">CvFile</text><line style="stroke:#181818;stroke-width:0.3;" x1="14.1" x2="56.7" y1="345.4076" y2="345.4076"/><line style="stroke:#181818;stroke-width:0.3;" x1="14.1" x2="56.7" y1="350.2076" y2="350.2076"/></g><!--class ScreeningResult--><g id="elem_ScreeningResult"><rect codeLine="8" fill="#F1F1F1" height="33.9727" id="ScreeningResult" rx="1.5" ry="1.5" style="stroke:#181818;stroke-width:0.3;" width="85.2" x="78" y="321.035"/><ellipse cx="87" cy="333.2213" fill="#ADD1B2" rx="6.6" ry="6.6" style="stroke:#181818;stroke-width:0.6;"/><path d="M88.7839,336.6071 Q88.4353,336.7864 88.0518,336.8761 Q87.6683,336.9657 87.2449,336.9657 Q85.7408,336.9657 84.9489,335.9746 Q84.157,334.9835 84.157,333.1108 Q84.157,331.2332 84.9489,330.2421 Q85.7408,329.251 87.2449,329.251 Q87.6683,329.251 88.0567,329.3406 Q88.4452,329.4303 88.7839,329.6096 L88.7839,331.2432 Q88.4054,330.8945 88.0493,330.7327 Q87.6932,330.5708 87.3146,330.5708 Q86.5078,330.5708 86.0969,331.2108 Q85.686,331.8508 85.686,333.1108 Q85.686,334.3659 86.0969,335.0059 Q86.5078,335.6459 87.3146,335.6459 Q87.6932,335.6459 88.0493,335.484 Q88.4054,335.3222 88.7839,334.9735 Z " fill="#000000"/><text fill="#000000" font-family="sans-serif" font-size="7.2" font-style="italic" lengthAdjust="spacing" textLength="17.4" x="119.7" y="330.9959">&#171;VO&#187;</text><text fill="#000000" font-family="sans-serif" font-size="8.4" lengthAdjust="spacing" textLength="66" x="95.4" y="340.6358">ScreeningResult</text><line style="stroke:#181818;stroke-width:0.3;" x1="78.6" x2="162.6" y1="345.4076" y2="345.4076"/><line style="stroke:#181818;stroke-width:0.3;" x1="78.6" x2="162.6" y1="350.2076" y2="350.2076"/></g><!--class ScreeningJustification--><g id="elem_ScreeningJustification"><rect codeLine="9" fill="#F1F1F1" height="33.9727" id="ScreeningJustification" rx="1.5" ry="1.5" style="stroke:#181818;stroke-width:0.3;" width="108" x="184.2" y="321.035"/><ellipse cx="193.2" cy="333.2213" fill="#ADD1B2" rx="6.6" ry="6.6" style="stroke:#181818;stroke-width:0.6;"/><path d="M194.9839,336.6071 Q194.6353,336.7864 194.2518,336.8761 Q193.8683,336.9657 193.4449,336.9657 Q191.9408,336.9657 191.1489,335.9746 Q190.357,334.9835 190.357,333.1108 Q190.357,331.2332 191.1489,330.2421 Q191.9408,329.251 193.4449,329.251 Q193.8683,329.251 194.2567,329.3406 Q194.6452,329.4303 194.9839,329.6096 L194.9839,331.2432 Q194.6054,330.8945 194.2493,330.7327 Q193.8932,330.5708 193.5146,330.5708 Q192.7078,330.5708 192.2969,331.2108 Q191.886,331.8508 191.886,333.1108 Q191.886,334.3659 192.2969,335.0059 Q192.7078,335.6459 193.5146,335.6459 Q193.8932,335.6459 194.2493,335.484 Q194.6054,335.3222 194.9839,334.9735 Z " fill="#000000"/><text fill="#000000" font-family="sans-serif" font-size="7.2" font-style="italic" lengthAdjust="spacing" textLength="17.4" x="237.3" y="330.9959">&#171;VO&#187;</text><text fill="#000000" font-family="sans-serif" font-size="8.4" lengthAdjust="spacing" textLength="88.8" x="201.6" y="340.6358">ScreeningJustification</text><line style="stroke:#181818;stroke-width:0.3;" x1="184.8" x2="291.6" y1="345.4076" y2="345.4076"/><line style="stroke:#181818;stroke-width:0.3;" x1="184.8" x2="291.6" y1="350.2076" y2="350.2076"/></g><!--class FinalResult--><g id="elem_FinalResult"><rect codeLine="10" fill="#F1F1F1" height="33.9727" id="FinalResult" rx="1.5" ry="1.5" style="stroke:#181818;stroke-width:0.3;" width="64.2" x="312.9" y="321.035"/><ellipse cx="321.9" cy="333.2213" fill="#ADD1B2" rx="6.6" ry="6.6" style="stroke:#181818;stroke-width:0.6;"/><path d="M323.6839,336.6071 Q323.3353,336.7864 322.9518,336.8761 Q322.5683,336.9657 322.1449,336.9657 Q320.6408,336.9657 319.8489,335.9746 Q319.057,334.9835 319.057,333.1108 Q319.057,331.2332 319.8489,330.2421 Q320.6408,329.251 322.1449,329.251 Q322.5683,329.251 322.9567,329.3406 Q323.3452,329.4303 323.6839,329.6096 L323.6839,331.2432 Q323.3054,330.8945 322.9493,330.7327 Q322.5932,330.5708 322.2146,330.5708 Q321.4078,330.5708 320.9969,331.2108 Q320.586,331.8508 320.586,333.1108 Q320.586,334.3659 320.9969,335.0059 Q321.4078,335.6459 322.2146,335.6459 Q322.5932,335.6459 322.9493,335.484 Q323.3054,335.3222 323.6839,334.9735 Z " fill="#000000"/><text fill="#000000" font-family="sans-serif" font-size="7.2" font-style="italic" lengthAdjust="spacing" textLength="17.4" x="344.1" y="330.9959">&#171;VO&#187;</text><text fill="#000000" font-family="sans-serif" font-size="8.4" lengthAdjust="spacing" textLength="45" x="330.3" y="340.6358">FinalResult</text><line style="stroke:#181818;stroke-width:0.3;" x1="313.5" x2="376.5" y1="345.4076" y2="345.4076"/><line style="stroke:#181818;stroke-width:0.3;" x1="313.5" x2="376.5" y1="350.2076" y2="350.2076"/></g><!--class JobOpening--><g id="elem_JobOpening"><rect codeLine="20" fill="#B22222" height="42.4523" id="JobOpening" rx="1.5" ry="1.5" style="stroke:#181818;stroke-width:0.3;" width="67.8" x="410.1" y="316.799"/><ellipse cx="419.1" cy="333.2251" fill="#ADD1B2" rx="6.6" ry="6.6" style="stroke:#181818;stroke-width:0.6;"/><path d="M420.8839,336.611 Q420.5353,336.7903 420.1518,336.8799 Q419.7683,336.9696 419.3449,336.9696 Q417.8408,336.9696 417.0489,335.9785 Q416.257,334.9873 416.257,333.1147 Q416.257,331.2371 417.0489,330.2459 Q417.8408,329.2548 419.3449,329.2548 Q419.7683,329.2548 420.1567,329.3445 Q420.5452,329.4341 420.8839,329.6134 L420.8839,331.247 Q420.5054,330.8984 420.1493,330.7365 Q419.7932,330.5747 419.4146,330.5747 Q418.6078,330.5747 418.1969,331.2146 Q417.786,331.8546 417.786,333.1147 Q417.786,334.3698 418.1969,335.0098 Q418.6078,335.6498 419.4146,335.6498 Q419.7932,335.6498 420.1493,335.4879 Q420.5054,335.326 420.8839,334.9774 Z " fill="#000000"/><text fill="#000000" font-family="sans-serif" font-size="7.2" font-style="italic" lengthAdjust="spacing" textLength="21" x="441.3" y="326.7599">&#171;root&#187;</text><text fill="#000000" font-family="sans-serif" font-size="7.2" font-style="italic" lengthAdjust="spacing" textLength="25.8" x="438.9" y="335.2396">&#171;entity&#187;</text><text fill="#000000" font-family="sans-serif" font-size="8.4" lengthAdjust="spacing" textLength="48.6" x="427.5" y="344.8794">JobOpening</text><line style="stroke:#181818;stroke-width:0.3;" x1="410.7" x2="477.3" y1="349.6513" y2="349.6513"/><line style="stroke:#181818;stroke-width:0.3;" x1="410.7" x2="477.3" y1="354.4513" y2="354.4513"/></g><!--class Candidate--><g id="elem_Candidate"><rect codeLine="24" fill="#B22222" height="42.4523" id="Candidate" rx="1.5" ry="1.5" style="stroke:#181818;stroke-width:0.3;" width="61.2" x="198" y="56.693"/><ellipse cx="207" cy="73.1191" fill="#ADD1B2" rx="6.6" ry="6.6" style="stroke:#181818;stroke-width:0.6;"/><path d="M208.7839,76.505 Q208.4353,76.6843 208.0518,76.7739 Q207.6683,76.8636 207.2449,76.8636 Q205.7408,76.8636 204.9489,75.8725 Q204.157,74.8813 204.157,73.0087 Q204.157,71.1311 204.9489,70.1399 Q205.7408,69.1488 207.2449,69.1488 Q207.6683,69.1488 208.0567,69.2385 Q208.4452,69.3281 208.7839,69.5074 L208.7839,71.141 Q208.4054,70.7924 208.0493,70.6305 Q207.6932,70.4687 207.3146,70.4687 Q206.5078,70.4687 206.0969,71.1086 Q205.686,71.7486 205.686,73.0087 Q205.686,74.2638 206.0969,74.9038 Q206.5078,75.5438 207.3146,75.5438 Q207.6932,75.5438 208.0493,75.3819 Q208.4054,75.22 208.7839,74.8714 Z " fill="#000000"/><text fill="#000000" font-family="sans-serif" font-size="7.2" font-style="italic" lengthAdjust="spacing" textLength="21" x="225.9" y="66.6539">&#171;root&#187;</text><text fill="#000000" font-family="sans-serif" font-size="7.2" font-style="italic" lengthAdjust="spacing" textLength="25.8" x="223.5" y="75.1336">&#171;entity&#187;</text><text fill="#000000" font-family="sans-serif" font-size="8.4" lengthAdjust="spacing" textLength="42" x="215.4" y="84.7734">Candidate</text><line style="stroke:#181818;stroke-width:0.3;" x1="198.6" x2="258.6" y1="89.5453" y2="89.5453"/><line style="stroke:#181818;stroke-width:0.3;" x1="198.6" x2="258.6" y1="94.3453" y2="94.3453"/></g><!--link JobApplication to JobApplicationID--><g id="link_JobApplication_JobApplicationID"><path codeLine="12" d="M268.236,189.971 C273.618,189.971 278.826,189.971 285.504,189.971 " fill="none" id="JobApplication-to-JobApplicationID" style="stroke:#181818;stroke-width:0.6;"/><polygon fill="#181818" points="289.104,189.971,283.704,187.571,286.104,189.971,283.704,192.371,289.104,189.971" style="stroke:#181818;stroke-width:0.6;"/><text fill="#000000" font-family="sans-serif" font-size="7.8" lengthAdjust="spacing" textLength="4.8" x="273.0964" y="188.0027">1</text><text fill="#000000" font-family="sans-serif" font-size="7.8" lengthAdjust="spacing" textLength="4.8" x="279.5297" y="188.0577">1</text></g><!--link JobApplication to CvFile--><g id="link_JobApplication_CvFile"><path codeLine="13" d="M191.712,211.409 C144.234,238.223 67.8,281.399 67.8,281.399 C67.8,281.399 56.3833,301.13 46.8373,317.648 " fill="none" id="JobApplication-to-CvFile" style="stroke:#181818;stroke-width:0.6;"/><polygon fill="#181818" points="45.036,320.765,49.8159,317.2905,46.5371,318.1675,45.66,314.8887,45.036,320.765" style="stroke:#181818;stroke-width:0.6;"/><text fill="#000000" font-family="sans-serif" font-size="7.8" lengthAdjust="spacing" textLength="4.8" x="179.9138" y="223.5871">1</text><text fill="#000000" font-family="sans-serif" font-size="7.8" lengthAdjust="spacing" textLength="4.8" x="41.8189" y="314.5672">1</text></g><!--link JobApplication to ScreeningResult--><g id="link_JobApplication_ScreeningResult"><path codeLine="14" d="M213.24,211.457 C191.58,240.911 154.6228,291.1587 134.8648,318.0267 " fill="none" id="JobApplication-to-ScreeningResult" style="stroke:#181818;stroke-width:0.6;"/><polygon fill="#181818" points="132.732,320.927,137.8646,317.9985,134.5093,318.5101,133.9976,315.1548,132.732,320.927" style="stroke:#181818;stroke-width:0.6;"/><text fill="#000000" font-family="sans-serif" font-size="7.8" lengthAdjust="spacing" textLength="4.8" x="205.3875" y="223.4807">1</text><text fill="#000000" font-family="sans-serif" font-size="7.8" lengthAdjust="spacing" textLength="14.4" x="119.4725" y="314.4958">0..1</text></g><!--link JobApplication to ScreeningJustification--><g id="link_JobApplication_ScreeningJustification"><path codeLine="15" d="M229.968,211.457 C231.888,240.911 235.1337,290.4666 236.8857,317.3346 " fill="none" id="JobApplication-to-ScreeningJustification" style="stroke:#181818;stroke-width:0.6;"/><polygon fill="#181818" points="237.12,320.927,239.1635,315.3822,236.9248,317.9333,234.3737,315.6946,237.12,320.927" style="stroke:#181818;stroke-width:0.6;"/><text fill="#000000" font-family="sans-serif" font-size="7.8" lengthAdjust="spacing" textLength="4.8" x="224.9906" y="223.4807">1</text><text fill="#000000" font-family="sans-serif" font-size="7.8" lengthAdjust="spacing" textLength="14.4" x="220.8052" y="314.4958">0..1</text></g><!--link JobApplication to FinalResult--><g id="link_JobApplication_FinalResult"><path codeLine="16" d="M245.67,211.409 C267.636,238.223 303,281.399 303,281.399 C303,281.399 317.9705,301.3666 330.3545,317.8846 " fill="none" id="JobApplication-to-FinalResult" style="stroke:#181818;stroke-width:0.6;"/><polygon fill="#181818" points="332.514,320.765,331.195,315.0047,330.7144,318.3647,327.3545,317.8841,332.514,320.765" style="stroke:#181818;stroke-width:0.6;"/><text fill="#000000" font-family="sans-serif" font-size="7.8" lengthAdjust="spacing" textLength="4.8" x="243.4831" y="223.5871">1</text><text fill="#000000" font-family="sans-serif" font-size="7.8" lengthAdjust="spacing" textLength="14.4" x="313.8077" y="314.5672">0..1</text></g><!--link JobApplication to JobOpening--><g id="link_JobApplication_JobOpening"><path codeLine="27" d="M264.804,211.409 C311.388,238.223 386.4,281.399 386.4,281.399 C386.4,281.399 403.5957,298.1186 419.9697,314.0486 " fill="none" id="JobApplication-to-JobOpening" style="stroke:#181818;stroke-width:0.6;"/><polygon fill="#181818" points="422.55,316.559,420.3531,311.0732,420.3997,314.467,417.0059,314.5136,422.55,316.559" style="stroke:#181818;stroke-width:0.6;"/><text fill="#000000" font-family="sans-serif" font-size="7.8" lengthAdjust="spacing" textLength="31.8" x="345.6" y="255.94">refers to</text><text fill="#000000" font-family="sans-serif" font-size="7.8" lengthAdjust="spacing" textLength="3.6" x="267.3322" y="223.5871">*</text><text fill="#000000" font-family="sans-serif" font-size="7.8" lengthAdjust="spacing" textLength="4.8" x="413.3527" y="310.3296">1</text></g><!--reverse link Candidate to JobApplication--><g id="link_Candidate_JobApplication"><path codeLine="28" d="M228.6,102.971 C228.6,122.789 228.6,148.823 228.6,168.611 " fill="none" id="Candidate-backto-JobApplication" style="stroke:#181818;stroke-width:0.6;"/><polygon fill="#181818" points="228.6,99.371,226.2,104.771,228.6,102.371,231,104.771,228.6,99.371" style="stroke:#181818;stroke-width:0.6;"/><text fill="#000000" font-family="sans-serif" font-size="7.8" lengthAdjust="spacing" textLength="58.8" x="229.2" y="126.484">is submitted by</text><text fill="#000000" font-family="sans-serif" font-size="7.8" lengthAdjust="spacing" textLength="4.8" x="223.3725" y="111.5512">1</text><text fill="#000000" font-family="sans-serif" font-size="7.8" lengthAdjust="spacing" textLength="3.6" x="224.6569" y="162.2405">*</text></g><!--SRC=[bPBHQy8m4CRVyrSStTkWeZvA4OOYJ1Z2P7k_jcTtCoOXYOCozhylRTbiiwdOXqBIt_TzTxtpx2N1onQcu_4Kblg0hE19boI5sxCoQF40aXNvsX0OBUlc88J1OeyLmLhd3yP8Bj2pLf1bM5MMAlGqdmCwUCTF0U4f93eNqO_BmBzk0fXbN9BoxEjmkCk3zqnozUQ35Qcp-Y2pMljM7wbtR2ctNEnxuiN7YaElNMJlVbiqAQogPt97wIy0wwFpl3kbHzoA5SgXIVirgZgP9EcyUST_unoSTdXN_qLeF1fDagYV6mI3_gxhUlsAhy5AR4phzyywQ8ZsuOHsixmmobx60bN9PR3z6r7W8A9FNj-M416tV9_0pmJwzSx0qewi0w_5RqR3P6dQYeO-Cs07xfWVs7ig8Q_5Dm00]--></g></svg>