<?xml version="1.0" encoding="us-ascii" standalone="no"?><svg xmlns="http://www.w3.org/2000/svg" xmlns:xlink="http://www.w3.org/1999/xlink" contentStyleType="text/css" height="528px" preserveAspectRatio="none" style="width:710px;height:528px;background:#FFFFFF;" version="1.1" viewBox="0 0 710 528" width="710.4px" zoomAndPan="magnify"><defs/><g><text fill="#000000" font-family="sans-serif" font-size="16.8" font-weight="bold" lengthAdjust="spacing" textLength="314.4" x="199.8" y="34.2422">US2002 - Register a Job Application</text><rect fill="#FFFFFF" height="254.6086" style="stroke:#181818;stroke-width:1.2;" width="12" x="58.8" y="154.7719"/><rect fill="#FFFFFF" height="35.1727" style="stroke:#181818;stroke-width:1.2;" width="12" x="486" y="180.3445"/><rect fill="#FFFFFF" height="158.6906" style="stroke:#181818;stroke-width:1.2;" width="12" x="486" y="250.6898"/><rect fill="none" height="106.718" style="stroke:#000000;stroke-width:1.7999999999999998;" width="691.2" x="12" y="268.6898"/><line style="stroke:#181818;stroke-width:0.6;stroke-dasharray:5.0,5.0;" x1="64.8" x2="64.8" y1="142.7719" y2="430.9805"/><line style="stroke:#181818;stroke-width:0.6;stroke-dasharray:5.0,5.0;" x1="492" x2="492" y1="142.7719" y2="430.9805"/><text fill="#000000" font-family="sans-serif" font-size="16.8" lengthAdjust="spacing" textLength="74.4" x="24" y="139.2281">Operator</text><ellipse cx="64.8" cy="61.1859" fill="#E2E2F0" rx="9.6" ry="9.6" style="stroke:#181818;stroke-width:0.6;"/><path d="M64.8,70.7859 L64.8,103.1859 M49.2,80.3859 L80.4,80.3859 M64.8,103.1859 L49.2,121.1859 M64.8,103.1859 L80.4,121.1859 " fill="none" style="stroke:#181818;stroke-width:0.6;"/><text fill="#000000" font-family="sans-serif" font-size="16.8" lengthAdjust="spacing" textLength="74.4" x="24" y="446.0227">Operator</text><ellipse cx="64.8" cy="459.7664" fill="#E2E2F0" rx="9.6" ry="9.6" style="stroke:#181818;stroke-width:0.6;"/><path d="M64.8,469.3664 L64.8,501.7664 M49.2,478.9664 L80.4,478.9664 M64.8,501.7664 L49.2,519.7664 M64.8,501.7664 L80.4,519.7664 " fill="none" style="stroke:#181818;stroke-width:0.6;"/><rect fill="#E2E2F0" height="36.5859" rx="3" ry="3" style="stroke:#181818;stroke-width:0.6;" width="79.2" x="452.4" y="104.9859"/><text fill="#000000" font-family="sans-serif" font-size="16.8" lengthAdjust="spacing" textLength="62.4" x="460.8" y="129.6281">:System</text><rect fill="#E2E2F0" height="36.5859" rx="3" ry="3" style="stroke:#181818;stroke-width:0.6;" width="79.2" x="452.4" y="429.7805"/><text fill="#000000" font-family="sans-serif" font-size="16.8" lengthAdjust="spacing" textLength="62.4" x="460.8" y="454.4227">:System</text><rect fill="#FFFFFF" height="254.6086" style="stroke:#181818;stroke-width:1.2;" width="12" x="58.8" y="154.7719"/><rect fill="#FFFFFF" height="35.1727" style="stroke:#181818;stroke-width:1.2;" width="12" x="486" y="180.3445"/><rect fill="#FFFFFF" height="158.6906" style="stroke:#181818;stroke-width:1.2;" width="12" x="486" y="250.6898"/><polygon fill="#181818" points="471.6,175.5445,483.6,180.3445,471.6,185.1445,476.4,180.3445" style="stroke:#181818;stroke-width:1.2;"/><line style="stroke:#181818;stroke-width:1.2;" x1="70.8" x2="478.8" y1="180.3445" y2="180.3445"/><text fill="#000000" font-family="sans-serif" font-size="15.6" font-weight="bold" lengthAdjust="spacing" textLength="10.8" x="79.2" y="174.6539">1</text><text fill="#000000" font-family="sans-serif" font-size="15.6" lengthAdjust="spacing" textLength="366" x="94.8" y="174.6539">asks the system to import a new Job Application</text><polygon fill="#181818" points="84,210.7172,72,215.5172,84,220.3172,79.2,215.5172" style="stroke:#181818;stroke-width:1.2;"/><line style="stroke:#181818;stroke-width:1.2;stroke-dasharray:2.0,2.0;" x1="76.8" x2="490.8" y1="215.5172" y2="215.5172"/><text fill="#000000" font-family="sans-serif" font-size="15.6" font-weight="bold" lengthAdjust="spacing" textLength="10.8" x="91.2" y="209.8266">2</text><text fill="#000000" font-family="sans-serif" font-size="15.6" lengthAdjust="spacing" textLength="370.8" x="106.8" y="209.8266">requests data (customerDataFilepath, CvFilepath)</text><polygon fill="#181818" points="471.6,245.8898,483.6,250.6898,471.6,255.4898,476.4,250.6898" style="stroke:#181818;stroke-width:1.2;"/><line style="stroke:#181818;stroke-width:1.2;" x1="70.8" x2="478.8" y1="250.6898" y2="250.6898"/><text fill="#000000" font-family="sans-serif" font-size="15.6" font-weight="bold" lengthAdjust="spacing" textLength="10.8" x="79.2" y="244.9992">3</text><text fill="#000000" font-family="sans-serif" font-size="15.6" lengthAdjust="spacing" textLength="139.2" x="94.8" y="244.9992">types request data</text><path d="M12,268.6898 L86.4,268.6898 L86.4,277.4625 L74.4,289.4625 L12,289.4625 L12,268.6898 " fill="#EEEEEE" style="stroke:#000000;stroke-width:1.7999999999999998;"/><rect fill="none" height="106.718" style="stroke:#000000;stroke-width:1.7999999999999998;" width="691.2" x="12" y="268.6898"/><text fill="#000000" font-family="sans-serif" font-size="15.6" font-weight="bold" lengthAdjust="spacing" textLength="20.4" x="30" y="284.9719">alt</text><text fill="#000000" font-family="sans-serif" font-size="13.2" font-weight="bold" lengthAdjust="spacing" textLength="156" x="104.4" y="283.8516">["candidate not found"]</text><polygon fill="#181818" points="84,310.2352,72,315.0352,84,319.8352,79.2,315.0352" style="stroke:#181818;stroke-width:1.2;"/><line style="stroke:#181818;stroke-width:1.2;stroke-dasharray:2.0,2.0;" x1="76.8" x2="484.8" y1="315.0352" y2="315.0352"/><text fill="#000000" font-family="sans-serif" font-size="15.6" font-weight="bold" lengthAdjust="spacing" textLength="10.8" x="91.2" y="309.3445">4</text><text fill="#000000" font-family="sans-serif" font-size="15.6" lengthAdjust="spacing" textLength="313.2" x="106.8" y="309.3445">informs that the candidate was not found</text><line style="stroke:#181818;stroke-width:1.2;" x1="498" x2="548.4" y1="350.2078" y2="350.2078"/><line style="stroke:#181818;stroke-width:1.2;" x1="548.4" x2="548.4" y1="350.2078" y2="365.8078"/><line style="stroke:#181818;stroke-width:1.2;" x1="499.2" x2="548.4" y1="365.8078" y2="365.8078"/><polygon fill="#181818" points="511.2,361.0078,499.2,365.8078,511.2,370.6078,506.4,365.8078" style="stroke:#181818;stroke-width:1.2;"/><text fill="#000000" font-family="sans-serif" font-size="15.6" font-weight="bold" lengthAdjust="spacing" textLength="10.8" x="506.4" y="344.5172">5</text><text fill="#000000" font-family="sans-serif" font-size="15.6" lengthAdjust="spacing" textLength="166.8" x="522" y="344.5172">creates new candidate</text><polygon fill="#181818" points="78,404.5805,66,409.3805,78,414.1805,73.2,409.3805" style="stroke:#181818;stroke-width:1.2;"/><line style="stroke:#181818;stroke-width:1.2;stroke-dasharray:2.0,2.0;" x1="70.8" x2="490.8" y1="409.3805" y2="409.3805"/><text fill="#000000" font-family="sans-serif" font-size="15.6" font-weight="bold" lengthAdjust="spacing" textLength="10.8" x="85.2" y="403.6898">6</text><text fill="#000000" font-family="sans-serif" font-size="15.6" lengthAdjust="spacing" textLength="200.4" x="100.8" y="403.6898">informs operation success</text><!--SRC=[TP71JiCm38RlUGgh9v2eDEtO0n82SU22nCG3U8d78jeunCwclJrff7P0IqwEdV_php-ObKCUzfICUksfW_VTThFPGWjlzE55AG722-_X8SRUMrJFmHYqoWbU8oKS2nJWslGdL1fhXlOUccvtAOIXWQuy-HJG8u7K5YY37o8dBVX0vyMA6JP3ZBdosaBdGatqbKbKmA4YtDWioWEbft9xzZr5rECTF9wc-jOuMWCltEebaapq2bypXBr2Op4uxyP1O8K3v-0Q0-KitVfmu3ICCQ3MBAxQSubmrl-L__Pc4nM5rDHcWA7WeFXP2sbQo_MxIhWWsLeI-IUD7rqstm00]--></g></svg>