<?xml version="1.0" encoding="us-ascii" standalone="no"?><svg xmlns="http://www.w3.org/2000/svg" xmlns:xlink="http://www.w3.org/1999/xlink" contentStyleType="text/css" height="1322px" preserveAspectRatio="none" style="width:3022px;height:1322px;background:#FFFFFF;" version="1.1" viewBox="0 0 3022 1322" width="3022px" zoomAndPan="magnify"><defs/><g><text fill="#000000" font-family="sans-serif" font-size="14" font-weight="bold" lengthAdjust="spacing" textLength="262" x="1381" y="28.5352">US 2002 - Register a JobApplication</text><rect fill="#FFFFFF" height="1094.7793" style="stroke:#181818;stroke-width:1.0;" width="10" x="49" y="128.9766"/><rect fill="#FFFFFF" height="29.3105" style="stroke:#181818;stroke-width:1.0;" width="10" x="457" y="150.2871"/><rect fill="#FFFFFF" height="1014.8477" style="stroke:#181818;stroke-width:1.0;" width="10" x="457" y="208.9082"/><rect fill="#FFFFFF" height="170.8633" style="stroke:#181818;stroke-width:1.0;" width="10" x="758" y="280.5293"/><rect fill="#FFFFFF" height="640.166" style="stroke:#181818;stroke-width:1.0;" width="10" x="758" y="554.2793"/><rect fill="#FFFFFF" height="29.3105" style="stroke:#181818;stroke-width:1.0;" width="10" x="1171" y="820.7637"/><rect fill="#FFFFFF" height="112.2422" style="stroke:#181818;stroke-width:1.0;" width="10" x="1298.5" y="309.8398"/><rect fill="#FFFFFF" height="59.3105" style="stroke:#181818;stroke-width:1.0;" width="10" x="1298.5" y="524.9688"/><rect fill="#FFFFFF" height="112.2422" style="stroke:#181818;stroke-width:1.0;" width="10" x="1445.5" y="620.5898"/><rect fill="#FFFFFF" height="29.3105" style="stroke:#181818;stroke-width:1.0;" width="10" x="1445.5" y="952.9609"/><rect fill="#FFFFFF" height="87.9316" style="stroke:#181818;stroke-width:1.0;" width="10" x="1962" y="1018.582"/><rect fill="#FFFFFF" height="29.3105" style="stroke:#181818;stroke-width:1.0;" width="10" x="2389" y="1047.8926"/><rect fill="#FFFFFF" height="29.3105" style="stroke:#181818;stroke-width:1.0;" width="10" x="2551.5" y="1135.8242"/><rect fill="#FFFFFF" height="53.6211" style="stroke:#181818;stroke-width:1.0;" width="10" x="2743" y="339.1504"/><rect fill="#FFFFFF" height="44.2656" style="stroke:#181818;stroke-width:1.0;" width="10" x="2743" y="480.7031"/><rect fill="#FFFFFF" height="53.6211" style="stroke:#181818;stroke-width:1.0;" width="10" x="2919.5" y="649.9004"/><rect fill="#FFFFFF" height="44.2656" style="stroke:#181818;stroke-width:1.0;" width="10" x="2919.5" y="908.6953"/><rect fill="none" height="238.1289" style="stroke:#000000;stroke-width:1.5;" width="2834" x="10" y="354.1504"/><rect fill="none" height="325.3711" style="stroke:#000000;stroke-width:1.5;" width="3005" x="10" y="664.9004"/><line style="stroke:#181818;stroke-width:0.5;stroke-dasharray:5.0,5.0;" x1="54" x2="54" y1="118.9766" y2="1241.7559"/><line style="stroke:#181818;stroke-width:0.5;stroke-dasharray:5.0,5.0;" x1="462" x2="462" y1="118.9766" y2="1241.7559"/><line style="stroke:#181818;stroke-width:0.5;stroke-dasharray:5.0,5.0;" x1="763" x2="763" y1="118.9766" y2="1241.7559"/><line style="stroke:#181818;stroke-width:0.5;stroke-dasharray:5.0,5.0;" x1="1175.5" x2="1175.5" y1="118.9766" y2="1241.7559"/><line style="stroke:#181818;stroke-width:0.5;stroke-dasharray:5.0,5.0;" x1="1303.5" x2="1303.5" y1="118.9766" y2="1241.7559"/><line style="stroke:#181818;stroke-width:0.5;stroke-dasharray:5.0,5.0;" x1="1450.5" x2="1450.5" y1="118.9766" y2="1241.7559"/><line style="stroke:#181818;stroke-width:0.5;stroke-dasharray:5.0,5.0;" x1="1967" x2="1967" y1="118.9766" y2="1241.7559"/><line style="stroke:#181818;stroke-width:0.5;stroke-dasharray:5.0,5.0;" x1="2394" x2="2394" y1="118.9766" y2="1241.7559"/><line style="stroke:#181818;stroke-width:0.5;stroke-dasharray:5.0,5.0;" x1="2556" x2="2556" y1="118.9766" y2="1241.7559"/><line style="stroke:#181818;stroke-width:0.5;stroke-dasharray:5.0,5.0;" x1="2748" x2="2748" y1="118.9766" y2="1241.7559"/><line style="stroke:#181818;stroke-width:0.5;stroke-dasharray:5.0,5.0;" x1="2924" x2="2924" y1="118.9766" y2="1241.7559"/><text fill="#000000" font-family="sans-serif" font-size="14" lengthAdjust="spacing" textLength="62" x="20" y="116.0234">Operator</text><ellipse cx="54" cy="50.9883" fill="#E2E2F0" rx="8" ry="8" style="stroke:#181818;stroke-width:0.5;"/><path d="M54,58.9883 L54,85.9883 M41,66.9883 L67,66.9883 M54,85.9883 L41,100.9883 M54,85.9883 L67,100.9883 " fill="none" style="stroke:#181818;stroke-width:0.5;"/><text fill="#000000" font-family="sans-serif" font-size="14" lengthAdjust="spacing" textLength="62" x="20" y="1254.291">Operator</text><ellipse cx="54" cy="1265.7441" fill="#E2E2F0" rx="8" ry="8" style="stroke:#181818;stroke-width:0.5;"/><path d="M54,1273.7441 L54,1300.7441 M41,1281.7441 L67,1281.7441 M54,1300.7441 L41,1315.7441 M54,1300.7441 L67,1315.7441 " fill="none" style="stroke:#181818;stroke-width:0.5;"/><rect fill="#E2E2F0" height="46.9766" rx="2.5" ry="2.5" style="stroke:#181818;stroke-width:0.5;" width="160" x="382" y="71"/><text fill="#000000" font-family="sans-serif" font-size="14" font-style="italic" lengthAdjust="spacing" textLength="101" x="411.5" y="91.5352">&#171;presentation&#187;</text><text fill="#000000" font-family="sans-serif" font-size="14" lengthAdjust="spacing" textLength="146" x="389" y="108.0234">:AddJobApplicationUI</text><rect fill="#E2E2F0" height="46.9766" rx="2.5" ry="2.5" style="stroke:#181818;stroke-width:0.5;" width="160" x="382" y="1240.7559"/><text fill="#000000" font-family="sans-serif" font-size="14" font-style="italic" lengthAdjust="spacing" textLength="101" x="411.5" y="1261.291">&#171;presentation&#187;</text><text fill="#000000" font-family="sans-serif" font-size="14" lengthAdjust="spacing" textLength="146" x="389" y="1277.7793">:AddJobApplicationUI</text><rect fill="#E2E2F0" height="46.9766" rx="2.5" ry="2.5" style="stroke:#181818;stroke-width:0.5;" width="216" x="655" y="71"/><text fill="#000000" font-family="sans-serif" font-size="14" font-style="italic" lengthAdjust="spacing" textLength="90" x="718" y="91.5352">&#171;application&#187;</text><text fill="#000000" font-family="sans-serif" font-size="14" lengthAdjust="spacing" textLength="202" x="662" y="108.0234">:AddJobApplicationController</text><rect fill="#E2E2F0" height="46.9766" rx="2.5" ry="2.5" style="stroke:#181818;stroke-width:0.5;" width="216" x="655" y="1240.7559"/><text fill="#000000" font-family="sans-serif" font-size="14" font-style="italic" lengthAdjust="spacing" textLength="90" x="718" y="1261.291">&#171;application&#187;</text><text fill="#000000" font-family="sans-serif" font-size="14" lengthAdjust="spacing" textLength="202" x="662" y="1277.7793">:AddJobApplicationController</text><rect fill="#E2E2F0" height="46.9766" rx="2.5" ry="2.5" style="stroke:#181818;stroke-width:0.5;" width="147" x="1102.5" y="71"/><text fill="#000000" font-family="sans-serif" font-size="14" font-style="italic" lengthAdjust="spacing" textLength="90" x="1131" y="91.5352">&#171;application&#187;</text><text fill="#000000" font-family="sans-serif" font-size="14" lengthAdjust="spacing" textLength="133" x="1109.5" y="108.0234">:AddUserController</text><rect fill="#E2E2F0" height="46.9766" rx="2.5" ry="2.5" style="stroke:#181818;stroke-width:0.5;" width="147" x="1102.5" y="1240.7559"/><text fill="#000000" font-family="sans-serif" font-size="14" font-style="italic" lengthAdjust="spacing" textLength="90" x="1131" y="1261.291">&#171;application&#187;</text><text fill="#000000" font-family="sans-serif" font-size="14" lengthAdjust="spacing" textLength="133" x="1109.5" y="1277.7793">:AddUserController</text><rect fill="#E2E2F0" height="46.9766" rx="2.5" ry="2.5" style="stroke:#181818;stroke-width:0.5;" width="88" x="1259.5" y="71"/><text fill="#000000" font-family="sans-serif" font-size="14" font-style="italic" lengthAdjust="spacing" textLength="61" x="1273" y="91.5352">&#171;service&#187;</text><text fill="#000000" font-family="sans-serif" font-size="14" lengthAdjust="spacing" textLength="74" x="1266.5" y="108.0234">:JobService</text><rect fill="#E2E2F0" height="46.9766" rx="2.5" ry="2.5" style="stroke:#181818;stroke-width:0.5;" width="88" x="1259.5" y="1240.7559"/><text fill="#000000" font-family="sans-serif" font-size="14" font-style="italic" lengthAdjust="spacing" textLength="61" x="1273" y="1261.291">&#171;service&#187;</text><text fill="#000000" font-family="sans-serif" font-size="14" lengthAdjust="spacing" textLength="74" x="1266.5" y="1277.7793">:JobService</text><rect fill="#E2E2F0" height="46.9766" rx="2.5" ry="2.5" style="stroke:#181818;stroke-width:0.5;" width="186" x="1357.5" y="71"/><text fill="#000000" font-family="sans-serif" font-size="14" font-style="italic" lengthAdjust="spacing" textLength="61" x="1420" y="91.5352">&#171;service&#187;</text><text fill="#000000" font-family="sans-serif" font-size="14" lengthAdjust="spacing" textLength="172" x="1364.5" y="108.0234">:UserManagementService</text><rect fill="#E2E2F0" height="46.9766" rx="2.5" ry="2.5" style="stroke:#181818;stroke-width:0.5;" width="186" x="1357.5" y="1240.7559"/><text fill="#000000" font-family="sans-serif" font-size="14" font-style="italic" lengthAdjust="spacing" textLength="61" x="1420" y="1261.291">&#171;service&#187;</text><text fill="#000000" font-family="sans-serif" font-size="14" lengthAdjust="spacing" textLength="172" x="1364.5" y="1277.7793">:UserManagementService</text><rect fill="#E2E2F0" height="46.9766" rx="2.5" ry="2.5" style="stroke:#181818;stroke-width:0.5;" width="162" x="1886" y="71"/><text fill="#000000" font-family="sans-serif" font-size="14" font-style="italic" lengthAdjust="spacing" textLength="66" x="1934" y="91.5352">&#171;domain&#187;</text><text fill="#000000" font-family="sans-serif" font-size="14" lengthAdjust="spacing" textLength="148" x="1893" y="108.0234">JobApplicationBuilder</text><rect fill="#E2E2F0" height="46.9766" rx="2.5" ry="2.5" style="stroke:#181818;stroke-width:0.5;" width="162" x="1886" y="1240.7559"/><text fill="#000000" font-family="sans-serif" font-size="14" font-style="italic" lengthAdjust="spacing" textLength="66" x="1934" y="1261.291">&#171;domain&#187;</text><text fill="#000000" font-family="sans-serif" font-size="14" lengthAdjust="spacing" textLength="148" x="1893" y="1277.7793">JobApplicationBuilder</text><rect fill="#E2E2F0" height="46.9766" rx="2.5" ry="2.5" style="stroke:#181818;stroke-width:0.5;" width="114" x="2337" y="71"/><text fill="#000000" font-family="sans-serif" font-size="14" font-style="italic" lengthAdjust="spacing" textLength="66" x="2361" y="91.5352">&#171;domain&#187;</text><text fill="#000000" font-family="sans-serif" font-size="14" lengthAdjust="spacing" textLength="100" x="2344" y="108.0234">JobApplication</text><rect fill="#E2E2F0" height="46.9766" rx="2.5" ry="2.5" style="stroke:#181818;stroke-width:0.5;" width="114" x="2337" y="1240.7559"/><text fill="#000000" font-family="sans-serif" font-size="14" font-style="italic" lengthAdjust="spacing" textLength="66" x="2361" y="1261.291">&#171;domain&#187;</text><text fill="#000000" font-family="sans-serif" font-size="14" lengthAdjust="spacing" textLength="100" x="2344" y="1277.7793">JobApplication</text><rect fill="#E2E2F0" height="46.9766" rx="2.5" ry="2.5" style="stroke:#181818;stroke-width:0.5;" width="191" x="2461" y="71"/><text fill="#000000" font-family="sans-serif" font-size="14" font-style="italic" lengthAdjust="spacing" textLength="84" x="2514.5" y="91.5352">&#171;repository&#187;</text><text fill="#000000" font-family="sans-serif" font-size="14" lengthAdjust="spacing" textLength="177" x="2468" y="108.0234">:JobApplicationRepository</text><rect fill="#E2E2F0" height="46.9766" rx="2.5" ry="2.5" style="stroke:#181818;stroke-width:0.5;" width="191" x="2461" y="1240.7559"/><text fill="#000000" font-family="sans-serif" font-size="14" font-style="italic" lengthAdjust="spacing" textLength="84" x="2514.5" y="1261.291">&#171;repository&#187;</text><text fill="#000000" font-family="sans-serif" font-size="14" lengthAdjust="spacing" textLength="177" x="2468" y="1277.7793">:JobApplicationRepository</text><rect fill="#E2E2F0" height="46.9766" rx="2.5" ry="2.5" style="stroke:#181818;stroke-width:0.5;" width="172" x="2662" y="71"/><text fill="#000000" font-family="sans-serif" font-size="14" font-style="italic" lengthAdjust="spacing" textLength="84" x="2706" y="91.5352">&#171;repository&#187;</text><text fill="#000000" font-family="sans-serif" font-size="14" lengthAdjust="spacing" textLength="158" x="2669" y="108.0234">:JobOpeningRepository</text><rect fill="#E2E2F0" height="46.9766" rx="2.5" ry="2.5" style="stroke:#181818;stroke-width:0.5;" width="172" x="2662" y="1240.7559"/><text fill="#000000" font-family="sans-serif" font-size="14" font-style="italic" lengthAdjust="spacing" textLength="84" x="2706" y="1261.291">&#171;repository&#187;</text><text fill="#000000" font-family="sans-serif" font-size="14" lengthAdjust="spacing" textLength="158" x="2669" y="1277.7793">:JobOpeningRepository</text><rect fill="#E2E2F0" height="46.9766" rx="2.5" ry="2.5" style="stroke:#181818;stroke-width:0.5;" width="161" x="2844" y="71"/><text fill="#000000" font-family="sans-serif" font-size="14" font-style="italic" lengthAdjust="spacing" textLength="84" x="2882.5" y="91.5352">&#171;repository&#187;</text><text fill="#000000" font-family="sans-serif" font-size="14" lengthAdjust="spacing" textLength="147" x="2851" y="108.0234">:CandidateRepository</text><rect fill="#E2E2F0" height="46.9766" rx="2.5" ry="2.5" style="stroke:#181818;stroke-width:0.5;" width="161" x="2844" y="1240.7559"/><text fill="#000000" font-family="sans-serif" font-size="14" font-style="italic" lengthAdjust="spacing" textLength="84" x="2882.5" y="1261.291">&#171;repository&#187;</text><text fill="#000000" font-family="sans-serif" font-size="14" lengthAdjust="spacing" textLength="147" x="2851" y="1277.7793">:CandidateRepository</text><rect fill="#FFFFFF" height="1094.7793" style="stroke:#181818;stroke-width:1.0;" width="10" x="49" y="128.9766"/><rect fill="#FFFFFF" height="29.3105" style="stroke:#181818;stroke-width:1.0;" width="10" x="457" y="150.2871"/><rect fill="#FFFFFF" height="1014.8477" style="stroke:#181818;stroke-width:1.0;" width="10" x="457" y="208.9082"/><rect fill="#FFFFFF" height="170.8633" style="stroke:#181818;stroke-width:1.0;" width="10" x="758" y="280.5293"/><rect fill="#FFFFFF" height="640.166" style="stroke:#181818;stroke-width:1.0;" width="10" x="758" y="554.2793"/><rect fill="#FFFFFF" height="29.3105" style="stroke:#181818;stroke-width:1.0;" width="10" x="1171" y="820.7637"/><rect fill="#FFFFFF" height="112.2422" style="stroke:#181818;stroke-width:1.0;" width="10" x="1298.5" y="309.8398"/><rect fill="#FFFFFF" height="59.3105" style="stroke:#181818;stroke-width:1.0;" width="10" x="1298.5" y="524.9688"/><rect fill="#FFFFFF" height="112.2422" style="stroke:#181818;stroke-width:1.0;" width="10" x="1445.5" y="620.5898"/><rect fill="#FFFFFF" height="29.3105" style="stroke:#181818;stroke-width:1.0;" width="10" x="1445.5" y="952.9609"/><rect fill="#FFFFFF" height="87.9316" style="stroke:#181818;stroke-width:1.0;" width="10" x="1962" y="1018.582"/><rect fill="#FFFFFF" height="29.3105" style="stroke:#181818;stroke-width:1.0;" width="10" x="2389" y="1047.8926"/><rect fill="#FFFFFF" height="29.3105" style="stroke:#181818;stroke-width:1.0;" width="10" x="2551.5" y="1135.8242"/><rect fill="#FFFFFF" height="53.6211" style="stroke:#181818;stroke-width:1.0;" width="10" x="2743" y="339.1504"/><rect fill="#FFFFFF" height="44.2656" style="stroke:#181818;stroke-width:1.0;" width="10" x="2743" y="480.7031"/><rect fill="#FFFFFF" height="53.6211" style="stroke:#181818;stroke-width:1.0;" width="10" x="2919.5" y="649.9004"/><rect fill="#FFFFFF" height="44.2656" style="stroke:#181818;stroke-width:1.0;" width="10" x="2919.5" y="908.6953"/><polygon fill="#181818" points="445,146.2871,455,150.2871,445,154.2871,449,150.2871" style="stroke:#181818;stroke-width:1.0;"/><line style="stroke:#181818;stroke-width:1.0;" x1="59" x2="451" y1="150.2871" y2="150.2871"/><text fill="#000000" font-family="sans-serif" font-size="13" font-weight="bold" lengthAdjust="spacing" textLength="9" x="66" y="145.5449">1</text><text fill="#000000" font-family="sans-serif" font-size="13" lengthAdjust="spacing" textLength="230" x="79" y="145.5449">asks to import a new job application</text><polygon fill="#181818" points="70,175.5977,60,179.5977,70,183.5977,66,179.5977" style="stroke:#181818;stroke-width:1.0;"/><line style="stroke:#181818;stroke-width:1.0;stroke-dasharray:2.0,2.0;" x1="64" x2="461" y1="179.5977" y2="179.5977"/><text fill="#000000" font-family="sans-serif" font-size="13" font-weight="bold" lengthAdjust="spacing" textLength="9" x="76" y="174.8555">2</text><text fill="#000000" font-family="sans-serif" font-size="13" lengthAdjust="spacing" textLength="256" x="89" y="174.8555">requests data (candidateDataFile, CVFile)</text><polygon fill="#181818" points="445,204.9082,455,208.9082,445,212.9082,449,208.9082" style="stroke:#181818;stroke-width:1.0;"/><line style="stroke:#181818;stroke-width:1.0;" x1="59" x2="451" y1="208.9082" y2="208.9082"/><text fill="#000000" font-family="sans-serif" font-size="13" font-weight="bold" lengthAdjust="spacing" textLength="9" x="66" y="204.166">3</text><text fill="#000000" font-family="sans-serif" font-size="13" lengthAdjust="spacing" textLength="116" x="79" y="204.166">types request data</text><line style="stroke:#181818;stroke-width:1.0;" x1="467" x2="509" y1="238.2188" y2="238.2188"/><line style="stroke:#181818;stroke-width:1.0;" x1="509" x2="509" y1="238.2188" y2="251.2188"/><line style="stroke:#181818;stroke-width:1.0;" x1="468" x2="509" y1="251.2188" y2="251.2188"/><polygon fill="#181818" points="478,247.2188,468,251.2188,478,255.2188,474,251.2188" style="stroke:#181818;stroke-width:1.0;"/><text fill="#000000" font-family="sans-serif" font-size="13" font-weight="bold" lengthAdjust="spacing" textLength="9" x="474" y="233.4766">4</text><text fill="#000000" font-family="sans-serif" font-size="13" lengthAdjust="spacing" textLength="239" x="487" y="233.4766">readCandidateData(candidateDataFile)</text><polygon fill="#181818" points="746,276.5293,756,280.5293,746,284.5293,750,280.5293" style="stroke:#181818;stroke-width:1.0;"/><line style="stroke:#181818;stroke-width:1.0;" x1="467" x2="752" y1="280.5293" y2="280.5293"/><text fill="#000000" font-family="sans-serif" font-size="13" font-weight="bold" lengthAdjust="spacing" textLength="9" x="474" y="275.7871">5</text><text fill="#000000" font-family="sans-serif" font-size="13" lengthAdjust="spacing" textLength="259" x="487" y="275.7871">addJobApplication(candidateData, CvFile)</text><polygon fill="#181818" points="1286.5,305.8398,1296.5,309.8398,1286.5,313.8398,1290.5,309.8398" style="stroke:#181818;stroke-width:1.0;"/><line style="stroke:#181818;stroke-width:1.0;" x1="768" x2="1292.5" y1="309.8398" y2="309.8398"/><text fill="#000000" font-family="sans-serif" font-size="13" font-weight="bold" lengthAdjust="spacing" textLength="9" x="775" y="305.0977">6</text><text fill="#000000" font-family="sans-serif" font-size="13" lengthAdjust="spacing" textLength="262" x="788" y="305.0977">findJobOpeningByReference(jobReference)</text><polygon fill="#181818" points="2731,335.1504,2741,339.1504,2731,343.1504,2735,339.1504" style="stroke:#181818;stroke-width:1.0;"/><line style="stroke:#181818;stroke-width:1.0;" x1="1308.5" x2="2737" y1="339.1504" y2="339.1504"/><text fill="#000000" font-family="sans-serif" font-size="13" font-weight="bold" lengthAdjust="spacing" textLength="9" x="1315.5" y="334.4082">7</text><text fill="#000000" font-family="sans-serif" font-size="13" lengthAdjust="spacing" textLength="262" x="1328.5" y="334.4082">findJobOpeningByReference(jobReference)</text><path d="M10,354.1504 L72,354.1504 L72,361.4609 L62,371.4609 L10,371.4609 L10,354.1504 " fill="#EEEEEE" style="stroke:#000000;stroke-width:1.5;"/><rect fill="none" height="238.1289" style="stroke:#000000;stroke-width:1.5;" width="2834" x="10" y="354.1504"/><text fill="#000000" font-family="sans-serif" font-size="13" font-weight="bold" lengthAdjust="spacing" textLength="17" x="25" y="367.7188">alt</text><text fill="#000000" font-family="sans-serif" font-size="11" font-weight="bold" lengthAdjust="spacing" textLength="168" x="87" y="366.7852">["Job Opening is not created"]</text><polygon fill="#181818" points="1319.5,388.7715,1309.5,392.7715,1319.5,396.7715,1315.5,392.7715" style="stroke:#181818;stroke-width:1.0;"/><line style="stroke:#181818;stroke-width:1.0;stroke-dasharray:2.0,2.0;" x1="1313.5" x2="2747" y1="392.7715" y2="392.7715"/><text fill="#000000" font-family="sans-serif" font-size="13" font-weight="bold" lengthAdjust="spacing" textLength="9" x="1325.5" y="388.0293">8</text><text fill="#000000" font-family="sans-serif" font-size="13" lengthAdjust="spacing" textLength="88" x="1338.5" y="388.0293">returns empty</text><polygon fill="#181818" points="779,418.082,769,422.082,779,426.082,775,422.082" style="stroke:#181818;stroke-width:1.0;"/><line style="stroke:#181818;stroke-width:1.0;stroke-dasharray:2.0,2.0;" x1="773" x2="1302.5" y1="422.082" y2="422.082"/><text fill="#000000" font-family="sans-serif" font-size="13" font-weight="bold" lengthAdjust="spacing" textLength="9" x="785" y="417.3398">9</text><text fill="#000000" font-family="sans-serif" font-size="13" lengthAdjust="spacing" textLength="88" x="798" y="417.3398">returns empty</text><polygon fill="#181818" points="478,447.3926,468,451.3926,478,455.3926,474,451.3926" style="stroke:#181818;stroke-width:1.0;"/><line style="stroke:#181818;stroke-width:1.0;stroke-dasharray:2.0,2.0;" x1="472" x2="762" y1="451.3926" y2="451.3926"/><text fill="#000000" font-family="sans-serif" font-size="13" font-weight="bold" lengthAdjust="spacing" textLength="18" x="484" y="446.6504">10</text><text fill="#000000" font-family="sans-serif" font-size="13" lengthAdjust="spacing" textLength="218" x="506" y="446.6504">informs job opening is not created</text><polygon fill="#181818" points="70,476.7031,60,480.7031,70,484.7031,66,480.7031" style="stroke:#181818;stroke-width:1.0;"/><line style="stroke:#181818;stroke-width:1.0;stroke-dasharray:2.0,2.0;" x1="64" x2="456" y1="480.7031" y2="480.7031"/><text fill="#000000" font-family="sans-serif" font-size="13" font-weight="bold" lengthAdjust="spacing" textLength="18" x="76" y="475.9609">11</text><text fill="#000000" font-family="sans-serif" font-size="13" lengthAdjust="spacing" textLength="352" x="98" y="475.9609">informs job opening is not created and finishes process</text><line style="stroke:#000000;stroke-width:1.0;stroke-dasharray:2.0,2.0;" x1="10" x2="2844" y1="489.7031" y2="489.7031"/><text fill="#000000" font-family="sans-serif" font-size="11" font-weight="bold" lengthAdjust="spacing" textLength="146" x="15" y="500.3379">["Job Opening is created"]</text><polygon fill="#181818" points="1319.5,520.9688,1309.5,524.9688,1319.5,528.9688,1315.5,524.9688" style="stroke:#181818;stroke-width:1.0;"/><line style="stroke:#181818;stroke-width:1.0;stroke-dasharray:2.0,2.0;" x1="1313.5" x2="2747" y1="524.9688" y2="524.9688"/><text fill="#000000" font-family="sans-serif" font-size="13" font-weight="bold" lengthAdjust="spacing" textLength="18" x="1325.5" y="520.2266">12</text><text fill="#000000" font-family="sans-serif" font-size="13" lengthAdjust="spacing" textLength="122" x="1347.5" y="520.2266">returns jobOpening</text><polygon fill="#181818" points="779,550.2793,769,554.2793,779,558.2793,775,554.2793" style="stroke:#181818;stroke-width:1.0;"/><line style="stroke:#181818;stroke-width:1.0;stroke-dasharray:2.0,2.0;" x1="773" x2="1297.5" y1="554.2793" y2="554.2793"/><text fill="#000000" font-family="sans-serif" font-size="13" font-weight="bold" lengthAdjust="spacing" textLength="18" x="785" y="549.5371">13</text><text fill="#000000" font-family="sans-serif" font-size="13" lengthAdjust="spacing" textLength="122" x="807" y="549.5371">returns jobOpening</text><polygon fill="#181818" points="1433.5,616.5898,1443.5,620.5898,1433.5,624.5898,1437.5,620.5898" style="stroke:#181818;stroke-width:1.0;"/><line style="stroke:#181818;stroke-width:1.0;" x1="768" x2="1439.5" y1="620.5898" y2="620.5898"/><text fill="#000000" font-family="sans-serif" font-size="13" font-weight="bold" lengthAdjust="spacing" textLength="18" x="775" y="615.8477">14</text><text fill="#000000" font-family="sans-serif" font-size="13" lengthAdjust="spacing" textLength="156" x="797" y="615.8477">findCandidateById(email)</text><polygon fill="#181818" points="2907.5,645.9004,2917.5,649.9004,2907.5,653.9004,2911.5,649.9004" style="stroke:#181818;stroke-width:1.0;"/><line style="stroke:#181818;stroke-width:1.0;" x1="1455.5" x2="2913.5" y1="649.9004" y2="649.9004"/><text fill="#000000" font-family="sans-serif" font-size="13" font-weight="bold" lengthAdjust="spacing" textLength="18" x="1462.5" y="645.1582">15</text><text fill="#000000" font-family="sans-serif" font-size="13" lengthAdjust="spacing" textLength="178" x="1484.5" y="645.1582">findCandidateByEmail(email)</text><path d="M10,664.9004 L72,664.9004 L72,672.2109 L62,682.2109 L10,682.2109 L10,664.9004 " fill="#EEEEEE" style="stroke:#000000;stroke-width:1.5;"/><rect fill="none" height="325.3711" style="stroke:#000000;stroke-width:1.5;" width="3005" x="10" y="664.9004"/><text fill="#000000" font-family="sans-serif" font-size="13" font-weight="bold" lengthAdjust="spacing" textLength="17" x="25" y="678.4688">alt</text><text fill="#000000" font-family="sans-serif" font-size="11" font-weight="bold" lengthAdjust="spacing" textLength="153" x="87" y="677.5352">["Candidate is not created"]</text><polygon fill="#181818" points="1466.5,699.5215,1456.5,703.5215,1466.5,707.5215,1462.5,703.5215" style="stroke:#181818;stroke-width:1.0;"/><line style="stroke:#181818;stroke-width:1.0;stroke-dasharray:2.0,2.0;" x1="1460.5" x2="2923.5" y1="703.5215" y2="703.5215"/><text fill="#000000" font-family="sans-serif" font-size="13" font-weight="bold" lengthAdjust="spacing" textLength="18" x="1472.5" y="698.7793">16</text><text fill="#000000" font-family="sans-serif" font-size="13" lengthAdjust="spacing" textLength="88" x="1494.5" y="698.7793">returns empty</text><polygon fill="#181818" points="779,728.832,769,732.832,779,736.832,775,732.832" style="stroke:#181818;stroke-width:1.0;"/><line style="stroke:#181818;stroke-width:1.0;stroke-dasharray:2.0,2.0;" x1="773" x2="1449.5" y1="732.832" y2="732.832"/><text fill="#000000" font-family="sans-serif" font-size="13" font-weight="bold" lengthAdjust="spacing" textLength="18" x="785" y="728.0898">17</text><text fill="#000000" font-family="sans-serif" font-size="13" lengthAdjust="spacing" textLength="88" x="807" y="728.0898">returns empty</text><polygon fill="#181818" points="478,758.1426,468,762.1426,478,766.1426,474,762.1426" style="stroke:#181818;stroke-width:1.0;"/><line style="stroke:#181818;stroke-width:1.0;stroke-dasharray:2.0,2.0;" x1="472" x2="757" y1="762.1426" y2="762.1426"/><text fill="#000000" font-family="sans-serif" font-size="13" font-weight="bold" lengthAdjust="spacing" textLength="18" x="484" y="757.4004">18</text><text fill="#000000" font-family="sans-serif" font-size="13" lengthAdjust="spacing" textLength="225" x="506" y="757.4004">"Informs creation of new candidate"</text><polygon fill="#181818" points="70,787.4531,60,791.4531,70,795.4531,66,791.4531" style="stroke:#181818;stroke-width:1.0;"/><line style="stroke:#181818;stroke-width:1.0;stroke-dasharray:2.0,2.0;" x1="64" x2="456" y1="791.4531" y2="791.4531"/><text fill="#000000" font-family="sans-serif" font-size="13" font-weight="bold" lengthAdjust="spacing" textLength="18" x="76" y="786.7109">19</text><text fill="#000000" font-family="sans-serif" font-size="13" lengthAdjust="spacing" textLength="225" x="98" y="786.7109">"Informs creation of new candidate"</text><polygon fill="#181818" points="1159,816.7637,1169,820.7637,1159,824.7637,1163,820.7637" style="stroke:#181818;stroke-width:1.0;"/><line style="stroke:#181818;stroke-width:1.0;" x1="768" x2="1165" y1="820.7637" y2="820.7637"/><text fill="#000000" font-family="sans-serif" font-size="13" font-weight="bold" lengthAdjust="spacing" textLength="18" x="775" y="816.0215">20</text><text fill="#000000" font-family="sans-serif" font-size="13" lengthAdjust="spacing" textLength="362" x="797" y="816.0215">addCandidate(email, firstName, lastName, phoneNumber)</text><polygon fill="#181818" points="779,846.0742,769,850.0742,779,854.0742,775,850.0742" style="stroke:#181818;stroke-width:1.0;"/><line style="stroke:#181818;stroke-width:1.0;stroke-dasharray:2.0,2.0;" x1="773" x2="1175" y1="850.0742" y2="850.0742"/><text fill="#000000" font-family="sans-serif" font-size="13" font-weight="bold" lengthAdjust="spacing" textLength="18" x="785" y="845.332">21</text><text fill="#000000" font-family="sans-serif" font-size="13" lengthAdjust="spacing" textLength="110" x="807" y="845.332">returns candidate</text><polygon fill="#181818" points="478,875.3848,468,879.3848,478,883.3848,474,879.3848" style="stroke:#181818;stroke-width:1.0;"/><line style="stroke:#181818;stroke-width:1.0;stroke-dasharray:2.0,2.0;" x1="472" x2="757" y1="879.3848" y2="879.3848"/><text fill="#000000" font-family="sans-serif" font-size="13" font-weight="bold" lengthAdjust="spacing" textLength="18" x="484" y="874.6426">22</text><text fill="#000000" font-family="sans-serif" font-size="13" lengthAdjust="spacing" textLength="183" x="506" y="874.6426">"Candidate has been created"</text><polygon fill="#181818" points="70,904.6953,60,908.6953,70,912.6953,66,908.6953" style="stroke:#181818;stroke-width:1.0;"/><line style="stroke:#181818;stroke-width:1.0;stroke-dasharray:2.0,2.0;" x1="64" x2="456" y1="908.6953" y2="908.6953"/><text fill="#000000" font-family="sans-serif" font-size="13" font-weight="bold" lengthAdjust="spacing" textLength="18" x="76" y="903.9531">23</text><text fill="#000000" font-family="sans-serif" font-size="13" lengthAdjust="spacing" textLength="183" x="98" y="903.9531">"Candidate has been created"</text><line style="stroke:#000000;stroke-width:1.0;stroke-dasharray:2.0,2.0;" x1="10" x2="3015" y1="917.6953" y2="917.6953"/><text fill="#000000" font-family="sans-serif" font-size="11" font-weight="bold" lengthAdjust="spacing" textLength="131" x="15" y="928.3301">["Candidate is created"]</text><polygon fill="#181818" points="1466.5,948.9609,1456.5,952.9609,1466.5,956.9609,1462.5,952.9609" style="stroke:#181818;stroke-width:1.0;"/><line style="stroke:#181818;stroke-width:1.0;stroke-dasharray:2.0,2.0;" x1="1460.5" x2="2923.5" y1="952.9609" y2="952.9609"/><text fill="#000000" font-family="sans-serif" font-size="13" font-weight="bold" lengthAdjust="spacing" textLength="18" x="1472.5" y="948.2188">24</text><text fill="#000000" font-family="sans-serif" font-size="13" lengthAdjust="spacing" textLength="110" x="1494.5" y="948.2188">returns candidate</text><polygon fill="#181818" points="779,978.2715,769,982.2715,779,986.2715,775,982.2715" style="stroke:#181818;stroke-width:1.0;"/><line style="stroke:#181818;stroke-width:1.0;stroke-dasharray:2.0,2.0;" x1="773" x2="1449.5" y1="982.2715" y2="982.2715"/><text fill="#000000" font-family="sans-serif" font-size="13" font-weight="bold" lengthAdjust="spacing" textLength="18" x="785" y="977.5293">25</text><text fill="#000000" font-family="sans-serif" font-size="13" lengthAdjust="spacing" textLength="110" x="807" y="977.5293">returns candidate</text><polygon fill="#181818" points="1950,1014.582,1960,1018.582,1950,1022.582,1954,1018.582" style="stroke:#181818;stroke-width:1.0;"/><line style="stroke:#181818;stroke-width:1.0;" x1="768" x2="1956" y1="1018.582" y2="1018.582"/><text fill="#000000" font-family="sans-serif" font-size="13" font-weight="bold" lengthAdjust="spacing" textLength="18" x="775" y="1013.8398">26</text><text fill="#000000" font-family="sans-serif" font-size="13" lengthAdjust="spacing" textLength="1153" x="797" y="1013.8398">JobApplicationBuilder().withJobApplicationId(jobApplicationId).withJobOpening(jobOpening).withCandidate(candidate).withCv(cv).withScreeningResult(ScreeningResult.WAITING).build();</text><polygon fill="#181818" points="2377,1043.8926,2387,1047.8926,2377,1051.8926,2381,1047.8926" style="stroke:#181818;stroke-width:1.0;"/><line style="stroke:#181818;stroke-width:1.0;" x1="1972" x2="2383" y1="1047.8926" y2="1047.8926"/><text fill="#000000" font-family="sans-serif" font-size="13" font-weight="bold" lengthAdjust="spacing" textLength="18" x="1979" y="1043.1504">27</text><text fill="#000000" font-family="sans-serif" font-size="13" lengthAdjust="spacing" textLength="376" x="2001" y="1043.1504">JobApplication(jobApplicationId, jobOpening, candidate, cv)</text><polygon fill="#181818" points="1983,1073.2031,1973,1077.2031,1983,1081.2031,1979,1077.2031" style="stroke:#181818;stroke-width:1.0;"/><line style="stroke:#181818;stroke-width:1.0;stroke-dasharray:2.0,2.0;" x1="1977" x2="2393" y1="1077.2031" y2="1077.2031"/><text fill="#000000" font-family="sans-serif" font-size="13" font-weight="bold" lengthAdjust="spacing" textLength="18" x="1989" y="1072.4609">28</text><text fill="#000000" font-family="sans-serif" font-size="13" lengthAdjust="spacing" textLength="141" x="2011" y="1072.4609">returns jobApplication</text><polygon fill="#181818" points="779,1102.5137,769,1106.5137,779,1110.5137,775,1106.5137" style="stroke:#181818;stroke-width:1.0;"/><line style="stroke:#181818;stroke-width:1.0;stroke-dasharray:2.0,2.0;" x1="773" x2="1966" y1="1106.5137" y2="1106.5137"/><text fill="#000000" font-family="sans-serif" font-size="13" font-weight="bold" lengthAdjust="spacing" textLength="18" x="785" y="1101.7715">29</text><text fill="#000000" font-family="sans-serif" font-size="13" lengthAdjust="spacing" textLength="141" x="807" y="1101.7715">returns jobApplication</text><polygon fill="#181818" points="2539.5,1131.8242,2549.5,1135.8242,2539.5,1139.8242,2543.5,1135.8242" style="stroke:#181818;stroke-width:1.0;"/><line style="stroke:#181818;stroke-width:1.0;" x1="768" x2="2545.5" y1="1135.8242" y2="1135.8242"/><text fill="#000000" font-family="sans-serif" font-size="13" font-weight="bold" lengthAdjust="spacing" textLength="18" x="775" y="1131.082">30</text><text fill="#000000" font-family="sans-serif" font-size="13" lengthAdjust="spacing" textLength="128" x="797" y="1131.082">save(jobApplication)</text><polygon fill="#181818" points="779,1161.1348,769,1165.1348,779,1169.1348,775,1165.1348" style="stroke:#181818;stroke-width:1.0;"/><line style="stroke:#181818;stroke-width:1.0;stroke-dasharray:2.0,2.0;" x1="773" x2="2555.5" y1="1165.1348" y2="1165.1348"/><text fill="#000000" font-family="sans-serif" font-size="13" font-weight="bold" lengthAdjust="spacing" textLength="18" x="785" y="1160.3926">31</text><text fill="#000000" font-family="sans-serif" font-size="13" lengthAdjust="spacing" textLength="141" x="807" y="1160.3926">returns jobApplication</text><polygon fill="#181818" points="478,1190.4453,468,1194.4453,478,1198.4453,474,1194.4453" style="stroke:#181818;stroke-width:1.0;"/><line style="stroke:#181818;stroke-width:1.0;stroke-dasharray:2.0,2.0;" x1="472" x2="762" y1="1194.4453" y2="1194.4453"/><text fill="#000000" font-family="sans-serif" font-size="13" font-weight="bold" lengthAdjust="spacing" textLength="18" x="484" y="1189.7031">32</text><text fill="#000000" font-family="sans-serif" font-size="13" lengthAdjust="spacing" textLength="167" x="506" y="1189.7031">informs operation success</text><polygon fill="#181818" points="65,1219.7559,55,1223.7559,65,1227.7559,61,1223.7559" style="stroke:#181818;stroke-width:1.0;"/><line style="stroke:#181818;stroke-width:1.0;stroke-dasharray:2.0,2.0;" x1="59" x2="461" y1="1223.7559" y2="1223.7559"/><text fill="#000000" font-family="sans-serif" font-size="13" font-weight="bold" lengthAdjust="spacing" textLength="18" x="71" y="1219.0137">33</text><text fill="#000000" font-family="sans-serif" font-size="13" lengthAdjust="spacing" textLength="167" x="93" y="1219.0137">informs operation success</text><!--SRC=[dLPTRzem57tthx1u2X9KLHzPLQd9kWaqoaIRxjaabs8MxCmsLFpxtJZ1SJwWR4yauPpxSUxnJTZUIB7VhK0Hmqq64ng_qBlRspiwfajuvzg0eepEvEenppEUCCEb88GbHYewMEIW65uDADDqGNAc34zupeIXWybZcZPfyTJYuYczlyyLQ136Fdzu-8mPIM6Kp38eCqMlonyOWzM0lX2n1jKYnbSmCVCBg0DFm5As6l6wVD315YdcJB1ts64pFYsUdwSrUmltF4kh-a8afNB7kBZCiU3PMV2aYLv2BZN7CHqjR_dqCqQgSa_xw3XPmSLxbpgxJ8sOI7dA37IPKPjPk8WV48lM8GiwVYYiCK7qRqsDf7oNIsNGV08-w5Qkg3UrcXfF2RB6I5uWLy6VFMYZAPR0Q92SglcAjzzu1YCQlHM_GvA27y9BRuuvw5CW6wUJh48gO6daP-Zc6vAAO8s7lRMTtQHWUOUIvb8MH6BP60NDEA5hBj9wGk5n2MjG8188K2HtuuNOQe94fDln_KU0WeVJoaeVqef8kQP26fgW3WRI0R7XnwSo5PYz4fh2BZT7NsuRhIYebkKi5ailUpzfpiLQgfssVf2zTVXqAvvdZy_P5CTH2CJr1bsGAvc0rWGo3PtUNT_DplfLs3gzErAqvzILnICtMsig1LWw3eauk-0IAgVjN1eUfsa0k3CoRxpnd22oz4VKPJmLy0wfm5QUSDW-HqJbxEQVE2Ao9LpX22oswOZ1j1ggpOf7YigrNHdkP0ry2rm3T_hLfzRrM0enGf6KDiziXoibOwUhV2C5FDlNgQzlQKDNTgj5bxZHfdVkNQUrq1jSgIi0KKljjtW9LrgvCR9U8qTdXjTRhSMt_NHjf_EkSKCazRubW-7D1pURvdzewMthWODLvoQeZr3vLprFLrJrno583kNb2mfJlGNrFZD1w_xcr-FqTVhyVNYpAeeBXbzg2K8I5dtCEdrqAXrvftjKAuIN1yz2CrBkbB2v5VnlCa_IMP6zTusS8OHEUVjnCA6Q7Q1LQlFinyGY_ocBfVMlSsa_98lJgFU9NRdTBTvUuXSvnJlTlr-Glm00]--></g></svg>